<svg id="Layer_1" data-name="Layer 1" xmlns="http://www.w3.org/2000/svg" xmlns:xlink="http://www.w3.org/1999/xlink" viewBox="0 0 356.6 92.31"><defs><style>.cls-1{fill:none;}.cls-2{fill:#003781;}.cls-3{clip-path:url(#clip-path);}</style><clipPath id="clip-path" transform="translate(-77.7 -209.84)"><rect class="cls-1" x="77.7" y="209.84" width="356.6" height="92.31"/></clipPath></defs><title>allianz-logo</title><g id="Allianz"><path id="A" class="cls-2" d="M110,259.64H96.9l6.94-22.59Zm-19.2,22.83,4.08-13.77H111.6l4.08,13.77h13.89l-14.71-52.24c-.82-3.43-2.45-4.53-6.13-4.53H88.32v4.7H90c2.45,0,3.68.78,3.68,2.66,0,1.18,0,2-1.23,4.78L77.7,282.48" transform="translate(-77.7 -209.84)"/><path id="l" class="cls-2" d="M147.14,282.48V229.86c0-2.74-1.63-4.17-4.49-4.17H130v4.7h.82c2.45,0,3.68,1,3.68,3.23v48.85" transform="translate(-77.7 -209.84)"/><path id="l1" class="cls-2" d="M170,282.48V229.86c0-2.74-1.63-4.17-4.49-4.17H152.86v4.7h.82c2.45,0,3.68,1,3.68,3.23v48.85" transform="translate(-77.7 -209.84)"/><path id="i" class="cls-2" d="M193.3,230.72c0-3.76-2.86-6-7.35-6-4.9,0-7.35,2.21-7.35,6s2.45,6.09,7.35,6.09c4.49,0,7.35-2.25,7.35-6.09m-.41,51.75V244.16A3.85,3.85,0,0,0,188.8,240H176.14v4.62H177c2.45,0,3.27,1,3.27,3.35v34.56" transform="translate(-77.7 -209.84)"/><path id="a-2" data-name="a" class="cls-2" d="M223.12,261.85v8.5c-2.45,2.45-5.31,3.84-7.76,3.84s-3.68-1.18-3.68-4.37c0-3.51.82-4.86,3.68-6a32.63,32.63,0,0,1,7.76-2m-18-10.17,1.23-.49a36.25,36.25,0,0,1,7.76-2.25,35.65,35.65,0,0,1,3.68-.33c4.08,0,5.31,1.35,5.31,5.11v1.06c-5.72.94-7.35,1.27-10.62,2a32.92,32.92,0,0,0-4.9,1.63c-5.31,2.12-7.76,6.21-7.76,12.62,0,8,3.27,11.89,10.62,11.89a14.8,14.8,0,0,0,7.76-2,16.41,16.41,0,0,0,5.31-3.68v1.31c0,2.66,1.23,3.92,3.68,3.92h12.25V278.1H239q-3.68,0-3.68-3.31V253.92c0-10.87-3.68-14.54-14.3-14.54a43.18,43.18,0,0,0-10.21,1.18,30.46,30.46,0,0,0-8.58,3.27" transform="translate(-77.7 -209.84)"/><path id="n" class="cls-2" d="M258.65,282.48V253.64c2.86-2.66,4.9-3.68,7.76-3.68s3.68,1.23,3.68,5.56v27h12.66v-29c0-6-.82-8.54-2.45-10.78-2-2.21-4.49-3.23-8.17-3.23-4.9,0-8.58,1.8-14.3,6.74v-2.29c0-2.66-1.23-4-3.68-4H241.91v4.62h.41c2.45,0,3.68,1,3.68,3.35v34.56" transform="translate(-77.7 -209.84)"/><g id="z"><path class="cls-2" d="M322,274.34H303.18l18-25.65v-8.74h-27c-3.27,0-4.49,1.31-4.49,4.45v7.72h4.49v-.86c0-2.33,1.23-3.27,3.68-3.27h9.8l-18.38,25.65v8.82H322" transform="translate(-77.7 -209.84)"/></g><g id="Eagle"><g class="cls-3"><path id="path37647" class="cls-2" d="M394.27,280.14V232c0-3.88-1.63-5.15-5.31-5.15h-11v5.31h1.23c2,0,2.86.78,2.86,3.15v44.81Zm6.54,0h11.85V243.83c0-3.68-1.63-5.15-5.31-5.15H400.8Zm-25.33,0V238.68h-6.54c-3.68,0-5.31,1.47-5.31,5.15v36.31ZM426.54,256c0,22.51-16.34,38.93-38.4,38.93s-38.4-16.42-38.4-38.93S366.08,217,388.14,217s38.4,16.42,38.4,38.93m7.76,0c0-26.35-19.61-46.12-46.16-46.12C362,209.84,342,229.61,342,256s20,46.2,46.16,46.2c26.55,0,46.16-19.77,46.16-46.2" transform="translate(-77.7 -209.84)"/></g></g></g></svg>