<?xml version="1.0" encoding="iso-8859-1"?>
<!-- Generator: Adobe Illustrator 27.0.0, SVG Export Plug-In . SVG Version: 6.00 Build 0)  -->
<svg version="1.1" id="Layer_1" xmlns="http://www.w3.org/2000/svg" xmlns:xlink="http://www.w3.org/1999/xlink" x="0px" y="0px"
	 viewBox="0 0 500 500" style="enable-background:new 0 0 500 500;" xml:space="preserve">
<g id="watermark_1_">
	<g>
		<g id="watermark" style="opacity:0.61;">
			<g>
				<g>
					<g>
						<g>
							<polygon style="fill:#FFFFFF;" points="213.765,461.172 208.204,474.017 205.268,474.017 199.726,461.172 202.938,461.172 
								206.846,470.347 210.81,461.172 							"/>
						</g>
						<g>
							<path style="fill:#FFFFFF;" d="M223.507,469.741h-7.469c0.275,1.23,1.321,1.982,2.826,1.982c1.046,0,1.798-0.312,2.477-0.954
								l1.523,1.651c-0.917,1.046-2.294,1.597-4.074,1.597c-3.413,0-5.634-2.147-5.634-5.083c0-2.954,2.257-5.083,5.267-5.083
								c2.899,0,5.138,1.945,5.138,5.12C223.562,469.191,223.526,469.503,223.507,469.741 M216.002,468.071h4.863
								c-0.202-1.248-1.138-2.055-2.422-2.055C217.139,466.016,216.204,466.805,216.002,468.071"/>
						</g>
						<g>
							<path style="fill:#FFFFFF;" d="M224.735,468.934c0-2.973,2.294-5.083,5.505-5.083c2.074,0,3.707,0.899,4.423,2.514
								l-2.22,1.193c-0.532-0.936-1.321-1.358-2.221-1.358c-1.45,0-2.587,1.009-2.587,2.734c0,1.725,1.138,2.734,2.587,2.734
								c0.899,0,1.688-0.404,2.221-1.358l2.22,1.211c-0.716,1.578-2.349,2.495-4.423,2.495
								C227.029,474.017,224.735,471.907,224.735,468.934"/>
						</g>
						<g>
							<path style="fill:#FFFFFF;" d="M242.828,473.393c-0.587,0.422-1.45,0.624-2.331,0.624c-2.33,0-3.688-1.193-3.688-3.542
								v-4.055h-1.523v-2.202h1.523v-2.404h2.863v2.404h2.459v2.202h-2.459v4.019c0,0.844,0.458,1.303,1.229,1.303
								c0.422,0,0.844-0.128,1.156-0.367L242.828,473.393z"/>
						</g>
					</g>
					<g>
						<path style="fill:#FFFFFF;" d="M262.474,463.997v2.643c-0.238-0.018-0.422-0.037-0.642-0.037
							c-1.578,0-2.624,0.862-2.624,2.753v4.661h-2.863v-9.873h2.734v1.303C259.776,464.493,260.951,463.997,262.474,463.997"/>
					</g>
					<g>
						<path style="fill:#FFFFFF;" d="M263.299,472.53l1.009-2.239c1.083,0.789,2.697,1.339,4.239,1.339
							c1.762,0,2.477-0.587,2.477-1.376c0-2.404-7.469-0.752-7.469-5.524c0-2.184,1.762-4,5.413-4c1.615,0,3.267,0.385,4.459,1.138
							l-0.918,2.257c-1.193-0.679-2.422-1.009-3.56-1.009c-1.761,0-2.44,0.66-2.44,1.468c0,2.367,7.468,0.734,7.468,5.45
							c0,2.147-1.78,3.982-5.45,3.982C266.492,474.017,264.437,473.411,263.299,472.53"/>
					</g>
					<g>
						<path style="fill:#FFFFFF;" d="M285.428,469.741h-7.469c0.275,1.23,1.321,1.982,2.826,1.982c1.046,0,1.798-0.312,2.477-0.954
							l1.523,1.651c-0.918,1.046-2.294,1.597-4.074,1.597c-3.413,0-5.634-2.147-5.634-5.083c0-2.954,2.257-5.083,5.267-5.083
							c2.9,0,5.138,1.945,5.138,5.12C285.484,469.191,285.447,469.503,285.428,469.741 M277.923,468.071h4.863
							c-0.202-1.248-1.138-2.055-2.422-2.055C279.061,466.016,278.125,466.805,277.923,468.071"/>
					</g>
					<g>
						<path style="fill:#FFFFFF;" d="M297.007,469.741h-7.469c0.275,1.23,1.321,1.982,2.826,1.982c1.046,0,1.798-0.312,2.477-0.954
							l1.523,1.651c-0.918,1.046-2.294,1.597-4.074,1.597c-3.413,0-5.634-2.147-5.634-5.083c0-2.954,2.257-5.083,5.267-5.083
							c2.899,0,5.138,1.945,5.138,5.12C297.062,469.191,297.025,469.503,297.007,469.741 M289.501,468.071h4.863
							c-0.202-1.248-1.138-2.055-2.422-2.055C290.639,466.016,289.703,466.805,289.501,468.071"/>
					</g>
					<g>
						<polygon style="fill:#FFFFFF;" points="303.208,470.145 301.831,471.503 301.831,474.017 298.969,474.017 298.969,460.401 
							301.831,460.401 301.831,468.108 306.016,464.144 309.429,464.144 305.318,468.328 309.796,474.017 306.327,474.017 						"/>
					</g>
					<g>
						<path style="fill:#FFFFFF;" d="M256.601,475.359L256.601,475.359l-2.86-2.86c-0.435,0.508-0.953,0.943-1.534,1.284
							c-0.092,0.069-0.186,0.136-0.283,0.199l3.027,3.027c0.456,0.456,1.195,0.456,1.65,0
							C257.057,476.554,257.057,475.815,256.601,475.359"/>
					</g>
					<g>
						<path style="fill:#FFFFFF;" d="M249.984,463.244c0.221-0.173,0.495-0.281,0.797-0.281c0.042,0,0.083,0.002,0.124,0.006
							c-0.214-0.156-0.478-0.249-0.764-0.249c-0.395,0-0.744,0.18-0.981,0.458c-0.051,0-0.1,0.006-0.151,0.008
							c0.039-0.077,0.064-0.162,0.064-0.255c0-0.234-0.143-0.434-0.346-0.519c0.087,0.126,0.138,0.279,0.138,0.445
							c0,0.122-0.031,0.237-0.081,0.341c-2.811,0.201-5.03,2.539-5.03,5.4c0,2.993,2.426,5.42,5.42,5.42
							c2.993,0,5.42-2.426,5.42-5.42C254.595,465.879,252.593,463.635,249.984,463.244 M247.983,464.656
							c0.435,0,0.844,0.112,1.199,0.309c0.374-0.245,0.82-0.387,1.299-0.387c0.711,0,1.348,0.312,1.784,0.806
							c-0.435-0.379-1.004-0.61-1.627-0.61c-0.449,0-0.87,0.12-1.234,0.329c-0.079,0.046-0.156,0.096-0.229,0.15
							c-0.065-0.048-0.133-0.093-0.204-0.134c-0.369-0.219-0.8-0.344-1.26-0.344c-0.3,0-0.588,0.054-0.854,0.152
							C247.196,464.754,247.578,464.656,247.983,464.656 M251.772,469.098c0.115,0.305,0.181,0.634,0.181,0.979
							c0,1.534-1.244,2.777-2.778,2.777c-1.534,0-2.777-1.243-2.777-2.777c0-0.345,0.066-0.674,0.181-0.979
							c-0.62-0.382-1.035-1.064-1.035-1.846c0-1.197,0.971-2.168,2.168-2.168c0.565,0,1.078,0.218,1.463,0.572
							c0.386-0.354,0.899-0.572,1.464-0.572c1.197,0,2.168,0.971,2.168,2.168C252.807,468.034,252.392,468.716,251.772,469.098"/>
					</g>
					<g>
						<path style="fill:#FFFFFF;" d="M251.666,467.061c0,0.497-0.404,0.901-0.901,0.901c-0.497,0-0.901-0.404-0.901-0.901
							s0.404-0.901,0.901-0.901c0.101,0,0.197,0.017,0.287,0.047c-0.03,0.062-0.045,0.132-0.045,0.204
							c0,0.273,0.221,0.494,0.494,0.494c0.05,0,0.099-0.008,0.146-0.022C251.66,466.941,251.666,467,251.666,467.061"/>
					</g>
					<g>
						<path style="fill:#FFFFFF;" d="M248.255,467.061c0,0.376-0.305,0.681-0.681,0.681c-0.376,0-0.681-0.305-0.681-0.681
							s0.305-0.681,0.681-0.681c0.076,0,0.149,0.013,0.217,0.035c-0.023,0.047-0.034,0.1-0.034,0.155
							c0,0.206,0.167,0.374,0.374,0.374c0.038,0,0.075-0.006,0.11-0.017C248.25,466.97,248.255,467.015,248.255,467.061"/>
					</g>
					<g>
						<g>
							<g>
								<rect x="242.908" y="467.83" style="fill:#FFFFFF;" width="0.616" height="0.616"/>
							</g>
							<g>
								<rect x="254.827" y="467.83" style="fill:#FFFFFF;" width="0.616" height="0.616"/>
							</g>
							<g>
								<path style="fill:#FFFFFF;" d="M255.205,468.082h-0.14c0-3.248-2.642-5.89-5.89-5.89c-3.248,0-5.89,2.642-5.89,5.89h-0.14
									c0-1.611,0.627-3.125,1.766-4.264c1.139-1.139,2.653-1.766,4.264-1.766c1.611,0,3.125,0.627,4.264,1.766
									C254.578,464.957,255.205,466.471,255.205,468.082"/>
							</g>
						</g>
						<g>
							<rect x="248.868" y="461.814" style="fill:#FFFFFF;" width="0.616" height="0.616"/>
						</g>
						<g>
							<rect x="244.95" y="462.052" style="fill:#FFFFFF;" width="8.45" height="0.14"/>
						</g>
						<g>
							<path style="fill:#FFFFFF;" d="M245.174,462.15c0,0.108-0.088,0.196-0.196,0.196c-0.108,0-0.196-0.088-0.196-0.196
								c0-0.108,0.088-0.196,0.196-0.196C245.086,461.954,245.174,462.042,245.174,462.15"/>
						</g>
						<g>
							<path style="fill:#FFFFFF;" d="M253.596,462.15c0,0.108-0.088,0.196-0.196,0.196c-0.108,0-0.196-0.088-0.196-0.196
								c0-0.108,0.088-0.196,0.196-0.196C253.509,461.954,253.596,462.042,253.596,462.15"/>
						</g>
					</g>
				</g>
				<g>
					<path style="fill:#FFFFFF;" d="M314.356,473.409c0,1.559-2.364,1.559-2.364,0C311.993,471.851,314.356,471.851,314.356,473.409
						z"/>
				</g>
				<g>
					<g>
						<g>
							<path style="fill:#FFFFFF;" d="M161.739,466.549l1.772,6.088l1.855-6.088h2.215l-2.823,8.14h-2.33l-0.837-2.396l-0.722-2.708
								l-0.722,2.708l-0.837,2.396h-2.33l-2.839-8.14h2.231l1.855,6.088l1.756-6.088H161.739z"/>
						</g>
						<g>
							<path style="fill:#FFFFFF;" d="M176.713,466.549l1.772,6.088l1.855-6.088h2.215l-2.823,8.14h-2.33l-0.837-2.396l-0.722-2.708
								l-0.722,2.708l-0.837,2.396h-2.33l-2.839-8.14h2.231l1.855,6.088l1.756-6.088H176.713z"/>
						</g>
						<g>
							<path style="fill:#FFFFFF;" d="M191.687,466.549l1.772,6.088l1.855-6.088h2.215l-2.823,8.14h-2.33l-0.837-2.396l-0.722-2.708
								l-0.722,2.708l-0.837,2.396h-2.33l-2.839-8.14h2.231l1.855,6.088l1.756-6.088H191.687z"/>
						</g>
					</g>
					<g>
						<path style="fill:#FFFFFF;" d="M200.908,473.52c0,1.559-2.364,1.559-2.364,0C198.545,471.962,200.908,471.962,200.908,473.52z
							"/>
					</g>
					<g>
						<path style="fill:#FFFFFF;" d="M322.71,473.409c-0.935,0.919-1.919,1.28-3.117,1.28c-2.346,0-4.3-1.411-4.3-4.282
							s1.953-4.284,4.3-4.284c1.149,0,2.035,0.329,2.921,1.199l-1.264,1.329c-0.476-0.428-1.066-0.64-1.623-0.64
							c-1.346,0-2.33,0.985-2.33,2.396c0,1.542,1.05,2.362,2.297,2.362c0.64,0,1.28-0.18,1.772-0.672L322.71,473.409z"/>
					</g>
					<g>
						<path style="fill:#FFFFFF;" d="M331.805,470.472c0,2.33-1.591,4.217-4.217,4.217c-2.626,0-4.201-1.887-4.201-4.217
							c0-2.314,1.609-4.217,4.185-4.217C330.149,466.255,331.805,468.158,331.805,470.472z M325.389,470.472
							c0,1.231,0.739,2.38,2.199,2.38c1.46,0,2.199-1.149,2.199-2.38c0-1.215-0.854-2.396-2.199-2.396
							C326.144,468.077,325.389,469.258,325.389,470.472z"/>
					</g>
					<g>
						<path style="fill:#FFFFFF;" d="M338.572,474.689v-4.332c0-1.068-0.559-2.035-1.658-2.035c-1.082,0-1.722,0.967-1.722,2.035
							v4.332h-2.003v-8.107h1.855l0.148,0.985c0.426-0.82,1.362-1.116,2.133-1.116c0.969,0,1.937,0.394,2.396,1.51
							c0.723-1.149,1.658-1.478,2.708-1.478c2.297,0,3.43,1.412,3.43,3.84v4.365h-2.003v-4.365c0-1.066-0.442-1.97-1.526-1.97
							c-1.082,0-1.756,0.935-1.756,2.003v4.332H338.572z"/>
					</g>
				</g>
			</g>
		</g>
		<g style="opacity:0.61;">
			<g>
				<g>
					<path style="fill:#FFFFFF;" d="M345.988,431.299c-0.006-1.224-0.959-2.121-2.189-2.14c-0.924-0.014-0.832,0.12-0.834-0.867
						c-0.003-1.097-0.007-2.194,0.003-3.292c0.003-0.379-0.112-0.691-0.362-0.976c-2.342-2.668-4.678-5.342-7.019-8.011
						c-0.12-0.137-0.275-0.244-0.414-0.366c-6.214,0-12.427,0-18.641,0c-0.794,0.293-1.14,0.868-1.138,1.709
						c0.01,3.748,0.004,7.496,0.004,11.243c0,0.556-0.003,0.589-0.55,0.551c-1.497-0.102-2.516,0.986-2.497,2.492
						c0.044,3.476,0.013,6.953,0.014,10.429c0.001,1.58,0.867,2.443,2.45,2.449c0.582,0.002,0.582,0.002,0.582,0.6
						c0,2.219-0.001,4.438,0.001,6.657c0.001,1.192,0.58,1.771,1.768,1.771c8.013,0.001,16.027,0.001,24.04,0
						c1.168,0,1.755-0.583,1.757-1.745c0.002-2.256,0-4.512,0.001-6.768c0-0.512,0.002-0.511,0.52-0.515
						c0.271-0.002,0.541,0.008,0.809-0.058c0.996-0.246,1.69-1.044,1.694-2.069C346.003,438.696,346.005,434.997,345.988,431.299z
						 M317.537,417.162c5.337,0,10.674,0,16.01,0c0.548,0,0.554,0.007,0.554,0.561c0.001,2.243-0.001,4.486,0.001,6.73
						c0.001,0.811,0.249,1.059,1.06,1.059c1.91,0.001,3.821,0,5.731,0.001c0.458,0,0.479,0.021,0.481,0.483
						c0.003,0.887,0.002,1.775,0,2.662c-0.001,0.477-0.024,0.498-0.504,0.499c-3.895,0.001-7.79,0-11.684,0
						c-3.882,0-7.765,0-11.647,0c-0.55,0-0.552-0.001-0.552-0.561c-0.001-3.624-0.001-7.247,0-10.871
						C316.987,417.166,316.991,417.162,317.537,417.162z M340.822,451.579c-3.883,0.001-7.766,0-11.65,0c-3.871,0-7.742,0-11.613,0
						c-0.572,0-0.574-0.002-0.574-0.579c-0.001-1.997-0.001-3.994,0.001-5.991c0-0.464,0.023-0.486,0.478-0.487
						c7.803-0.001,15.607-0.001,23.41,0c0.478,0,0.499,0.02,0.499,0.503c0.002,1.997,0.001,3.994,0,5.991
						C341.375,451.574,341.37,451.579,340.822,451.579z"/>
				</g>
				<g>
					<g>
						<rect x="327.418" y="417.053" style="fill:#FFFFFF;" width="1.757" height="1.054"/>
					</g>
					<g>
						<rect x="325.662" y="418.107" style="fill:#FFFFFF;" width="1.757" height="1.054"/>
					</g>
					<g>
						<rect x="327.418" y="419.161" style="fill:#FFFFFF;" width="1.757" height="1.054"/>
					</g>
					<g>
						<rect x="325.662" y="420.215" style="fill:#FFFFFF;" width="1.757" height="1.054"/>
					</g>
					<g>
						<rect x="327.418" y="421.269" style="fill:#FFFFFF;" width="1.757" height="1.054"/>
					</g>
					<g>
						<rect x="325.662" y="422.323" style="fill:#FFFFFF;" width="1.757" height="1.054"/>
					</g>
					<g>
						<rect x="327.418" y="423.378" style="fill:#FFFFFF;" width="1.757" height="1.054"/>
					</g>
					<g>
						<rect x="325.662" y="424.432" style="fill:#FFFFFF;" width="1.757" height="1.054"/>
					</g>
					<g>
						<rect x="327.418" y="425.486" style="fill:#FFFFFF;" width="1.757" height="1.054"/>
					</g>
					<g>
						<rect x="325.662" y="426.54" style="fill:#FFFFFF;" width="1.757" height="1.054"/>
					</g>
					<g>
						<rect x="327.418" y="427.594" style="fill:#FFFFFF;" width="1.757" height="1.054"/>
					</g>
					<g>
						<rect x="325.662" y="428.648" style="fill:#FFFFFF;" width="1.757" height="1.054"/>
					</g>
				</g>
			</g>
			<g>
				<path style="fill:#FFFFFF;" d="M187.637,431.299c-0.006-1.224-0.959-2.121-2.189-2.14c-0.924-0.014-0.832,0.12-0.834-0.867
					c-0.003-1.097-0.007-2.194,0.003-3.292c0.003-0.379-0.112-0.691-0.362-0.976c-2.342-2.668-4.678-5.342-7.019-8.011
					c-0.12-0.137-0.275-0.244-0.414-0.366c-6.214,0-12.427,0-18.641,0c-0.794,0.293-1.14,0.868-1.138,1.709
					c0.01,3.748,0.004,7.496,0.004,11.243c0,0.556-0.003,0.589-0.55,0.551c-1.497-0.102-2.516,0.986-2.497,2.492
					c0.044,3.476,0.013,6.953,0.014,10.429c0.001,1.58,0.867,2.443,2.45,2.449c0.582,0.002,0.582,0.002,0.582,0.6
					c0,2.219-0.001,4.438,0.001,6.657c0.001,1.192,0.58,1.771,1.768,1.771c8.013,0.001,16.027,0.001,24.04,0
					c1.168,0,1.755-0.583,1.757-1.745c0.002-2.256,0-4.512,0.001-6.768c0-0.512,0.002-0.511,0.52-0.515
					c0.271-0.002,0.541,0.008,0.809-0.058c0.996-0.246,1.69-1.044,1.694-2.069C187.652,438.696,187.655,434.997,187.637,431.299z
					 M159.187,417.162c5.337,0,10.674,0,16.01,0c0.548,0,0.554,0.007,0.554,0.561c0.001,2.243-0.001,4.486,0.001,6.73
					c0.001,0.811,0.249,1.059,1.06,1.059c1.91,0.001,3.821,0,5.731,0.001c0.458,0,0.479,0.021,0.481,0.483
					c0.003,0.887,0.002,1.775,0,2.662c-0.001,0.477-0.024,0.498-0.504,0.499c-3.895,0.001-7.79,0-11.684,0
					c-3.882,0-7.765,0-11.647,0c-0.55,0-0.552-0.001-0.552-0.561c-0.001-3.624-0.001-7.247,0-10.871
					C158.636,417.166,158.64,417.162,159.187,417.162z M182.472,451.579c-3.883,0.001-7.766,0-11.65,0c-3.871,0-7.742,0-11.613,0
					c-0.572,0-0.574-0.002-0.574-0.579c-0.001-1.997-0.001-3.994,0.001-5.991c0-0.464,0.023-0.486,0.478-0.487
					c7.803-0.001,15.607-0.001,23.41,0c0.478,0,0.499,0.02,0.499,0.503c0.002,1.997,0.001,3.994,0,5.991
					C183.024,451.574,183.019,451.579,182.472,451.579z"/>
			</g>
			<g>
				<path style="fill:#FFFFFF;" d="M159.779,440.669v-7.897h2.779c0.375,0,0.726,0.061,1.053,0.182
					c0.327,0.121,0.612,0.292,0.855,0.513c0.242,0.221,0.434,0.483,0.573,0.789c0.14,0.305,0.21,0.642,0.21,1.009
					c0,0.375-0.07,0.715-0.21,1.02c-0.14,0.305-0.331,0.568-0.573,0.789c-0.243,0.221-0.528,0.392-0.855,0.513
					c-0.327,0.121-0.678,0.182-1.053,0.182h-1.29v2.901H159.779z M162.58,436.356c0.39,0,0.684-0.111,0.882-0.331
					c0.199-0.22,0.298-0.474,0.298-0.761c0-0.14-0.024-0.276-0.072-0.408c-0.048-0.132-0.121-0.248-0.221-0.347
					c-0.099-0.099-0.223-0.178-0.37-0.237c-0.147-0.059-0.32-0.089-0.518-0.089h-1.312v2.173H162.58z"/>
				<path style="fill:#FFFFFF;" d="M166.308,432.771h1.731l3.177,5.294h0.088l-0.088-1.522v-3.772h1.478v7.897h-1.566l-3.353-5.592
					h-0.088l0.088,1.522v4.07h-1.467V432.771z"/>
				<path style="fill:#FFFFFF;" d="M177.922,436.334h3.872c0.022,0.089,0.04,0.195,0.055,0.32c0.014,0.125,0.022,0.25,0.022,0.375
					c0,0.507-0.077,0.985-0.231,1.434c-0.154,0.449-0.397,0.849-0.728,1.202c-0.353,0.375-0.776,0.666-1.268,0.871
					c-0.493,0.206-1.055,0.309-1.688,0.309c-0.574,0-1.114-0.103-1.622-0.309c-0.507-0.206-0.948-0.492-1.323-0.86
					c-0.375-0.367-0.673-0.803-0.894-1.307c-0.221-0.504-0.331-1.053-0.331-1.649c0-0.595,0.11-1.145,0.331-1.649
					c0.221-0.504,0.518-0.939,0.894-1.307c0.375-0.367,0.816-0.654,1.323-0.86c0.507-0.206,1.048-0.309,1.622-0.309
					c0.64,0,1.211,0.11,1.715,0.331c0.504,0.221,0.935,0.526,1.296,0.915l-1.025,1.004c-0.258-0.272-0.544-0.48-0.861-0.623
					c-0.316-0.143-0.695-0.215-1.136-0.215c-0.361,0-0.703,0.065-1.026,0.193c-0.324,0.129-0.607,0.311-0.85,0.546
					c-0.242,0.235-0.436,0.52-0.579,0.855c-0.143,0.335-0.215,0.708-0.215,1.119c0,0.412,0.072,0.785,0.215,1.12
					c0.143,0.335,0.338,0.62,0.584,0.855c0.246,0.235,0.531,0.418,0.855,0.546c0.323,0.129,0.669,0.193,1.037,0.193
					c0.419,0,0.773-0.061,1.064-0.182c0.29-0.121,0.538-0.278,0.744-0.469c0.148-0.132,0.275-0.3,0.381-0.502
					c0.106-0.202,0.189-0.428,0.248-0.678h-2.482V436.334z"/>
			</g>
			<g>
				<path style="fill:#FFFFFF;" d="M224.019,431.299c-0.006-1.224-0.959-2.121-2.189-2.14c-0.924-0.014-0.832,0.12-0.834-0.867
					c-0.003-1.097-0.007-2.194,0.003-3.292c0.003-0.379-0.112-0.691-0.362-0.976c-2.342-2.668-4.678-5.342-7.019-8.011
					c-0.12-0.137-0.275-0.244-0.414-0.366c-6.214,0-12.427,0-18.641,0c-0.794,0.293-1.14,0.868-1.138,1.709
					c0.01,3.748,0.004,7.496,0.004,11.243c0,0.556-0.003,0.589-0.55,0.551c-1.497-0.102-2.516,0.986-2.497,2.492
					c0.044,3.476,0.013,6.953,0.014,10.429c0.001,1.58,0.867,2.443,2.45,2.449c0.582,0.002,0.582,0.002,0.582,0.6
					c0,2.219-0.001,4.438,0.001,6.657c0.001,1.192,0.58,1.771,1.768,1.771c8.013,0.001,16.027,0.001,24.04,0
					c1.168,0,1.755-0.583,1.757-1.745c0.002-2.256,0-4.512,0.001-6.768c0-0.512,0.002-0.511,0.52-0.515
					c0.271-0.002,0.541,0.008,0.809-0.058c0.997-0.246,1.69-1.044,1.694-2.069C224.034,438.696,224.036,434.997,224.019,431.299z
					 M195.568,417.162c5.337,0,10.674,0,16.01,0c0.548,0,0.554,0.007,0.554,0.561c0.001,2.243-0.001,4.486,0.001,6.73
					c0.001,0.811,0.249,1.059,1.06,1.059c1.91,0.001,3.821,0,5.731,0.001c0.458,0,0.479,0.021,0.481,0.483
					c0.003,0.887,0.002,1.775,0,2.662c-0.001,0.477-0.024,0.498-0.504,0.499c-3.895,0.001-7.79,0-11.684,0
					c-3.882,0-7.765,0-11.647,0c-0.55,0-0.552-0.001-0.552-0.561c-0.001-3.624-0.001-7.247,0-10.871
					C195.018,417.166,195.022,417.162,195.568,417.162z M218.854,451.579c-3.883,0.001-7.766,0-11.65,0c-3.871,0-7.742,0-11.613,0
					c-0.572,0-0.574-0.002-0.574-0.579c-0.001-1.997-0.001-3.994,0.001-5.991c0-0.464,0.023-0.486,0.478-0.487
					c7.803-0.001,15.607-0.001,23.41,0c0.478,0,0.499,0.02,0.499,0.503c0.002,1.997,0.001,3.994,0,5.991
					C219.406,451.574,219.401,451.579,218.854,451.579z"/>
			</g>
			<g>
				<path style="fill:#FFFFFF;" d="M205.111,432.771h1.699l2.967,7.897h-1.644l-0.651-1.886h-3.044l-0.651,1.886h-1.643
					L205.111,432.771z M206.997,437.415l-0.706-1.974l-0.287-0.96h-0.088l-0.287,0.96l-0.706,1.974H206.997z"/>
				<path style="fill:#FFFFFF;" d="M211.331,434.536c-0.125,0-0.245-0.024-0.359-0.072c-0.114-0.048-0.213-0.114-0.298-0.199
					c-0.084-0.084-0.151-0.182-0.198-0.292c-0.048-0.11-0.072-0.232-0.072-0.364s0.024-0.254,0.072-0.364
					c0.048-0.11,0.114-0.208,0.198-0.292c0.084-0.084,0.184-0.151,0.298-0.198c0.114-0.048,0.233-0.072,0.359-0.072
					c0.257,0,0.478,0.09,0.662,0.27c0.184,0.181,0.276,0.399,0.276,0.656s-0.092,0.476-0.276,0.656
					C211.809,434.446,211.589,434.536,211.331,434.536z M210.615,440.669v-5.404h1.445v5.404H210.615z"/>
			</g>
			<g>
				<path style="fill:#FFFFFF;" d="M261.044,431.299c-0.006-1.224-0.959-2.121-2.189-2.14c-0.924-0.014-0.832,0.12-0.834-0.867
					c-0.003-1.097-0.007-2.194,0.003-3.292c0.003-0.379-0.112-0.691-0.362-0.976c-2.342-2.668-4.678-5.342-7.019-8.011
					c-0.12-0.137-0.275-0.244-0.414-0.366c-6.214,0-12.427,0-18.641,0c-0.794,0.293-1.14,0.868-1.138,1.709
					c0.01,3.748,0.004,7.496,0.004,11.243c0,0.556-0.003,0.589-0.55,0.551c-1.497-0.102-2.516,0.986-2.497,2.492
					c0.044,3.476,0.013,6.953,0.014,10.429c0.001,1.58,0.867,2.443,2.45,2.449c0.582,0.002,0.582,0.002,0.582,0.6
					c0,2.219-0.001,4.438,0.001,6.657c0.001,1.192,0.58,1.771,1.768,1.771c8.013,0.001,16.027,0.001,24.04,0
					c1.168,0,1.755-0.583,1.757-1.745c0.002-2.256,0-4.512,0.001-6.768c0-0.512,0.002-0.511,0.52-0.515
					c0.271-0.002,0.541,0.008,0.809-0.058c0.996-0.246,1.69-1.044,1.694-2.069C261.059,438.696,261.061,434.997,261.044,431.299z
					 M232.593,417.162c5.337,0,10.674,0,16.01,0c0.548,0,0.554,0.007,0.554,0.561c0.001,2.243-0.001,4.486,0.001,6.73
					c0.001,0.811,0.249,1.059,1.06,1.059c1.91,0.001,3.821,0,5.731,0.001c0.458,0,0.479,0.021,0.481,0.483
					c0.003,0.887,0.002,1.775,0,2.662c-0.001,0.477-0.024,0.498-0.504,0.499c-3.895,0.001-7.79,0-11.684,0
					c-3.882,0-7.765,0-11.647,0c-0.55,0-0.552-0.001-0.552-0.561c-0.001-3.624-0.001-7.247,0-10.871
					C232.042,417.166,232.047,417.162,232.593,417.162z M255.878,451.579c-3.883,0.001-7.766,0-11.65,0c-3.871,0-7.742,0-11.613,0
					c-0.572,0-0.574-0.002-0.574-0.579c-0.001-1.997-0.001-3.994,0.001-5.991c0-0.464,0.023-0.486,0.478-0.487
					c7.803-0.001,15.607-0.001,23.41,0c0.478,0,0.499,0.02,0.499,0.503c0.002,1.997,0.001,3.994,0,5.991
					C256.431,451.574,256.426,451.579,255.878,451.579z"/>
			</g>
			<g>
				<path style="fill:#FFFFFF;" d="M236.361,440.845c-0.338,0-0.662-0.048-0.971-0.143c-0.309-0.095-0.592-0.239-0.849-0.43
					c-0.257-0.191-0.481-0.425-0.673-0.7c-0.191-0.276-0.342-0.597-0.452-0.965l1.401-0.551c0.103,0.397,0.283,0.726,0.54,0.987
					c0.257,0.261,0.596,0.392,1.015,0.392c0.154,0,0.303-0.02,0.447-0.061c0.143-0.04,0.272-0.099,0.386-0.176
					s0.204-0.175,0.27-0.292c0.066-0.118,0.099-0.254,0.099-0.408c0-0.147-0.026-0.279-0.077-0.397
					c-0.051-0.117-0.138-0.227-0.259-0.331c-0.121-0.103-0.28-0.202-0.475-0.298c-0.195-0.095-0.435-0.195-0.722-0.298l-0.485-0.176
					c-0.213-0.073-0.429-0.173-0.645-0.298c-0.217-0.125-0.413-0.276-0.59-0.452c-0.177-0.176-0.322-0.384-0.436-0.623
					c-0.114-0.239-0.171-0.509-0.171-0.81c0-0.309,0.06-0.597,0.182-0.866c0.121-0.268,0.294-0.503,0.518-0.706
					c0.224-0.202,0.492-0.36,0.805-0.474s0.66-0.171,1.042-0.171c0.397,0,0.74,0.053,1.031,0.16
					c0.291,0.107,0.537,0.243,0.739,0.408c0.202,0.165,0.366,0.348,0.491,0.546c0.125,0.199,0.217,0.386,0.276,0.563l-1.312,0.551
					c-0.074-0.221-0.208-0.419-0.402-0.596c-0.195-0.176-0.462-0.265-0.8-0.265c-0.324,0-0.592,0.075-0.805,0.226
					c-0.213,0.151-0.32,0.348-0.32,0.59c0,0.235,0.103,0.436,0.309,0.601c0.206,0.165,0.533,0.325,0.982,0.48l0.497,0.165
					c0.316,0.111,0.605,0.237,0.866,0.381c0.261,0.143,0.485,0.314,0.673,0.513c0.187,0.199,0.331,0.425,0.43,0.678
					c0.1,0.254,0.149,0.546,0.149,0.877c0,0.412-0.083,0.767-0.248,1.064c-0.165,0.298-0.377,0.542-0.634,0.734
					c-0.258,0.191-0.548,0.335-0.872,0.43C236.986,440.797,236.67,440.845,236.361,440.845z"/>
				<path style="fill:#FFFFFF;" d="M239.516,432.771h1.61l1.633,4.754l0.287,1.015h0.088l0.309-1.015l1.699-4.754h1.61l-2.879,7.897
					h-1.566L239.516,432.771z"/>
				<path style="fill:#FFFFFF;" d="M251.097,436.334h3.871c0.022,0.089,0.04,0.195,0.055,0.32c0.015,0.125,0.023,0.25,0.023,0.375
					c0,0.507-0.078,0.985-0.232,1.434c-0.154,0.449-0.397,0.849-0.728,1.202c-0.353,0.375-0.775,0.666-1.268,0.871
					c-0.493,0.206-1.055,0.309-1.688,0.309c-0.574,0-1.114-0.103-1.621-0.309c-0.507-0.206-0.949-0.492-1.324-0.86
					c-0.375-0.367-0.673-0.803-0.894-1.307c-0.22-0.504-0.331-1.053-0.331-1.649c0-0.595,0.11-1.145,0.331-1.649
					c0.221-0.504,0.518-0.939,0.894-1.307c0.375-0.367,0.816-0.654,1.324-0.86c0.507-0.206,1.047-0.309,1.621-0.309
					c0.64,0,1.211,0.11,1.715,0.331c0.504,0.221,0.936,0.526,1.296,0.915l-1.026,1.004c-0.257-0.272-0.544-0.48-0.861-0.623
					c-0.316-0.143-0.694-0.215-1.136-0.215c-0.36,0-0.702,0.065-1.026,0.193c-0.323,0.129-0.607,0.311-0.849,0.546
					c-0.243,0.235-0.436,0.52-0.579,0.855c-0.143,0.335-0.215,0.708-0.215,1.119c0,0.412,0.072,0.785,0.215,1.12
					c0.143,0.335,0.338,0.62,0.585,0.855c0.246,0.235,0.531,0.418,0.854,0.546c0.324,0.129,0.669,0.193,1.037,0.193
					c0.419,0,0.774-0.061,1.064-0.182c0.29-0.121,0.539-0.278,0.745-0.469c0.147-0.132,0.274-0.3,0.38-0.502
					c0.107-0.202,0.189-0.428,0.248-0.678h-2.482V436.334z"/>
			</g>
			<g>
				<path style="fill:#FFFFFF;" d="M297.3,431.299c-0.006-1.224-0.959-2.121-2.189-2.14c-0.924-0.014-0.832,0.12-0.834-0.867
					c-0.003-1.097-0.007-2.194,0.003-3.292c0.003-0.379-0.112-0.691-0.362-0.976c-2.342-2.668-4.678-5.342-7.019-8.011
					c-0.12-0.137-0.275-0.244-0.414-0.366c-6.214,0-12.427,0-18.641,0c-0.794,0.293-1.14,0.868-1.138,1.709
					c0.01,3.748,0.004,7.496,0.004,11.243c0,0.556-0.003,0.589-0.55,0.551c-1.497-0.102-2.516,0.986-2.497,2.492
					c0.044,3.476,0.013,6.953,0.014,10.429c0.001,1.58,0.867,2.443,2.45,2.449c0.582,0.002,0.582,0.002,0.582,0.6
					c0,2.219-0.001,4.438,0.001,6.657c0.001,1.192,0.58,1.771,1.768,1.771c8.013,0.001,16.027,0.001,24.04,0
					c1.168,0,1.755-0.583,1.757-1.745c0.002-2.256,0-4.512,0.001-6.768c0-0.512,0.002-0.511,0.52-0.515
					c0.271-0.002,0.541,0.008,0.809-0.058c0.996-0.246,1.69-1.044,1.694-2.069C297.315,438.696,297.318,434.997,297.3,431.299z
					 M268.85,417.162c5.337,0,10.674,0,16.01,0c0.548,0,0.554,0.007,0.554,0.561c0.001,2.243-0.001,4.486,0.001,6.73
					c0.001,0.811,0.249,1.059,1.06,1.059c1.91,0.001,3.821,0,5.731,0.001c0.458,0,0.479,0.021,0.481,0.483
					c0.003,0.887,0.002,1.775,0,2.662c-0.001,0.477-0.024,0.498-0.504,0.499c-3.895,0.001-7.79,0-11.684,0
					c-3.882,0-7.765,0-11.647,0c-0.55,0-0.552-0.001-0.552-0.561c-0.001-3.624-0.001-7.247,0-10.871
					C268.299,417.166,268.303,417.162,268.85,417.162z M292.135,451.579c-3.883,0.001-7.766,0-11.65,0c-3.871,0-7.742,0-11.613,0
					c-0.572,0-0.574-0.002-0.574-0.579c-0.001-1.997-0.001-3.994,0.001-5.991c0-0.464,0.023-0.486,0.478-0.487
					c7.803-0.001,15.607-0.001,23.41,0c0.478,0,0.499,0.02,0.499,0.503c0.001,1.997,0.001,3.994,0,5.991
					C292.687,451.574,292.682,451.579,292.135,451.579z"/>
			</g>
			<g>
				<path style="fill:#FFFFFF;" d="M272.966,434.183v1.831h3.165v1.412h-3.165v1.831h3.518v1.412h-5.007v-7.897h5.007v1.412H272.966
					z"/>
				<path style="fill:#FFFFFF;" d="M277.852,440.669v-7.897h2.779c0.375,0,0.726,0.061,1.053,0.182
					c0.327,0.121,0.612,0.292,0.855,0.513c0.243,0.221,0.434,0.483,0.574,0.789c0.14,0.305,0.209,0.642,0.209,1.009
					c0,0.375-0.07,0.715-0.209,1.02c-0.14,0.305-0.331,0.568-0.574,0.789c-0.243,0.221-0.528,0.392-0.855,0.513
					c-0.327,0.121-0.678,0.182-1.053,0.182h-1.29v2.901H277.852z M280.653,436.356c0.389,0,0.684-0.111,0.882-0.331
					c0.199-0.22,0.298-0.474,0.298-0.761c0-0.14-0.024-0.276-0.072-0.408c-0.048-0.132-0.121-0.248-0.221-0.347
					c-0.099-0.099-0.222-0.178-0.37-0.237c-0.147-0.059-0.32-0.089-0.518-0.089h-1.312v2.173H280.653z"/>
				<path style="fill:#FFFFFF;" d="M286.797,440.845c-0.338,0-0.662-0.048-0.971-0.143c-0.309-0.095-0.592-0.239-0.849-0.43
					c-0.257-0.191-0.482-0.425-0.673-0.7c-0.191-0.276-0.342-0.597-0.452-0.965l1.401-0.551c0.103,0.397,0.283,0.726,0.541,0.987
					c0.257,0.261,0.595,0.392,1.015,0.392c0.154,0,0.303-0.02,0.447-0.061c0.143-0.04,0.272-0.099,0.386-0.176
					c0.114-0.077,0.204-0.175,0.27-0.292c0.066-0.118,0.1-0.254,0.1-0.408c0-0.147-0.026-0.279-0.077-0.397
					c-0.051-0.117-0.138-0.227-0.259-0.331c-0.121-0.103-0.279-0.202-0.474-0.298c-0.195-0.095-0.436-0.195-0.723-0.298
					l-0.485-0.176c-0.213-0.073-0.428-0.173-0.645-0.298c-0.217-0.125-0.414-0.276-0.59-0.452c-0.176-0.176-0.322-0.384-0.436-0.623
					c-0.114-0.239-0.171-0.509-0.171-0.81c0-0.309,0.061-0.597,0.182-0.866c0.121-0.268,0.294-0.503,0.518-0.706
					c0.224-0.202,0.493-0.36,0.805-0.474c0.312-0.114,0.66-0.171,1.042-0.171c0.397,0,0.741,0.053,1.031,0.16
					c0.29,0.107,0.537,0.243,0.739,0.408c0.202,0.165,0.365,0.348,0.491,0.546c0.125,0.199,0.217,0.386,0.276,0.563l-1.312,0.551
					c-0.074-0.221-0.208-0.419-0.403-0.596c-0.195-0.176-0.462-0.265-0.799-0.265c-0.324,0-0.592,0.075-0.805,0.226
					c-0.213,0.151-0.32,0.348-0.32,0.59c0,0.235,0.103,0.436,0.309,0.601c0.206,0.165,0.533,0.325,0.982,0.48l0.496,0.165
					c0.316,0.111,0.605,0.237,0.866,0.381c0.261,0.143,0.485,0.314,0.673,0.513c0.187,0.199,0.331,0.425,0.43,0.678
					c0.099,0.254,0.149,0.546,0.149,0.877c0,0.412-0.083,0.767-0.248,1.064c-0.165,0.298-0.377,0.542-0.634,0.734
					c-0.258,0.191-0.548,0.335-0.872,0.43C287.422,440.797,287.105,440.845,286.797,440.845z"/>
			</g>
			<g>
				<path style="fill:#FFFFFF;" d="M321.394,439.168l4.004-4.985h-3.827v-1.412h5.559v1.5l-3.96,4.985h4.004v1.412h-5.779V439.168z"
					/>
				<path style="fill:#FFFFFF;" d="M328.409,432.771h1.489v7.897h-1.489V432.771z"/>
				<path style="fill:#FFFFFF;" d="M331.486,440.669v-7.897h2.779c0.375,0,0.726,0.061,1.053,0.182
					c0.327,0.121,0.612,0.292,0.855,0.513s0.434,0.483,0.574,0.789c0.14,0.305,0.209,0.642,0.209,1.009
					c0,0.375-0.07,0.715-0.209,1.02c-0.14,0.305-0.331,0.568-0.574,0.789c-0.243,0.221-0.528,0.392-0.855,0.513
					c-0.327,0.121-0.678,0.182-1.053,0.182h-1.29v2.901H331.486z M334.288,436.356c0.389,0,0.684-0.111,0.882-0.331
					c0.199-0.22,0.298-0.474,0.298-0.761c0-0.14-0.024-0.276-0.072-0.408c-0.048-0.132-0.121-0.248-0.221-0.347
					c-0.099-0.099-0.222-0.178-0.37-0.237c-0.147-0.059-0.32-0.089-0.518-0.089h-1.312v2.173H334.288z"/>
			</g>
		</g>
		<g style="opacity:0.61;">
			<path style="fill:#FFFFFF;" d="M300.133,433.27h9.067v2.242h-9.067V433.27z M300.133,437.136h9.067v2.243h-9.067V437.136z"/>
		</g>
	</g>
	<g style="opacity:0.61;">
		<path style="fill:#FFFFFF;" d="M156.756,478.878h1.607c1.263,0,2.114,0.812,2.114,1.974c0,1.161-0.851,1.973-2.114,1.973h-1.607
			V478.878z M158.34,482.464c1.049,0,1.725-0.665,1.725-1.612c0-0.947-0.677-1.613-1.725-1.613h-1.167v3.225H158.34z"/>
		<path style="fill:#FFFFFF;" d="M165.139,480.851c0-1.15,0.879-2.007,2.075-2.007c1.184,0,2.069,0.851,2.069,2.007
			c0,1.156-0.885,2.007-2.069,2.007C166.019,482.858,165.139,482.002,165.139,480.851z M168.866,480.851
			c0-0.942-0.705-1.635-1.652-1.635c-0.953,0-1.663,0.693-1.663,1.635c0,0.941,0.71,1.635,1.663,1.635
			C168.162,482.486,168.866,481.793,168.866,480.851z"/>
		<path style="fill:#FFFFFF;" d="M179.596,478.878l-1.331,3.947h-0.44l-1.156-3.366l-1.161,3.366h-0.434l-1.331-3.947h0.429
			l1.139,3.394l1.178-3.394h0.389l1.161,3.411l1.156-3.411H179.596z"/>
		<path style="fill:#FFFFFF;" d="M187.731,478.878v3.947h-0.344l-2.537-3.202v3.202h-0.417v-3.947h0.344l2.543,3.203v-3.203H187.731
			z"/>
		<path style="fill:#FFFFFF;" d="M193.093,478.878h0.417v3.586h2.21v0.361h-2.627V478.878z"/>
		<path style="fill:#FFFFFF;" d="M200.061,480.851c0-1.15,0.879-2.007,2.075-2.007c1.184,0,2.069,0.851,2.069,2.007
			c0,1.156-0.885,2.007-2.069,2.007C200.941,482.858,200.061,482.002,200.061,480.851z M203.788,480.851
			c0-0.942-0.705-1.635-1.652-1.635c-0.953,0-1.663,0.693-1.663,1.635c0,0.941,0.71,1.635,1.663,1.635
			C203.083,482.486,203.788,481.793,203.788,480.851z"/>
		<path style="fill:#FFFFFF;" d="M211.636,481.77h-2.199l-0.474,1.054h-0.434l1.804-3.947h0.412l1.804,3.947h-0.44L211.636,481.77z
			 M211.484,481.432l-0.947-2.12l-0.947,2.12H211.484z"/>
		<path style="fill:#FFFFFF;" d="M217.28,478.878h1.607c1.263,0,2.114,0.812,2.114,1.974c0,1.161-0.851,1.973-2.114,1.973h-1.607
			V478.878z M218.864,482.464c1.049,0,1.725-0.665,1.725-1.612c0-0.947-0.677-1.613-1.725-1.613h-1.167v3.225H218.864z"/>
		<path style="fill:#FFFFFF;" d="M234.041,481.77h-2.199l-0.474,1.054h-0.434l1.804-3.947h0.412l1.804,3.947h-0.44L234.041,481.77z
			 M233.889,481.432l-0.947-2.12l-0.947,2.12H233.889z"/>
		<path style="fill:#FFFFFF;" d="M239.685,478.878h0.417v3.586h2.21v0.361h-2.627V478.878z"/>
		<path style="fill:#FFFFFF;" d="M247.082,478.878h0.417v3.586h2.21v0.361h-2.627V478.878z"/>
		<path style="fill:#FFFFFF;" d="M260.449,479.239v1.551h2.041v0.361h-2.041v1.675h-0.417v-3.947h2.706v0.361H260.449z"/>
		<path style="fill:#FFFFFF;" d="M267.678,478.878h0.417v3.947h-0.417V478.878z"/>
		<path style="fill:#FFFFFF;" d="M273.456,478.878h0.417v3.586h2.21v0.361h-2.627V478.878z"/>
		<path style="fill:#FFFFFF;" d="M283.644,482.464v0.361h-2.791v-3.947h2.706v0.361h-2.289v1.404h2.041v0.355h-2.041v1.466H283.644z
			"/>
		<path style="fill:#FFFFFF;" d="M294.672,479.239v1.551h2.041v0.361h-2.041v1.675h-0.417v-3.947h2.706v0.361H294.672z"/>
		<path style="fill:#FFFFFF;" d="M301.5,480.851c0-1.15,0.879-2.007,2.075-2.007c1.184,0,2.069,0.851,2.069,2.007
			c0,1.156-0.885,2.007-2.069,2.007C302.379,482.858,301.5,482.002,301.5,480.851z M305.226,480.851
			c0-0.942-0.705-1.635-1.652-1.635c-0.953,0-1.663,0.693-1.663,1.635c0,0.941,0.71,1.635,1.663,1.635
			C304.522,482.486,305.226,481.793,305.226,480.851z"/>
		<path style="fill:#FFFFFF;" d="M313.351,482.825l-0.902-1.269c-0.102,0.011-0.203,0.017-0.316,0.017h-1.06v1.252h-0.417v-3.947
			h1.477c1.004,0,1.613,0.507,1.613,1.353c0,0.62-0.327,1.054-0.902,1.24l0.964,1.353H313.351z M313.328,480.231
			c0-0.632-0.417-0.992-1.207-0.992h-1.048v1.979h1.048C312.911,481.218,313.328,480.851,313.328,480.231z"/>
		<path style="fill:#FFFFFF;" d="M322.907,478.878v3.947h-0.4v-3.158l-1.551,2.656h-0.197l-1.551-2.639v3.14h-0.4v-3.947h0.344
			l1.714,2.926l1.697-2.926H322.907z"/>
		<path style="fill:#FFFFFF;" d="M330.744,481.77h-2.199l-0.473,1.054h-0.434l1.804-3.947h0.411l1.804,3.947h-0.44L330.744,481.77z
			 M330.592,481.432l-0.947-2.12l-0.947,2.12H330.592z"/>
		<path style="fill:#FFFFFF;" d="M336.957,479.239h-1.387v-0.361h3.192v0.361h-1.387v3.586h-0.417V479.239z"/>
		<path style="fill:#FFFFFF;" d="M343.063,482.346l0.164-0.321c0.282,0.276,0.784,0.479,1.302,0.479c0.739,0,1.06-0.31,1.06-0.699
			c0-1.083-2.43-0.417-2.43-1.877c0-0.581,0.451-1.083,1.455-1.083c0.446,0,0.908,0.13,1.224,0.35l-0.141,0.333
			c-0.338-0.22-0.733-0.327-1.083-0.327c-0.722,0-1.043,0.321-1.043,0.716c0,1.083,2.43,0.429,2.43,1.866
			c0,0.581-0.462,1.077-1.472,1.077C343.937,482.858,343.356,482.65,343.063,482.346z"/>
	</g>
</g>
<g>
</g>
<g>
	<rect x="25" y="136.866" style="fill:#FFFFFF;" width="450" height="226.269"/>
	<g>
		<g>
			<g>
				<g>
					<path style="fill:#FD0807;" d="M29.299,263.385v96.333h441.371v-96.333H29.299z M284.406,171.593
						c10.467,0,18.94,8.479,18.94,18.953c0,10.47-8.472,18.956-18.94,18.956c-2.284,0-4.473-0.405-6.506-1.155v29.938
						c2.136,0.288,4.317,0.456,6.532,0.456c26.631,0,48.225-21.598,48.225-48.212c0-26.633-21.594-48.221-48.225-48.221
						c-11.781,0-22.559,4.234-30.948,11.251c7.359,7.327,12.479,17.156,14.137,28.209
						C270.772,175.722,277.104,171.593,284.406,171.593z M215.719,238.735c4.946,0,9.723-0.752,14.222-2.146V203.09
						c-3.489,3.935-8.551,6.412-14.196,6.412c-10.494,0-18.966-8.487-18.966-18.956c0-10.473,8.472-18.953,18.966-18.953
						c10.467,0,18.934,8.479,18.934,18.953h0.006v48.189h29.324v-48.189h-0.012v-0.032c0-26.627-21.628-48.225-48.278-48.225
						c-26.669,0-48.296,21.598-48.296,48.225C167.423,217.137,189.05,238.735,215.719,238.735z"/>
				</g>
			</g>
		</g>
		<g>
			<g>
				<path style="fill:#F5FA16;" d="M51.644,334.337l17.678-46.032h6.565l18.837,46.032h-6.94l-5.366-13.944H63.166l-5.056,13.944
					H51.644z M64.927,315.428h15.607l-4.802-12.744c-1.469-3.871-2.558-7.051-3.27-9.548c-0.582,2.951-1.411,5.889-2.479,8.79
					L64.927,315.428z"/>
				<path style="fill:#F5FA16;" d="M87.279,335.068l-5.366-13.944H63.685l-5.056,13.944h-6.985v-0.731l0.687,0.265l-0.687-0.265
					v0.731H50.57l18.241-47.499h7.567l19.446,47.499H87.279L87.279,335.068z M82.916,319.662l5.373,13.937h5.34l-18.235-44.56
					h-5.567l-17.116,44.56h4.881l5.056-13.937H82.916L82.916,319.662z M64.927,316.166h-1.061l5.424-14.486
					c1.055-2.881,1.871-5.775,2.454-8.687l0,0l1.424-0.057c0.705,2.466,1.786,5.624,3.249,9.488l0,0l5.179,13.743H64.927
					L64.927,316.166z M79.466,314.697l-4.427-11.748c-0.99-2.628-1.812-4.946-2.467-6.941l0,0c-0.517,2.072-1.152,4.131-1.903,6.176
					l0,0l-4.679,12.512H79.466L79.466,314.697z"/>
			</g>
			<g>
				<path style="fill:#F5FA16;" d="M98.873,334.337v-33.342h5.056v4.674c1.048-1.632,2.433-2.953,4.175-3.942
					c1.735-0.992,3.715-1.496,5.935-1.496c2.467,0,4.493,0.518,6.078,1.541c1.579,1.027,2.693,2.459,3.34,4.303
					c2.641-3.89,6.072-5.844,10.299-5.844c3.308,0,5.851,0.92,7.631,2.75c1.781,1.833,2.668,4.654,2.668,8.46v22.896h-5.618V313.33
					c0-2.265-0.182-3.89-0.551-4.879c-0.362-0.999-1.03-1.801-1.994-2.408c-0.964-0.609-2.091-0.908-3.391-0.908
					c-2.344,0-4.292,0.779-5.839,2.337c-1.547,1.56-2.324,4.059-2.324,7.49v19.375h-5.651v-21.666c0-2.511-0.46-4.401-1.386-5.658
					c-0.919-1.254-2.428-1.878-4.518-1.878c-1.593,0-3.062,0.416-4.414,1.257c-1.346,0.836-2.325,2.06-2.933,3.67
					c-0.608,1.613-0.913,3.935-0.913,6.972v17.303H98.873z"/>
				<path style="fill:#F5FA16;" d="M137.698,335.068V313.33c0.006-2.22-0.188-3.799-0.505-4.633l0,0
					c-0.311-0.844-0.848-1.491-1.695-2.033l0,0c-0.835-0.526-1.813-0.791-2.997-0.796l0,0c-2.181,0.005-3.897,0.705-5.321,2.117l0,0
					c-1.346,1.357-2.111,3.643-2.111,6.977l0,0v20.106h-7.12v-22.397c0-2.435-0.453-4.155-1.236-5.218l0,0
					c-0.757-1.023-1.974-1.572-3.929-1.584l0,0c-1.463,0.005-2.784,0.38-4.026,1.145l0,0c-1.21,0.75-2.072,1.825-2.634,3.302l0,0
					c-0.557,1.477-0.868,3.727-0.868,6.719l0,0v18.034h-6.382v-0.738h0.731h-0.731v0.738h-0.738v-34.812h6.525v3.261
					c0.881-0.951,1.909-1.761,3.075-2.435l0,0c1.858-1.061,3.975-1.591,6.304-1.584l0,0c2.57,0,4.745,0.538,6.474,1.663l0,0
					c1.339,0.86,2.388,2.019,3.113,3.431l0,0c2.634-3.352,6.078-5.108,10.131-5.094l0,0c3.437-0.007,6.214,0.963,8.156,2.97l0,0
					c1.969,2.026,2.881,5.063,2.881,8.972l0,0v23.627H137.698L137.698,335.068z M132.501,304.399c1.411,0,2.693,0.335,3.787,1.023
					l0,0c1.074,0.671,1.871,1.617,2.291,2.769l0,0c0.42,1.159,0.589,2.836,0.595,5.139l0,0l-0.006,20.275h4.156V311.44
					c0-3.701-0.867-6.305-2.467-7.949l0,0c-1.619-1.656-3.922-2.511-7.101-2.523l0,0c-3.994,0.012-7.133,1.785-9.69,5.514l0,0
					l-0.823,1.211l-0.479-1.379c-0.608-1.696-1.604-2.979-3.049-3.923l0,0c-1.437-0.932-3.307-1.424-5.677-1.424l0,0
					c-2.11,0-3.948,0.471-5.573,1.398l0,0c-1.638,0.939-2.933,2.162-3.923,3.703l0,0l-1.352,2.11v-6.461h-3.586v31.887l4.181-0.014
					v-16.558c0-3.082,0.305-5.476,0.958-7.23l0,0c0.655-1.742,1.748-3.12,3.237-4.04l0,0c1.462-0.906,3.081-1.364,4.802-1.364l0,0
					c2.227-0.014,4.026,0.693,5.114,2.181l0,0c1.055,1.455,1.521,3.488,1.521,6.09l0,0v20.921h4.181v-18.629
					c0-3.534,0.79-6.245,2.539-8.006l0,0c1.669-1.689,3.838-2.557,6.336-2.557l0,0C132.487,304.399,132.493,304.399,132.501,304.399
					L132.501,304.399z"/>
			</g>
			<g>
				<path style="fill:#F5FA16;" d="M148.107,334.337l17.678-46.032h6.563l18.837,46.032h-6.94l-5.366-13.944h-19.25l-5.056,13.944
					H148.107z M161.39,315.428h15.607l-4.804-12.744c-1.469-3.871-2.556-7.051-3.268-9.548c-0.583,2.951-1.412,5.889-2.48,8.79
					L161.39,315.428z"/>
				<path style="fill:#F5FA16;" d="M183.742,335.068l-5.366-13.944h-18.235l-5.056,13.944h-6.978v-0.738l0.686,0.273l-0.686-0.273
					v0.738h-1.075l18.248-47.499h7.561l19.445,47.499H183.742L183.742,335.068z M179.379,319.654l5.372,13.951h5.34l-18.241-44.567
					h-5.561l-17.114,44.567h4.88l5.056-13.951H179.379L179.379,319.654z M161.39,316.166h-1.068l5.431-14.486
					c1.055-2.874,1.871-5.775,2.452-8.687l0,0l1.424-0.064c0.706,2.473,1.787,5.631,3.249,9.495l0,0l5.179,13.743H161.39
					L161.39,316.166z M175.929,314.69l-4.429-11.748c-0.99-2.621-1.812-4.939-2.466-6.934l0,0c-0.518,2.072-1.153,4.131-1.903,6.176
					l0,0l-4.687,12.505H175.929L175.929,314.69z"/>
			</g>
			<g>
				<path style="fill:#F5FA16;" d="M193.076,324.38l5.586-0.874c0.318,2.241,1.191,3.95,2.622,5.146
					c1.437,1.192,3.437,1.794,6.014,1.794c2.595,0,4.524-0.533,5.78-1.594c1.257-1.054,1.884-2.291,1.884-3.715
					c0-1.281-0.557-2.284-1.663-3.015c-0.778-0.507-2.706-1.14-5.781-1.916c-4.143-1.049-7.017-1.957-8.616-2.719
					c-1.605-0.765-2.823-1.821-3.645-3.173c-0.828-1.345-1.242-2.834-1.242-4.473c0-1.481,0.343-2.86,1.022-4.124
					c0.68-1.269,1.606-2.322,2.776-3.159c0.881-0.648,2.079-1.204,3.599-1.651c1.515-0.447,3.147-0.679,4.881-0.679
					c2.615,0,4.912,0.382,6.893,1.14c1.975,0.75,3.438,1.773,4.376,3.053c0.946,1.295,1.592,3.018,1.948,5.166l-5.528,0.753
					c-0.246-1.711-0.977-3.056-2.181-4.014c-1.204-0.965-2.901-1.45-5.101-1.45c-2.596,0-4.446,0.435-5.56,1.295
					c-1.108,0.856-1.664,1.864-1.664,3.015c0,0.726,0.233,1.386,0.693,1.976c0.46,0.602,1.184,1.106,2.168,1.508
					c0.563,0.208,2.227,0.686,4.991,1.443c4,1.068,6.79,1.943,8.37,2.621c1.58,0.681,2.822,1.67,3.723,2.965
					c0.9,1.302,1.345,2.913,1.345,4.843c0,1.876-0.549,3.651-1.644,5.321c-1.1,1.656-2.686,2.951-4.757,3.856
					c-2.079,0.913-4.421,1.374-7.036,1.374c-4.331,0-7.638-0.906-9.905-2.707C195.154,330.588,193.704,327.921,193.076,324.38z"/>
				<path style="fill:#F5FA16;" d="M207.33,335.818c-4.428,0-7.904-0.905-10.363-2.853l0,0c-2.435-1.93-3.975-4.798-4.622-8.456l0,0
					l0.731-0.129l0.11,0.724l-0.11-0.724l-0.731,0.129l-0.129-0.738l7.068-1.113l0.104,0.745c0.305,2.11,1.094,3.617,2.369,4.686
					l0,0c1.263,1.049,3.075,1.62,5.542,1.62l0,0c2.505,0,4.253-0.519,5.301-1.412l0,0c1.134-0.97,1.619-1.966,1.625-3.159l0,0
					c-0.019-1.061-0.401-1.761-1.326-2.401l0,0c-0.577-0.389-2.518-1.061-5.561-1.818l0,0c-4.168-1.056-7.056-1.957-8.758-2.772l0,0
					c-1.709-0.81-3.049-1.969-3.948-3.443l0,0c-0.901-1.465-1.353-3.108-1.346-4.855l0,0c-0.007-1.606,0.362-3.108,1.106-4.48l0,0
					c0.731-1.367,1.735-2.511,2.991-3.405l0,0c0.97-0.724,2.246-1.295,3.818-1.761l0,0c1.592-0.473,3.289-0.705,5.095-0.705l0,0
					c2.686,0,5.068,0.382,7.152,1.178l0,0c2.066,0.784,3.664,1.883,4.713,3.314l0,0c1.036,1.417,1.708,3.242,2.077,5.484l0,0
					l0.123,0.743l-6.997,0.951l-0.104-0.712c-0.239-1.579-0.867-2.712-1.916-3.56l0,0c-1.023-0.815-2.544-1.281-4.641-1.281l0,0
					c-2.518,0-4.234,0.44-5.107,1.14l0,0c-0.99,0.777-1.373,1.527-1.386,2.428l0,0c0.007,0.576,0.176,1.054,0.544,1.534l0,0
					c0.357,0.466,0.952,0.906,1.838,1.261l0,0c0.499,0.189,2.181,0.681,4.927,1.424l0,0c4.02,1.068,6.817,1.95,8.467,2.662l0,0
					c1.696,0.724,3.062,1.806,4.039,3.223l0,0c0.998,1.436,1.483,3.211,1.483,5.256l0,0c0,2.019-0.602,3.947-1.773,5.722l0,0
					c-1.179,1.799-2.893,3.171-5.076,4.129l0,0c-2.168,0.958-4.615,1.424-7.302,1.424l0,0
					C207.349,335.818,207.343,335.818,207.33,335.818L207.33,335.818z M197.879,331.811c2.085,1.658,5.211,2.545,9.451,2.545l0,0
					c2.53,0,4.77-0.44,6.738-1.307l0,0c1.961-0.867,3.425-2.06,4.442-3.601l0,0c1.023-1.553,1.521-3.171,1.521-4.905l0,0
					c0-1.818-0.421-3.264-1.217-4.415l0,0c-0.822-1.185-1.935-2.083-3.405-2.719l0,0c-1.508-0.647-4.291-1.52-8.273-2.588l0,0
					c-2.776-0.753-4.422-1.23-5.075-1.472l0,0c-1.068-0.432-1.909-0.989-2.473-1.734l0,0c-0.549-0.705-0.848-1.546-0.841-2.432l0,0
					c-0.013-1.398,0.712-2.654,1.948-3.593l0,0c1.339-1.023,3.333-1.436,6.007-1.443l0,0c2.299,0,4.181,0.499,5.561,1.613l0,0
					c1.178,0.932,1.954,2.22,2.316,3.766l0,0l4.066-0.557c-0.356-1.72-0.926-3.087-1.676-4.102l0,0
					c-0.829-1.147-2.155-2.098-4.046-2.81l0,0c-1.877-0.719-4.084-1.087-6.628-1.087l0,0c-1.677,0-3.23,0.22-4.673,0.647l0,0
					c-1.464,0.433-2.59,0.958-3.38,1.539l0,0c-1.081,0.779-1.929,1.737-2.556,2.908l0,0c-0.621,1.159-0.932,2.401-0.932,3.787l0,0
					c0,1.501,0.375,2.848,1.133,4.083l0,0c0.744,1.223,1.831,2.177,3.327,2.893l0,0c1.508,0.719,4.363,1.625,8.479,2.669l0,0
					c3.12,0.788,5.029,1.397,6.008,2.012l0,0c1.281,0.822,2.013,2.131,1.993,3.632l0,0c0.013,1.644-0.763,3.132-2.148,4.279l0,0
					c-1.45,1.223-3.561,1.754-6.247,1.754l0,0c-2.687,0.007-4.875-0.621-6.487-1.954l0,0c-1.424-1.178-2.337-2.841-2.757-4.874l0,0
					l-4.111,0.647C194.61,328.024,195.924,330.265,197.879,331.811L197.879,331.811z"/>
			</g>
			<g>
				<path style="fill:#F5FA16;" d="M225.228,324.38l5.586-0.874c0.318,2.241,1.191,3.95,2.628,5.146
					c1.43,1.192,3.437,1.794,6.007,1.794c2.603,0,4.525-0.533,5.781-1.594c1.256-1.054,1.884-2.291,1.884-3.715
					c0-1.281-0.557-2.284-1.664-3.015c-0.777-0.507-2.699-1.14-5.78-1.916c-4.143-1.049-7.017-1.957-8.617-2.719
					c-1.604-0.765-2.815-1.821-3.643-3.173c-0.829-1.345-1.237-2.834-1.237-4.473c0-1.481,0.337-2.86,1.017-4.124
					c0.68-1.269,1.604-2.322,2.784-3.159c0.873-0.648,2.072-1.204,3.592-1.651c1.515-0.447,3.145-0.679,4.88-0.679
					c2.616,0,4.914,0.382,6.894,1.14c1.981,0.75,3.437,1.773,4.383,3.053c0.938,1.295,1.585,3.018,1.947,5.166l-5.528,0.753
					c-0.252-1.711-0.984-3.056-2.181-4.014c-1.204-0.965-2.907-1.45-5.107-1.45c-2.596,0-4.448,0.435-5.554,1.295
					c-1.113,0.856-1.664,1.864-1.664,3.015c0,0.726,0.227,1.386,0.687,1.976c0.466,0.602,1.184,1.106,2.168,1.508
					c0.563,0.208,2.227,0.686,4.99,1.443c4.001,1.068,6.79,1.943,8.371,2.621c1.58,0.681,2.822,1.67,3.721,2.965
					c0.9,1.302,1.354,2.913,1.354,4.843c0,1.876-0.551,3.651-1.651,5.321c-1.1,1.656-2.687,2.951-4.758,3.856
					c-2.071,0.913-4.414,1.374-7.036,1.374c-4.331,0-7.631-0.906-9.904-2.707C227.306,330.588,225.856,327.921,225.228,324.38z"/>
				<path style="fill:#F5FA16;" d="M229.118,332.965c-2.433-1.923-3.967-4.798-4.615-8.456l0,0l0.725-0.129l0.116,0.731
					l-0.116-0.731l-0.725,0.129l-0.136-0.743l7.076-1.109l0.103,0.745c0.299,2.11,1.088,3.617,2.363,4.686l0,0
					c1.263,1.049,3.075,1.62,5.541,1.62l0,0c2.505,0,4.253-0.519,5.309-1.412l0,0c1.125-0.97,1.612-1.961,1.617-3.159l0,0
					c-0.019-1.061-0.394-1.761-1.327-2.394l0,0c-0.576-0.401-2.517-1.075-5.56-1.825l0,0c-4.162-1.056-7.056-1.957-8.752-2.764l0,0
					c-1.708-0.817-3.049-1.976-3.955-3.45l0,0c-0.892-1.465-1.346-3.108-1.346-4.862l0,0c0-1.598,0.369-3.101,1.107-4.473l0,0
					c0.731-1.367,1.741-2.511,2.99-3.405l0,0c0.977-0.719,2.253-1.295,3.819-1.761l0,0c1.592-0.473,3.295-0.705,5.094-0.705l0,0
					c2.687,0,5.076,0.387,7.154,1.171l0,0c2.071,0.796,3.664,1.89,4.719,3.321l0,0c1.03,1.412,1.702,3.242,2.077,5.484l0,0
					l0.117,0.736l-6.998,0.958l-0.103-0.712c-0.233-1.579-0.861-2.704-1.91-3.56l0,0c-1.029-0.815-2.551-1.281-4.647-1.281l0,0
					c-2.518,0-4.234,0.44-5.107,1.14l0,0c-0.984,0.777-1.367,1.527-1.38,2.428l0,0c0.007,0.576,0.169,1.054,0.538,1.534l0,0
					c0.356,0.466,0.958,0.906,1.838,1.261l0,0c0.498,0.189,2.181,0.681,4.933,1.424l0,0c4.013,1.075,6.817,1.95,8.466,2.662l0,0
					c1.69,0.724,3.056,1.806,4.033,3.223l0,0c1.002,1.436,1.483,3.211,1.483,5.256l0,0c0,2.019-0.595,3.954-1.767,5.722l0,0
					c-1.185,1.799-2.9,3.171-5.082,4.129l0,0c-2.174,0.958-4.628,1.431-7.321,1.431l0,0
					C235.054,335.825,231.578,334.912,229.118,332.965L229.118,332.965z M230.031,331.811c2.085,1.658,5.211,2.545,9.458,2.545l0,0
					c2.524,0,4.764-0.44,6.732-1.307l0,0c1.968-0.867,3.424-2.06,4.44-3.601l0,0c1.03-1.553,1.521-3.171,1.528-4.905l0,0
					c-0.007-1.818-0.421-3.264-1.223-4.423l0,0c-0.816-1.183-1.935-2.076-3.405-2.712l0,0c-1.509-0.647-4.285-1.527-8.273-2.588l0,0
					c-2.771-0.753-4.421-1.23-5.075-1.465l0,0c-1.062-0.44-1.903-1.004-2.467-1.747l0,0c-0.557-0.693-0.854-1.541-0.848-2.428l0,0
					c-0.012-1.405,0.712-2.654,1.948-3.593l0,0c1.34-1.023,3.334-1.436,6.008-1.443l0,0c2.297,0,4.181,0.504,5.56,1.613l0,0
					c1.178,0.932,1.961,2.22,2.317,3.766l0,0l4.071-0.557c-0.362-1.72-0.932-3.087-1.676-4.102l0,0
					c-0.835-1.154-2.162-2.098-4.052-2.81l0,0c-1.877-0.726-4.079-1.087-6.629-1.087l0,0c-1.67,0-3.229,0.22-4.673,0.647l0,0
					c-1.462,0.433-2.589,0.958-3.379,1.539l0,0c-1.081,0.779-1.929,1.737-2.556,2.908l0,0c-0.622,1.159-0.933,2.408-0.933,3.78l0,0
					c0,1.508,0.376,2.855,1.134,4.091l0,0c0.744,1.223,1.832,2.177,3.333,2.893l0,0c1.502,0.726,4.357,1.625,8.479,2.669l0,0
					c3.115,0.788,5.03,1.397,6.001,2.012l0,0c1.282,0.822,2.013,2.131,2.001,3.632l0,0c0.006,1.644-0.77,3.132-2.149,4.279l0,0
					c-1.457,1.223-3.561,1.754-6.254,1.761l0,0c-2.68,0-4.874-0.628-6.48-1.961l0,0c-1.43-1.178-2.343-2.841-2.757-4.874l0,0
					l-4.111,0.647C226.762,328.024,228.082,330.265,230.031,331.811L230.031,331.811z"/>
			</g>
			<g>
				<path style="fill:#F5FA16;" d="M281.498,334.337v-4.901c-2.595,3.768-6.124,5.658-10.582,5.658c-1.969,0-3.806-0.382-5.51-1.14
					c-1.708-0.75-2.97-1.696-3.799-2.836c-0.829-1.137-1.412-2.537-1.742-4.193c-0.232-1.113-0.349-2.867-0.349-5.276v-20.655h5.651
					v18.486c0,2.953,0.117,4.946,0.349,5.968c0.356,1.489,1.109,2.655,2.26,3.503c1.152,0.848,2.576,1.276,4.272,1.276
					c1.696,0,3.288-0.442,4.771-1.309c1.489-0.867,2.537-2.052,3.159-3.546c0.614-1.503,0.925-3.665,0.925-6.513v-17.865h5.651
					v33.342H281.498z"/>
				<path style="fill:#F5FA16;" d="M270.916,335.818c-2.06,0.007-4.007-0.387-5.806-1.19l0,0c-1.794-0.791-3.18-1.806-4.105-3.082
					l0,0c-0.894-1.242-1.515-2.738-1.864-4.48l0,0c-0.246-1.204-0.356-2.984-0.363-5.417l0,0v-21.393h7.127v19.224
					c-0.007,2.927,0.122,4.912,0.322,5.801l0,0c0.325,1.345,0.973,2.329,1.981,3.08l0,0c1.01,0.738,2.26,1.121,3.839,1.128l0,0
					c1.567,0,3.015-0.401,4.396-1.204l0,0c1.371-0.803,2.291-1.852,2.853-3.199l0,0c0.557-1.345,0.867-3.436,0.867-6.226l0,0
					v-18.603h7.127v34.812h-5.794v-0.738h0.733h-0.733v0.738h-0.731v-3.507c-2.556,2.807-5.87,4.258-9.786,4.258l0,0
					C270.961,335.818,270.935,335.818,270.916,335.818L270.916,335.818z M260.255,321.649c-0.007,2.382,0.115,4.11,0.33,5.125l0,0
					c0.318,1.575,0.86,2.87,1.617,3.904l0,0c0.726,1.011,1.878,1.89,3.503,2.602l0,0c1.606,0.712,3.333,1.075,5.211,1.075l0,0
					c4.246-0.012,7.476-1.735,9.975-5.333l0,0l1.34-1.957v6.532h3.586v-31.88h-4.183v17.141c0,2.9-0.304,5.139-0.977,6.79l0,0
					c-0.679,1.651-1.856,2.972-3.469,3.904l0,0c-1.591,0.932-3.321,1.405-5.139,1.405l0,0c-1.818,0.005-3.419-0.461-4.712-1.419l0,0
					c-1.29-0.944-2.157-2.291-2.537-3.935l0,0c-0.26-1.152-0.363-3.147-0.37-6.124l0,0v-17.762h-4.174V321.649L260.255,321.649z"/>
			</g>
			<g>
				<path style="fill:#F5FA16;" d="M295.346,334.337v-33.342h5.087v5.049c1.302-2.37,2.499-3.923,3.593-4.673
					c1.099-0.757,2.31-1.14,3.632-1.14c1.902,0,3.837,0.609,5.806,1.825l-1.949,5.242c-1.379-0.815-2.764-1.223-4.143-1.223
					c-1.235,0-2.341,0.37-3.326,1.121c-0.984,0.738-1.684,1.773-2.105,3.087c-0.629,2.014-0.944,4.208-0.944,6.597v17.459H295.346z"
					/>
				<path style="fill:#F5FA16;" d="M295.346,335.068v-0.738h0.736h-0.736V335.068h-0.738v-34.812h6.563v3.159
					c0.822-1.204,1.618-2.086,2.44-2.655l0,0c1.211-0.834,2.583-1.269,4.04-1.261l0,0c2.064,0,4.143,0.659,6.2,1.935l0,0
					l0.511,0.311l-2.466,6.635l-0.757-0.447c-1.288-0.765-2.53-1.128-3.768-1.128l0,0c-1.087,0.014-2.019,0.325-2.886,0.973l0,0
					c-0.855,0.647-1.462,1.527-1.845,2.719l0,0c-0.602,1.935-0.905,4.052-0.905,6.382l0,0v18.19H295.346L295.346,335.068z
					 M300.258,333.598v-16.72c0-2.454,0.322-4.726,0.977-6.824l0,0c0.454-1.436,1.249-2.614,2.363-3.455l0,0
					c1.099-0.829,2.389-1.264,3.773-1.257l0,0c1.264,0,2.518,0.31,3.749,0.906l0,0l1.436-3.871c-1.689-0.958-3.314-1.41-4.905-1.41
					l0,0c-1.178,0-2.22,0.33-3.204,1.003l0,0c-0.927,0.621-2.105,2.103-3.374,4.42l0,0l-1.379-0.349v-4.325h-3.613v31.88H300.258
					L300.258,333.598z"/>
			</g>
			<g>
				<path style="fill:#F5FA16;" d="M338.585,330.227c-2.091,1.773-4.11,3.027-6.045,3.765c-1.935,0.726-4.014,1.101-6.233,1.101
					c-3.665,0-6.48-0.901-8.449-2.693c-1.966-1.787-2.951-4.078-2.951-6.862c0-1.632,0.375-3.12,1.121-4.466
					c0.736-1.36,1.716-2.435,2.917-3.25c1.204-0.824,2.559-1.438,4.067-1.859c1.106-0.292,2.784-0.576,5.022-0.848
					c4.563-0.542,7.923-1.19,10.08-1.943c0.019-0.776,0.031-1.269,0.031-1.474c0-2.306-0.53-3.93-1.598-4.869
					c-1.45-1.281-3.593-1.916-6.441-1.916c-2.655,0-4.621,0.466-5.885,1.4c-1.269,0.932-2.205,2.576-2.815,4.943l-5.522-0.757
					c0.504-2.361,1.326-4.277,2.48-5.727c1.152-1.457,2.815-2.578,4.989-3.367c2.181-0.777,4.7-1.178,7.569-1.178
					c2.848,0,5.166,0.337,6.945,1.011c1.773,0.671,3.08,1.512,3.921,2.523c0.836,1.022,1.424,2.306,1.761,3.844
					c0.189,0.972,0.28,2.707,0.28,5.218v7.536c0,5.257,0.122,8.582,0.363,9.968c0.239,1.398,0.717,2.731,1.429,4.007h-5.904
					C339.13,333.166,338.754,331.792,338.585,330.227z M338.114,317.602c-2.052,0.829-5.127,1.541-9.232,2.131
					c-2.322,0.337-3.969,0.712-4.927,1.133c-0.963,0.413-1.708,1.035-2.232,1.837c-0.526,0.803-0.784,1.696-0.784,2.681
					c0,1.508,0.569,2.772,1.708,3.768c1.14,1.008,2.81,1.515,5.01,1.515c2.174,0,4.11-0.48,5.806-1.438
					c1.696-0.944,2.946-2.253,3.742-3.909c0.602-1.269,0.908-3.159,0.908-5.646V317.602z"/>
				<path style="fill:#F5FA16;" d="M326.306,335.818c-3.775,0.007-6.798-0.917-8.941-2.874l0,0
					c-2.117-1.909-3.204-4.439-3.197-7.404l0,0c0-1.735,0.409-3.367,1.211-4.829l0,0c0.789-1.438,1.849-2.616,3.151-3.495l0,0
					c1.269-0.867,2.707-1.522,4.291-1.961l0,0c1.173-0.304,2.862-0.59,5.12-0.86l0,0c4.203-0.506,7.366-1.101,9.445-1.761l0,0
					c0.014-0.48,0.019-0.791,0.019-0.932l0,0c0-2.208-0.518-3.601-1.345-4.325l0,0c-1.264-1.113-3.211-1.723-5.957-1.735l0,0
					c-2.576,0-4.389,0.473-5.45,1.254l0,0c-1.068,0.784-1.955,2.268-2.538,4.545l0,0l-0.162,0.635l-6.957-0.958l0.162-0.765
					c0.523-2.447,1.383-4.466,2.621-6.04l0,0c1.254-1.584,3.049-2.776,5.326-3.591l0,0c2.272-0.822,4.881-1.223,7.815-1.223l0,0
					c2.905,0.005,5.299,0.342,7.196,1.054l0,0c1.859,0.7,3.283,1.594,4.241,2.745l0,0c0.92,1.125,1.553,2.526,1.909,4.174l0,0
					c0.208,1.07,0.291,2.817,0.291,5.354l0,0v7.536c0,5.23,0.129,8.575,0.356,9.851l0,0c0.227,1.307,0.674,2.552,1.348,3.768l0,0
					l0.607,1.087h-7.612l-0.201-0.401c-0.459-0.92-0.796-1.942-1.011-3.056l0,0c-1.785,1.393-3.534,2.423-5.249,3.068l0,0
					c-2.012,0.765-4.174,1.14-6.461,1.14l0,0C326.325,335.818,326.318,335.818,326.306,335.818L326.306,335.818z M337.032,306.274
					c1.302,1.159,1.845,3.018,1.845,5.426l0,0c0,0.22-0.005,0.712-0.026,1.488l0,0l-0.012,0.511l-0.485,0.162
					c-2.253,0.789-5.639,1.436-10.236,1.981l0,0c-2.212,0.27-3.871,0.557-4.912,0.827l0,0c-1.436,0.401-2.719,0.984-3.851,1.761l0,0
					c-1.106,0.745-1.993,1.735-2.686,2.991l0,0c-0.681,1.243-1.023,2.602-1.023,4.117l0,0c0.005,2.616,0.894,4.647,2.712,6.317l0,0
					c1.787,1.632,4.396,2.492,7.949,2.499l0,0c2.136,0,4.124-0.356,5.975-1.056l0,0c1.83-0.693,3.78-1.895,5.825-3.643l0,0
					l1.054-0.894l0.155,1.379c0.143,1.314,0.428,2.466,0.87,3.464l0,0h4.246c-0.454-1.018-0.777-2.064-0.965-3.147l0,0
					c-0.258-1.515-0.375-4.817-0.375-10.097l0,0v-7.536c0-2.485-0.098-4.219-0.265-5.063l0,0c-0.318-1.448-0.855-2.614-1.605-3.534
					l0,0c-0.724-0.874-1.916-1.663-3.618-2.303l0,0c-1.658-0.621-3.892-0.958-6.68-0.958l0,0c-2.805,0-5.237,0.387-7.316,1.14l0,0
					c-2.083,0.75-3.617,1.799-4.666,3.118l0,0c-0.939,1.192-1.665,2.733-2.155,4.654l0,0l4.083,0.557
					c0.636-2.129,1.579-3.734,2.912-4.719l0,0c1.477-1.073,3.586-1.539,6.324-1.539l0,0
					C333.058,304.179,335.395,304.839,337.032,306.274L337.032,306.274z M337.854,330.303l0.731-0.076L337.854,330.303
					L337.854,330.303z M322.163,329.709c-1.288-1.121-1.969-2.628-1.962-4.325l0,0c0-1.113,0.304-2.162,0.901-3.082l0,0
					c0.607-0.932,1.481-1.644,2.556-2.11l0,0c1.087-0.473,2.764-0.841,5.12-1.19l0,0c4.064-0.576,7.108-1.283,9.055-2.086l0,0
					l1.015-0.413v3.171c-0.005,2.552-0.303,4.518-0.982,5.969l0,0c-0.862,1.787-2.227,3.218-4.04,4.234l0,0
					c-1.813,1.023-3.89,1.522-6.169,1.522l0,0C325.355,331.398,323.489,330.872,322.163,329.709L322.163,329.709z M328.985,320.464
					c-2.291,0.323-3.902,0.712-4.738,1.075l0,0c-0.853,0.375-1.469,0.879-1.902,1.565l0,0c-0.454,0.686-0.666,1.424-0.674,2.28l0,0
					c0.012,1.321,0.466,2.329,1.462,3.223l0,0c0.958,0.841,2.428,1.321,4.525,1.321l0,0c2.072,0,3.871-0.454,5.445-1.333l0,0
					c1.584-0.894,2.704-2.072,3.436-3.586l0,0c0.53-1.113,0.841-2.908,0.836-5.335l0,0v-1.023
					C335.297,319.363,332.514,319.96,328.985,320.464L328.985,320.464z"/>
			</g>
			<g>
				<path style="fill:#F5FA16;" d="M352.586,334.337v-33.342h5.089v4.738c2.454-3.665,5.988-5.503,10.616-5.503
					c2.007,0,3.859,0.363,5.541,1.087c1.684,0.724,2.946,1.67,3.787,2.841c0.836,1.173,1.424,2.571,1.754,4.176
					c0.215,1.049,0.318,2.879,0.318,5.503v20.5h-5.651v-20.28c0-2.306-0.22-4.026-0.659-5.173c-0.442-1.14-1.226-2.052-2.344-2.731
					c-1.121-0.681-2.435-1.018-3.935-1.018c-2.408,0-4.487,0.765-6.234,2.294c-1.749,1.527-2.623,4.427-2.623,8.699v18.209H352.586z
					"/>
				<path style="fill:#F5FA16;" d="M373.301,335.068v-21.011c0-2.265-0.227-3.923-0.609-4.908l0,0
					c-0.387-0.984-1.034-1.754-2.031-2.368l0,0c-1.004-0.597-2.17-0.908-3.567-0.913l0,0c-2.253,0.005-4.124,0.698-5.749,2.11l0,0
					c-1.488,1.276-2.375,3.962-2.37,8.15l0,0v18.94h-6.389v-0.738h0.738h-0.738v0.738h-0.736v-34.812h6.563v3.34
					c2.485-2.719,5.837-4.117,9.877-4.098l0,0c2.098,0,4.045,0.382,5.832,1.145l0,0c1.773,0.757,3.159,1.78,4.09,3.082l0,0
					c0.908,1.269,1.529,2.764,1.885,4.466l0,0c0.227,1.152,0.322,2.999,0.33,5.639l0,0v21.238H373.301L373.301,335.068z
					 M367.094,304.399c1.617,0,3.08,0.368,4.329,1.125l0,0c1.23,0.75,2.143,1.799,2.643,3.094l0,0
					c0.492,1.295,0.698,3.082,0.705,5.438l0,0v19.542h4.181v-19.769c0-2.595-0.11-4.408-0.296-5.347l0,0
					c-0.318-1.522-0.867-2.815-1.639-3.897l0,0c-0.738-1.042-1.878-1.909-3.476-2.595l0,0c-1.586-0.674-3.326-1.023-5.249-1.023l0,0
					c-4.434,0.026-7.665,1.696-10.006,5.166l0,0l-1.348,2.012v-6.42h-3.613v31.873h4.177v-17.47
					c0.012-4.363,0.867-7.483,2.879-9.256l0,0c1.866-1.632,4.138-2.473,6.688-2.473l0,0c0.007,0,0.019,0,0.019,0H367.094z"/>
			</g>
			<g>
				<path style="fill:#F5FA16;" d="M410.115,322.123l5.56,0.724c-0.609,3.832-2.162,6.821-4.662,8.998
					c-2.504,2.162-5.574,3.249-9.218,3.249c-4.563,0-8.233-1.496-11.005-4.48c-2.776-2.977-4.162-7.263-4.162-12.831
					c0-3.598,0.597-6.745,1.787-9.45c1.197-2.7,3.011-4.726,5.45-6.071c2.442-1.355,5.096-2.033,7.964-2.033
					c3.617,0,6.582,0.92,8.888,2.75c2.296,1.833,3.773,4.434,4.427,7.801l-5.498,0.855c-0.523-2.241-1.448-3.923-2.781-5.063
					c-1.329-1.128-2.934-1.697-4.817-1.697c-2.848,0-5.158,1.023-6.939,3.068c-1.782,2.04-2.673,5.271-2.673,9.684
					c0,4.48,0.86,7.744,2.576,9.77c1.716,2.026,3.961,3.049,6.719,3.049c2.22,0,4.071-0.688,5.56-2.045
					C408.779,327.042,409.718,324.944,410.115,322.123z"/>
				<path style="fill:#F5FA16;" d="M390.248,331.118c-2.932-3.159-4.356-7.65-4.356-13.335l0,0c0-3.677,0.614-6.938,1.849-9.748l0,0
					c1.25-2.829,3.192-4.996,5.768-6.42l0,0c2.545-1.412,5.335-2.117,8.319-2.117l0,0c3.742-0.007,6.893,0.951,9.34,2.905l0,0
					c2.454,1.95,4.021,4.738,4.693,8.241l0,0l0.143,0.75l-6.919,1.068l-0.155-0.659c-0.507-2.136-1.36-3.663-2.537-4.662l0,0
					c-1.204-1.022-2.609-1.52-4.344-1.527l0,0c-2.674,0.012-4.733,0.925-6.389,2.81l0,0c-1.605,1.825-2.487,4.881-2.487,9.204l0,0
					c0,4.389,0.855,7.483,2.404,9.297l0,0c1.591,1.864,3.572,2.769,6.155,2.784l0,0c2.072-0.014,3.708-0.621,5.063-1.852l0,0
					c1.319-1.204,2.208-3.12,2.595-5.839l0,0l0.098-0.724l7.029,0.917l-0.117,0.745c-0.621,3.961-2.258,7.153-4.905,9.438l0,0
					c-2.635,2.284-5.911,3.438-9.698,3.424l0,0c-0.012,0-0.026,0-0.045,0l0,0C397.05,335.818,393.153,334.238,390.248,331.118
					L390.248,331.118z M394.221,302.896c-2.296,1.283-3.987,3.166-5.132,5.734l0,0c-1.147,2.59-1.728,5.632-1.728,9.153l0,0
					c0.005,5.453,1.352,9.517,3.966,12.326l0,0c2.643,2.829,6.059,4.234,10.467,4.246l0,0c3.503-0.012,6.363-1.023,8.733-3.075l0,0
					c2.193-1.902,3.624-4.473,4.284-7.813l0,0l-4.083-0.523c-0.466,2.583-1.424,4.609-2.939,6l0,0
					c-1.625,1.489-3.689,2.239-6.059,2.234l0,0c-2.939,0.005-5.443-1.121-7.283-3.309l0,0c-1.89-2.251-2.745-5.67-2.75-10.24l0,0
					c0.005-4.504,0.898-7.916,2.853-10.176l0,0c1.904-2.186,4.475-3.319,7.498-3.307l0,0c2.026-0.007,3.832,0.629,5.294,1.871l0,0
					c1.341,1.14,2.28,2.757,2.848,4.79l0,0l4.064-0.636c-0.69-2.86-2.019-5.037-3.999-6.616l0,0
					c-2.155-1.708-4.932-2.583-8.427-2.588l0,0C399.076,300.968,396.553,301.615,394.221,302.896L394.221,302.896z"/>
			</g>
			<g>
				<path style="fill:#F5FA16;" d="M443.34,323.597l5.839,0.726c-0.92,3.405-2.628,6.059-5.12,7.935
					c-2.492,1.89-5.67,2.836-9.543,2.836c-4.879,0-8.745-1.503-11.605-4.506c-2.855-3.01-4.286-7.223-4.286-12.649
					c0-5.605,1.443-9.954,4.336-13.062c2.889-3.094,6.635-4.647,11.239-4.647c4.458,0,8.104,1.527,10.926,4.556
					c2.829,3.037,4.238,7.302,4.238,12.816c0,0.332-0.005,0.829-0.031,1.503h-24.87c0.213,3.663,1.249,6.473,3.113,8.415
					c1.864,1.95,4.181,2.927,6.972,2.927c2.072,0,3.84-0.545,5.309-1.639C441.321,327.721,442.48,325.979,443.34,323.597z
					 M424.783,314.458h18.622c-0.251-2.803-0.963-4.908-2.136-6.305c-1.799-2.181-4.136-3.276-7.003-3.276
					c-2.597,0-4.779,0.875-6.551,2.616C425.946,309.228,424.969,311.545,424.783,314.458z"/>
				<path style="fill:#F5FA16;" d="M422.381,331.094c-3.018-3.173-4.494-7.608-4.494-13.148l0,0c0-5.729,1.489-10.298,4.532-13.573
					l0,0c3.023-3.245,7.017-4.881,11.782-4.881l0,0c4.621,0,8.511,1.605,11.464,4.79l0,0c2.984,3.211,4.439,7.689,4.434,13.32l0,0
					c0,0.351-0.007,0.855-0.026,1.529l0,0l-0.026,0.712H425.26c0.298,3.159,1.269,5.514,2.848,7.173l0,0
					c1.735,1.799,3.825,2.678,6.441,2.693l0,0c1.943,0,3.534-0.507,4.862-1.489l0,0c1.314-0.973,2.406-2.578,3.235-4.874l0,0
					l0.196-0.552l7.268,0.893l-0.22,0.822c-0.958,3.541-2.757,6.351-5.385,8.343l0,0c-2.643,1.995-6.007,2.979-9.99,2.972l0,0
					c-0.012,0-0.019,0-0.031,0l0,0C429.475,335.825,425.37,334.253,422.381,331.094L422.381,331.094z M423.495,305.381
					c-2.726,2.927-4.131,7.07-4.131,12.565l0,0c0,5.302,1.386,9.29,4.078,12.123l0,0c2.719,2.851,6.344,4.274,11.074,4.286l0,0
					c3.756,0,6.759-0.905,9.103-2.681l0,0c2.148-1.629,3.682-3.844,4.609-6.731l0,0l-4.408-0.545
					c-0.867,2.201-2.033,3.885-3.529,4.998l0,0c-1.598,1.19-3.548,1.785-5.741,1.773l0,0c-2.958,0.012-5.514-1.056-7.502-3.147l0,0
					c-2.026-2.11-3.101-5.101-3.314-8.881l0,0l-0.045-0.777h24.934c0.007-0.322,0.007-0.576,0.007-0.765l0,0
					c0-5.39-1.374-9.45-4.04-12.312l0,0c-2.7-2.886-6.097-4.31-10.389-4.322l0,0C429.759,300.98,426.252,302.43,423.495,305.381
					L423.495,305.381z M424.783,315.196h-0.791l0.053-0.791c0.194-3.042,1.242-5.567,3.151-7.445l0,0
					c1.897-1.864,4.313-2.822,7.07-2.815l0,0c3.054-0.012,5.651,1.197,7.567,3.527l0,0c1.307,1.582,2.038,3.832,2.299,6.721l0,0
					l0.069,0.803H424.783L424.783,315.196z M442.582,313.719c-0.298-2.306-0.951-3.995-1.883-5.101l0,0
					c-1.685-2.019-3.756-2.991-6.434-3.003l0,0c-2.435,0.012-4.389,0.789-6.033,2.394l0,0c-1.469,1.45-2.351,3.314-2.647,5.71l0,0
					H442.582L442.582,313.719z"/>
			</g>
		</g>
	</g>
</g>
</svg>
