<?xml version="1.0" encoding="utf-8"?>
<!-- Generator: Adobe Illustrator 19.2.1, SVG Export Plug-In . SVG Version: 6.00 Build 0)  -->
<svg version="1.1" id="layer" xmlns="http://www.w3.org/2000/svg" xmlns:xlink="http://www.w3.org/1999/xlink" x="0px" y="0px"
	 viewBox="0 0 652 652" style="enable-background:new 0 0 652 652;" xml:space="preserve">
<style type="text/css">
	.st0{clip-path:url(#SVGID_2_);fill:url(#SVGID_3_);}
	.st1{clip-path:url(#SVGID_5_);fill:#C9CACA;}
	.st2{clip-path:url(#SVGID_7_);fill:url(#SVGID_8_);}
	.st3{clip-path:url(#SVGID_10_);fill:url(#SVGID_11_);}
</style>
<path d="M175.1,561.4c5,2.3,11.1,3.9,17.4,3.9c7,0,14-2.8,14-9.5c0-5.6-5.6-8.7-12.7-11.3l-5.1-2c-6.8-2.7-13.4-6.7-13.4-14.3
	c0-10.7,12-15.1,22.9-15.1c5.8,0,10.5,0.7,15.8,2.2l-0.6,6.1c-4.5-1.6-9.6-2.7-15-2.7c-6.9,0-13.4,2.8-13.4,8.6
	c0,4.6,4.7,7.1,11,9.6l4.9,1.9c8.3,3.1,15.5,7.4,15.5,15.7c0,10.8-10.4,16.3-23.4,16.3c-5.5,0-13.5-1.3-18.4-3L175.1,561.4z
	 M103.7,514h-8.5v56h8.5V514z M156,543.5c0,4.8,0.3,14.4,0.5,18.3h-0.2c-1.8-3.9-4.4-8.5-6.6-12.5L129.4,514h-13v56h8.4v-33.7
	c0-4.8-0.1-12.3-0.4-15.7h0.2c1.6,3.6,4.5,8.8,7,13.2l21.2,36.3h11.5v-56H156V543.5z M273.7,514h-9v30.5c0,11.6-2.9,19.9-15,19.9
	c-11.9,0-14.9-8.3-14.9-19.9V514h-9v31.3c0,14.3,5,25.7,23.6,25.7c17,0,24.3-10.4,24.3-25.7V514z M285.4,570h8.6v-25h2.5
	c8.6,0,10.8,1.5,13.4,7.1l8.3,17.9h9.6l-10-20.4c-2-4-4.2-6.4-8.2-7.7v-0.2c7.9-1.5,13.3-5.5,13.3-13.1c0-11-8.8-14.7-22.8-14.7
	h-14.8V570z M293.9,520.8h4.1c10.3,0,16.3,1.4,16.3,8.5c0,6.4-5.9,8.9-16.3,8.9h-4.1V520.8z M367,514h-9l-25.7,56h9.4l6.2-14.1h29.3
	l6.3,14.1h9.7L367,514z M374.2,549.4h-23.7l7.6-18.4c1.1-2.5,3-7.4,4-10.2h0.2c1,2.8,2.9,7.9,4,10.2L374.2,549.4z M439.1,543.5
	c0,4.8,0.3,14.4,0.5,18.3h-0.2c-1.8-3.9-4.4-8.5-6.6-12.5L412.5,514h-13v56h8.4v-33.7c0-4.8-0.2-12.3-0.5-15.7h0.2
	c1.6,3.6,4.5,8.8,7,13.2l21.2,36.3h11.5v-56h-8.3V543.5z M501.8,515.6c-4.2-1.7-8.8-2.2-13.6-2.2c-18.3,0-32.1,11.6-32.1,28.2
	c0,18.7,13.7,28.9,32.8,28.9c4.6,0,9.9-0.6,13.4-2l-0.6-7.5c-4.7,1.9-8.6,2.4-12.8,2.4c-13.7,0-23.6-8.6-23.6-21.7
	c0-12.4,9.5-21.4,23-21.4c5,0,9.3,1,12.8,2.8L501.8,515.6z M548.2,563.1h-26.8v-18.7h24.2v-6.7h-24.2v-16.9h26V514h-35.2v56h36
	V563.1z M524,414.5l-18.4,47.1l-18.4-47.1h-13.1v56h8.3v-49l19.2,49h8l19.2-49v49h8.3v-56H524z M359.2,468.4c4.9,1.7,13,3,18.4,3
	c13,0,23.4-5.5,23.4-16.3c0-8.4-7.2-12.6-15.5-15.8l-4.9-1.9c-6.3-2.5-11-5-11-9.6c0-5.8,6.5-8.6,13.4-8.6c5.4,0,10.4,1.1,14.9,2.7
	l0.6-6.1c-5.2-1.5-10-2.2-15.8-2.2c-10.8,0-22.9,4.4-22.9,15.1c0,7.6,6.7,11.6,13.5,14.3l5.1,2c7,2.6,12.7,5.7,12.7,11.3
	c0,6.7-7,9.5-14,9.5c-6.3,0-12.3-1.6-17.4-3.9L359.2,468.4z M558.5,470.6v-22.3h7.7c13.1,0,24.1-4.5,24.1-17.5
	c0-12.5-11.1-16.1-23.4-16.1h-17.4v56H558.5z M558.5,420.2h8.9c7.7,0,13.3,3.1,13.3,10.5c0,7.4-5,11.7-13.3,11.7h-8.9V420.2z
	 M596.3,442.6c0,15.7,9.8,28.9,28.4,28.9c18.7,0,28.5-12.6,28.5-28.9c0-16.3-9.2-28.9-28.5-28.9
	C605.8,413.7,596.3,426.9,596.3,442.6 M624.7,465.5c-13.4,0-18.7-12.7-18.7-22.8c0-10.2,5.5-22.9,18.7-22.9
	c13.5,0,18.8,12.4,18.8,22.9C643.4,453,638.1,465.5,624.7,465.5 M407.6,442.6c0,15.7,9.8,28.9,28.4,28.9c18.7,0,28.5-12.6,28.5-28.9
	c0-16.3-9.2-28.9-28.5-28.9C417.1,413.7,407.6,426.9,407.6,442.6 M436,465.5c-13.4,0-18.7-12.7-18.7-22.8c0-10.2,5.5-22.9,18.7-22.9
	c13.5,0,18.7,12.4,18.7,22.9C454.7,453,449.4,465.5,436,465.5 M85.6,470.3h8.6v-25h2.5c8.6,0,10.8,1.4,13.4,7.1l8.4,17.9h9.5
	l-10-20.4c-2-4-4.2-6.4-8.1-7.7V442c7.9-1.5,13.3-5.5,13.3-13.1c0-11-8.8-14.7-22.8-14.7H85.6V470.3z M94.2,421.1h4
	c10.4,0,16.3,1.4,16.3,8.5c0,6.4-5.9,8.9-16.3,8.9h-4V421.1z M197.6,414.3h-9l-25.8,56h9.4l6.3-14.1h29.3l6.3,14.1h9.7L197.6,414.3z
	 M204.9,449.7h-23.7l7.6-18.4c1.1-2.5,3.1-7.4,4-10.2h0.2c1,2.8,3,7.9,4,10.2L204.9,449.7z M299,414.3h-9l-25.8,56h9.4l6.2-14.1
	h29.3l6.4,14.1h9.7L299,414.3z M306.1,449.7h-23.7l7.6-18.4c1-2.5,3-7.4,4-10.2h0.2c1,2.8,3,7.9,4,10.2L306.1,449.7z M75.1,463.4
	H48.3v-18.7h24.2v-6.7H48.3v-16.9h26.1v-6.8H39.2v56h35.9V463.4z M-9.7,470.4H6.7c11.9,0,22.9-4,22.9-15.4c0-7.6-5.9-12.4-14.6-13.4
	v-0.1c8.4-1.5,13.3-6,13.3-13c0-9.6-8-14.2-22.2-14.2H-9.7V470.4z M-1.4,420.7H5c8.6,0,14.6,1.9,14.6,8.7c0,8-7.8,8.9-16.2,8.9h-4.7
	V420.7z M-1.4,444.6h4.5c12.2,0,17.7,3,17.7,9.8c0,6.6-5.2,9.5-15.7,9.5h-6.5V444.6z M133.9,469.8c2,0.6,5,1.1,7.8,1.1
	c11.5,0,16.5-7.1,16.5-15.9v-41.2h-8.8v38.9c0,8.5-2.7,11.3-9.7,11.3c-2,0-4.1-0.4-5.9-1V469.8z M215.8,414.2l24,32.6v23.6h8.8
	v-23.7l23.7-32.4h-10.4l-7.8,11.3c-2.4,3.5-7.8,11.4-9.6,14.3h-0.2c-1.9-2.9-7.3-10.7-9.8-14.3l-8-11.3H215.8z"/>
<g>
	<defs>
		<path id="SVGID_1_" d="M199.2,243.5c0,67.6,54.8,122.3,122.3,122.3c67.6,0,122.3-54.8,122.3-122.3c0-67.6-54.7-122.3-122.3-122.3
			S199.2,175.9,199.2,243.5"/>
	</defs>
	<clipPath id="SVGID_2_">
		<use xlink:href="#SVGID_1_"  style="overflow:visible;"/>
	</clipPath>
	
		<linearGradient id="SVGID_3_" gradientUnits="userSpaceOnUse" x1="110.9038" y1="619.559" x2="117.6477" y2="619.559" gradientTransform="matrix(-1.900000e-006 -36.2777 -36.2777 1.900000e-006 22797.668 4389.104)">
		<stop  offset="0" style="stop-color:#7C030B"/>
		<stop  offset="1" style="stop-color:#DF0231"/>
	</linearGradient>
	<rect x="199.2" y="121.1" class="st0" width="244.6" height="244.7"/>
</g>
<g>
	<g>
		<g>
			<defs>
				<rect id="SVGID_4_" x="252" y="121.1" width="184.2" height="208"/>
			</defs>
			<clipPath id="SVGID_5_">
				<use xlink:href="#SVGID_4_"  style="overflow:visible;"/>
			</clipPath>
			<path class="st1" d="M415.2,322.1c9-10.7,16.2-22.9,21.1-36.2c-17.1,13.4-38.5,21.3-61.9,21.3c-55.5,0-100.5-45-100.5-100.5
				c0-36.2,19.2-68,48-85.6c0,0-0.2,0-0.4,0c-14.3,0-28.1,2.5-40.8,7c-17.9,21.3-28.7,48.7-28.7,78.7c0,67.6,54.8,122.3,122.4,122.3
				C388.7,329.1,402.4,326.6,415.2,322.1"/>
		</g>
	</g>
</g>
<g>
	<defs>
		<path id="SVGID_6_" d="M263.8,193.3c0-59.5,48.3-107.9,107.9-107.9c59.5,0,107.8,48.3,107.8,107.9c0,59.6-48.3,107.9-107.8,107.9
			C312.1,301.2,263.8,252.9,263.8,193.3 M249.4,193.3c0,67.6,54.8,122.3,122.3,122.3c67.5,0,122.3-54.8,122.3-122.3
			C494,125.7,439.2,71,371.7,71C304.1,71,249.4,125.7,249.4,193.3"/>
	</defs>
	<clipPath id="SVGID_7_">
		<use xlink:href="#SVGID_6_"  style="overflow:visible;"/>
	</clipPath>
	
		<linearGradient id="SVGID_8_" gradientUnits="userSpaceOnUse" x1="112.0811" y1="618.3813" x2="118.825" y2="618.3813" gradientTransform="matrix(-1.900000e-006 -36.2766 -36.2766 1.900000e-006 22804.4648 4381.5449)">
		<stop  offset="0" style="stop-color:#DCDDDD"/>
		<stop  offset="8.791211e-002" style="stop-color:#BFC0C0"/>
		<stop  offset="0.4" style="stop-color:#4C4948"/>
		<stop  offset="0.5" style="stop-color:#EFEFEF"/>
		<stop  offset="1" style="stop-color:#D3D3D4"/>
	</linearGradient>
	<rect x="249.4" y="71" class="st2" width="244.6" height="244.6"/>
</g>
<g>
	<defs>
		<path id="SVGID_9_" d="M271.2,193.3c0-55.5,45-100.4,100.5-100.4c55.4,0,100.4,45,100.4,100.4c0,55.5-45,100.5-100.4,100.5
			C316.2,293.8,271.2,248.8,271.2,193.3 M260.5,193.3c0,61.4,49.8,111.2,111.2,111.2c61.4,0,111.1-49.8,111.1-111.2
			c0-61.4-49.7-111.1-111.1-111.1C310.3,82.1,260.5,131.9,260.5,193.3"/>
	</defs>
	<clipPath id="SVGID_10_">
		<use xlink:href="#SVGID_9_"  style="overflow:visible;"/>
	</clipPath>
	
		<linearGradient id="SVGID_11_" gradientUnits="userSpaceOnUse" x1="111.7752" y1="617.918" x2="118.5191" y2="617.918" gradientTransform="matrix(-1.700000e-006 -32.9666 -32.9666 1.700000e-006 20742.3047 3989.3054)">
		<stop  offset="0" style="stop-color:#666464"/>
		<stop  offset="0.2747" style="stop-color:#B5B5B6"/>
		<stop  offset="0.5" style="stop-color:#EFEFEF"/>
		<stop  offset="0.8626" style="stop-color:#B5B5B6"/>
		<stop  offset="1" style="stop-color:#4C4948"/>
	</linearGradient>
	<rect x="260.5" y="82.1" class="st3" width="222.3" height="222.3"/>
</g>
</svg>
