<svg id="Layer_1" data-name="Layer 1" xmlns="http://www.w3.org/2000/svg" viewBox="0 0 279.79 118.13"><title>Etiqa logo - Brandlogos.net</title><path d="M153.73,174.19h-5.13c-11.16-4-3.21-20.23,6.86-14.81C160.41,162,160.56,172.5,153.73,174.19Z" transform="translate(-22.47 -158.27)" style="fill-rule:evenodd"/><path d="M220.25,226.75c5.41,3.61,12.25,8.51,21.87,6-1.42,3.16-2.56,6.56-4.13,9.56-16.06,5-22.6-8.52-35.19-10.63-4.55-.76-8.21-.5-11.94-2-10.83-4.31-17.7-15.42-18.73-28.72-1.72-22,7-41.11,28.45-42.48,16.4-1,27.62,8.8,31.39,21.17C237.16,196.65,232.89,219.41,220.25,226.75Zm-21.06-57.08c-16.56,2.47-15.68,44.5-2.84,50.44a17.18,17.18,0,0,0,13.32,0c5.51-2.54,8-10.56,8.58-18.44,1.23-17.18-1.08-34.72-18.38-32C199.64,169.71,199.41,169.63,199.19,169.67Z" transform="translate(-22.47 -158.27)" style="fill-rule:evenodd"/><path d="M133.94,159.32c-.74,4.24-2.27,7.7-3.43,11.53l-16.41,0q-.07,29.85-.12,59.68l-13.67,0q.07-29.82.12-59.67l-18.44,0c.22-3.75-.45-8.35.35-11.54Q108.15,159.26,133.94,159.32Z" transform="translate(-22.47 -158.27)" style="fill-rule:evenodd"/><path d="M302.26,223.64c-2.64,3.17-4.88,6.71-8.22,9.21-3.66-2-6.81-4.42-8.53-8.25-3.58,2.6-8.12,6.56-14.36,7.22-17,1.81-28.4-6.53-26.6-23.14,1.71-15.81,19.33-19.66,38-19-.21-5,.26-9-1.68-11.87-5.78-8.47-23.17,1.45-28.37,4.21-1.64-3.79-4.35-6.56-6.13-10.23,9.62-6.07,30.13-13.63,43.08-5.51s5.36,31.1,7.07,48.15A11,11,0,0,0,302.26,223.64Zm-41-17.9c-2.14,4.53-1.59,10.81,2,13.86,5.53,4.68,16.95.67,18.46-5.24,1.31-5-.54-9.17.38-14.83C273.46,198.56,264,200,261.3,205.74Z" transform="translate(-22.47 -158.27)" style="fill-rule:evenodd"/><path d="M79.2,200.73l-40.33-.07c-.09,8.79,2.21,15.24,8.17,18.14,9,4.4,20-.56,25.63-4.57,1.7,2.88,3.54,5.6,5.46,8.27-6.63,5.36-13.61,8.9-24.63,8.84-20-.1-31-14.47-31-34.35,0-16.48,8-32.55,25.36-34.24C72.43,160.35,80.26,177.53,79.2,200.73ZM44.73,175.27c-4.09,2.71-5.35,8.06-5.84,14.82,7.63.78,16.74.15,24.94.39C65.58,178.09,54.33,168.94,44.73,175.27Z" transform="translate(-22.47 -158.27)" style="fill-rule:evenodd"/><path d="M157.14,178.81c.76,16.59,0,34.61.23,51.76h-13q0-23.92.1-47.82C148.57,181.31,153.09,180.28,157.14,178.81Z" transform="translate(-22.47 -158.27)" style="fill-rule:evenodd"/><path d="M103.15,241.36h15.79a4.93,4.93,0,0,1,2.21,1.11c.62.72,35.27,50.94,87.44-1,0,0,2.33-1.77,4-.18a2.86,2.86,0,0,1,.5,3.55s-48.81,70.67-111.08.67A3,3,0,0,1,103.15,241.36Z" transform="translate(-22.47 -158.27)" style="fill:#ffc10e"/></svg>