<?xml version="1.0" encoding="UTF-8"?><svg id="Layer_1" xmlns="http://www.w3.org/2000/svg" viewBox="0 0 89.2 72.11"><defs><style>.cls-1{fill:#c5281c;}</style></defs><path class="cls-1" d="M17.1,64.01v-6.1c3.8,0,5.2-.2,5.9,4.5h.4v-5.2h-10.5v.7h1.8v13.5h-2v.7h10.8v-5.5h-.5c-.5,4.2-1.6,4.8-4.6,4.8h-1.4v-6.5h.8c1.3,0,2.1.8,2.4,3.1h.5v-6.8h-.5s-.1,2.9-2.4,2.9h-.7v-.1Z"/><path class="cls-1" d="M12.8,64.21h-5.9v.7h2v4.8c-.3,1.2-2.2,1.7-2.7,1.7-3.8,0-3.5-5.5-3.5-7,0-1.3-.1-7,3.5-7,2.6,0,3.9,2.5,4.4,4.8h.4v-5.4s-1.8,1.3-1.8,1.2c0,0-.8-1.2-3.1-1.2-4.4,0-6.1,4.4-6.1,7.5,0,2.8,1.3,7.7,6.1,7.7,1.5,0,2.5-.8,3.1-1.6l1.9,1.5v-7.1h1.6v-.6h.1Z"/><path class="cls-1" d="M81.7,66.51c-.5,4.2-1.6,4.8-4.6,4.8h-.2v-13.4h1.9v-.7h-6.2v.7h1.9v13.5h-1.5l-5.5-14.6h-.8s-4.6,13.2-4.6,13.3c0,0-.3,1.1-1.1,1.3-.7,0-.6-.3-.6-.5v-2.6c0-.7-.1-2.2-.7-2.9-.8-.8-2.1-.8-2.1-.9,0,0,3.4-.7,3.4-3.9,0-2.3-1.6-3.4-4.2-3.5h-7.4v.7h1.9v13.5h-1.9v.7h6.1v-.7h-1.9v-6.5h2.5c4.4.4-.8,7.2,5,7.2h3.6v-.7c-.2,0-1.5,0-1.6-.9-.1-.7.9-3.1.9-3.1h5s1.5,4,1.6,4h-1.7v.7h13.5v-5.5s-.7,0-.7,0ZM56,64.11h-2.4v-6.2h3.1c1.8.3,1.9,2.4,1.9,3,0,1.6-.7,3.2-2.6,3.2M64.4,66.71l2.2-6.4,2.3,6.4h-4.5Z"/><path class="cls-1" d="M42,57.81c3.8,0,5.3-.2,5.9,4.5h.4v-5.2h-15.2v.7h.4c.5,0,1.8,0,1.9,1.2h0v8.6l-7.1-10.5h-3.9v.7h.6c.8,0,1.8,0,1.9,1.2v11c0,1.1-1.6,1.5-2.3,1.5h0v.5h5.3v-.5c-.7,0-2.3-.4-2.3-1.5v-9.7c2.8,4,8.1,11.7,8.2,11.7h.3v-13c.1-1.1,1.3-1.2,1.9-1.2h1.7v13.5h-2v.7h10.8v-5.5h-.5c-.5,4.2-1.6,4.8-4.6,4.8h-1.4v-6.5h.8c1.3,0,2.1.8,2.4,3.1h.5v-6.8h-.5s-.1,2.9-2.4,2.9h-.7v-6.2h-.1Z"/><polygon class="cls-1" points="89.1 57.91 89.1 57.11 83 57.11 83 57.91 84.9 57.91 84.9 71.31 83 71.31 83 72.01 89.1 72.01 89.1 71.31 87.1 71.31 87.1 57.91 89.1 57.91"/><path class="cls-1" d="M73,47.91l1.9-.7h0c2.7-1.1,3.1-1.8,2.9-3.6v-7.2c2,5.2,4,8.8,7.9,8.8.5,0,1.1-.1,1.7-.2l1.5-.3-1.1-1.2c-.7-.7-1-1.3-1.4-2-.2-.3-.3-.6-.5-.9-.9-1.5-3.1-2-4.9-1.2-.8-1.6-1.6-3.7-2.6-6.3l-.2-.5c-.2-.4-.3-.8-.5-1.2v-.1h0c-.6-1.4-1.3-2.7-2-4-.7-1.2-1.4-2.2-2.2-3.1-2.1-2.4-4.8-3.9-8.1-4.5-2.3-.4-3.9-.5-6-.6-.4,0-.9,0-1.3-.1-.9-.1-2.8-.2-4.7-.4-1.3-.1-2.5-.2-3.5-.3.1-.3.1-.6.1-.9,0-.4,0-.8-.1-1.1h13.2c3.4,0,5.9-1.5,7.3-4.5,3.4,0,5.8-1.6,7.3-4.5h.5c3.5,0,6-1.6,7.5-4.8l.5-.9h-44.6c-2.9,0-5.4,1.9-6.4,4.9v.1c-.8-2.1-2.1-3.9-3.9-5C28.8.11,26-.39,23.8.31c-.7.2-1.5.5-2.1.9-.5.4-1.3.9-1.8,1.6-.6.7-1.1,1.6-1.5,2.4-.3.2-.5.4-.6.6l-.5,1v.1c-.6,1.4-1.4,2.4-2,3.2-.6.7-.6,1.4-.6,1.8.1.5.3.9.6,1.2h0c-.2.3-.3.7-.3,1,0,1.2,1,2.1,2.3,2.1.9,0,1.7-.4,2.5-1,.3-.2,1.2-.8,1.5-.8.4,0,.7.3.7.7,0,1-1.2,1.5-2.1,1.5l-1.8.2c-1.3.1-1.9.8-1.9,1.4s.3,1,.5,1.2l.1.1.5.4-2.1,3.2c-1.4-1.3-3-2-4.4-2.1-.9,0-1.7.2-2.3.8-.2.2-.3.3-.4.5h0c-1.5,0-2.7.8-3.3,1.7-.7,1-.4,2.7.4,4L.2,29.41v23.2h89v-4.6h-16.2v-.1ZM84.5,41.61c.2.3.3.6.5.8.2.3.4.6.6,1-1.4-.1-2.5-.9-3.4-2.3.8-.4,1.9-.1,2.3.5M65.2,21.81c2.9.5,5.2,1.8,7,3.8.4.4.7.9,1.1,1.4-4.8-.6-6.5-1.3-9.2-5.4.4,0,.7.1,1.1.2M63.1,14.81h-9.1c.8-.7,1.4-1.6,1.9-2.6h12.3c-1,1.8-2.7,2.6-5.1,2.6M70.3,10.41h-9.1c.8-.7,1.5-1.6,2-2.7h12.3c-1,1.8-2.7,2.7-5.2,2.7M71,3.51h12.2c-1.2,1.6-2.8,2.4-5.1,2.4h-9.1c.8-.7,1.5-1.5,2-2.4M21.4,3.91c.3-.4.8-.8,1.3-1.2.4-.3,1-.6,1.6-.7.9-.2,1.9-.2,2.9,0l-3.3,2c-.4,0-.8-.1-1.2-.1-.6,0-1.1,0-1.5.1q.1,0,.2-.1M17.6,18.31c0-.1.1-.2.2-.2l1.6.1c1.9-.1,3.9-.9,4.1-2.9,0-1.4-1-2.7-2.3-2.7-.7,0-1.6.5-2.5,1.1-.6.4-1.1.7-1.4.7-.2,0-.4-.2-.4-.3v-.1l1-1.4-.9-.6c-.2-.1-.5-.4-.5-.5s.1-.2.1-.3c.4-.4.8-.9,1.2-1.6.3-.4.4-.6.8-.6s.8.3.8.8c0,.3.3.5.7.5s.6-.3.8-.5c0,0,.9-.8.4-1.2s-2.7.5-2.1-1.5l.2-.3c.2-.3,1.3-1.1,3.4-1.1.4,0,.8,0,1.3.1h.3l4.6-2.8c0,.1.1.2.1.2h0c.2,1.4-.6,3-2,3.8l-.6.3.4,2.1c-1.2.4-2,1.3-2,2.4,0,.4.1.9.2,1.4.1.7.3,1.4.3,2.1,0,2.2-3,3.6-5.5,3.5h-.1c-.1,0-1.7-.1-2.1-.4-.1.1-.1,0-.1-.1M6.2,25.11c.4-.6,1.2-1,2.2-.9l.8.1.3-.7c.1-.2.2-.4.3-.5.2-.2.6-.3,1-.3,1.1,0,2.5.8,3.6,2,.4.4.8,1,1.1,1.5.1.1.1.2.2.3.1.1.2.3.2.3,0,.1.6.9.6,1,.4-.5.8-1.1,1.1-1.6v-.1c-.1-.2-.3-.5-.4-.7l-.1-.1h0s-.1-.1-.1-.2c-.1-.2-.3-.5-.4-.6l2.4-3.8c.6.1,1.1.1,1.4.1h.1c3.4,0,6.9-2,6.9-5.2v-.1c0-.9-.2-1.7-.3-2.4-.1-.5-.2-.9-.2-1.1,0-.4.5-.8,1.2-.8h1.1l-.5-2.8c1.5-1.1,2.5-3,2.4-4.7,1.7,1.3,2.8,3.5,3,5.8.1.7-.1,1.6-.3,2.6l-.1.4h0c-.4,1.6-1,3.3-1.3,4.1l-.3.7.7.4c1.2.7,2,1.2,2,2.8,0,1.9-1.7,3.3-3.3,3.6l-2.3.4,1.9,1.3c.6.4,1,1.1,1,1.8,0,1.2-1,2.1-2.2,2.1h-.7l-.2.6c-.7,2.2-1.4,3.3-3.8,3.6,0-.7,0-1.4,0-2.3v-1l-.1-2.1-1.5,1.5c-.5.5-1.4.9-2.4,1.1v-1.8l-10.5-2.8-3.7,1c-.8-.8-1-2.2-.8-2.5M3.2,47.91l7.6-2,7.6,2H3.2ZM19.4,46.31l-8.7-2.3-8.7,2.3v-15.5l8.7-2.3,8.7,2.3v15.5ZM23.5,43.31c-.8,1.1-.9,2.7-.3,4.6h-1.9v-14.8c.7-.1,1.4-.3,2.1-.6,0,.6-.1,1.2-.2,1.8,0,.2-.1.3-.1.5l-.2,1.1h1.1c1.6,0,2.8-.3,3.8-.7v6.2c0,.2-.1.3-.3.3h-.3c-1.6-.1-3,.5-3.7,1.6M43.5,43.71c-.7.8-1.3,2.1-.9,4.2h-11.3c1.2-.1,2.1-.4,2.7-1,.7-.8.8-1.8.8-2.6,0-.1.1-.3.7-.6l1-.4-.6-.9c-1-1.5-.5-4.7-.2-6.5h.1c3.8,0,6.3-.8,8.9-1.6.7-.2,1.4-.4,2.1-.7h0s.8-.2,1.8-.5l3.7,6.1v.1c.4.5.4.9-.3,1.6l-1.8,2-3-.6h0c-1.3-.2-2.8.4-3.7,1.4M44.5,47.91c-.3-1.3-.2-2.3.4-3,.6-.7,1.4-.8,2.1-.8l3.5.6h.6l2.5-2.7h0c.4-.5,1.7-2,.4-3.9l-3.3-5.4c.5-.1,1.1-.1,1.6-.1h0s1.7,0,3.5,1c.2.5.6,1.2.9,2,.7,1.4,1.6,3.2,1.8,3.9.1.2.3.9-.5,1.8l-6.3,6.7h-7.2v-.1ZM66.1,47.91h-12l5.1-5.4c1-1.1,1.4-2.4.9-3.6-.2-.7-.9-2.1-1.6-3.6,2,.9,5.1,1.8,11.4,2.3.8.1,1,.3,1.1,1l.3,2.7-3.3.7c-1.1.2-2,.9-2.4,2-.4,1.2-.2,2.6.5,3.9M67.4,44.71c.2-.5.5-.8,1-.9l4.9-1.1-.4-4.4v-.1c-.1-.6-.5-2.3-2.8-2.5-8.8-.7-10.8-2-13-3.4h0l-.1-.1c-2.3-1.5-4.6-1.5-4.8-1.5-2.5,0-5.6,1-5.9,1.1-.8.2-1.5.5-2.2.7-2.8.9-5.1,1.7-9.1,1.5h-.7l-.2.7c-.1.5-1.3,5-.2,7.8-1,.8-1,1.6-1,1.8,0,1-.2,1.2-.3,1.3-.5.5-2,.5-3.3.5h-.5l-.3.4c-.8,1.1-2.5,1.4-3.6,1.1-.5-1.5-.5-2.6,0-3.3.6-.8,1.7-.9,2.2-.9h.3c1.2,0,2.1-1,2.1-2.1v-7.9c.4-.5.6-1.2.9-1.9,1.9-.3,3.4-1.9,3.4-3.9,0-.8-.2-1.5-.6-2.1,1.8-.9,3.3-2.6,3.3-4.9s-1.2-3.4-2.3-4c.3-.9.8-2.4,1.2-4l1.5-5.5c.7-2.2,2.5-3.6,4.6-3.6h27.2c-1.2,1.6-2.8,2.4-5.1,2.4h-16.3l-.9,1.8h14.8c-1.2,1.8-2.9,2.7-5.3,2.7h-10.7l-.9,1.8h9.5c-1.2,1.8-2.8,2.6-5.2,2.6h-5.8l-.9,1.8h6.1c.1.1.2.4.2,1.1,0,1.2-1,2.1-2.2,2.1-.4,0-.8-.1-1.4-.4-.3-.1-.5-.2-.8-.3l-1.4,1.3c.3.1.5.2.8.3h0c1.2.5,1.9.8,2.8.8,1.1,0,2.1-.5,2.9-1.2,1,.1,2.7.2,4.4.3,2,.2,3.8.3,4.8.4.5,0,.9,0,1.4.1.8,0,1.6.1,2.3.1,3.7,6,5.6,6.8,12.8,7.7.5.9,1,1.9,1.4,2.9v12.6c-.3.3-1.4.8-1.7.9l-6.1,2.5c-.8-1.1-1.1-2.2-.8-3.1"/><polygon class="cls-1" points="17.5 33.21 11.7 31.71 11.7 33.61 17.5 35.11 17.5 33.21"/><polygon class="cls-1" points="4 35.11 9.8 33.61 9.8 31.71 4 33.21 4 35.11"/><polygon class="cls-1" points="4 38.91 9.8 37.41 9.8 35.51 4 37.01 4 38.91"/><polygon class="cls-1" points="17.5 37.01 11.7 35.51 11.7 37.41 17.5 38.91 17.5 37.01"/><polygon class="cls-1" points="17.5 40.81 11.7 39.31 11.7 41.21 17.5 42.71 17.5 40.81"/><polygon class="cls-1" points="4 42.71 9.8 41.21 9.8 39.31 4 40.81 4 42.71"/></svg>