<?xml version="1.0" encoding="iso-8859-1"?>
<!-- Generator: Adobe Illustrator 24.3.0, SVG Export Plug-In . SVG Version: 6.00 Build 0)  -->
<svg version="1.1" id="Layer_1" xmlns="http://www.w3.org/2000/svg" xmlns:xlink="http://www.w3.org/1999/xlink" x="0px" y="0px"
	 viewBox="0 0 500 500" style="enable-background:new 0 0 500 500;" xml:space="preserve">
<g id="watermark_1_">
	<g>
		<g id="watermark" style="opacity:0.61;">
			<g>
				<g>
					<g>
						<g>
							<polygon style="fill:#FFFFFF;" points="213.765,461.172 208.204,474.017 205.268,474.017 199.726,461.172 202.938,461.172 
								206.846,470.347 210.81,461.172 							"/>
						</g>
						<g>
							<path style="fill:#FFFFFF;" d="M223.507,469.741h-7.469c0.275,1.23,1.321,1.982,2.826,1.982c1.046,0,1.798-0.312,2.477-0.954
								l1.523,1.651c-0.917,1.046-2.294,1.597-4.074,1.597c-3.413,0-5.634-2.147-5.634-5.083c0-2.954,2.257-5.083,5.267-5.083
								c2.899,0,5.138,1.945,5.138,5.12C223.562,469.191,223.526,469.503,223.507,469.741 M216.002,468.071h4.863
								c-0.202-1.248-1.138-2.055-2.422-2.055C217.139,466.016,216.204,466.805,216.002,468.071"/>
						</g>
						<g>
							<path style="fill:#FFFFFF;" d="M224.735,468.934c0-2.973,2.294-5.083,5.505-5.083c2.074,0,3.707,0.899,4.423,2.514
								l-2.22,1.193c-0.532-0.936-1.321-1.358-2.221-1.358c-1.45,0-2.587,1.009-2.587,2.734c0,1.725,1.138,2.734,2.587,2.734
								c0.899,0,1.688-0.404,2.221-1.358l2.22,1.211c-0.716,1.578-2.349,2.495-4.423,2.495
								C227.029,474.017,224.735,471.907,224.735,468.934"/>
						</g>
						<g>
							<path style="fill:#FFFFFF;" d="M242.828,473.393c-0.587,0.422-1.45,0.624-2.331,0.624c-2.33,0-3.688-1.193-3.688-3.542
								v-4.055h-1.523v-2.202h1.523v-2.404h2.863v2.404h2.459v2.202h-2.459v4.019c0,0.844,0.458,1.303,1.229,1.303
								c0.422,0,0.844-0.128,1.156-0.367L242.828,473.393z"/>
						</g>
					</g>
					<g>
						<path style="fill:#FFFFFF;" d="M262.474,463.997v2.643c-0.238-0.018-0.422-0.037-0.642-0.037
							c-1.578,0-2.624,0.862-2.624,2.753v4.661h-2.863v-9.873h2.734v1.303C259.776,464.493,260.951,463.997,262.474,463.997"/>
					</g>
					<g>
						<path style="fill:#FFFFFF;" d="M263.299,472.53l1.009-2.239c1.083,0.789,2.697,1.339,4.239,1.339
							c1.762,0,2.477-0.587,2.477-1.376c0-2.404-7.469-0.752-7.469-5.524c0-2.184,1.762-4,5.413-4c1.615,0,3.267,0.385,4.459,1.138
							l-0.918,2.257c-1.193-0.679-2.422-1.009-3.56-1.009c-1.761,0-2.44,0.66-2.44,1.468c0,2.367,7.468,0.734,7.468,5.45
							c0,2.147-1.78,3.982-5.45,3.982C266.492,474.017,264.437,473.411,263.299,472.53"/>
					</g>
					<g>
						<path style="fill:#FFFFFF;" d="M285.428,469.741h-7.469c0.275,1.23,1.321,1.982,2.826,1.982c1.046,0,1.798-0.312,2.477-0.954
							l1.523,1.651c-0.918,1.046-2.294,1.597-4.074,1.597c-3.413,0-5.634-2.147-5.634-5.083c0-2.954,2.257-5.083,5.267-5.083
							c2.9,0,5.138,1.945,5.138,5.12C285.484,469.191,285.447,469.503,285.428,469.741 M277.923,468.071h4.863
							c-0.202-1.248-1.138-2.055-2.422-2.055C279.061,466.016,278.125,466.805,277.923,468.071"/>
					</g>
					<g>
						<path style="fill:#FFFFFF;" d="M297.007,469.741h-7.469c0.275,1.23,1.321,1.982,2.826,1.982c1.046,0,1.798-0.312,2.477-0.954
							l1.523,1.651c-0.918,1.046-2.294,1.597-4.074,1.597c-3.413,0-5.634-2.147-5.634-5.083c0-2.954,2.257-5.083,5.267-5.083
							c2.899,0,5.138,1.945,5.138,5.12C297.062,469.191,297.025,469.503,297.007,469.741 M289.501,468.071h4.863
							c-0.202-1.248-1.138-2.055-2.422-2.055C290.639,466.016,289.703,466.805,289.501,468.071"/>
					</g>
					<g>
						<polygon style="fill:#FFFFFF;" points="303.208,470.145 301.831,471.503 301.831,474.017 298.969,474.017 298.969,460.401 
							301.831,460.401 301.831,468.108 306.016,464.144 309.429,464.144 305.318,468.328 309.796,474.017 306.327,474.017 						"/>
					</g>
					<g>
						<path style="fill:#FFFFFF;" d="M256.601,475.359L256.601,475.359l-2.86-2.86c-0.435,0.508-0.953,0.943-1.534,1.284
							c-0.092,0.069-0.186,0.136-0.283,0.199l3.027,3.027c0.456,0.456,1.195,0.456,1.65,0
							C257.057,476.554,257.057,475.815,256.601,475.359"/>
					</g>
					<g>
						<path style="fill:#FFFFFF;" d="M249.984,463.244c0.221-0.173,0.495-0.281,0.797-0.281c0.042,0,0.083,0.002,0.124,0.006
							c-0.214-0.156-0.478-0.249-0.764-0.249c-0.395,0-0.744,0.18-0.981,0.458c-0.051,0-0.1,0.006-0.151,0.008
							c0.039-0.077,0.064-0.162,0.064-0.255c0-0.234-0.143-0.434-0.346-0.519c0.087,0.126,0.138,0.279,0.138,0.445
							c0,0.122-0.031,0.237-0.081,0.341c-2.811,0.201-5.03,2.539-5.03,5.4c0,2.993,2.426,5.42,5.42,5.42
							c2.993,0,5.42-2.426,5.42-5.42C254.595,465.879,252.593,463.635,249.984,463.244 M247.983,464.656
							c0.435,0,0.844,0.112,1.199,0.309c0.374-0.245,0.82-0.387,1.299-0.387c0.711,0,1.348,0.312,1.784,0.806
							c-0.435-0.379-1.004-0.61-1.627-0.61c-0.449,0-0.87,0.12-1.234,0.329c-0.079,0.046-0.156,0.096-0.229,0.15
							c-0.065-0.048-0.133-0.093-0.204-0.134c-0.369-0.219-0.8-0.344-1.26-0.344c-0.3,0-0.588,0.054-0.854,0.152
							C247.196,464.754,247.578,464.656,247.983,464.656 M251.772,469.098c0.115,0.305,0.181,0.634,0.181,0.979
							c0,1.534-1.244,2.777-2.778,2.777c-1.534,0-2.777-1.243-2.777-2.777c0-0.345,0.066-0.674,0.181-0.979
							c-0.62-0.382-1.035-1.064-1.035-1.846c0-1.197,0.971-2.168,2.168-2.168c0.565,0,1.078,0.218,1.463,0.572
							c0.386-0.354,0.899-0.572,1.464-0.572c1.197,0,2.168,0.971,2.168,2.168C252.807,468.034,252.392,468.716,251.772,469.098"/>
					</g>
					<g>
						<path style="fill:#FFFFFF;" d="M251.666,467.061c0,0.497-0.404,0.901-0.901,0.901c-0.497,0-0.901-0.404-0.901-0.901
							s0.404-0.901,0.901-0.901c0.101,0,0.197,0.017,0.287,0.047c-0.03,0.062-0.045,0.132-0.045,0.204
							c0,0.273,0.221,0.494,0.494,0.494c0.05,0,0.099-0.008,0.146-0.022C251.66,466.941,251.666,467,251.666,467.061"/>
					</g>
					<g>
						<path style="fill:#FFFFFF;" d="M248.255,467.061c0,0.376-0.305,0.681-0.681,0.681c-0.376,0-0.681-0.305-0.681-0.681
							s0.305-0.681,0.681-0.681c0.076,0,0.149,0.013,0.217,0.035c-0.023,0.047-0.034,0.1-0.034,0.155
							c0,0.206,0.167,0.374,0.374,0.374c0.038,0,0.075-0.006,0.11-0.017C248.25,466.97,248.255,467.015,248.255,467.061"/>
					</g>
					<g>
						<g>
							<g>
								<rect x="242.908" y="467.83" style="fill:#FFFFFF;" width="0.616" height="0.616"/>
							</g>
							<g>
								<rect x="254.827" y="467.83" style="fill:#FFFFFF;" width="0.616" height="0.616"/>
							</g>
							<g>
								<path style="fill:#FFFFFF;" d="M255.205,468.082h-0.14c0-3.248-2.642-5.89-5.89-5.89c-3.248,0-5.89,2.642-5.89,5.89h-0.14
									c0-1.611,0.627-3.125,1.766-4.264c1.139-1.139,2.653-1.766,4.264-1.766c1.611,0,3.125,0.627,4.264,1.766
									C254.578,464.957,255.205,466.471,255.205,468.082"/>
							</g>
						</g>
						<g>
							<rect x="248.868" y="461.814" style="fill:#FFFFFF;" width="0.616" height="0.616"/>
						</g>
						<g>
							<rect x="244.95" y="462.052" style="fill:#FFFFFF;" width="8.45" height="0.14"/>
						</g>
						<g>
							<path style="fill:#FFFFFF;" d="M245.174,462.15c0,0.108-0.088,0.196-0.196,0.196c-0.108,0-0.196-0.088-0.196-0.196
								c0-0.108,0.088-0.196,0.196-0.196C245.086,461.954,245.174,462.042,245.174,462.15"/>
						</g>
						<g>
							<path style="fill:#FFFFFF;" d="M253.596,462.15c0,0.108-0.088,0.196-0.196,0.196c-0.108,0-0.196-0.088-0.196-0.196
								c0-0.108,0.088-0.196,0.196-0.196C253.509,461.954,253.596,462.042,253.596,462.15"/>
						</g>
					</g>
				</g>
				<g>
					<path style="fill:#FFFFFF;" d="M314.356,473.409c0,1.559-2.364,1.559-2.364,0C311.993,471.851,314.356,471.851,314.356,473.409
						z"/>
				</g>
				<g>
					<g>
						<g>
							<path style="fill:#FFFFFF;" d="M161.739,466.549l1.772,6.088l1.855-6.088h2.215l-2.823,8.14h-2.33l-0.837-2.396l-0.722-2.708
								l-0.722,2.708l-0.837,2.396h-2.33l-2.839-8.14h2.231l1.855,6.088l1.756-6.088H161.739z"/>
						</g>
						<g>
							<path style="fill:#FFFFFF;" d="M176.713,466.549l1.772,6.088l1.855-6.088h2.215l-2.823,8.14h-2.33l-0.837-2.396l-0.722-2.708
								l-0.722,2.708l-0.837,2.396h-2.33l-2.839-8.14h2.231l1.855,6.088l1.756-6.088H176.713z"/>
						</g>
						<g>
							<path style="fill:#FFFFFF;" d="M191.687,466.549l1.772,6.088l1.855-6.088h2.215l-2.823,8.14h-2.33l-0.837-2.396l-0.722-2.708
								l-0.722,2.708l-0.837,2.396h-2.33l-2.839-8.14h2.231l1.855,6.088l1.756-6.088H191.687z"/>
						</g>
					</g>
					<g>
						<path style="fill:#FFFFFF;" d="M200.908,473.52c0,1.559-2.364,1.559-2.364,0C198.545,471.962,200.908,471.962,200.908,473.52z
							"/>
					</g>
					<g>
						<path style="fill:#FFFFFF;" d="M322.71,473.409c-0.935,0.919-1.919,1.28-3.117,1.28c-2.346,0-4.3-1.411-4.3-4.282
							s1.953-4.284,4.3-4.284c1.149,0,2.035,0.329,2.921,1.199l-1.264,1.329c-0.476-0.428-1.066-0.64-1.623-0.64
							c-1.346,0-2.33,0.985-2.33,2.396c0,1.542,1.05,2.362,2.297,2.362c0.64,0,1.28-0.18,1.772-0.672L322.71,473.409z"/>
					</g>
					<g>
						<path style="fill:#FFFFFF;" d="M331.805,470.472c0,2.33-1.591,4.217-4.217,4.217c-2.626,0-4.201-1.887-4.201-4.217
							c0-2.314,1.609-4.217,4.185-4.217C330.149,466.255,331.805,468.158,331.805,470.472z M325.389,470.472
							c0,1.231,0.739,2.38,2.199,2.38c1.46,0,2.199-1.149,2.199-2.38c0-1.215-0.854-2.396-2.199-2.396
							C326.144,468.077,325.389,469.258,325.389,470.472z"/>
					</g>
					<g>
						<path style="fill:#FFFFFF;" d="M338.572,474.689v-4.332c0-1.068-0.559-2.035-1.658-2.035c-1.082,0-1.722,0.967-1.722,2.035
							v4.332h-2.003v-8.107h1.855l0.148,0.985c0.426-0.82,1.362-1.116,2.133-1.116c0.969,0,1.937,0.394,2.396,1.51
							c0.723-1.149,1.658-1.478,2.708-1.478c2.297,0,3.43,1.412,3.43,3.84v4.365h-2.003v-4.365c0-1.066-0.442-1.97-1.526-1.97
							c-1.082,0-1.756,0.935-1.756,2.003v4.332H338.572z"/>
					</g>
				</g>
			</g>
		</g>
		<g style="opacity:0.61;">
			<g>
				<g>
					<path style="fill:#FFFFFF;" d="M345.988,431.299c-0.006-1.224-0.959-2.121-2.189-2.14c-0.924-0.014-0.832,0.12-0.834-0.867
						c-0.003-1.097-0.007-2.194,0.003-3.292c0.003-0.379-0.112-0.691-0.362-0.976c-2.342-2.668-4.678-5.342-7.019-8.011
						c-0.12-0.137-0.275-0.244-0.414-0.366c-6.214,0-12.427,0-18.641,0c-0.794,0.293-1.14,0.868-1.138,1.709
						c0.01,3.748,0.004,7.496,0.004,11.243c0,0.556-0.003,0.589-0.55,0.551c-1.497-0.102-2.516,0.986-2.497,2.492
						c0.044,3.476,0.013,6.953,0.014,10.429c0.001,1.58,0.867,2.443,2.45,2.449c0.582,0.002,0.582,0.002,0.582,0.6
						c0,2.219-0.001,4.438,0.001,6.657c0.001,1.192,0.58,1.771,1.768,1.771c8.013,0.001,16.027,0.001,24.04,0
						c1.168,0,1.755-0.583,1.757-1.745c0.002-2.256,0-4.512,0.001-6.768c0-0.512,0.002-0.511,0.52-0.515
						c0.271-0.002,0.541,0.008,0.809-0.058c0.996-0.246,1.69-1.044,1.694-2.069C346.003,438.696,346.005,434.997,345.988,431.299z
						 M317.537,417.162c5.337,0,10.674,0,16.01,0c0.548,0,0.554,0.007,0.554,0.561c0.001,2.243-0.001,4.486,0.001,6.73
						c0.001,0.811,0.249,1.059,1.06,1.059c1.91,0.001,3.821,0,5.731,0.001c0.458,0,0.479,0.021,0.481,0.483
						c0.003,0.887,0.002,1.775,0,2.662c-0.001,0.477-0.024,0.498-0.504,0.499c-3.895,0.001-7.79,0-11.684,0
						c-3.882,0-7.765,0-11.647,0c-0.55,0-0.552-0.001-0.552-0.561c-0.001-3.624-0.001-7.247,0-10.871
						C316.987,417.166,316.991,417.162,317.537,417.162z M340.822,451.579c-3.883,0.001-7.766,0-11.65,0c-3.871,0-7.742,0-11.613,0
						c-0.572,0-0.574-0.002-0.574-0.579c-0.001-1.997-0.001-3.994,0.001-5.991c0-0.464,0.023-0.486,0.478-0.487
						c7.803-0.001,15.607-0.001,23.41,0c0.478,0,0.499,0.02,0.499,0.503c0.002,1.997,0.001,3.994,0,5.991
						C341.375,451.574,341.37,451.579,340.822,451.579z"/>
				</g>
				<g>
					<g>
						<rect x="327.418" y="417.053" style="fill:#FFFFFF;" width="1.757" height="1.054"/>
					</g>
					<g>
						<rect x="325.662" y="418.107" style="fill:#FFFFFF;" width="1.757" height="1.054"/>
					</g>
					<g>
						<rect x="327.418" y="419.161" style="fill:#FFFFFF;" width="1.757" height="1.054"/>
					</g>
					<g>
						<rect x="325.662" y="420.215" style="fill:#FFFFFF;" width="1.757" height="1.054"/>
					</g>
					<g>
						<rect x="327.418" y="421.269" style="fill:#FFFFFF;" width="1.757" height="1.054"/>
					</g>
					<g>
						<rect x="325.662" y="422.323" style="fill:#FFFFFF;" width="1.757" height="1.054"/>
					</g>
					<g>
						<rect x="327.418" y="423.378" style="fill:#FFFFFF;" width="1.757" height="1.054"/>
					</g>
					<g>
						<rect x="325.662" y="424.432" style="fill:#FFFFFF;" width="1.757" height="1.054"/>
					</g>
					<g>
						<rect x="327.418" y="425.486" style="fill:#FFFFFF;" width="1.757" height="1.054"/>
					</g>
					<g>
						<rect x="325.662" y="426.54" style="fill:#FFFFFF;" width="1.757" height="1.054"/>
					</g>
					<g>
						<rect x="327.418" y="427.594" style="fill:#FFFFFF;" width="1.757" height="1.054"/>
					</g>
					<g>
						<rect x="325.662" y="428.648" style="fill:#FFFFFF;" width="1.757" height="1.054"/>
					</g>
				</g>
			</g>
			<g>
				<path style="fill:#FFFFFF;" d="M187.637,431.299c-0.006-1.224-0.959-2.121-2.189-2.14c-0.924-0.014-0.832,0.12-0.834-0.867
					c-0.003-1.097-0.007-2.194,0.003-3.292c0.003-0.379-0.112-0.691-0.362-0.976c-2.342-2.668-4.678-5.342-7.019-8.011
					c-0.12-0.137-0.275-0.244-0.414-0.366c-6.214,0-12.427,0-18.641,0c-0.794,0.293-1.14,0.868-1.138,1.709
					c0.01,3.748,0.004,7.496,0.004,11.243c0,0.556-0.003,0.589-0.55,0.551c-1.497-0.102-2.516,0.986-2.497,2.492
					c0.044,3.476,0.013,6.953,0.014,10.429c0.001,1.58,0.867,2.443,2.45,2.449c0.582,0.002,0.582,0.002,0.582,0.6
					c0,2.219-0.001,4.438,0.001,6.657c0.001,1.192,0.58,1.771,1.768,1.771c8.013,0.001,16.027,0.001,24.04,0
					c1.168,0,1.755-0.583,1.757-1.745c0.002-2.256,0-4.512,0.001-6.768c0-0.512,0.002-0.511,0.52-0.515
					c0.271-0.002,0.541,0.008,0.809-0.058c0.996-0.246,1.69-1.044,1.694-2.069C187.652,438.696,187.655,434.997,187.637,431.299z
					 M159.187,417.162c5.337,0,10.674,0,16.01,0c0.548,0,0.554,0.007,0.554,0.561c0.001,2.243-0.001,4.486,0.001,6.73
					c0.001,0.811,0.249,1.059,1.06,1.059c1.91,0.001,3.821,0,5.731,0.001c0.458,0,0.479,0.021,0.481,0.483
					c0.003,0.887,0.002,1.775,0,2.662c-0.001,0.477-0.024,0.498-0.504,0.499c-3.895,0.001-7.79,0-11.684,0
					c-3.882,0-7.765,0-11.647,0c-0.55,0-0.552-0.001-0.552-0.561c-0.001-3.624-0.001-7.247,0-10.871
					C158.636,417.166,158.64,417.162,159.187,417.162z M182.472,451.579c-3.883,0.001-7.766,0-11.65,0c-3.871,0-7.742,0-11.613,0
					c-0.572,0-0.574-0.002-0.574-0.579c-0.001-1.997-0.001-3.994,0.001-5.991c0-0.464,0.023-0.486,0.478-0.487
					c7.803-0.001,15.607-0.001,23.41,0c0.478,0,0.499,0.02,0.499,0.503c0.002,1.997,0.001,3.994,0,5.991
					C183.024,451.574,183.019,451.579,182.472,451.579z"/>
			</g>
			<g>
				<path style="fill:#FFFFFF;" d="M159.779,440.669v-7.897h2.779c0.375,0,0.726,0.061,1.053,0.182
					c0.327,0.121,0.612,0.292,0.855,0.513c0.242,0.221,0.434,0.483,0.573,0.789c0.14,0.305,0.21,0.642,0.21,1.009
					c0,0.375-0.07,0.715-0.21,1.02c-0.14,0.305-0.331,0.568-0.573,0.789c-0.243,0.221-0.528,0.392-0.855,0.513
					c-0.327,0.121-0.678,0.182-1.053,0.182h-1.29v2.901H159.779z M162.58,436.356c0.39,0,0.684-0.111,0.882-0.331
					c0.199-0.22,0.298-0.474,0.298-0.761c0-0.14-0.024-0.276-0.072-0.408c-0.048-0.132-0.121-0.248-0.221-0.347
					c-0.099-0.099-0.223-0.178-0.37-0.237c-0.147-0.059-0.32-0.089-0.518-0.089h-1.312v2.173H162.58z"/>
				<path style="fill:#FFFFFF;" d="M166.308,432.771h1.731l3.177,5.294h0.088l-0.088-1.522v-3.772h1.478v7.897h-1.566l-3.353-5.592
					h-0.088l0.088,1.522v4.07h-1.467V432.771z"/>
				<path style="fill:#FFFFFF;" d="M177.922,436.334h3.872c0.022,0.089,0.04,0.195,0.055,0.32c0.014,0.125,0.022,0.25,0.022,0.375
					c0,0.507-0.077,0.985-0.231,1.434c-0.154,0.449-0.397,0.849-0.728,1.202c-0.353,0.375-0.776,0.666-1.268,0.871
					c-0.493,0.206-1.055,0.309-1.688,0.309c-0.574,0-1.114-0.103-1.622-0.309c-0.507-0.206-0.948-0.492-1.323-0.86
					c-0.375-0.367-0.673-0.803-0.894-1.307c-0.221-0.504-0.331-1.053-0.331-1.649c0-0.595,0.11-1.145,0.331-1.649
					c0.221-0.504,0.518-0.939,0.894-1.307c0.375-0.367,0.816-0.654,1.323-0.86c0.507-0.206,1.048-0.309,1.622-0.309
					c0.64,0,1.211,0.11,1.715,0.331c0.504,0.221,0.935,0.526,1.296,0.915l-1.025,1.004c-0.258-0.272-0.544-0.48-0.861-0.623
					c-0.316-0.143-0.695-0.215-1.136-0.215c-0.361,0-0.703,0.065-1.026,0.193c-0.324,0.129-0.607,0.311-0.85,0.546
					c-0.242,0.235-0.436,0.52-0.579,0.855c-0.143,0.335-0.215,0.708-0.215,1.119c0,0.412,0.072,0.785,0.215,1.12
					c0.143,0.335,0.338,0.62,0.584,0.855c0.246,0.235,0.531,0.418,0.855,0.546c0.323,0.129,0.669,0.193,1.037,0.193
					c0.419,0,0.773-0.061,1.064-0.182c0.29-0.121,0.538-0.278,0.744-0.469c0.148-0.132,0.275-0.3,0.381-0.502
					c0.106-0.202,0.189-0.428,0.248-0.678h-2.482V436.334z"/>
			</g>
			<g>
				<path style="fill:#FFFFFF;" d="M224.019,431.299c-0.006-1.224-0.959-2.121-2.189-2.14c-0.924-0.014-0.832,0.12-0.834-0.867
					c-0.003-1.097-0.007-2.194,0.003-3.292c0.003-0.379-0.112-0.691-0.362-0.976c-2.342-2.668-4.678-5.342-7.019-8.011
					c-0.12-0.137-0.275-0.244-0.414-0.366c-6.214,0-12.427,0-18.641,0c-0.794,0.293-1.14,0.868-1.138,1.709
					c0.01,3.748,0.004,7.496,0.004,11.243c0,0.556-0.003,0.589-0.55,0.551c-1.497-0.102-2.516,0.986-2.497,2.492
					c0.044,3.476,0.013,6.953,0.014,10.429c0.001,1.58,0.867,2.443,2.45,2.449c0.582,0.002,0.582,0.002,0.582,0.6
					c0,2.219-0.001,4.438,0.001,6.657c0.001,1.192,0.58,1.771,1.768,1.771c8.013,0.001,16.027,0.001,24.04,0
					c1.168,0,1.755-0.583,1.757-1.745c0.002-2.256,0-4.512,0.001-6.768c0-0.512,0.002-0.511,0.52-0.515
					c0.271-0.002,0.541,0.008,0.809-0.058c0.997-0.246,1.69-1.044,1.694-2.069C224.034,438.696,224.036,434.997,224.019,431.299z
					 M195.568,417.162c5.337,0,10.674,0,16.01,0c0.548,0,0.554,0.007,0.554,0.561c0.001,2.243-0.001,4.486,0.001,6.73
					c0.001,0.811,0.249,1.059,1.06,1.059c1.91,0.001,3.821,0,5.731,0.001c0.458,0,0.479,0.021,0.481,0.483
					c0.003,0.887,0.002,1.775,0,2.662c-0.001,0.477-0.024,0.498-0.504,0.499c-3.895,0.001-7.79,0-11.684,0
					c-3.882,0-7.765,0-11.647,0c-0.55,0-0.552-0.001-0.552-0.561c-0.001-3.624-0.001-7.247,0-10.871
					C195.018,417.166,195.022,417.162,195.568,417.162z M218.854,451.579c-3.883,0.001-7.766,0-11.65,0c-3.871,0-7.742,0-11.613,0
					c-0.572,0-0.574-0.002-0.574-0.579c-0.001-1.997-0.001-3.994,0.001-5.991c0-0.464,0.023-0.486,0.478-0.487
					c7.803-0.001,15.607-0.001,23.41,0c0.478,0,0.499,0.02,0.499,0.503c0.002,1.997,0.001,3.994,0,5.991
					C219.406,451.574,219.401,451.579,218.854,451.579z"/>
			</g>
			<g>
				<path style="fill:#FFFFFF;" d="M205.111,432.771h1.699l2.967,7.897h-1.644l-0.651-1.886h-3.044l-0.651,1.886h-1.643
					L205.111,432.771z M206.997,437.415l-0.706-1.974l-0.287-0.96h-0.088l-0.287,0.96l-0.706,1.974H206.997z"/>
				<path style="fill:#FFFFFF;" d="M211.331,434.536c-0.125,0-0.245-0.024-0.359-0.072c-0.114-0.048-0.213-0.114-0.298-0.199
					c-0.084-0.084-0.151-0.182-0.198-0.292c-0.048-0.11-0.072-0.232-0.072-0.364s0.024-0.254,0.072-0.364
					c0.048-0.11,0.114-0.208,0.198-0.292c0.084-0.084,0.184-0.151,0.298-0.198c0.114-0.048,0.233-0.072,0.359-0.072
					c0.257,0,0.478,0.09,0.662,0.27c0.184,0.181,0.276,0.399,0.276,0.656s-0.092,0.476-0.276,0.656
					C211.809,434.446,211.589,434.536,211.331,434.536z M210.615,440.669v-5.404h1.445v5.404H210.615z"/>
			</g>
			<g>
				<path style="fill:#FFFFFF;" d="M261.044,431.299c-0.006-1.224-0.959-2.121-2.189-2.14c-0.924-0.014-0.832,0.12-0.834-0.867
					c-0.003-1.097-0.007-2.194,0.003-3.292c0.003-0.379-0.112-0.691-0.362-0.976c-2.342-2.668-4.678-5.342-7.019-8.011
					c-0.12-0.137-0.275-0.244-0.414-0.366c-6.214,0-12.427,0-18.641,0c-0.794,0.293-1.14,0.868-1.138,1.709
					c0.01,3.748,0.004,7.496,0.004,11.243c0,0.556-0.003,0.589-0.55,0.551c-1.497-0.102-2.516,0.986-2.497,2.492
					c0.044,3.476,0.013,6.953,0.014,10.429c0.001,1.58,0.867,2.443,2.45,2.449c0.582,0.002,0.582,0.002,0.582,0.6
					c0,2.219-0.001,4.438,0.001,6.657c0.001,1.192,0.58,1.771,1.768,1.771c8.013,0.001,16.027,0.001,24.04,0
					c1.168,0,1.755-0.583,1.757-1.745c0.002-2.256,0-4.512,0.001-6.768c0-0.512,0.002-0.511,0.52-0.515
					c0.271-0.002,0.541,0.008,0.809-0.058c0.996-0.246,1.69-1.044,1.694-2.069C261.059,438.696,261.061,434.997,261.044,431.299z
					 M232.593,417.162c5.337,0,10.674,0,16.01,0c0.548,0,0.554,0.007,0.554,0.561c0.001,2.243-0.001,4.486,0.001,6.73
					c0.001,0.811,0.249,1.059,1.06,1.059c1.91,0.001,3.821,0,5.731,0.001c0.458,0,0.479,0.021,0.481,0.483
					c0.003,0.887,0.002,1.775,0,2.662c-0.001,0.477-0.024,0.498-0.504,0.499c-3.895,0.001-7.79,0-11.684,0
					c-3.882,0-7.765,0-11.647,0c-0.55,0-0.552-0.001-0.552-0.561c-0.001-3.624-0.001-7.247,0-10.871
					C232.042,417.166,232.047,417.162,232.593,417.162z M255.878,451.579c-3.883,0.001-7.766,0-11.65,0c-3.871,0-7.742,0-11.613,0
					c-0.572,0-0.574-0.002-0.574-0.579c-0.001-1.997-0.001-3.994,0.001-5.991c0-0.464,0.023-0.486,0.478-0.487
					c7.803-0.001,15.607-0.001,23.41,0c0.478,0,0.499,0.02,0.499,0.503c0.002,1.997,0.001,3.994,0,5.991
					C256.431,451.574,256.426,451.579,255.878,451.579z"/>
			</g>
			<g>
				<path style="fill:#FFFFFF;" d="M236.361,440.845c-0.338,0-0.662-0.048-0.971-0.143c-0.309-0.095-0.592-0.239-0.849-0.43
					c-0.257-0.191-0.481-0.425-0.673-0.7c-0.191-0.276-0.342-0.597-0.452-0.965l1.401-0.551c0.103,0.397,0.283,0.726,0.54,0.987
					c0.257,0.261,0.596,0.392,1.015,0.392c0.154,0,0.303-0.02,0.447-0.061c0.143-0.04,0.272-0.099,0.386-0.176
					s0.204-0.175,0.27-0.292c0.066-0.118,0.099-0.254,0.099-0.408c0-0.147-0.026-0.279-0.077-0.397
					c-0.051-0.117-0.138-0.227-0.259-0.331c-0.121-0.103-0.28-0.202-0.475-0.298c-0.195-0.095-0.435-0.195-0.722-0.298l-0.485-0.176
					c-0.213-0.073-0.429-0.173-0.645-0.298c-0.217-0.125-0.413-0.276-0.59-0.452c-0.177-0.176-0.322-0.384-0.436-0.623
					c-0.114-0.239-0.171-0.509-0.171-0.81c0-0.309,0.06-0.597,0.182-0.866c0.121-0.268,0.294-0.503,0.518-0.706
					c0.224-0.202,0.492-0.36,0.805-0.474s0.66-0.171,1.042-0.171c0.397,0,0.74,0.053,1.031,0.16
					c0.291,0.107,0.537,0.243,0.739,0.408c0.202,0.165,0.366,0.348,0.491,0.546c0.125,0.199,0.217,0.386,0.276,0.563l-1.312,0.551
					c-0.074-0.221-0.208-0.419-0.402-0.596c-0.195-0.176-0.462-0.265-0.8-0.265c-0.324,0-0.592,0.075-0.805,0.226
					c-0.213,0.151-0.32,0.348-0.32,0.59c0,0.235,0.103,0.436,0.309,0.601c0.206,0.165,0.533,0.325,0.982,0.48l0.497,0.165
					c0.316,0.111,0.605,0.237,0.866,0.381c0.261,0.143,0.485,0.314,0.673,0.513c0.187,0.199,0.331,0.425,0.43,0.678
					c0.1,0.254,0.149,0.546,0.149,0.877c0,0.412-0.083,0.767-0.248,1.064c-0.165,0.298-0.377,0.542-0.634,0.734
					c-0.258,0.191-0.548,0.335-0.872,0.43C236.986,440.797,236.67,440.845,236.361,440.845z"/>
				<path style="fill:#FFFFFF;" d="M239.516,432.771h1.61l1.633,4.754l0.287,1.015h0.088l0.309-1.015l1.699-4.754h1.61l-2.879,7.897
					h-1.566L239.516,432.771z"/>
				<path style="fill:#FFFFFF;" d="M251.097,436.334h3.871c0.022,0.089,0.04,0.195,0.055,0.32c0.015,0.125,0.023,0.25,0.023,0.375
					c0,0.507-0.078,0.985-0.232,1.434c-0.154,0.449-0.397,0.849-0.728,1.202c-0.353,0.375-0.775,0.666-1.268,0.871
					c-0.493,0.206-1.055,0.309-1.688,0.309c-0.574,0-1.114-0.103-1.621-0.309c-0.507-0.206-0.949-0.492-1.324-0.86
					c-0.375-0.367-0.673-0.803-0.894-1.307c-0.22-0.504-0.331-1.053-0.331-1.649c0-0.595,0.11-1.145,0.331-1.649
					c0.221-0.504,0.518-0.939,0.894-1.307c0.375-0.367,0.816-0.654,1.324-0.86c0.507-0.206,1.047-0.309,1.621-0.309
					c0.64,0,1.211,0.11,1.715,0.331c0.504,0.221,0.936,0.526,1.296,0.915l-1.026,1.004c-0.257-0.272-0.544-0.48-0.861-0.623
					c-0.316-0.143-0.694-0.215-1.136-0.215c-0.36,0-0.702,0.065-1.026,0.193c-0.323,0.129-0.607,0.311-0.849,0.546
					c-0.243,0.235-0.436,0.52-0.579,0.855c-0.143,0.335-0.215,0.708-0.215,1.119c0,0.412,0.072,0.785,0.215,1.12
					c0.143,0.335,0.338,0.62,0.585,0.855c0.246,0.235,0.531,0.418,0.854,0.546c0.324,0.129,0.669,0.193,1.037,0.193
					c0.419,0,0.774-0.061,1.064-0.182c0.29-0.121,0.539-0.278,0.745-0.469c0.147-0.132,0.274-0.3,0.38-0.502
					c0.107-0.202,0.189-0.428,0.248-0.678h-2.482V436.334z"/>
			</g>
			<g>
				<path style="fill:#FFFFFF;" d="M297.3,431.299c-0.006-1.224-0.959-2.121-2.189-2.14c-0.924-0.014-0.832,0.12-0.834-0.867
					c-0.003-1.097-0.007-2.194,0.003-3.292c0.003-0.379-0.112-0.691-0.362-0.976c-2.342-2.668-4.678-5.342-7.019-8.011
					c-0.12-0.137-0.275-0.244-0.414-0.366c-6.214,0-12.427,0-18.641,0c-0.794,0.293-1.14,0.868-1.138,1.709
					c0.01,3.748,0.004,7.496,0.004,11.243c0,0.556-0.003,0.589-0.55,0.551c-1.497-0.102-2.516,0.986-2.497,2.492
					c0.044,3.476,0.013,6.953,0.014,10.429c0.001,1.58,0.867,2.443,2.45,2.449c0.582,0.002,0.582,0.002,0.582,0.6
					c0,2.219-0.001,4.438,0.001,6.657c0.001,1.192,0.58,1.771,1.768,1.771c8.013,0.001,16.027,0.001,24.04,0
					c1.168,0,1.755-0.583,1.757-1.745c0.002-2.256,0-4.512,0.001-6.768c0-0.512,0.002-0.511,0.52-0.515
					c0.271-0.002,0.541,0.008,0.809-0.058c0.996-0.246,1.69-1.044,1.694-2.069C297.315,438.696,297.318,434.997,297.3,431.299z
					 M268.85,417.162c5.337,0,10.674,0,16.01,0c0.548,0,0.554,0.007,0.554,0.561c0.001,2.243-0.001,4.486,0.001,6.73
					c0.001,0.811,0.249,1.059,1.06,1.059c1.91,0.001,3.821,0,5.731,0.001c0.458,0,0.479,0.021,0.481,0.483
					c0.003,0.887,0.002,1.775,0,2.662c-0.001,0.477-0.024,0.498-0.504,0.499c-3.895,0.001-7.79,0-11.684,0
					c-3.882,0-7.765,0-11.647,0c-0.55,0-0.552-0.001-0.552-0.561c-0.001-3.624-0.001-7.247,0-10.871
					C268.299,417.166,268.303,417.162,268.85,417.162z M292.135,451.579c-3.883,0.001-7.766,0-11.65,0c-3.871,0-7.742,0-11.613,0
					c-0.572,0-0.574-0.002-0.574-0.579c-0.001-1.997-0.001-3.994,0.001-5.991c0-0.464,0.023-0.486,0.478-0.487
					c7.803-0.001,15.607-0.001,23.41,0c0.478,0,0.499,0.02,0.499,0.503c0.001,1.997,0.001,3.994,0,5.991
					C292.687,451.574,292.682,451.579,292.135,451.579z"/>
			</g>
			<g>
				<path style="fill:#FFFFFF;" d="M272.966,434.183v1.831h3.165v1.412h-3.165v1.831h3.518v1.412h-5.007v-7.897h5.007v1.412H272.966
					z"/>
				<path style="fill:#FFFFFF;" d="M277.852,440.669v-7.897h2.779c0.375,0,0.726,0.061,1.053,0.182
					c0.327,0.121,0.612,0.292,0.855,0.513c0.243,0.221,0.434,0.483,0.574,0.789c0.14,0.305,0.209,0.642,0.209,1.009
					c0,0.375-0.07,0.715-0.209,1.02c-0.14,0.305-0.331,0.568-0.574,0.789c-0.243,0.221-0.528,0.392-0.855,0.513
					c-0.327,0.121-0.678,0.182-1.053,0.182h-1.29v2.901H277.852z M280.653,436.356c0.389,0,0.684-0.111,0.882-0.331
					c0.199-0.22,0.298-0.474,0.298-0.761c0-0.14-0.024-0.276-0.072-0.408c-0.048-0.132-0.121-0.248-0.221-0.347
					c-0.099-0.099-0.222-0.178-0.37-0.237c-0.147-0.059-0.32-0.089-0.518-0.089h-1.312v2.173H280.653z"/>
				<path style="fill:#FFFFFF;" d="M286.797,440.845c-0.338,0-0.662-0.048-0.971-0.143c-0.309-0.095-0.592-0.239-0.849-0.43
					c-0.257-0.191-0.482-0.425-0.673-0.7c-0.191-0.276-0.342-0.597-0.452-0.965l1.401-0.551c0.103,0.397,0.283,0.726,0.541,0.987
					c0.257,0.261,0.595,0.392,1.015,0.392c0.154,0,0.303-0.02,0.447-0.061c0.143-0.04,0.272-0.099,0.386-0.176
					c0.114-0.077,0.204-0.175,0.27-0.292c0.066-0.118,0.1-0.254,0.1-0.408c0-0.147-0.026-0.279-0.077-0.397
					c-0.051-0.117-0.138-0.227-0.259-0.331c-0.121-0.103-0.279-0.202-0.474-0.298c-0.195-0.095-0.436-0.195-0.723-0.298
					l-0.485-0.176c-0.213-0.073-0.428-0.173-0.645-0.298c-0.217-0.125-0.414-0.276-0.59-0.452c-0.176-0.176-0.322-0.384-0.436-0.623
					c-0.114-0.239-0.171-0.509-0.171-0.81c0-0.309,0.061-0.597,0.182-0.866c0.121-0.268,0.294-0.503,0.518-0.706
					c0.224-0.202,0.493-0.36,0.805-0.474c0.312-0.114,0.66-0.171,1.042-0.171c0.397,0,0.741,0.053,1.031,0.16
					c0.29,0.107,0.537,0.243,0.739,0.408c0.202,0.165,0.365,0.348,0.491,0.546c0.125,0.199,0.217,0.386,0.276,0.563l-1.312,0.551
					c-0.074-0.221-0.208-0.419-0.403-0.596c-0.195-0.176-0.462-0.265-0.799-0.265c-0.324,0-0.592,0.075-0.805,0.226
					c-0.213,0.151-0.32,0.348-0.32,0.59c0,0.235,0.103,0.436,0.309,0.601c0.206,0.165,0.533,0.325,0.982,0.48l0.496,0.165
					c0.316,0.111,0.605,0.237,0.866,0.381c0.261,0.143,0.485,0.314,0.673,0.513c0.187,0.199,0.331,0.425,0.43,0.678
					c0.099,0.254,0.149,0.546,0.149,0.877c0,0.412-0.083,0.767-0.248,1.064c-0.165,0.298-0.377,0.542-0.634,0.734
					c-0.258,0.191-0.548,0.335-0.872,0.43C287.422,440.797,287.105,440.845,286.797,440.845z"/>
			</g>
			<g>
				<path style="fill:#FFFFFF;" d="M321.394,439.168l4.004-4.985h-3.827v-1.412h5.559v1.5l-3.96,4.985h4.004v1.412h-5.779V439.168z"
					/>
				<path style="fill:#FFFFFF;" d="M328.409,432.771h1.489v7.897h-1.489V432.771z"/>
				<path style="fill:#FFFFFF;" d="M331.486,440.669v-7.897h2.779c0.375,0,0.726,0.061,1.053,0.182
					c0.327,0.121,0.612,0.292,0.855,0.513s0.434,0.483,0.574,0.789c0.14,0.305,0.209,0.642,0.209,1.009
					c0,0.375-0.07,0.715-0.209,1.02c-0.14,0.305-0.331,0.568-0.574,0.789c-0.243,0.221-0.528,0.392-0.855,0.513
					c-0.327,0.121-0.678,0.182-1.053,0.182h-1.29v2.901H331.486z M334.288,436.356c0.389,0,0.684-0.111,0.882-0.331
					c0.199-0.22,0.298-0.474,0.298-0.761c0-0.14-0.024-0.276-0.072-0.408c-0.048-0.132-0.121-0.248-0.221-0.347
					c-0.099-0.099-0.222-0.178-0.37-0.237c-0.147-0.059-0.32-0.089-0.518-0.089h-1.312v2.173H334.288z"/>
			</g>
		</g>
		<g style="opacity:0.61;">
			<path style="fill:#FFFFFF;" d="M300.133,433.27h9.067v2.242h-9.067V433.27z M300.133,437.136h9.067v2.243h-9.067V437.136z"/>
		</g>
	</g>
	<g style="opacity:0.61;">
		<path style="fill:#FFFFFF;" d="M156.756,478.878h1.607c1.263,0,2.114,0.812,2.114,1.974c0,1.161-0.851,1.973-2.114,1.973h-1.607
			V478.878z M158.34,482.464c1.049,0,1.725-0.665,1.725-1.612c0-0.947-0.677-1.613-1.725-1.613h-1.167v3.225H158.34z"/>
		<path style="fill:#FFFFFF;" d="M165.139,480.851c0-1.15,0.879-2.007,2.075-2.007c1.184,0,2.069,0.851,2.069,2.007
			c0,1.156-0.885,2.007-2.069,2.007C166.019,482.858,165.139,482.002,165.139,480.851z M168.866,480.851
			c0-0.942-0.705-1.635-1.652-1.635c-0.953,0-1.663,0.693-1.663,1.635c0,0.941,0.71,1.635,1.663,1.635
			C168.162,482.486,168.866,481.793,168.866,480.851z"/>
		<path style="fill:#FFFFFF;" d="M179.596,478.878l-1.331,3.947h-0.44l-1.156-3.366l-1.161,3.366h-0.434l-1.331-3.947h0.429
			l1.139,3.394l1.178-3.394h0.389l1.161,3.411l1.156-3.411H179.596z"/>
		<path style="fill:#FFFFFF;" d="M187.731,478.878v3.947h-0.344l-2.537-3.202v3.202h-0.417v-3.947h0.344l2.543,3.203v-3.203H187.731
			z"/>
		<path style="fill:#FFFFFF;" d="M193.093,478.878h0.417v3.586h2.21v0.361h-2.627V478.878z"/>
		<path style="fill:#FFFFFF;" d="M200.061,480.851c0-1.15,0.879-2.007,2.075-2.007c1.184,0,2.069,0.851,2.069,2.007
			c0,1.156-0.885,2.007-2.069,2.007C200.941,482.858,200.061,482.002,200.061,480.851z M203.788,480.851
			c0-0.942-0.705-1.635-1.652-1.635c-0.953,0-1.663,0.693-1.663,1.635c0,0.941,0.71,1.635,1.663,1.635
			C203.083,482.486,203.788,481.793,203.788,480.851z"/>
		<path style="fill:#FFFFFF;" d="M211.636,481.77h-2.199l-0.474,1.054h-0.434l1.804-3.947h0.412l1.804,3.947h-0.44L211.636,481.77z
			 M211.484,481.432l-0.947-2.12l-0.947,2.12H211.484z"/>
		<path style="fill:#FFFFFF;" d="M217.28,478.878h1.607c1.263,0,2.114,0.812,2.114,1.974c0,1.161-0.851,1.973-2.114,1.973h-1.607
			V478.878z M218.864,482.464c1.049,0,1.725-0.665,1.725-1.612c0-0.947-0.677-1.613-1.725-1.613h-1.167v3.225H218.864z"/>
		<path style="fill:#FFFFFF;" d="M234.041,481.77h-2.199l-0.474,1.054h-0.434l1.804-3.947h0.412l1.804,3.947h-0.44L234.041,481.77z
			 M233.889,481.432l-0.947-2.12l-0.947,2.12H233.889z"/>
		<path style="fill:#FFFFFF;" d="M239.685,478.878h0.417v3.586h2.21v0.361h-2.627V478.878z"/>
		<path style="fill:#FFFFFF;" d="M247.082,478.878h0.417v3.586h2.21v0.361h-2.627V478.878z"/>
		<path style="fill:#FFFFFF;" d="M260.449,479.239v1.551h2.041v0.361h-2.041v1.675h-0.417v-3.947h2.706v0.361H260.449z"/>
		<path style="fill:#FFFFFF;" d="M267.678,478.878h0.417v3.947h-0.417V478.878z"/>
		<path style="fill:#FFFFFF;" d="M273.456,478.878h0.417v3.586h2.21v0.361h-2.627V478.878z"/>
		<path style="fill:#FFFFFF;" d="M283.644,482.464v0.361h-2.791v-3.947h2.706v0.361h-2.289v1.404h2.041v0.355h-2.041v1.466H283.644z
			"/>
		<path style="fill:#FFFFFF;" d="M294.672,479.239v1.551h2.041v0.361h-2.041v1.675h-0.417v-3.947h2.706v0.361H294.672z"/>
		<path style="fill:#FFFFFF;" d="M301.5,480.851c0-1.15,0.879-2.007,2.075-2.007c1.184,0,2.069,0.851,2.069,2.007
			c0,1.156-0.885,2.007-2.069,2.007C302.379,482.858,301.5,482.002,301.5,480.851z M305.226,480.851
			c0-0.942-0.705-1.635-1.652-1.635c-0.953,0-1.663,0.693-1.663,1.635c0,0.941,0.71,1.635,1.663,1.635
			C304.522,482.486,305.226,481.793,305.226,480.851z"/>
		<path style="fill:#FFFFFF;" d="M313.351,482.825l-0.902-1.269c-0.102,0.011-0.203,0.017-0.316,0.017h-1.06v1.252h-0.417v-3.947
			h1.477c1.004,0,1.613,0.507,1.613,1.353c0,0.62-0.327,1.054-0.902,1.24l0.964,1.353H313.351z M313.328,480.231
			c0-0.632-0.417-0.992-1.207-0.992h-1.048v1.979h1.048C312.911,481.218,313.328,480.851,313.328,480.231z"/>
		<path style="fill:#FFFFFF;" d="M322.907,478.878v3.947h-0.4v-3.158l-1.551,2.656h-0.197l-1.551-2.639v3.14h-0.4v-3.947h0.344
			l1.714,2.926l1.697-2.926H322.907z"/>
		<path style="fill:#FFFFFF;" d="M330.744,481.77h-2.199l-0.473,1.054h-0.434l1.804-3.947h0.411l1.804,3.947h-0.44L330.744,481.77z
			 M330.592,481.432l-0.947-2.12l-0.947,2.12H330.592z"/>
		<path style="fill:#FFFFFF;" d="M336.957,479.239h-1.387v-0.361h3.192v0.361h-1.387v3.586h-0.417V479.239z"/>
		<path style="fill:#FFFFFF;" d="M343.063,482.346l0.164-0.321c0.282,0.276,0.784,0.479,1.302,0.479c0.739,0,1.06-0.31,1.06-0.699
			c0-1.083-2.43-0.417-2.43-1.877c0-0.581,0.451-1.083,1.455-1.083c0.446,0,0.908,0.13,1.224,0.35l-0.141,0.333
			c-0.338-0.22-0.733-0.327-1.083-0.327c-0.722,0-1.043,0.321-1.043,0.716c0,1.083,2.43,0.429,2.43,1.866
			c0,0.581-0.462,1.077-1.472,1.077C343.937,482.858,343.356,482.65,343.063,482.346z"/>
	</g>
</g>
<g>
</g>
<g>
	<path style="fill:#212E60;" d="M156.813,236.664c-0.423-0.546-1.486-0.095-1.486-0.095l-16.917,6.137
		c-1.308-3.131-2.821-6.092-4.545-8.827l5.479-14.632c0,0,0.685-1.452,0.049-1.813c-0.631-0.367-1.66,0.605-1.66,0.605l-9.952,7.992
		c-3.879-4.065-8.436-7.353-13.669-9.678c-1.947-0.847-3.978-1.556-6.099-2.146l-3.082-11.578c0,0-0.272-1.161-1.066-1.161
		c-0.794,0-1.002,1.096-1.002,1.096l-1.981,10.228c-2.163-0.265-4.39-0.418-6.697-0.418c-7.422,0-14.013,1.376-19.787,3.912
		c-2.477,1.085-4.799,2.386-6.969,3.877c-0.363,0.252-0.703,0.52-1.062,0.779c-2.046-5.175-3.668-9.398-3.97-10.671
		c1.142-1.011,3.535-4.704,4.125-7.197c0.813-3.483,0.559-5.131-0.295-7.767c-0.62-1.928-1.868-3.732-1.788-4.953
		c0.068-0.907,0.563-1.558,0.975-1.981c-0.219-1.278-1.074-1.834-2.087-1.961c-0.93-0.123-1.656,0.142-2.48,0.18
		c-0.208-0.374-0.624-0.303-0.314-1.626c0.477-2,4.39-2.936,7.597-4.152c4.061-1.543,6.326-4.407,6.466-8.996
		c0.094-3.344-1.804-5.816-4.19-6.931c-0.48,1.35-2.454,3.161-3.83,3.9c-1.358,0.73-3.229,1.011-4.587,0.7
		c0.299-2.454-0.862-4.547-2.696-5.392c-0.586,1.049-2.79,2.49-6.103,2.392c-3.312-0.102-3.524-0.87-8.179-0.854
		c-6.629,0.007-12.115,3.925-12.792,9.669c-0.431,3.732,1.032,6.863,2.136,8.481c-0.824,0.612-2.764,2.435-3.105,2.981
		c-0.48-0.546-1.8-1.274-3.38-0.261c0.344,0.815,0.408,1.806,0.136,2.759c-0.272,0.94-2.685,5.536-2.964,9.253
		c-0.469,6.281,3.237,10.533,6.345,11.75c-0.685,1.015-0.828,2.091-0.344,2.974c0.318,0.582,0.964,1.148,2.28,1.148
		c-0.76,0.807-1.044,2.034-0.556,3.243c0.556,1.352,2.136,3.308,3.52,3.308c-0.072,1.15,0.48,3.849,0.756,4.935
		c-0.473,0.874-0.964,1.543-0.892,3.161c0.064,1.688,1.168,3.048,2.552,3.32c0.344,0.815,0.601,1.707,1.078,2.244
		c0.492,0.542,0.919,1.2,1.955,1.873c1.036,0.675,2.208,1.221,3.588,1.221c1.376,0,2.594,0.064,3.214-0.138
		c0.03,0.388,0.163,3.957,0.321,7.927c-3.467,9.461-5.203,20.419-5.203,32.179v0.011c0.008,21.073,6.145,39.854,17.863,51.951
		c0,0,0.677,0.813,2.56,2.008c0,0,3.672-6.137,9.245-13.117c1.41-1.766,3.04-3.479,4.817-5.135c2.749-2.333,5.407-4.416,7.994-6.258
		c7.218-4.802,15.56-8.47,23.277-10.028c-8.848,4.462-13.862,6.853-22.177,13.832c-5.267,4.42-13.654,12.224-19.383,22.914
		c1.187,0.922,2.798,1.877,4.692,2.065c1.214-1.391,7.445-12.588,17.02-21.589c19.364-17.758,42.18-21.861,54.117-21.636
		c0.673-4.812,1.017-9.826,1.017-15.017c0-8.482-0.9-16.545-2.707-23.936l14.259-15.537
		C156.25,238.188,157.237,237.224,156.813,236.664"/>
	<path style="fill:#FFFFFF;" d="M50.768,229.654c-0.824-0.469-3.104-1.558-4.897-1.486c-1.86,0.076-3.43,0.44-4.897,1.35
		c-0.616-0.405-0.817-1.218-0.412-2.163c0.397-0.945,0.968-1.078,0.968-1.078l-0.522-8.856c0,0,2.537-1.766,3.222-1.966
		c0.692-0.206,1.002-0.734,1.002-1.407c1.127,0.751,2.787,2.407,3.671,3.647c0.836,1.152,1.32,2.43,1.384,3.855
		c0.068,1.416,0.087,3.104-0.204,4.859c0.567,0.475,1.1,0.881,1.168,1.622C51.32,228.782,51.048,229.047,50.768,229.654"/>
	<path style="fill:#FFFFFF;" d="M133.154,257.212c-0.102-1.722-2.144-6.383-3.388-7.392l21.459-9.323L133.154,257.212z"/>
	<path style="fill:#FFFFFF;" d="M74.28,222.398l18.165,16.134c-1.758,0.964-4.386,3.566-5.108,5.691L74.28,222.398z"/>
	<path style="fill:#FFFFFF;" d="M84.909,254.357c-0.62,0.951-0.847,1.52-1.051,2.662c-0.212,1.155-0.053,1.788,0.087,2.737
		l-5.578-3.766c0.068-1.274-0.276-3.365-0.363-4.453c-0.004-0.115-0.049-0.312-0.079-0.476L84.909,254.357z"/>
	<path style="fill:#FFFFFF;" d="M54.216,255.93c-0.34-0.609-1.925-33.439-1.996-34.587l1.796-1.276v-0.335
		c-1.316-0.072-2.832-0.546-3.309-1.295l-0.488-10.06c-1.8-0.134-3.645-0.692-4.329-1.365c-0.862-0.843-1.531-1.879-0.567-3.708
		c0.9,0.614,3.517,1.361,5.793,1.361c0.484,0,1.493,1.059,2.072,1.28c0.658,0.257,1.762,0.852,2.288,1.081
		c0.469,0.199,0.756,1.28,0.9,1.685c0.136,0.408,16.743,42.626,17.023,43.1c0.276,0.467,1.244,7.559,1.312,8.103
		c0.072,0.54,2.549,6.213,3.04,6.753c-2.208-0.064-5.827,1.178-8.792,4.016c-2.9,2.771-5.464,8.863-6.042,11.669
		C62.705,280.863,54.564,256.535,54.216,255.93"/>
	<path style="fill:#FFFFFF;" d="M75.331,296.325c-0.722,6.478-2.337,12.112-4.76,16.131c-1.558,2.592-5.94,7.835-7.472,9.824
		c1.66-3.244,2.938-11.068,2.832-17.148c-0.068-3.948-1.289-12.659-0.223-18.434c1.142-6.198,2.946-9.68,7.181-13.497
		c2.163-1.95,6.587-4.437,12.894-2.751l5.112,9.401c-2.734-0.511-6.341-0.051-8.754,1.762
		C77.607,285.019,76.08,289.61,75.331,296.325"/>
	<path style="fill:#FFFFFF;" d="M75.83,309.11c1.236-2.738,2.874-10.54,3.331-13.155c0.59-3.346,1.134-8.239,5.211-11.529
		c2.008-1.618,5.297-1.83,6.602-1.452l5.785,11.522c0.507,1.221,2.212,1.65,3.343,1.577C94.687,297.796,81.044,304.145,75.83,309.11
		"/>
	<path style="fill:#FFFFFF;" d="M124.982,272.325c-0.93,1.422-0.598,2.779-0.083,3.736c0.59,1.074,3.645,6.602,3.645,6.602
		c0.96,2.507,1.713,3.77,2.639,5.39c1.648,0,3.445-0.042,5.335,0c-2.019-4.434-6.632-12.993-6.632-12.993l-0.329-6.905
		C128.215,268.947,125.912,270.91,124.982,272.325"/>
	<path style="fill:#FFFFFF;" d="M100.355,235.651c2.28-0.401,7.434,0.062,9.083,0.87l-5.233-29.014L100.355,235.651z"/>
	<path style="fill:#FFFFFF;" d="M56.376,208.71c-0.144-0.403-0.427-1.484-0.9-1.683c-0.522-0.231-1.63-0.828-2.288-1.089
		c-0.571-0.214-1.588-1.272-2.065-1.272c-2.284,0-4.9-0.747-5.8-1.363c-0.964,1.83-0.295,2.868,0.567,3.709
		c0.685,0.673,2.53,1.225,4.333,1.365l0.484,10.06c0.477,0.749,1.993,1.22,3.309,1.282v0.339l-1.796,1.286
		c0.072,1.148,1.656,33.982,2.004,34.583c0.34,0.609,8.481,24.937,8.693,26.427c0.579-2.808,3.142-8.905,6.042-11.671
		c2.965-2.838,6.583-4.078,8.792-4.014c-0.492-0.544-2.968-6.213-3.04-6.753c-0.068-0.541-1.036-7.636-1.308-8.103
		C73.126,251.338,56.512,209.118,56.376,208.71"/>
	<path style="fill:#FFFFFF;" d="M45.761,200.663c4.693,0.008,6.92,1.917,8.02,2.93c0.136-1.554-0.113-2.923-1.592-4.091
		c-1.229-0.976-3.38-1.838-6.689-1.838c-2.212,0-4.428,0.635-5.808,1.783c-1.263,1.049-1.475,2.239-1.199,3.995
		C38.906,202.162,41.901,200.648,45.761,200.663"/>
	<path style="fill:#FFFFFF;" d="M37.359,176.562c-0.102,1.755,0.374,3.581,1.202,4.666c0.473,0.612,1.592,1.8,2.413,1.754
		c1.176-0.076,2.276-2.276,5.037-2.167c1.792,0.068,2.965,2.549,4.485,2.634c1.172,0.07,1.792-1.078,2.98-1.204
		c1.013-0.102,1.369,0.397,1.992,1.002c0.412-0.942,1.006-1.588,2.549-2.698c1.86-1.356,8.209-2.637,10.905-5
		c1.342-1.184,1.649-3.369,1.225-4.842c-1.025,1.403-3.849,2.885-6.61,3.019c-1.384,0.064-4.696-0.533-5.869-1.14
		c0.586-0.987,0.783-2.108,0.299-3.189c-0.896,0.673-4.783,1.044-6.299,1.044c-1.52,0-4.473-0.607-6.772-0.484
		C39.859,170.22,37.53,173.726,37.359,176.562"/>
	<path style="fill:#FFFFFF;" d="M46.053,191.891c10.905,0.204,15.825,5.135,15.964,9.192c0.552-1.221,0.48-2.371,0.412-3.721
		c-0.053-1.072-1.72-4.118-1.792-5.128c-0.072-1.017,0.208-1.69,0.416-2.635c-0.692,0.132-3.104,1.08-4.144,0.266
		c-1.108-0.868-0.336-3.038-1.792-3.573c-1.448-0.548-3.721,1.144-5.173,0.94c-1.448-0.204-2.688-2.159-4.205-2.159
		c-1.524,0-2.28,1.819-4.14,2.227c-1.437,0.314-3.176-0.531-4.031-0.473c-0.934,0.064-1.505,0.787-1.917,1.658
		c-0.412,0.883-0.749,1.246-1.849,1.514c-0.881,0.216-2.14-0.541-2.761-0.401c0.484,0.469,0.722,2.394,0.288,3.509
		c-0.552,1.418-1.732,2.91-1.872,4.677c-0.121,1.566,0.412,2.284,0.824,3.428C30.005,195.472,36.532,191.717,46.053,191.891"/>
	<path style="fill:#FFFFFF;" d="M39.186,212.357c-0.764,0.134-2.344,1.355-3.123,2.622c0.231,0.817,1.123,2.717,2,3.241
		c0.2-0.877,1.191-2.34,1.675-2.683c0.688-0.482,1.373-0.813,1.928-1.074c0.552-0.278,0.756-0.55,0.756-1.161
		c0-0.603-0.079-0.891-0.359-1.499c0.548-0.064,1.569,0.023,1.925-0.459c0.34-0.465,0.507-1.078,0.507-1.683
		c0-0.614-0.276-0.747-0.9-0.815c-0.62-0.062-2.428-0.11-3.324-0.038c0,0,1.395-0.703,1.808-0.907
		c0.412-0.2,0.556-0.601,0.624-0.947c0.072-0.335,0.053-1.095-0.136-2.019c-2.072,0.064-5.725,1.889-6.693,2.698l0.76,1.826
		l-1.388-0.057c-0.204,0.926-0.064,2.352,0.348,3.163C36.842,212.357,38.286,212.294,39.186,212.357"/>
	<path style="fill:#FFFFFF;" d="M128.42,254.678c-0.257-1.308-3.615-5.233-9.351-9.485c-4.466-3.325-11.026-6.604-16.418-6.576
		c-9.105,0.055-12.864,6.175-13.552,9.372c-0.416,1.932-0.314,4.02,0.098,5.169c-1.444,1.221-2,2.2-2.28,3.581
		c-0.193,1.002,0,2.427,0.938,3.312c-0.102-1.322,0.809-2.853,1.554-3.848c0.832-1.121,2.212-1.559,3.456-2.295l0.2,2.433
		c-1.176,0.669-2.632,2.083-2.73,2.824l0.098,4.025l3.131-1.828l0.605,1.221l-1.142,7.092l1.758-0.304l3.207,1.293l-3.101,2.552
		v1.021c0,0,0.469-0.632,1.562-0.582c1.096,0.049,3.921,1.283,3.921,1.283l-0.106,0.615h-1.236h-4.246
		c-0.208,0.707,0.435,1.255,0.854,1.558c0.718-0.205,1.467-0.569,1.879-0.569c0.412,0,1.373,0.244,2.193,0.338l-0.991,1.305
		c0,0-0.514,0.382-1.456,0.197c-0.514-0.099-1.025,0.609-1.025,1.189c0,0.62,0.397,2.135,0.397,2.135
		c0.51,2.28,2.893,1.822,3.191,1.796c1.516-0.133,6.439-1.872,6.439-1.872l-4.73,6.506l2.065,6.952
		c3.127-1.255,12.463-4.507,22.597-6.139c-1.108-1.798-1.282-2.516-2.647-5.192l-5.173-11.654l0.726-1.726
		c1.138,0.41,2.896-0.403,4.035-1.308c1.138-0.913,2.481-2.539,2.999-3.551c-0.726-0.405-1.335-0.306-1.966,0.102
		c-0.62,0.408-1.104,1.185-1.963,0.809c-0.941-0.397-0.476-1.395-0.374-2.314c0.106-0.907-1.074-0.925-1.902-0.217
		c-0.828,0.701-2.594,0.403-3.728-0.707c-1.142-1.117-6.613-5.579-8.584-6.691c-2.832-1.588-6.625-1.989-9.419-1.497
		c-1.63,0.276-2.798,0.987-3.418,0.692l-2.046-3.108l0.325-0.204c0.73,0.31,1.41,0.877,2.341,0.575
		c0.934-0.306,3.925-0.972,6.625-1.017c4.144-0.064,9.177,1.422,11.385,2.333c0.106,2.632,5.517,5.982,7.963,6.281
		c2.068,0.253,3.32-0.299,4.556-1.011l-5.279-4.539l2.798-3.466c0,0,4.45,4.158,5.071,4.963
		C128.726,256.032,128.525,255.238,128.42,254.678 M96.653,259.946c0,0,2.276-1.275,4.416-1.724
		c3.154-0.658,6.659,1.197,9.132,3.106l-0.473,0.724l-3.554,0.828c-0.692-0.601-2.008-0.872-3.418-0.805
		c-1.255,0.06-2.273,0.51-2.273,0.51l0.7,1.112l-1.637,0.407c-0.722-0.911-1.857-2.028-2.893-2.331V259.946z M91.265,251.941
		c-0.93-3.057,1.558-6.077,2.692-7.188l1.758,3.948C94.377,249.415,92.305,250.958,91.265,251.941 M107.623,248.5
		c-1.664-1.119-7.139-0.915-9.419-0.401l-1.656-4.674c1.244-0.911,3.623-1.512,5.797-1.512c2.178,0,4.553,0.507,6.205,1.316
		L107.623,248.5z M118.38,253.279c-2.276-1.433-6.727-3.562-8.069-3.97l1.963-4.965c1.66,0.817,7.763,4.458,8.693,5.373
		L118.38,253.279z"/>
	<path style="fill:#FFFFFF;" d="M117.673,240.087c2.053,0.711,6.379,4.276,7.419,5.09l10.97-22.894L117.673,240.087z"/>
	<g>
		<path style="fill:#6D6E70;" d="M470.024,324.41c2.632,0,4.976,2.014,4.976,5.004c0,2.989-2.344,5.01-4.976,5.01
			c-2.632,0-4.976-2.021-4.976-5.01C465.048,326.424,467.392,324.41,470.024,324.41 M470.024,333.332
			c2.076,0,3.781-1.618,3.781-3.918c0-2.295-1.705-3.915-3.781-3.915c-2.098,0-3.781,1.62-3.781,3.915
			C466.242,331.714,467.926,333.332,470.024,333.332 M468.088,326.787h2.114c1.354,0,2.087,0.45,2.087,1.592
			c0,0.987-0.624,1.38-1.395,1.459l1.493,2.379h-1.112l-1.395-2.331h-0.764v2.331h-1.028V326.787z M469.116,329.108h0.96
			c0.654,0,1.183-0.076,1.183-0.807c0-0.641-0.624-0.746-1.165-0.746h-0.979V329.108z"/>
		<rect x="170.607" y="274.088" style="fill:#6D6E70;" width="172.669" height="2.197"/>
		<rect x="367.688" y="274.088" style="fill:#6D6E70;" width="35.967" height="2.197"/>
		<path style="fill:#6D6E70;" d="M185.41,253.71c0,3.564,1.52,4.677,6.984,4.677c5.464,0,7.959-1.632,11.533-8.841h1.286
			l-1.286,11.294h-33.918v-1.267c5.082-1.259,5.611-2.379,5.611-7.052v-27.788c0-3.866-0.983-4.978-5.611-6.093v-1.263h21.016v1.263
			c-4.401,1.115-5.615,2.006-5.615,5.794V253.71z"/>
		<path style="fill:#6D6E70;" d="M219.479,254.818c0,2.822,1.445,4.386,4.624,4.757v1.267h-17.98v-1.267
			c3.868-0.741,4.78-1.781,4.78-5.347v-14.936c0-3.418-0.987-4.383-5.161-5.199v-1.265l12.448-1.04h1.289V254.818z M215.229,214.332
			c2.734,0,4.935,2.155,4.935,4.829c0,2.675-2.201,4.904-4.935,4.904c-2.73,0-5.006-2.229-5.006-4.904
			C210.223,216.488,212.499,214.332,215.229,214.332"/>
		<path style="fill:#6D6E70;" d="M238.148,238.85c2.881-2.605,4.39-3.347,6.674-3.347c5.078,0,8.496,4.757,8.496,11.589
			c0,9.137-4.249,12.853-10.621,12.853c-3.418,0-4.549-1.482-4.549-4.677V238.85z M238.148,214.332h-1.293l-11.608,0.817v1.265
			c2.658,0.444,4.322,1.781,4.322,4.161v40.266c4.322,0.815,8.58,1.112,13.96,1.112c13.964,0,19.272-7.135,19.272-15.753
			c0-8.169-5.91-14.484-13.653-14.484c-4.095,0-7.597,1.635-11,5.129V214.332z"/>
		<path style="fill:#6D6E70;" d="M275.392,242.635c0.234-5.347,2.575-8.91,6.076-8.91c3.483,0,6.069,3.707,6.364,8.91H275.392z
			 M297.093,244.35c-1.059-7.729-6.901-12.633-15.023-12.633c-9.022,0-15.93,6.608-15.93,15.305c0,8.546,6.678,14.932,15.631,14.932
			c6.901,0,12.739-3.715,15.322-9.731h-1.286c-2.734,4.086-6.069,6.094-10.243,6.094c-5.313,0-10.622-4.761-10.172-13.966H297.093z"
			/>
		<path style="fill:#6D6E70;" d="M324.563,242.56c-2.511-2.371-4.481-3.638-6.455-3.638c-2.575,0-4.17,1.04-6.371,4.012v11.44
			c0,3.348,0.681,4.379,4.855,5.201v1.267h-18.207v-1.267c3.8-0.893,4.772-2.008,4.772-5.201v-14.785
			c0-3.566-1.581-5.201-5.225-5.496v-1.265l12.512-1.112h1.293v8.918h0.155c2.806-6.099,5.914-8.918,9.479-8.918
			c1.895,0,3.717,0.819,5.086,2.376L324.563,242.56z"/>
		<path style="fill:#6D6E70;" d="M372.88,232.828v1.265c3.645,0.741,4.477,2.97,1.902,8.912l-3.952,8.99l-6.069-12.253
			c-1.747-3.565-1.747-5.207,1.52-5.649v-1.265h-16.554h-0.518h-8.278v-10.843h-1.444c-4.027,5.054-8.734,9.51-12.3,11.663v1.412
			h5.165v17.98c0,6.386,4.326,8.912,9.711,8.912c4.25,0,7.06-1.489,9.185-4.987l-0.915-0.807c-1.365,1.563-2.654,2.229-4.163,2.229
			c-4.027,0-5.237-2.677-5.237-7.211v-16.116h7.665c4.178,0,5.388,1.488,7.218,5.275l10.467,21.617
			c-3.498,9.211-6.526,12.924-11.839,12.924c-1.142,0-2.049-0.074-3.872-0.669l-1.744,8.466c1.07,0.155,1.671,0.155,2.428,0.155
			c5.922,0,9.177-2.458,12.221-9.287l14.414-32.244c2.348-5.197,3.259-6.237,6.901-7.205v-1.265H372.88z"/>
		<path style="fill:#6D6E70;" d="M185.679,325.796c0,3.812,0.972,4.912,5.54,6.004v1.252h-20.736v-1.252
			c5.388-1.316,5.54-2.779,5.54-6.96v-27.412c0-3.813-0.972-4.912-5.54-6.014v-1.244h20.736v1.244
			c-5.237,1.178-5.54,2.787-5.54,6.895V325.796z"/>
		<path style="fill:#6D6E70;" d="M219.143,315.386c0-4.178-1.951-6.594-5.241-6.594c-2.844,0-5.241,1.607-7.041,4.835v12.9
			c0,2.863,0.526,4.182,4.197,5.275v1.252h-17.072v-1.252c3.297-0.799,4.416-1.975,4.416-4.761v-15.465
			c0-3.226-1.346-4.398-5.089-4.912v-1.244l12.281-1.028h1.267v6.666h0.155c2.394-3.951,5.986-6.738,10.701-6.738
			c4.269,0,9.884,2.787,9.884,10.041v12.094c0,2.934,0.522,4.398,4.413,5.347v1.252h-17.364v-1.252
			c3.365-0.73,4.492-2.049,4.492-4.98V315.386z"/>
		<path style="fill:#6D6E70;" d="M254.622,312.966h-1.271c-1.724-4.175-4.941-6.668-8.681-6.668c-2.624,0-4.719,1.246-4.719,3.08
			c0,5.864,16.394,3.81,16.394,15.242c0,5.937-5.614,9.532-10.182,9.532c-1.796,0-3.365-0.223-4.64-0.514
			c-1.35-0.223-2.397-0.438-3.293-0.438c-1.047,0-2.027,0.367-2.62,0.953h-1.271v-10.704h1.271
			c2.847,5.864,6.213,8.723,10.255,8.723c2.696,0,5.018-1.832,5.018-4.031c0-7.33-16.619-4.986-16.619-15.394
			c0-4.398,3.668-8.428,9.88-8.428c1.274,0,2.919,0.223,4.341,0.367c1.422,0.219,2.616,0.442,3.141,0.442
			c0.677,0,1.346-0.442,1.724-0.737h1.271V312.966z"/>
		<path style="fill:#6D6E70;" d="M262.331,311.429c0-3.08-1.043-4.18-4.412-4.766v-1.244l11.597-1.1h1.278v20.377
			c0,3.299,2.17,4.836,5.241,4.836c2.844,0,4.564-1.174,7.037-4.984v-13.777c0-2.273-1.497-3.594-4.42-4.108v-1.244l11.604-1.1
			h1.271v21.988c0,3.665,0.752,4.545,4.492,5.498v1.248l-12.947,1.097v-6.742h-0.151c-3.142,4.69-6.663,6.742-11.226,6.742
			c-5.842,0-9.363-3.148-9.363-8.429V311.429z"/>
		<path style="fill:#6D6E70;" d="M323.194,315.019c-2.473-2.348-4.412-3.59-6.36-3.59c-2.549,0-4.118,1.026-6.296,3.957v11.285
			c0,3.299,0.681,4.33,4.795,5.129v1.252h-17.965v-1.252c3.74-0.873,4.715-1.975,4.715-5.129v-14.584
			c0-3.516-1.573-5.129-5.165-5.424v-1.246l12.349-1.098h1.271v8.797h0.155c2.768-6.01,5.842-8.797,9.358-8.797
			c1.872,0,3.664,0.809,5.018,2.344L323.194,315.019z"/>
		<path style="fill:#6D6E70;" d="M351.266,327.698c0,2.569,0.45,3.667,1.721,3.667c1.202,0,1.947-0.881,2.25-2.567h1.195
			c-0.299,3.449-2.768,5.351-6.886,5.351c-3.445,0-5.392-1.097-6.81-3.881l-0.677,0.584c-2.847,2.492-5.468,3.297-8.909,3.297
			c-4.639,0-8.462-3.222-8.462-7.256c0-7.476,11.234-8.062,18.123-10.554c0-4.91-1.951-7.254-7.04-7.254
			c-3.819,0-6.659,1.537-8.463,4.617h-1.119c1.497-5.939,6.065-9.383,12.652-9.383c6.065,0,12.425,2.709,12.425,10.334V327.698z
			 M342.736,317.806c-7.044,2.932-9.215,4.617-9.215,8.356c0,3.004,1.573,4.98,3.895,4.98c1.724,0,3.369-0.949,5.32-2.859V317.806z"
			/>
		<path style="fill:#6D6E70;" d="M382.333,315.386c0-4.178-1.951-6.594-5.245-6.594c-2.839,0-5.237,1.607-7.037,4.835v12.9
			c0,2.863,0.53,4.182,4.198,5.275v1.252h-17.072v-1.252c3.297-0.799,4.42-1.975,4.42-4.761v-15.465c0-3.226-1.35-4.398-5.09-4.912
			v-1.244l12.274-1.028h1.271v6.666h0.152c2.397-3.951,5.989-6.738,10.708-6.738c4.265,0,9.884,2.787,9.884,10.041v12.094
			c0,2.934,0.522,4.398,4.416,5.347v1.252h-17.371v-1.252c3.369-0.73,4.492-2.049,4.492-4.98V315.386z"/>
		<path style="fill:#6D6E70;" d="M426.498,314.36h-1.274c-2.764-5.719-5.99-8.355-10.406-8.355c-5.763,0-9.283,4.689-9.283,12.24
			c0,7.768,3.895,12.463,10.406,12.463c4.198,0,6.587-1.248,9.884-5.208h1.497c-2.843,5.866-7.785,8.653-15.201,8.653
			c-9.502,0-15.942-5.793-15.942-14.369c0-8.791,7.26-15.465,16.921-15.465c2.019,0,3.819,0.223,5.313,0.436
			c1.573,0.225,2.916,0.445,3.971,0.445c1.044,0,1.346-0.148,2.246-0.881h1.195L426.498,314.36z"/>
		<path style="fill:#6D6E70;" d="M437.876,316.78c-0.45,9.088,4.794,13.777,10.035,13.777c4.114,0,7.408-1.978,10.1-6.008h1.274
			c-2.545,5.937-8.311,9.604-15.121,9.604c-8.833,0-15.42-6.303-15.42-14.735c0-8.574,6.81-15.098,15.719-15.098
			c8.016,0,13.779,4.838,14.822,12.461H437.876z M450.157,315.095c-0.303-5.131-2.847-8.797-6.292-8.797
			c-3.441,0-5.762,3.514-5.989,8.797H450.157z"/>
	</g>
</g>
</svg>
