<?xml version="1.0" encoding="UTF-8"?>
<svg version="1.1" xmlns="http://www.w3.org/2000/svg" width="1091" height="387">
<path d="M0 0 C20.42877529 8.94048493 38.930323 27.67240099 48 48 C52.94181535 63.40977009 53.61400053 84.55813389 48 100 C46.48101764 102.10602582 45.06115764 103.37478689 43 105 C43.9665703 107.15619529 44.74093477 108.76481056 46.5043335 110.36569214 C53.15634746 117.63431699 51.59395492 136.48795968 51.32826233 145.66467285 C49.72034341 168.5056396 36.58664479 184.86841547 19.86474514 199.48507786 C-0.20354976 216.29637874 -23.63735984 220.66134471 -49.32558632 218.56894016 C-74.69932328 215.96094141 -93.66116721 203.48976562 -109.92549515 184.25246334 C-124.18650797 166.65332558 -126.80794529 147.92910968 -124.56207275 125.64085388 C-122.86610951 111.81703847 -122.86610951 111.81703847 -117 106 C-117.78084961 105.39462402 -118.56169922 104.78924805 -119.36621094 104.16552734 C-126.90211439 96.54213636 -125.33530863 79.28460761 -125.3840332 69.37451172 C-124.65514289 46.51171841 -114.73499226 30.86880618 -98.58534908 15.62858105 C-72.74138492 -7.78982411 -32.30141629 -12.16389759 0 0 Z M-41.80267334 20.55383301 C-42.57734955 21.33929504 -42.57734955 21.33929504 -43.36767578 22.140625 C-43.91416779 22.68682495 -44.46065979 23.2330249 -45.02371216 23.79577637 C-46.83569058 25.60915233 -48.64047542 27.42951843 -50.4453125 29.25 C-51.69755223 30.50596835 -52.95023316 31.76149696 -54.20333862 33.01660156 C-57.50559049 36.32650178 -60.80179342 39.64236353 -64.09680176 42.95947266 C-67.45805977 46.34116323 -70.82496327 49.71722238 -74.19140625 53.09375 C-80.79983056 59.72364541 -87.40188273 66.359848 -94 73 C-92.48052501 76.36748512 -91.47899158 77.60840337 -88 79 C-87.41863281 78.00967773 -86.83726562 77.01935547 -86.23828125 75.99902344 C-82.02919826 70.01735957 -77.57834429 65.83505724 -70.30175781 64.13696289 C-60.98141646 62.79681802 -51.48746029 62.99574559 -42.09667969 63.17480469 C-37.84973244 63.25463988 -33.61505339 63.20744323 -29.36853027 63.12647247 C-0.74525513 62.66550364 -0.74525513 62.66550364 7.52758789 70.13421631 C10.06272402 72.93956237 12.08464134 75.73730755 14 79 C17.47899158 77.60840337 18.48052501 76.36748512 20 73 C12.73891339 65.69265508 5.47249516 58.39065913 -1.80085564 51.09552002 C-5.17767838 47.70824212 -8.55260829 44.31912149 -11.92333984 40.92578125 C-15.1738927 37.65356169 -18.42924978 34.38619465 -21.68805313 31.12219238 C-22.93299286 29.87354577 -24.17616556 28.62313491 -25.41756821 27.37097168 C-27.15123172 25.62287531 -28.89096653 23.88105209 -30.63232422 22.140625 C-31.14877502 21.61698364 -31.66522583 21.09334229 -32.19732666 20.55383301 C-36.52240471 16.25384466 -37.47759529 16.25384466 -41.80267334 20.55383301 Z M-40.31665039 83.203125 C-41.32955436 84.21618822 -42.33968916 85.23202462 -43.34765625 86.25 C-43.87894638 86.78270508 -44.41023651 87.31541016 -44.95762634 87.86425781 C-46.66160073 89.5738501 -48.36207405 91.28687894 -50.0625 93 C-51.21396453 94.15647723 -52.36565428 95.31273028 -53.51757812 96.46875 C-56.34767625 99.30990086 -59.17463819 102.15413941 -62 105 C-60.4152642 108.86328627 -57.94043113 111.28876923 -54.9921875 114.203125 C-54.50670441 114.6857782 -54.02122131 115.1684314 -53.52102661 115.66571045 C-51.97700134 117.19858562 -50.42615176 118.72434004 -48.875 120.25 C-47.82375991 121.29120361 -46.77297343 122.33286541 -45.72265625 123.375 C-43.15366996 125.92199464 -40.57851839 128.46265177 -38 131 C-34.13671373 129.4152642 -31.71123077 126.94043113 -28.796875 123.9921875 C-28.0728952 123.26396286 -28.0728952 123.26396286 -27.33428955 122.52102661 C-25.80141438 120.97700134 -24.27565996 119.42615176 -22.75 117.875 C-21.70879639 116.82375991 -20.66713459 115.77297343 -19.625 114.72265625 C-17.07800536 112.15366996 -14.53734823 109.57851839 -12 107 C-16.95544138 101.02265091 -22.31189552 95.53812065 -27.8125 90.0625 C-28.68326172 89.18787109 -29.55402344 88.31324219 -30.45117188 87.41210938 C-31.27810547 86.58646484 -32.10503906 85.76082031 -32.95703125 84.91015625 C-33.70960205 84.15871338 -34.46217285 83.40727051 -35.23754883 82.63305664 C-37.89091773 80.1744911 -37.54850184 80.5706271 -40.31665039 83.203125 Z M-90 133 C-91.65 134.98 -93.3 136.96 -95 139 C-76.19 157.81 -57.38 176.62 -38 196 C-33.63491945 192.25850238 -29.55282338 188.6763965 -25.52368164 184.63720703 C-24.77600021 183.88974464 -24.77600021 183.88974464 -24.01321411 183.12718201 C-22.39314159 181.50642196 -20.77662388 179.88216719 -19.16015625 178.2578125 C-18.02694801 177.12273594 -16.89351638 175.98788237 -15.75987244 174.85324097 C-12.79691665 171.88649256 -9.83697807 168.91675198 -6.87768555 165.9463501 C-3.84933144 162.9077114 -0.81809501 159.87195091 2.21289062 156.8359375 C8.14473089 150.8934174 14.07338261 144.947729 20 139 C18.35 137.02 16.7 135.04 15 133 C14.01 133.825 13.02 134.65 12 135.5 C11.01638992 136.31553848 11.01638992 136.31553848 10.01290894 137.14755249 C7.96047964 138.92687049 7.96047964 138.92687049 6.44631958 141.04702759 C3.4922305 144.78620479 1.19988049 146.72772704 -3.51470947 147.79754639 C-7.9007992 148.25976497 -12.28914561 148.27402178 -16.6953125 148.2734375 C-18.33187706 148.29410789 -19.96842376 148.31623901 -21.60494995 148.3397522 C-25.02976116 148.37851308 -28.4529415 148.38550178 -31.87792969 148.37255859 C-35.36793699 148.36297401 -38.85102444 148.40443837 -42.33984375 148.49560547 C-74.3445311 149.32418794 -74.3445311 149.32418794 -82.54000854 141.89297485 C-85.04460691 139.08431629 -87.04804071 136.21747522 -89 133 C-89.33 133 -89.66 133 -90 133 Z " fill="#C41134" transform="translate(582,0)"/>
<path d="M0 0 C7.84344234 -0.10498361 15.68432717 -0.20513201 23.52786255 -0.25875092 C27.18066598 -0.2851082 30.83288529 -0.32030207 34.48535156 -0.37719727 C38.00617091 -0.43169587 41.5264254 -0.4614573 45.04763412 -0.47438622 C47.03854776 -0.48806304 49.02923546 -0.52706858 51.01980591 -0.56648254 C61.11895957 -0.56960669 61.11895957 -0.56960669 64.80810547 2.40551758 C68.82994283 7.16605062 68.28617481 11.28449936 68.375 17.3125 C68.43107422 18.73852539 68.43107422 18.73852539 68.48828125 20.19335938 C68.57516094 27.10029452 68.57516094 27.10029452 66.86035156 29.78271484 C65.4765625 31.16796875 65.4765625 31.16796875 63 33 C63.639375 33.598125 64.27875 34.19625 64.9375 34.8125 C68.0893197 38.15533908 68.19824803 41.2644404 68.5625 45.6875 C68.64628906 46.68136719 68.73007812 47.67523438 68.81640625 48.69921875 C68.87699219 49.45847656 68.93757812 50.21773438 69 51 C69.36125977 50.2972998 69.72251953 49.59459961 70.09472656 48.87060547 C77.87884673 33.74738273 85.78242985 18.7081557 94.00708008 3.81811523 C94.69519447 2.55812313 95.35795926 1.28408147 96 0 C105.24 0 114.48 0 124 0 C125.55847656 3.02607422 125.55847656 3.02607422 127.1484375 6.11328125 C128.55691286 8.8465495 129.96595842 11.57952361 131.375 14.3125 C131.73837463 15.01751648 132.10174927 15.72253296 132.47613525 16.44891357 C137.29013201 25.78667609 142.12301795 35.11303679 147.07958984 44.3762207 C148.94446652 47.88372843 150.51898582 51.29746455 152 55 C145.4 55 138.8 55 132 55 C128 48 128 48 128 46 C116.12 46 104.24 46 92 46 C91.34 47.65 90.68 49.3 90 51 C89.34 52.32 88.68 53.64 88 55 C75.79 55 63.58 55 51 55 C50.34 51.04 49.68 47.08 49 43 C46.10075634 41.55037817 43.47699645 41.77873519 40.2421875 41.68359375 C39.24761032 41.6524221 39.24761032 41.6524221 38.23294067 41.62062073 C36.11373306 41.55520769 33.994401 41.49627895 31.875 41.4375 C30.43878919 41.39430691 29.00259098 41.35069236 27.56640625 41.30664062 C24.04439656 41.19874091 20.52229312 41.09960757 17 41 C17 45.62 17 50.24 17 55 C11.39 55 5.78 55 0 55 C0 36.85 0 18.7 0 0 Z M109 13 C107.3264663 15.95449913 105.66236015 18.9142018 104 21.875 C103.52304687 22.71675781 103.04609375 23.55851562 102.5546875 24.42578125 C102.10351562 25.23144531 101.65234375 26.03710938 101.1875 26.8671875 C100.76855469 27.61081543 100.34960938 28.35444336 99.91796875 29.12060547 C98.85370549 30.95091466 98.85370549 30.95091466 99 33 C106.26 33 113.52 33 121 33 C118.8653125 28.3284375 118.8653125 28.3284375 116.6875 23.5625 C116.24494873 22.57967041 115.80239746 21.59684082 115.34643555 20.58422852 C114.988479 19.81522217 114.63052246 19.04621582 114.26171875 18.25390625 C113.90037842 17.46314697 113.53903809 16.6723877 113.16674805 15.85766602 C112.06653173 13.66929995 112.06653173 13.66929995 109 13 Z M17 14 C17 18.29 17 22.58 17 27 C21.02087886 27.0270665 25.04157392 27.04687175 29.0625 27.0625 C30.19623047 27.07087891 31.32996094 27.07925781 32.49804688 27.08789062 C40.80569836 27.15491471 40.80569836 27.15491471 49 26 C51.36410488 24.06268472 51.36410488 24.06268472 51.3125 20.5625 C51.28911377 17.1690393 51.28911377 17.1690393 49.92260742 15.2956543 C46.97352175 13.30825142 44.44428004 13.66394759 40.92578125 13.70703125 C40.2419487 13.71127609 39.55811615 13.71552094 38.8535614 13.71989441 C36.67280439 13.73666647 34.49297691 13.77431343 32.3125 13.8125 C30.83269565 13.82754886 29.3528768 13.84123692 27.87304688 13.85351562 C24.24839664 13.88656431 20.62428906 13.93833554 17 14 Z " fill="#C41134" transform="translate(720,261)"/>
<path d="M0 0 C27.61416193 -1.86424722 27.61416193 -1.86424722 33.35449219 1.29638672 C36.96244694 4.77308762 38.89140628 9.10916691 40.86914062 13.65087891 C42.87601684 17.81973964 45.69591006 21.41593453 48.4375 25.125 C49.41910286 26.49994299 50.39716331 27.87742419 51.37109375 29.2578125 C51.9887561 30.12623779 51.9887561 30.12623779 52.61889648 31.01220703 C54.45072496 33.64871886 56.21917995 36.32876992 58 39 C58.33 26.13 58.66 13.26 59 0 C64.94 0 70.88 0 77 0 C77 18.15 77 36.3 77 55 C69.7915625 55.2784375 69.7915625 55.2784375 62.4375 55.5625 C60.93501709 55.64443604 59.43253418 55.72637207 57.88452148 55.81079102 C48.33232653 55.98961826 48.33232653 55.98961826 44.71923828 53.3059082 C42.8803943 50.96866913 41.44828377 48.5956223 40 46 C38.84902686 44.35479411 37.68208336 42.72065363 36.5 41.09765625 C35.3308885 39.42097291 34.16422958 37.74257684 33 36.0625 C32.4225 35.23298828 31.845 34.40347656 31.25 33.54882812 C30.15510489 31.97613839 29.06119353 30.40276281 27.96875 28.82836914 C24.98797913 24.5460985 21.99206894 20.2743842 19 16 C18.67 28.87 18.34 41.74 18 55 C12.06 55 6.12 55 0 55 C0 36.85 0 18.7 0 0 Z " fill="#C41134" transform="translate(873,261)"/>
<path d="M0 0 C27.44541522 -1.97700025 27.44541522 -1.97700025 33.42041016 1.34619141 C37.2667798 5.018994 39.42953201 9.62350845 41.66308594 14.38867188 C44.15647673 19.25888881 47.48745108 23.57648531 50.6875 28 C51.8813538 29.70662379 53.07296427 31.41482036 54.26171875 33.125 C55.99010675 35.68025282 55.99010675 35.68025282 58 38 C58.33 25.46 58.66 12.92 59 0 C64.94 0 70.88 0 77 0 C77 18.15 77 36.3 77 55 C50.44159362 56.73963361 50.44159362 56.73963361 44.72509766 53.85009766 C41.17747526 50.69975931 39.25281025 46.6367256 37.24609375 42.40185547 C34.82123085 37.72791322 31.57653007 33.5726698 28.5 29.3125 C27.31985167 27.62323087 26.14257844 25.931948 24.96875 24.23828125 C23.02897435 21.44376855 21.04328204 18.72437606 19 16 C18.67 28.87 18.34 41.74 18 55 C12.06 55 6.12 55 0 55 C0 36.85 0 18.7 0 0 Z " fill="#C41134" transform="translate(489,261)"/>
<path d="M0 0 C0.91154846 -0.00960754 1.82309692 -0.01921509 2.76226807 -0.02911377 C3.73629578 -0.03336365 4.71032349 -0.03761353 5.71386719 -0.04199219 C6.7286615 -0.04769226 7.74345581 -0.05339233 8.78900146 -0.05926514 C10.9340308 -0.06869682 13.0790745 -0.07524183 15.22412109 -0.07910156 C18.485287 -0.08879155 21.74581819 -0.11982644 25.00683594 -0.15136719 C27.09667597 -0.15789957 29.18652048 -0.16314911 31.27636719 -0.16699219 C32.72526337 -0.18551239 32.72526337 -0.18551239 34.20343018 -0.20440674 C40.70745851 -0.18328562 47.73655782 0.21506154 52.9377594 4.56304932 C57.76317979 10.3918664 56.59885257 19.41781581 56.57641602 26.54931641 C56.57324972 28.65612266 56.59678678 30.7615301 56.62207031 32.86816406 C56.62434338 34.22623523 56.62504677 35.58431013 56.62402344 36.94238281 C56.62700439 38.15990234 56.62998535 39.37742187 56.63305664 40.63183594 C56.07852287 45.88845245 54.67869689 49.81407585 50.76074219 53.53613281 C42.52395749 58.89004287 30.19293534 57.32103551 20.79052734 57.29150391 C18.76359583 57.28614036 16.73688581 57.29148528 14.70996094 57.29785156 C-7.97902387 57.27558563 -7.97902387 57.27558563 -15.48925781 51.91113281 C-20.16745917 45.36165091 -19.07088351 36.40580956 -19.05175781 28.78613281 C-19.06787109 27.50996094 -19.08398438 26.23378906 -19.10058594 24.91894531 C-19.104133 18.05183934 -19.10489937 11.33517288 -15.73925781 5.16113281 C-10.87768089 0.93367462 -6.27964763 0.05381875 0 0 Z M-0.73925781 19.16113281 C-2.65514232 24.58947225 -2.46154403 31.68472293 -0.86425781 37.16113281 C0.22142116 39.30156507 0.22142116 39.30156507 2.26074219 41.16113281 C7.70712021 42.2602091 13.1036165 42.34421418 18.63574219 42.34863281 C19.83457031 42.36700195 19.83457031 42.36700195 21.05761719 42.38574219 C26.52539264 42.39901349 32.14601728 42.28219436 37.26074219 40.16113281 C39.72627327 36.62471449 39.53049632 32.88851783 39.51074219 28.66113281 C39.51589844 27.55769531 39.52105469 26.45425781 39.52636719 25.31738281 C39.25885788 22.13874278 38.74616785 19.97353874 37.26074219 17.16113281 C32.39651295 13.91831332 26.70259859 14.78924237 21.00952148 14.79052734 C18.83400165 14.78615444 16.66051242 14.74982858 14.48535156 14.71191406 C13.09929077 14.70604538 11.71322037 14.70207633 10.32714844 14.70019531 C9.06845947 14.69197754 7.80977051 14.68375977 6.51293945 14.67529297 C2.70701753 15.24385273 1.56233787 16.14437972 -0.73925781 19.16113281 Z " fill="#C41134" transform="translate(78.7392578125,259.8388671875)"/>
<path d="M0 0 C4.764375 -0.2475 9.52875 -0.495 14.4375 -0.75 C15.9217749 -0.85924805 17.4060498 -0.96849609 18.93530273 -1.08105469 C28.47633742 -1.32020737 28.47633742 -1.32020737 32.72607422 2.36206055 C35.06928045 5.46829295 37.04698113 8.63664761 39 12 C40.23820533 13.77888359 41.49247488 15.54673791 42.765625 17.30078125 C43.92920733 18.96987546 45.09069807 20.64042991 46.25 22.3125 C47.42156845 23.99630708 48.59343783 25.67990483 49.765625 27.36328125 C50.26868164 28.08813721 50.77173828 28.81299316 51.29003906 29.55981445 C53.50556109 32.72145675 55.75605019 35.85847026 58 39 C58 26.13 58 13.26 58 0 C63.94 0 69.88 0 76 0 C76 18.15 76 36.3 76 55 C49.65163081 57.33171409 49.65163081 57.33171409 43.43066406 53.359375 C39.07841357 48.8763702 36.3327595 43.45693341 33.55371094 37.91015625 C30.86713653 32.87810613 27.45996694 28.36539049 24.125 23.75 C22.10375 20.8625 20.0825 17.975 18 15 C18 28.2 18 41.4 18 55 C12.06 55 6.12 55 0 55 C0 36.85 0 18.7 0 0 Z " fill="#C41134" transform="translate(141,261)"/>
<path d="M0 0 C1.29125542 -0.00855011 1.29125542 -0.00855011 2.6085968 -0.01727295 C4.43005144 -0.02670888 6.25152305 -0.03325134 8.07299805 -0.03710938 C10.83608505 -0.04677982 13.59841665 -0.07780169 16.36132812 -0.109375 C18.13671436 -0.11590934 19.91210589 -0.12115812 21.6875 -0.125 C22.50345139 -0.1373468 23.31940277 -0.1496936 24.16007996 -0.16241455 C30.47962195 -0.13832332 37.46004205 0.57225265 42.17578125 5.140625 C44.61972467 10.1812583 44.17578125 13.08131139 44.17578125 19.203125 C38.56578125 19.203125 32.95578125 19.203125 27.17578125 19.203125 C26.84578125 17.553125 26.51578125 15.903125 26.17578125 14.203125 C22.09246286 14.17408608 18.00917105 14.15631311 13.92578125 14.140625 C12.76691406 14.13224609 11.60804688 14.12386719 10.4140625 14.11523438 C9.29902344 14.11201172 8.18398438 14.10878906 7.03515625 14.10546875 C6.00874023 14.10023193 4.98232422 14.09499512 3.92480469 14.08959961 C1.49952469 14.18975549 -0.51119236 14.50389422 -2.82421875 15.203125 C-2.82421875 16.523125 -2.82421875 17.843125 -2.82421875 19.203125 C0.72766459 20.0022283 4.07391917 20.357107 7.7109375 20.44921875 C8.76861328 20.48208984 9.82628906 20.51496094 10.91601562 20.54882812 C13.1034309 20.60926817 15.29093345 20.66663991 17.47851562 20.72070312 C35.79004867 21.30711476 35.79004867 21.30711476 42.30078125 24.953125 C46.44199417 29.92258051 46.55712974 35.20913886 46.4296875 41.4453125 C45.99711609 46.14370355 44.98150543 50.49545263 41.43579102 53.84863281 C33.53862418 58.58164368 21.65982112 57.52737515 12.73828125 57.453125 C10.97266846 57.44297363 10.97266846 57.44297363 9.17138672 57.43261719 C-13.58104927 57.16201706 -13.58104927 57.16201706 -19.82421875 51.203125 C-21.83490775 46.12852896 -21.82421875 42.85751312 -21.82421875 37.203125 C-16.21421875 37.203125 -10.60421875 37.203125 -4.82421875 37.203125 C-4.49421875 38.853125 -4.16421875 40.503125 -3.82421875 42.203125 C6.40578125 42.203125 16.63578125 42.203125 27.17578125 42.203125 C27.50578125 40.553125 27.83578125 38.903125 28.17578125 37.203125 C25.03044386 35.6304563 21.62781307 35.92499943 18.16796875 35.80859375 C16.52470494 35.7397544 14.88147655 35.67006518 13.23828125 35.59960938 C10.65153601 35.49272514 8.06504561 35.39110273 5.47753906 35.30444336 C2.97753922 35.21831093 0.47938757 35.10893938 -2.01953125 34.99609375 C-2.78129669 34.97612839 -3.54306213 34.95616302 -4.32791138 34.93559265 C-9.80168963 34.66319977 -14.25118619 33.30092897 -18.82421875 30.203125 C-22.50499044 24.43431659 -21.69543846 15.32099941 -20.32421875 8.83984375 C-19.20512049 5.87041825 -17.8945922 4.25725842 -15.38671875 2.328125 C-10.2909656 0.09096508 -5.51078563 0.02835122 0 0 Z " fill="#C41134" transform="translate(591.82421875,259.796875)"/>
<path d="M0 0 C20.13 0 40.26 0 61 0 C61 4.29 61 8.58 61 13 C46.48 13 31.96 13 17 13 C17 15.31 17 17.62 17 20 C30.86 20 44.72 20 59 20 C59 24.29 59 28.58 59 33 C45.14 33 31.28 33 17 33 C17 35.64 17 38.28 17 41 C31.52 41 46.04 41 61 41 C61 45.62 61 50.24 61 55 C40.87 55 20.74 55 0 55 C0 36.85 0 18.7 0 0 Z " fill="#C41134" transform="translate(1030,261)"/>
<path d="M0 0 C2.72094272 0.00317468 5.44081101 -0.02041169 8.16162109 -0.0456543 C9.91292182 -0.04792653 11.66422544 -0.04863114 13.41552734 -0.04760742 C14.61896286 -0.06142204 14.61896286 -0.06142204 15.84671021 -0.07551575 C22.41134895 -0.02227033 28.22389263 1.00363467 33.09521484 5.75317383 C35.32610555 11.05153926 34.84960603 15.59187213 34.59521484 21.31567383 C28.98521484 21.31567383 23.37521484 21.31567383 17.59521484 21.31567383 C16.93521484 19.66567383 16.27521484 18.01567383 15.59521484 16.31567383 C6.21091471 15.04322635 -4.11289858 14.04432378 -13.40478516 16.31567383 C-15.48800678 19.44050626 -15.65425826 20.14449273 -15.63525391 23.69458008 C-15.63235352 24.95238281 -15.63235352 24.95238281 -15.62939453 26.2355957 C-15.61714844 27.10764648 -15.60490234 27.97969727 -15.59228516 28.87817383 C-15.59164062 29.7540918 -15.59099609 30.63000977 -15.59033203 31.5324707 C-15.71029137 36.07723028 -15.71029137 36.07723028 -14.40478516 40.31567383 C-9.24578496 42.03534056 -3.80511871 41.54249643 1.59521484 41.56567383 C2.79662109 41.58629883 3.99802734 41.60692383 5.23583984 41.62817383 C6.38568359 41.63333008 7.53552734 41.63848633 8.72021484 41.64379883 C9.77466797 41.65314453 10.82912109 41.66249023 11.91552734 41.67211914 C14.59143626 41.52653326 14.59143626 41.52653326 16.39990234 40.04516602 C17.90093586 38.09029757 17.90093586 38.09029757 18.59521484 34.31567383 C24.20521484 34.31567383 29.81521484 34.31567383 35.59521484 34.31567383 C36.2648577 48.5121024 36.2648577 48.5121024 33.47021484 52.06567383 C20.15474679 62.48647491 -7.333642 57.95982576 -23.23291016 56.24145508 C-27.34176498 55.04219573 -29.46655138 53.41950171 -32.40478516 50.31567383 C-34.76480188 43.66093764 -34.74328413 37.39500816 -34.72045898 30.40966797 C-34.71729778 28.38625218 -34.74081362 26.36430036 -34.76611328 24.34106445 C-34.7695888 17.35180236 -34.72875227 11.55092592 -31.40478516 5.31567383 C-23.27739962 -1.81140168 -10.13558761 -0.02476569 0 0 Z " fill="#C41134" transform="translate(989.40478515625,259.684326171875)"/>
<path d="M0 0 C2.72094272 0.00317468 5.44081101 -0.02041169 8.16162109 -0.0456543 C9.91292182 -0.04792653 11.66422544 -0.04863114 13.41552734 -0.04760742 C14.61896286 -0.06142204 14.61896286 -0.06142204 15.84671021 -0.07551575 C22.41134895 -0.02227033 28.22389263 1.00363467 33.09521484 5.75317383 C35.32610555 11.05153926 34.84960603 15.59187213 34.59521484 21.31567383 C28.98521484 21.31567383 23.37521484 21.31567383 17.59521484 21.31567383 C16.93521484 19.66567383 16.27521484 18.01567383 15.59521484 16.31567383 C6.21091471 15.04322635 -4.11289858 14.04432378 -13.40478516 16.31567383 C-15.48800678 19.44050626 -15.65425826 20.14449273 -15.63525391 23.69458008 C-15.63235352 24.95238281 -15.63235352 24.95238281 -15.62939453 26.2355957 C-15.61714844 27.10764648 -15.60490234 27.97969727 -15.59228516 28.87817383 C-15.59164063 29.7540918 -15.59099609 30.63000977 -15.59033203 31.5324707 C-15.71029137 36.07723028 -15.71029137 36.07723028 -14.40478516 40.31567383 C-9.24578496 42.03534056 -3.80511871 41.54249643 1.59521484 41.56567383 C2.79662109 41.58629883 3.99802734 41.60692383 5.23583984 41.62817383 C6.38568359 41.63333008 7.53552734 41.63848633 8.72021484 41.64379883 C9.77466797 41.65314453 10.82912109 41.66249023 11.91552734 41.67211914 C14.59143626 41.52653326 14.59143626 41.52653326 16.39990234 40.04516602 C17.90093586 38.09029757 17.90093586 38.09029757 18.59521484 34.31567383 C24.20521484 34.31567383 29.81521484 34.31567383 35.59521484 34.31567383 C36.2648577 48.5121024 36.2648577 48.5121024 33.47021484 52.06567383 C20.15474679 62.48647491 -7.333642 57.95982576 -23.23291016 56.24145508 C-27.34176498 55.04219573 -29.46655138 53.41950171 -32.40478516 50.31567383 C-35.48548619 43.6926105 -34.73527399 36.10742406 -34.71728516 28.94067383 C-34.73339844 27.66450195 -34.74951172 26.38833008 -34.76611328 25.07348633 C-34.7733834 10.9985459 -34.7733834 10.9985459 -31.40478516 5.31567383 C-23.38607908 -1.85829269 -10.05925778 -0.02457918 0 0 Z " fill="#C41134" transform="translate(403.40478515625,259.684326171875)"/>
<path d="M0 0 C8.95125 -0.061875 17.9025 -0.12375 27.125 -0.1875 C29.9417627 -0.21481201 32.75852539 -0.24212402 35.66064453 -0.27026367 C37.90136283 -0.2790282 40.14208591 -0.28667222 42.3828125 -0.29296875 C43.53966553 -0.30831665 44.69651855 -0.32366455 45.88842773 -0.33947754 C56.16876012 -0.34281748 56.16876012 -0.34281748 61 3 C66.1578603 8.29726193 66.15119813 13.21627159 66.1875 20.375 C66.20167969 21.64085937 66.21585937 22.90671875 66.23046875 24.2109375 C65.91749188 29.35648942 64.99652489 33.50521266 62.125 37.8125 C53.66038659 43.73772939 41.1472121 42.25133725 31.25 42.125 C29.85938154 42.11493717 28.46875592 42.10581723 27.078125 42.09765625 C23.71867329 42.07432672 20.3593125 42.03846541 17 42 C17 46.29 17 50.58 17 55 C11.39 55 5.78 55 0 55 C0 36.85 0 18.7 0 0 Z M17 14 C17 18.29 17 22.58 17 27 C21.09360308 27.04588098 25.1865522 27.08571438 29.28027344 27.10986328 C30.67320781 27.11992877 32.06612102 27.13358234 33.45898438 27.15087891 C35.4595436 27.1751022 37.46025615 27.18540814 39.4609375 27.1953125 C40.66540527 27.20578613 41.86987305 27.21625977 43.11083984 27.22705078 C46.12841495 27.30460814 46.12841495 27.30460814 48 25 C48.35609192 22.86181539 48.35609192 22.86181539 48.3125 20.5 C48.32925781 19.7059375 48.34601563 18.911875 48.36328125 18.09375 C48.24339844 17.4028125 48.12351562 16.711875 48 16 C44.41331687 13.60887791 42.83603431 13.76618973 38.58203125 13.8046875 C37.32841797 13.81113281 36.07480469 13.81757813 34.78320312 13.82421875 C33.47287109 13.84097656 32.16253906 13.85773438 30.8125 13.875 C29.47722013 13.88503361 28.14193311 13.8941588 26.80664062 13.90234375 C23.53768355 13.92594633 20.26881929 13.96181781 17 14 Z " fill="#C41134" transform="translate(224,261)"/>
<path d="M0 0 C1.2375 0.08378906 2.475 0.16757812 3.75 0.25390625 C5.01070313 0.29902344 6.27140625 0.34414063 7.5703125 0.390625 C10.67673693 0.50829259 13.77342434 0.67238871 16.875 0.87890625 C22.89387135 11.40294236 28.65649306 22.03239335 34.18945312 32.81982422 C35.39699335 35.17174257 36.61235672 37.51951374 37.828125 39.8671875 C38.60463347 41.37606194 39.38069289 42.88516759 40.15625 44.39453125 C40.69674988 45.43664764 40.69674988 45.43664764 41.24816895 46.49981689 C42.86167092 49.66000855 44.00837274 52.4123972 44.875 55.87890625 C38.275 55.87890625 31.675 55.87890625 24.875 55.87890625 C23.555 53.23890625 22.235 50.59890625 20.875 47.87890625 C9.325 47.87890625 -2.225 47.87890625 -14.125 47.87890625 C-15.445 50.51890625 -16.765 53.15890625 -18.125 55.87890625 C-25.055 55.87890625 -31.985 55.87890625 -39.125 55.87890625 C-34.32832206 46.18765898 -29.44298695 36.54385288 -24.49172974 26.93075562 C-23.8377955 25.66021514 -23.18499797 24.38908888 -22.53341675 23.11734009 C-20.99541918 20.11715236 -19.43984972 17.13246005 -17.84326172 14.16259766 C-16.10727161 10.95280588 -16.10727161 10.95280588 -14.81689453 7.79443359 C-11.39205294 0.4439665 -7.91072307 -0.21265385 0 0 Z M1.875 13.87890625 C0.36852402 16.83398531 -1.12906365 19.79347966 -2.625 22.75390625 C-3.05425781 23.59566406 -3.48351562 24.43742187 -3.92578125 25.3046875 C-4.53486328 26.51318359 -4.53486328 26.51318359 -5.15625 27.74609375 C-5.53330078 28.48972168 -5.91035156 29.23334961 -6.29882812 29.99951172 C-7.25914258 31.84189525 -7.25914258 31.84189525 -7.125 33.87890625 C-0.195 33.87890625 6.735 33.87890625 13.875 33.87890625 C12.23925572 28.89052844 12.23925572 28.89052844 10.1484375 24.23046875 C9.684375 23.31201172 9.684375 23.31201172 9.2109375 22.375 C8.89382813 21.75753906 8.57671875 21.14007813 8.25 20.50390625 C7.92515625 19.86324219 7.6003125 19.22257812 7.265625 18.5625 C6.47242593 16.99943124 5.67422969 15.43890003 4.875 13.87890625 C3.885 13.87890625 2.895 13.87890625 1.875 13.87890625 Z " fill="#C41134" transform="translate(324.125,260.12109375)"/>
<path d="M0 0 C5.94 0 11.88 0 18 0 C18.03738281 2.56394531 18.07476563 5.12789063 18.11328125 7.76953125 C18.15948836 10.25179595 18.21072485 12.73390936 18.26245117 15.21606445 C18.29571172 16.94155693 18.32374019 18.66715849 18.34643555 20.39282227 C18.37996153 22.87303166 18.43227406 25.3522403 18.48828125 27.83203125 C18.49467117 28.60400345 18.5010611 29.37597565 18.50764465 30.17134094 C18.59800123 34.3136321 18.59800123 34.3136321 20.35620117 37.9675293 C27.38826271 42.38436997 40.59684475 40.66890581 48.3125 39.1875 C50.1378125 38.5996875 50.1378125 38.5996875 52 38 C53.22318866 34.33043403 53.23116124 30.87678997 53.31640625 27.05078125 C53.33718735 26.27816452 53.35796844 25.50554779 53.37937927 24.70951843 C53.44471038 22.2439352 53.50368315 19.77824639 53.5625 17.3125 C53.60570087 15.63996309 53.64931566 13.96743681 53.69335938 12.29492188 C53.80115324 8.19672118 53.90034835 4.09843916 54 0 C59.94 0 65.88 0 72 0 C72.02325962 4.01616144 72.04307747 8.03214605 72.05493164 12.04833984 C72.06229008 14.06739929 72.07501162 16.08643697 72.08789062 18.10546875 C72.14899963 42.91572664 72.14899963 42.91572664 68 50 C58.30044561 59.18905153 39.2016514 56.40848182 26.92382812 56.10058594 C10.27338831 55.52777522 10.27338831 55.52777522 4.6875 51.4375 C-0.60601582 45.54655006 -0.29147281 37.10399793 -0.1953125 29.58984375 C-0.1924826 28.73693253 -0.18965271 27.8840213 -0.18673706 27.00526428 C-0.17565831 24.31585882 -0.15057793 21.62680258 -0.125 18.9375 C-0.11495425 17.09961423 -0.10583121 15.26172317 -0.09765625 13.42382812 C-0.077472 8.94898023 -0.03830136 4.47487498 0 0 Z " fill="#C41134" transform="translate(642,261)"/>
<path d="M0 0 C6.27 0 12.54 0 19 0 C19 13.2 19 26.4 19 40 C31.54 40 44.08 40 57 40 C57 44.95 57 49.9 57 55 C38.19 55 19.38 55 0 55 C0 36.85 0 18.7 0 0 Z " fill="#C41134" transform="translate(0,261)"/>
<path d="M0 0 C6.27 0 12.54 0 19 0 C19 18.15 19 36.3 19 55 C12.73 55 6.46 55 0 55 C0 36.85 0 18.7 0 0 Z " fill="#C41134" transform="translate(464,261)"/>
<path d="M0 0 C8 0 8 0 10.65234375 2.01953125 C11.40644531 2.94121094 12.16054688 3.86289062 12.9375 4.8125 C13.76894531 5.80507813 14.60039063 6.79765625 15.45703125 7.8203125 C16.30520582 8.8797936 17.15285571 9.93969493 18 11 C18.87674669 12.06168292 19.75563467 13.12160139 20.63671875 14.1796875 C22.77890965 16.76914903 24.89230744 19.38238182 27 22 C27.33 14.74 27.66 7.48 28 0 C30.64 0 33.28 0 36 0 C36 12.21 36 24.42 36 37 C28 37 28 37 25.9777832 35.71826172 C25.50687256 35.12803223 25.03596191 34.53780273 24.55078125 33.9296875 C23.74350586 32.95515625 23.74350586 32.95515625 22.91992188 31.9609375 C22.38947266 31.27257812 21.85902344 30.58421875 21.3125 29.875 C20.77044922 29.20984375 20.22839844 28.5446875 19.66992188 27.859375 C18.6471673 26.60097974 17.6338519 25.33479969 16.6340332 24.05810547 C14.47066104 21.33328441 12.22732922 18.67279507 10 16 C9.67 22.93 9.34 29.86 9 37 C6.03 37 3.06 37 0 37 C0 24.79 0 12.58 0 0 Z " fill="#0B181B" transform="translate(832,349)"/>
<path d="M0 0 C4.9190625 -0.12375 4.9190625 -0.12375 9.9375 -0.25 C10.95191162 -0.28641602 11.96632324 -0.32283203 13.01147461 -0.36035156 C19.37096978 -0.43687533 24.58667588 0.50826128 30 4 C34.12605479 8.37377403 35.78976178 12.26690309 36.25 18.25 C35.86172151 24.07417729 34.63368019 28.92409468 30.125 32.875 C25.61119075 35.94439029 22.16382732 37.25922605 16.69921875 37.1953125 C15.37796997 37.18781982 15.37796997 37.18781982 14.0300293 37.18017578 C12.37547729 37.15286377 12.37547729 37.15286377 10.6875 37.125 C7.160625 37.08375 3.63375 37.0425 0 37 C0 24.79 0 12.58 0 0 Z M9 7 C9 14.59 9 22.18 9 30 C19.17101888 30.98599544 19.17101888 30.98599544 23.625 27.6875 C26.44441926 24.49710452 26.93770097 22.8410369 27.25 18.625 C26.91208451 13.72522544 25.59277017 11.39970712 21.9375 8.1875 C17.98289122 6.37535137 17.98289122 6.37535137 9 7 Z " fill="#111A1C" transform="translate(324,349)"/>
<path d="M0 0 C4.92659862 2.81250266 8.52588128 6.81775101 10.4765625 12.1640625 C11.38911711 18.34135527 11.21838149 23.97379745 7.4765625 29.1640625 C3.15923729 33.90398303 -1.0860404 36.59468983 -7.5234375 37.1640625 C-15.26901185 37.4773948 -20.73638426 35.31624914 -26.5234375 30.1640625 C-30.31586959 25.45225294 -30.02348995 20.05737371 -29.87109375 14.2265625 C-29.24284342 8.69231236 -26.44403423 5.87774539 -22.4609375 2.3515625 C-16.32461842 -2.21803682 -7.18017735 -2.37857268 0 0 Z M-18.5234375 9.1640625 C-20.95149538 12.53201375 -21.77768519 15.14319059 -21.5234375 19.2265625 C-20.80728044 23.42694434 -18.84126929 25.49361252 -15.5234375 28.1640625 C-12.28423323 29.78366463 -9.02465548 29.73024459 -5.5234375 29.1640625 C-1.59130291 26.76109136 0.10398313 24.96883394 2.0390625 20.7890625 C2.59236724 16.2045375 1.85472701 14.10289747 -0.5234375 10.1640625 C-3.56317629 7.52962221 -5.54032201 6.30743351 -9.5234375 5.7265625 C-13.15985816 6.25687385 -15.4580786 7.1204899 -18.5234375 9.1640625 Z " fill="#111A1C" transform="translate(518.5234375,349.8359375)"/>
<path d="M0 0 C19.66666667 0 19.66666667 0 24.875 4.6875 C26.56395913 8.15924933 26.00101327 11.33463562 25 15 C24.01 16.485 24.01 16.485 23 18 C23.61875 18.2475 24.2375 18.495 24.875 18.75 C27.52534901 20.30902883 28.14374887 21.04204154 29 24 C29.07694547 28.15505556 28.68981752 31.10323723 26.125 34.4375 C22.79425775 36.88657518 20.12248165 37.12195443 16.11328125 37.09765625 C15.26805908 37.09515869 14.42283691 37.09266113 13.55200195 37.09008789 C12.48296631 37.08098389 11.41393066 37.07187988 10.3125 37.0625 C5.2078125 37.0315625 5.2078125 37.0315625 0 37 C0 24.79 0 12.58 0 0 Z M9 7 C9 9.64 9 12.28 9 15 C12.465 14.505 12.465 14.505 16 14 C16.67958603 11.60280568 16.67958603 11.60280568 17 9 C15.10244856 6.65026182 15.10244856 6.65026182 11.875 6.875 C10.92625 6.91625 9.9775 6.9575 9 7 Z M9 22 C9 24.64 9 27.28 9 30 C10.8871875 30.061875 10.8871875 30.061875 12.8125 30.125 C13.52019531 30.14820313 14.22789062 30.17140625 14.95703125 30.1953125 C17.31359719 30.13254462 17.31359719 30.13254462 20 28 C19.62095792 24.70924004 19.62095792 24.70924004 18 22 C16.48071962 21.92820036 14.95832518 21.91607993 13.4375 21.9375 C12.19806641 21.95103516 12.19806641 21.95103516 10.93359375 21.96484375 C9.97646484 21.98224609 9.97646484 21.98224609 9 22 Z " fill="#11191C" transform="translate(252,349)"/>
<path d="M0 0 C19.66666667 0 19.66666667 0 24.875 4.6875 C26.56395913 8.15924933 26.00101327 11.33463562 25 15 C24.01 16.485 24.01 16.485 23 18 C23.61875 18.226875 24.2375 18.45375 24.875 18.6875 C27.72554666 20.44813176 28.19356287 21.77425149 29 25 C28.91372577 29.1411628 28.30343408 30.64988376 25.5625 33.8125 C22.13015101 36.74255402 20.61716296 37.12419978 16.2109375 37.09765625 C15.36321777 37.09515869 14.51549805 37.09266113 13.64208984 37.09008789 C12.5639502 37.08098389 11.48581055 37.07187988 10.375 37.0625 C6.95125 37.041875 3.5275 37.02125 0 37 C0 24.79 0 12.58 0 0 Z M9 7 C9 9.64 9 12.28 9 15 C12.465 14.505 12.465 14.505 16 14 C16.67958603 11.60280568 16.67958603 11.60280568 17 9 C15.10244856 6.65026182 15.10244856 6.65026182 11.875 6.875 C10.92625 6.91625 9.9775 6.9575 9 7 Z M9 22 C9 24.64 9 27.28 9 30 C10.8871875 30.061875 10.8871875 30.061875 12.8125 30.125 C13.52019531 30.14820313 14.22789062 30.17140625 14.95703125 30.1953125 C17.31359719 30.13254462 17.31359719 30.13254462 20 28 C19.62095792 24.70924004 19.62095792 24.70924004 18 22 C16.48071962 21.92820036 14.95832518 21.91607993 13.4375 21.9375 C12.19806641 21.95103516 12.19806641 21.95103516 10.93359375 21.96484375 C9.97646484 21.98224609 9.97646484 21.98224609 9 22 Z " fill="#10191C" transform="translate(764,349)"/>
<path d="M0 0 C18 0 18 0 24 4 C25.5625 7.375 25.5625 7.375 26 11 C24.625 14.4375 24.625 14.4375 23 17 C23.825 17.639375 24.65 18.27875 25.5 18.9375 C28.4442379 22.54419143 28.74108812 24.32334771 28.5 28.84375 C27.70000747 32.29371778 25.74407005 33.90927996 23 36 C20.54724859 37.2263757 18.9494219 37.11415314 16.2109375 37.09765625 C15.36321777 37.09515869 14.51549805 37.09266113 13.64208984 37.09008789 C12.5639502 37.08098389 11.48581055 37.07187988 10.375 37.0625 C6.95125 37.041875 3.5275 37.02125 0 37 C0 24.79 0 12.58 0 0 Z M8 7 C8 9.64 8 12.28 8 15 C12.7897321 15.23428313 12.7897321 15.23428313 17 13 C16.62095792 9.70924004 16.62095792 9.70924004 15 7 C12.66702567 6.95907063 10.33294775 6.95758277 8 7 Z M8 22 C8 24.64 8 27.28 8 30 C9.43655854 30.08131463 10.8744483 30.13933559 12.3125 30.1875 C13.11300781 30.22230469 13.91351562 30.25710938 14.73828125 30.29296875 C17.07336441 30.18214567 17.07336441 30.18214567 18.8046875 28.62109375 C20.24050656 27.0482267 20.24050656 27.0482267 19.8125 24.875 C19.1564434 22.81035868 19.1564434 22.81035868 17 22 C15.45976004 21.93049459 13.91665012 21.91547643 12.375 21.9375 C11.55773437 21.94652344 10.74046875 21.95554687 9.8984375 21.96484375 C9.27195312 21.97644531 8.64546875 21.98804688 8 22 Z " fill="#11191C" transform="translate(641,349)"/>
<path d="M0 0 C17 0 17 0 23 3 C25.1979747 5.71083547 25.92397877 7.48957172 26.4375 10.9375 C25.88968076 14.77223467 24.32367223 16.95018019 22 20 C22.39832031 20.64066406 22.79664063 21.28132813 23.20703125 21.94140625 C26.21716948 26.85576818 28.89944118 31.63190525 31 37 C27.43511436 37.77466328 24.52732275 38.03653783 21 37 C18.70452653 34.12189681 17.21755657 31.25217185 15.66796875 27.91796875 C13.99806418 24.44449656 13.99806418 24.44449656 9 22 C9 26.95 9 31.9 9 37 C6.03 37 3.06 37 0 37 C0 24.79 0 12.58 0 0 Z M9 7 C9 9.64 9 12.28 9 15 C11.91652174 15.16681109 11.91652174 15.16681109 15 15 C15.66 14.34 16.32 13.68 17 13 C16.71016731 9.69316534 16.71016731 9.69316534 15 7 C13.00041636 6.95919217 10.99954746 6.95745644 9 7 Z " fill="#10191C" transform="translate(414,349)"/>
<path d="M0 0 C2.97 0 5.94 0 9 0 C9.01401855 1.15786011 9.01401855 1.15786011 9.02832031 2.33911133 C9.08194706 5.83089582 9.16561017 9.32132931 9.25 12.8125 C9.26417969 14.02744141 9.27835938 15.24238281 9.29296875 16.49414062 C9.32519531 17.65751953 9.35742188 18.82089844 9.390625 20.01953125 C9.41157227 21.09307861 9.43251953 22.16662598 9.45410156 23.27270508 C9.75866425 26.1001206 9.75866425 26.1001206 11.85058594 27.8581543 C15.36589377 29.72561167 18.56931103 29.30119768 22.375 28.5 C23.179375 28.2525 23.179375 28.2525 24 28 C24.78773917 24.46498542 25.17495802 21.09750212 25.31640625 17.48046875 C25.35830078 16.45888672 25.40019531 15.43730469 25.44335938 14.38476562 C25.48267578 13.32966797 25.52199219 12.27457031 25.5625 11.1875 C25.60568359 10.11306641 25.64886719 9.03863281 25.69335938 7.93164062 C25.79910983 5.28787918 25.90120233 2.6440289 26 0 C28.64 0 31.28 0 34 0 C34.08738991 4.37487331 34.140524 8.74952078 34.1875 13.125 C34.21263672 14.3625 34.23777344 15.6 34.26367188 16.875 C34.27333984 18.07382812 34.28300781 19.27265625 34.29296875 20.5078125 C34.3086792 21.60754395 34.32438965 22.70727539 34.34057617 23.84033203 C33.80800878 28.78118302 32.10828163 31.99984341 28.4375 35.3125 C22.37320807 38.28951604 16.61245196 38.75766681 10.125 36.8125 C5.69071113 35.08414402 3.02008966 33.11153513 0.91455078 28.75317383 C-0.12730529 25.61675875 -0.22783085 23.12483083 -0.1953125 19.82421875 C-0.18886719 18.66728516 -0.18242188 17.51035156 -0.17578125 16.31835938 C-0.15902344 15.12017578 -0.14226563 13.92199219 -0.125 12.6875 C-0.11597656 11.46998047 -0.10695313 10.25246094 -0.09765625 8.99804688 C-0.07413037 5.99849726 -0.04125653 2.99934956 0 0 Z " fill="#111A1C" transform="translate(602,349)"/>
<path d="M0 0 C2.97 0 5.94 0 9 0 C9.01401855 1.10456543 9.01401855 1.10456543 9.02832031 2.23144531 C9.08204155 5.57164218 9.16568622 8.91044119 9.25 12.25 C9.26417969 13.40886719 9.27835938 14.56773437 9.29296875 15.76171875 C9.32519531 16.87675781 9.35742188 17.99179687 9.390625 19.140625 C9.41157227 20.16704102 9.43251953 21.19345703 9.45410156 22.25097656 C10.13696526 25.68972668 11.23167052 26.89993066 14 29 C18.40203429 29.46337203 20.2794164 29.48038907 24 27 C25.01587978 23.95236066 25.19804406 21.65281033 25.31640625 18.45703125 C25.35830078 17.38388672 25.40019531 16.31074219 25.44335938 15.20507812 C25.48267578 14.08552734 25.52199219 12.96597656 25.5625 11.8125 C25.60568359 10.68134766 25.64886719 9.55019531 25.69335938 8.38476562 C25.79949099 5.58996646 25.90154385 2.79507838 26 0 C28.64 0 31.28 0 34 0 C34.11647041 4.54144994 34.18734502 9.08251394 34.25 13.625 C34.28351563 14.91019531 34.31703125 16.19539063 34.3515625 17.51953125 C34.47384504 29.31979679 34.47384504 29.31979679 30 34 C25.66962425 37.69355578 20.52338332 38.12310661 15 38 C10.12631726 37.20696789 6.31782396 35.80812361 3 32.0625 C0.10027694 27.62229907 -0.12446537 24.39521254 -0.09765625 19.140625 C-0.09443359 18.02558594 -0.09121094 16.91054688 -0.08789062 15.76171875 C-0.07951172 14.60285156 -0.07113281 13.44398438 -0.0625 12.25 C-0.05798828 11.07566406 -0.05347656 9.90132813 -0.04882812 8.69140625 C-0.03705094 5.79421928 -0.02060326 2.89713546 0 0 Z " fill="#111A1C" transform="translate(213,349)"/>
<path d="M0 0 C2.64 0 5.28 0 8 0 C8.33 4.29 8.66 8.58 9 13 C9.68964844 12.0615625 10.37929688 11.123125 11.08984375 10.15625 C18.52394195 0.46601261 18.52394195 0.46601261 22.734375 -0.86328125 C25.1875 -0.8125 25.1875 -0.8125 29 0 C27.18476315 5.52594201 23.61495029 9.10205419 19.80078125 13.37890625 C17.80165869 15.75867772 17.80165869 15.75867772 18 18.1015625 C19.24959184 20.47383452 20.72857485 21.98043858 22.6875 23.8125 C30.15091249 31.00696069 30.15091249 31.00696069 33 35 C33 35.66 33 36.32 33 37 C23.6482379 38.21758928 23.6482379 38.21758928 19.921875 35.46484375 C18.14332788 33.38586638 16.56726846 31.24173971 15 29 C13.86835687 27.65460206 12.72342464 26.3202143 11.5625 25 C10.716875 24.01 9.87125 23.02 9 22 C8.67 26.95 8.34 31.9 8 37 C5.36 37 2.72 37 0 37 C0 24.79 0 12.58 0 0 Z " fill="#141A1D" transform="translate(873,349)"/>
<path d="M0 0 C2.97 0 5.94 0 9 0 C21.10077671 25.9701529 21.10077671 25.9701529 25 37 C22.03 37 19.06 37 16 37 C14.68 34.36 13.36 31.72 12 29 C7.38 29 2.76 29 -2 29 C-2.99 31.64 -3.98 34.28 -5 37 C-7.97 37 -10.94 37 -14 37 C-13.31167446 32.57611318 -11.7614938 28.62356191 -10.05859375 24.51171875 C-9.77146011 23.80852005 -9.48432648 23.10532135 -9.18849182 22.3808136 C-8.27565652 20.14797783 -7.35667929 17.91773061 -6.4375 15.6875 C-5.81534728 14.16878684 -5.19359804 12.64990832 -4.57226562 11.13085938 C-3.05284243 7.41864195 -1.52790794 3.7087328 0 0 Z M4 11 C3.49384702 12.26839526 2.99530901 13.53983102 2.5 14.8125 C2.2215625 15.52019531 1.943125 16.22789062 1.65625 16.95703125 C0.8470838 19.11841216 0.8470838 19.11841216 1 22 C3.64 22 6.28 22 9 22 C8.54917531 20.53932801 8.08906463 19.08151968 7.625 17.625 C7.36976563 16.81289063 7.11453125 16.00078125 6.8515625 15.1640625 C6.10145717 12.83540815 6.10145717 12.83540815 4 11 Z " fill="#111A1C" transform="translate(388,349)"/>
<path d="M0 0 C2.05078125 0.03255208 4.1015625 0.06510417 6.15234375 0.09765625 C10.32039711 7.97629369 13.96227699 16.05740137 17.52734375 24.22265625 C17.98028809 25.25463135 18.43323242 26.28660645 18.89990234 27.34985352 C19.32094238 28.32108154 19.74198242 29.29230957 20.17578125 30.29296875 C20.55653809 31.16969238 20.93729492 32.04641602 21.32958984 32.94970703 C22.15234375 35.09765625 22.15234375 35.09765625 22.15234375 37.09765625 C19.18234375 37.09765625 16.21234375 37.09765625 13.15234375 37.09765625 C10.15234375 31.47265625 10.15234375 31.47265625 10.15234375 28.09765625 C5.20234375 28.09765625 0.25234375 28.09765625 -4.84765625 28.09765625 C-5.83765625 31.06765625 -6.82765625 34.03765625 -7.84765625 37.09765625 C-10.81765625 37.09765625 -13.78765625 37.09765625 -16.84765625 37.09765625 C-14.36575113 29.26361559 -11.33792556 21.69923789 -8.22265625 14.09765625 C-7.71464203 12.84643605 -7.20682812 11.5951345 -6.69921875 10.34375 C-2.53003082 0.13372256 -2.53003082 0.13372256 0 0 Z M1.15234375 12.09765625 C0.16234375 15.39765625 -0.82765625 18.69765625 -1.84765625 22.09765625 C1.12234375 22.09765625 4.09234375 22.09765625 7.15234375 22.09765625 C5.83234375 18.79765625 4.51234375 15.49765625 3.15234375 12.09765625 C2.49234375 12.09765625 1.83234375 12.09765625 1.15234375 12.09765625 Z " fill="#111A1C" transform="translate(808.84765625,348.90234375)"/>
<path d="M0 0 C1.09183594 -0.00515625 2.18367187 -0.0103125 3.30859375 -0.015625 C6.67951578 0.25955231 9.41125625 1.05224219 12.5625 2.25 C12.5625 5.22 12.5625 8.19 12.5625 11.25 C11.263125 10.734375 9.96375 10.21875 8.625 9.6875 C3.71416649 8.07117842 -0.46054737 7.6778231 -5.4375 9.25 C-8.77250593 11.68177516 -10.11157823 13.29260479 -11.4375 17.1875 C-11.4375 21.06045073 -10.58018559 23.03597162 -8.4375 26.25 C-5.0500645 29.15351614 -2.08508473 29.70735978 2.359375 29.5546875 C6.2711721 29.01369428 9.89507118 27.67622232 13.5625 26.25 C13.5625 28.89 13.5625 31.53 13.5625 34.25 C7.29801046 38.04166472 0.47107381 39.09843921 -6.6875 37.5625 C-12.50407209 35.52669977 -16.8353277 33.10465524 -19.7421875 27.4375 C-21.40907443 22.19336133 -21.45243886 16.28938909 -19.70703125 11.0625 C-15.46702241 3.03244243 -8.72534537 -0.04110881 0 0 Z " fill="#121A1C" transform="translate(733.4375,348.75)"/>
<path d="M0 0 C18 0 18 0 24 3 C26.09290216 6.57818757 27.02054901 8.97254952 26.9375 13.125 C25.84951528 16.46148647 24.39780977 18.45686842 22 21 C18.14854957 22.92572521 13.19956748 22.04883218 9 22 C9 26.95 9 31.9 9 37 C6.03 37 3.06 37 0 37 C0 24.79 0 12.58 0 0 Z M9 7 C9 9.64 9 12.28 9 15 C12.41656024 15.16677282 12.41656024 15.16677282 16 15 C16.66 14.34 17.32 13.68 18 13 C17.83492354 10.42459787 17.83492354 10.42459787 17 8 C14.29120665 6.64560332 11.99066732 6.93498549 9 7 Z " fill="#10191C" transform="translate(573,349)"/>
<path d="M0 0 C1.01964844 -0.00515625 2.03929687 -0.0103125 3.08984375 -0.015625 C6.11582204 0.25476465 8.32075647 0.97758864 11.0625 2.25 C11.0625 4.89 11.0625 7.53 11.0625 10.25 C10.051875 9.92 9.04125 9.59 8 9.25 C4.30770089 8.17998679 0.91001793 8.09295845 -2.9375 8.25 C-2.9375 9.24 -2.9375 10.23 -2.9375 11.25 C-0.34671161 13.04165193 -0.34671161 13.04165193 2.875 14.6875 C9.96680622 18.47488038 9.96680622 18.47488038 12.0625 22.25 C12.91808667 26.55876529 12.5438201 30.22172524 10.6875 34.1875 C6.31436873 37.62353171 1.25482099 38.60947144 -4.26171875 37.98828125 C-7.61326153 37.21389521 -10.06915089 36.16223274 -12.9375 34.25 C-13.34593923 31.53796348 -13.07086867 29.0062858 -12.9375 26.25 C-7.9375 28.25 -7.9375 28.25 -5.5 29.375 C-2.52504374 30.39083872 -0.05984309 30.39522526 3.0625 30.25 C2.97484772 27.83898639 2.97484772 27.83898639 2.0625 25.25 C-0.31442841 23.51970703 -0.31442841 23.51970703 -3.25 22.25 C-10.81848544 18.38712367 -10.81848544 18.38712367 -12.9375 14.25 C-13.42310502 10.36515987 -13.27898084 8.01833188 -11.6875 4.4375 C-8.38593098 0.31053872 -5.13364345 -0.0258948 0 0 Z " fill="#0B181B" transform="translate(294.9375,348.75)"/>
<path d="M0 0 C1.01964844 -0.00515625 2.03929687 -0.0103125 3.08984375 -0.015625 C6.11582204 0.25476465 8.32075647 0.97758864 11.0625 2.25 C11.0625 4.89 11.0625 7.53 11.0625 10.25 C9.825 9.755 9.825 9.755 8.5625 9.25 C4.4751017 8.08217191 1.29326656 8.1041115 -2.9375 8.25 C-2.84652714 10.16787309 -2.84652714 10.16787309 -1.9375 12.25 C0.49293286 13.90574404 0.49293286 13.90574404 3.4375 15.25 C7.27269744 17.11194282 9.93677643 18.47172056 12.0625 22.25 C12.91808667 26.55876529 12.5438201 30.22172524 10.6875 34.1875 C6.79717245 37.24418593 2.95766681 37.98618862 -1.9375 38.25 C-5.50167809 37.80152726 -8.70792458 36.86478771 -11.9375 35.25 C-11.9375 32.28 -11.9375 29.31 -11.9375 26.25 C-10.9165625 26.683125 -10.9165625 26.683125 -9.875 27.125 C-3.5062602 29.82737321 -3.5062602 29.82737321 3.0625 29.25 C2.97099726 27.33489277 2.97099726 27.33489277 2.0625 25.25 C-0.3651566 23.55789617 -0.3651566 23.55789617 -3.3125 22.1875 C-9.9379574 18.89225272 -9.9379574 18.89225272 -11.9375 16.25 C-13.1795849 12.05206748 -13.39400316 8.37924465 -11.75 4.3125 C-8.29598156 0.38206522 -5.11610435 -0.02580633 0 0 Z " fill="#0B181B" transform="translate(197.9375,348.75)"/>
<path d="M0 0 C7.59 0 15.18 0 23 0 C23 2.31 23 4.62 23 7 C18.05 7 13.1 7 8 7 C8 9.64 8 12.28 8 15 C12.95 15 17.9 15 23 15 C23 17.31 23 19.62 23 22 C18.05 22 13.1 22 8 22 C8 26.95 8 31.9 8 37 C5.36 37 2.72 37 0 37 C0 24.79 0 12.58 0 0 Z " fill="#11191C" transform="translate(533,349)"/>
<path d="M0 0 C3.51266272 -0.63609586 6.51433631 -0.86003313 10 0 C12.97765785 2.98289099 15.00621676 6.3029185 17 10 C19.52177729 7.61313261 21.04978473 5.90043053 22.625 2.75 C25 0 25 0 27.4765625 -0.3828125 C30.01017726 -0.37567556 32.48048299 -0.25964488 35 0 C33.78483372 3.81909401 32.02950621 6.1833483 29.31787109 9.09887695 C21.63491481 17.59306862 21.60271221 25.93436659 22 37 C19.03 37 16.06 37 13 37 C13.06703125 35.8140625 13.1340625 34.628125 13.203125 33.40625 C13.46855303 21.0542296 10.65876472 14.32088199 2.58984375 5.02734375 C0 2 0 2 0 0 Z " fill="#121A1C" transform="translate(440,349)"/>
<path d="M0 0 C2.64 0 5.28 0 8 0 C8 9.9 8 19.8 8 30 C13.61 30 19.22 30 25 30 C25 32.31 25 34.62 25 37 C16.75 37 8.5 37 0 37 C0 24.79 0 12.58 0 0 Z " fill="#11191C" transform="translate(673,349)"/>
<path d="M0 0 C8 0 8 0 10.65234375 2.01953125 C11.40644531 2.94121094 12.16054688 3.86289062 12.9375 4.8125 C13.76894531 5.80507813 14.60039063 6.79765625 15.45703125 7.8203125 C16.30520582 8.8797936 17.15285571 9.93969493 18 11 C18.87674669 12.06168292 19.75563467 13.12160139 20.63671875 14.1796875 C22.77890965 16.76914903 24.89230744 19.38238182 27 22 C27.33 14.74 27.66 7.48 28 0 C30.64 0 33.28 0 36 0 C36 12.21 36 24.42 36 37 C28 37 28 37 25.9777832 35.71826172 C25.50687256 35.12803223 25.03596191 34.53780273 24.55078125 33.9296875 C23.74350586 32.95515625 23.74350586 32.95515625 22.91992188 31.9609375 C22.38947266 31.27257812 21.85902344 30.58421875 21.3125 29.875 C20.77044922 29.20984375 20.22839844 28.5446875 19.66992188 27.859375 C18.6471673 26.60097974 17.6338519 25.33479969 16.6340332 24.05810547 C14.47066104 21.33328441 12.22732922 18.67279507 10 16 C9.67 22.93 9.34 29.86 9 37 C6.03 37 3.06 37 0 37 C0 24.79 0 12.58 0 0 Z M2 1 C2 12.55 2 24.1 2 36 C3.65 36 5.3 36 7 36 C7 27.75 7 19.5 7 11 C12.62955255 16.62955255 12.62955255 16.62955255 15.19140625 19.59375 C15.74376953 20.23183594 16.29613281 20.86992187 16.86523438 21.52734375 C17.42533203 22.17832031 17.98542969 22.82929688 18.5625 23.5 C19.12646484 24.15097656 19.69042969 24.80195313 20.27148438 25.47265625 C20.82255859 26.11074219 21.37363281 26.74882812 21.94140625 27.40625 C22.47266113 28.01855469 23.00391602 28.63085938 23.55126953 29.26171875 C24.80798645 30.76960962 25.95993213 32.3636419 27.08984375 33.96875 C28.03537109 34.97421875 28.03537109 34.97421875 29 36 C30.65 36 32.3 36 34 36 C34 24.45 34 12.9 34 1 C32.35 1 30.7 1 29 1 C29 9.25 29 17.5 29 26 C28.34 26 27.68 26 27 26 C26.72905518 25.41138184 26.45811035 24.82276367 26.17895508 24.21630859 C25.01418859 22.02667303 23.77325224 20.39371297 22.13671875 18.5390625 C21.57919922 17.90226562 21.02167969 17.26546875 20.44726562 16.609375 C19.86654297 15.95453125 19.28582031 15.2996875 18.6875 14.625 C17.54504192 13.32598764 16.40310783 12.02651424 15.26171875 10.7265625 C14.70661621 10.10297852 14.15151367 9.47939453 13.57958984 8.83691406 C12.56139607 7.6528507 11.57865029 6.43688635 10.64306641 5.18652344 C9.28501732 3.31119072 9.28501732 3.31119072 7 1 C5.35 1 3.7 1 2 1 Z " fill="#1D1D1F" transform="translate(832,349)"/>
<path d="M0 0 C2.97 0 5.94 0 9 0 C9 12.21 9 24.42 9 37 C6.03 37 3.06 37 0 37 C0 24.79 0 12.58 0 0 Z " fill="#121A1C" transform="translate(700,349)"/>
<path d="M0 0 C2.64 0 5.28 0 8 0 C8 12.21 8 24.42 8 37 C5.36 37 2.72 37 0 37 C0 24.79 0 12.58 0 0 Z " fill="#10191C" transform="translate(364,349)"/>
<path d="M0 0 C2.64 0 5.28 0 8 0 C8 12.21 8 24.42 8 37 C5.36 37 2.72 37 0 37 C0 24.79 0 12.58 0 0 Z " fill="#10191C" transform="translate(311,349)"/>
<path d="M0 0 C1.01964844 -0.00515625 2.03929687 -0.0103125 3.08984375 -0.015625 C6.11582204 0.25476465 8.32075647 0.97758864 11.0625 2.25 C11.0625 4.89 11.0625 7.53 11.0625 10.25 C10.051875 9.92 9.04125 9.59 8 9.25 C4.30770089 8.17998679 0.91001793 8.09295845 -2.9375 8.25 C-2.9375 9.24 -2.9375 10.23 -2.9375 11.25 C-0.34671161 13.04165193 -0.34671161 13.04165193 2.875 14.6875 C9.96680622 18.47488038 9.96680622 18.47488038 12.0625 22.25 C12.91808667 26.55876529 12.5438201 30.22172524 10.6875 34.1875 C6.31436873 37.62353171 1.25482099 38.60947144 -4.26171875 37.98828125 C-7.61326153 37.21389521 -10.06915089 36.16223274 -12.9375 34.25 C-13.34593923 31.53796348 -13.07086867 29.0062858 -12.9375 26.25 C-7.9375 28.25 -7.9375 28.25 -5.5 29.375 C-2.52504374 30.39083872 -0.05984309 30.39522526 3.0625 30.25 C2.97484772 27.83898639 2.97484772 27.83898639 2.0625 25.25 C-0.31442841 23.51970703 -0.31442841 23.51970703 -3.25 22.25 C-10.81848544 18.38712367 -10.81848544 18.38712367 -12.9375 14.25 C-13.42310502 10.36515987 -13.27898084 8.01833188 -11.6875 4.4375 C-8.38593098 0.31053872 -5.13364345 -0.0258948 0 0 Z M-11.375 6 C-12.24528688 9.48114752 -11.90670521 11.79720646 -10.9375 15.25 C-6.67378637 19.72689931 -1.38338673 22.40603693 4.0625 25.25 C4.0625 27.23 4.0625 29.21 4.0625 31.25 C-1.92743047 31.5652595 -5.57310356 30.93219822 -10.9375 28.25 C-10.9375 30.23 -10.9375 32.21 -10.9375 34.25 C-6.16238553 37.07012643 -1.33218524 36.77826295 4.0625 36.25 C7.80280185 34.64701349 8.79408465 33.65262302 11.0625 30.25 C11.57462391 25.53846005 10.85708303 23.04055602 8.0625 19.25 C5.02666629 17.27136041 1.89426766 15.66505443 -1.3203125 13.99609375 C-3.9375 12.25 -3.9375 12.25 -4.9296875 10.16015625 C-4.93226563 9.52980469 -4.93484375 8.89945312 -4.9375 8.25 C-2.9375 6.25 -2.9375 6.25 -0.87890625 6.23828125 C-0.09386719 6.34527344 0.69117188 6.45226562 1.5 6.5625 C2.67369141 6.71138672 2.67369141 6.71138672 3.87109375 6.86328125 C6.0625 7.25 6.0625 7.25 9.0625 8.25 C9.0625 6.6 9.0625 4.95 9.0625 3.25 C2.51920409 -0.46576306 -6.33490906 -0.13576288 -11.375 6 Z " fill="#1E1D1F" transform="translate(294.9375,348.75)"/>
<path d="M0 0 C1.01964844 -0.00515625 2.03929687 -0.0103125 3.08984375 -0.015625 C6.11582204 0.25476465 8.32075647 0.97758864 11.0625 2.25 C11.0625 4.89 11.0625 7.53 11.0625 10.25 C9.825 9.755 9.825 9.755 8.5625 9.25 C4.4751017 8.08217191 1.29326656 8.1041115 -2.9375 8.25 C-2.84652714 10.16787309 -2.84652714 10.16787309 -1.9375 12.25 C0.49293286 13.90574404 0.49293286 13.90574404 3.4375 15.25 C7.27269744 17.11194282 9.93677643 18.47172056 12.0625 22.25 C12.91808667 26.55876529 12.5438201 30.22172524 10.6875 34.1875 C6.79717245 37.24418593 2.95766681 37.98618862 -1.9375 38.25 C-5.50167809 37.80152726 -8.70792458 36.86478771 -11.9375 35.25 C-11.9375 32.28 -11.9375 29.31 -11.9375 26.25 C-10.9165625 26.683125 -10.9165625 26.683125 -9.875 27.125 C-3.5062602 29.82737321 -3.5062602 29.82737321 3.0625 29.25 C2.97099726 27.33489277 2.97099726 27.33489277 2.0625 25.25 C-0.3651566 23.55789617 -0.3651566 23.55789617 -3.3125 22.1875 C-9.9379574 18.89225272 -9.9379574 18.89225272 -11.9375 16.25 C-13.1795849 12.05206748 -13.39400316 8.37924465 -11.75 4.3125 C-8.29598156 0.38206522 -5.11610435 -0.02580633 0 0 Z M-9.9375 4.25 C-11.54839974 7.47179948 -11.3834807 10.75648448 -10.9375 14.25 C-8.02599797 20.07300405 -1.5226869 22.44777692 4.0625 25.25 C4.0625 26.9 4.0625 28.55 4.0625 30.25 C-1.99275768 31.63766322 -5.25760626 30.74118146 -10.9375 28.25 C-10.9375 30.23 -10.9375 32.21 -10.9375 34.25 C-6.1438733 36.80660091 -1.23181547 36.82471188 4.0625 36.25 C7.74873011 34.63727433 8.81605 33.619675 11.0625 30.25 C11.48062437 26.48688065 11.48897845 24.0826484 9.75 20.6875 C6.32279675 17.57910636 2.58483399 15.76597691 -1.57421875 13.77734375 C-3.9375 12.25 -3.9375 12.25 -4.76953125 10.06640625 C-4.82496094 9.46699219 -4.88039062 8.86757813 -4.9375 8.25 C-1.3888865 5.88425766 -0.3610475 6.14134735 3.75 6.625 C5.24080078 6.79128906 5.24080078 6.79128906 6.76171875 6.9609375 C7.52097656 7.05632812 8.28023437 7.15171875 9.0625 7.25 C9.0625 5.93 9.0625 4.61 9.0625 3.25 C2.37787518 -0.09231241 -3.71613449 0.30474382 -9.9375 4.25 Z " fill="#1D1D1F" transform="translate(197.9375,348.75)"/>
<path d="M0 0 C1.98 0 3.96 0 6 0 C6 11.55 6 23.1 6 35 C4.02 35 2.04 35 0 35 C0 23.45 0 11.9 0 0 Z " fill="#0B181B" transform="translate(874,350)"/>
<path d="M0 0 C2.90118219 0.04619717 4.56467501 0.19607683 7.25 1.375 C9.31598726 4.06976599 9.10901163 5.94815888 8.6875 9.25 C6.6875 11.25 6.6875 11.25 3.8671875 11.4453125 C2.77664063 11.42210937 1.68609375 11.39890625 0.5625 11.375 C-0.53320312 11.35695313 -1.62890625 11.33890625 -2.7578125 11.3203125 C-3.60085938 11.29710937 -4.44390625 11.27390625 -5.3125 11.25 C-5.33938151 9.60425434 -5.35884123 7.95838587 -5.375 6.3125 C-5.38660156 5.39597656 -5.39820313 4.47945313 -5.41015625 3.53515625 C-5.2413255 -0.41548336 -3.52420057 0.06921507 0 0 Z M-3.3125 2.25 C-3.3125 4.89 -3.3125 7.53 -3.3125 10.25 C-1.4253125 10.311875 -1.4253125 10.311875 0.5 10.375 C1.20769531 10.39820313 1.91539062 10.42140625 2.64453125 10.4453125 C5.00109719 10.38254462 5.00109719 10.38254462 7.6875 8.25 C7.30845792 4.95924004 7.30845792 4.95924004 5.6875 2.25 C4.16821962 2.17820036 2.64582518 2.16607993 1.125 2.1875 C-0.11443359 2.20103516 -0.11443359 2.20103516 -1.37890625 2.21484375 C-2.33603516 2.23224609 -2.33603516 2.23224609 -3.3125 2.25 Z " fill="#1C1D1E" transform="translate(264.3125,368.75)"/>
<path d="M0 0 C3.63366391 0.1816832 7.06061936 0.49811936 9.75 3.1875 C9.9375 6.125 9.9375 6.125 9.75 9.1875 C7.75 11.1875 7.75 11.1875 4.9296875 11.3828125 C3.83914063 11.35960937 2.74859375 11.33640625 1.625 11.3125 C0.52929688 11.29445313 -0.56640625 11.27640625 -1.6953125 11.2578125 C-2.53835938 11.23460937 -3.38140625 11.21140625 -4.25 11.1875 C-4.27688151 9.54175434 -4.29634123 7.89588587 -4.3125 6.25 C-4.32410156 5.33347656 -4.33570313 4.41695313 -4.34765625 3.47265625 C-4.19318761 -0.14190986 -3.71469723 0.21430946 0 0 Z M-2.25 2.1875 C-2.25 4.8275 -2.25 7.4675 -2.25 10.1875 C-0.3628125 10.249375 -0.3628125 10.249375 1.5625 10.3125 C2.27019531 10.33570313 2.97789062 10.35890625 3.70703125 10.3828125 C6.06359719 10.32004462 6.06359719 10.32004462 8.75 8.1875 C8.37095792 4.89674004 8.37095792 4.89674004 6.75 2.1875 C5.23071962 2.11570036 3.70832518 2.10357993 2.1875 2.125 C0.94806641 2.13853516 0.94806641 2.13853516 -0.31640625 2.15234375 C-1.27353516 2.16974609 -1.27353516 2.16974609 -2.25 2.1875 Z " fill="#1C1D1E" transform="translate(775.25,368.8125)"/>
<path d="M0 0 C8.625 -0.25 8.625 -0.25 12 2 C12.4375 4.9375 12.4375 4.9375 12 8 C10.5 9.875 10.5 9.875 8 11 C5.27930412 11.23364755 2.74133849 11.13706692 0 11 C0 7.37 0 3.74 0 0 Z M2 1 C2 3.64 2 6.28 2 9 C5.41656024 9.16677282 5.41656024 9.16677282 9 9 C9.66 8.34 10.32 7.68 11 7 C10.83492354 4.42459787 10.83492354 4.42459787 10 2 C7.29120665 0.64560332 4.99066732 0.93498549 2 1 Z " fill="#1C1D1E" transform="translate(580,355)"/>
<path d="M0 0 C6.8359375 -0.1953125 6.8359375 -0.1953125 9 0 C11 2 11 2 11.4375 4.9375 C11 8 11 8 8.875 9.875 C5.70243155 11.11643983 3.37694418 11.23560076 0 11 C0 7.37 0 3.74 0 0 Z M2 1 C2 3.64 2 6.28 2 9 C4.91652174 9.16681109 4.91652174 9.16681109 8 9 C8.66 8.34 9.32 7.68 10 7 C9.71016731 3.69316534 9.71016731 3.69316534 8 1 C6.00041636 0.95919217 3.99954746 0.95745644 2 1 Z " fill="#1C1D1E" transform="translate(421,355)"/>
</svg>
