<svg id="Layer_1" data-name="Layer 1" xmlns="http://www.w3.org/2000/svg" viewBox="0 0 628 386"><defs><style>.cls-1,.cls-2{fill:#0b104d;}.cls-1{fill-rule:evenodd;}</style></defs><title>Zurich Logo Vector</title><path class="cls-1" d="M478.94,307a104.38,104.38,0,0,0-83,167.67l86.77-114H464.1a143.64,143.64,0,0,0-25.88,2A27.88,27.88,0,0,0,427.58,367c-3.47,2.43-7.81,7.58-10.63,12.64-.33.59-.8,1.48-1.41,2.68l-5.08-1.11L419,348.43H527.66L441.3,463.9a116.94,116.94,0,0,1,12.4-.6q5.25,0,15.94.64l15.35.91c5.54.33,10.21.5,13.74.5,7.93,0,13.09-.62,18.18-2.17a40.54,40.54,0,0,0,11.18-5.4,52.09,52.09,0,0,0,15.48-17.66c.35-.68.91-1.71,1.56-3.1l4.6,1.2a66.22,66.22,0,0,1-4.58,13c-4.64,10.37-9.87,17.31-17.08,22.64a42,42,0,0,1-25.28,8.32h-1.47c-7.18,0-12.73-.6-29.9-3.23-17.48-2.68-26.37-3.58-35.16-3.58a104.93,104.93,0,0,0-17,1.34A54.23,54.23,0,0,0,402,481.92,104.37,104.37,0,1,0,478.94,307Z" transform="translate(-186 -307)"/><path class="cls-1" d="M282,588.1h-79.9l-9.82,21.68a61.75,61.75,0,0,1,7.44-3.5,74.14,74.14,0,0,1,14.37-4.07A93.64,93.64,0,0,1,228.45,601q4.2-.12,7.89-.12h11.82L186,689.69h87.87L284,666.51a71.2,71.2,0,0,1-7.48,3.9,69.19,69.19,0,0,1-16.41,5,105.92,105.92,0,0,1-16,1.41q-3.18.07-8.13.08H220.44L282,588.1Z" transform="translate(-186 -307)"/><path class="cls-1" d="M546.14,689.69A13.77,13.77,0,0,1,543,686.1a16.3,16.3,0,0,1-1.56-3.09,27.13,27.13,0,0,1-1.41-8.94v-61.2l0-6c0-6.8.22-8.66,1.08-11.43a15,15,0,0,1,1.45-3.17,14.14,14.14,0,0,1,3.83-4.22H513.79a16.49,16.49,0,0,1,3.78,4,13,13,0,0,1,1.58,3.3c.75,2.47,1,4.91,1,11q0,4.64,0,6.12v60.83a28.92,28.92,0,0,1-1.6,9.82,15.57,15.57,0,0,1-1.62,3,24.85,24.85,0,0,1-3.09,3.59Z" transform="translate(-186 -307)"/><path class="cls-1" d="M648.18,589a46.46,46.46,0,0,0-6.2-1.65,83.48,83.48,0,0,0-17.86-1.81c-10.92,0-20.35,1.75-29,5.39a58.4,58.4,0,0,0-14,8.29c-12.51,10.08-19.31,24.69-19.31,41.52,0,16.33,6.55,30.45,18.55,39.91,9.9,7.82,22.64,11.76,38,11.76a92.55,92.55,0,0,0,28.5-4.55l1.65-.53V668.88c-2.43,1.63-3.26,2.16-4.75,3a54.94,54.94,0,0,1-6.24,3.1,44,44,0,0,1-17.72,3.78c-10.53,0-19.52-3.76-26.17-10.94s-10.14-17-10.14-28.15c0-10.65,3.3-20.52,9.18-27.42a33.79,33.79,0,0,1,9.21-7.52,39.8,39.8,0,0,1,19.64-4.87,47.84,47.84,0,0,1,18.26,3.66,33.35,33.35,0,0,1,8.37,4.59V589Z" transform="translate(-186 -307)"/><path class="cls-1" d="M737.26,643.58v24.78a74.24,74.24,0,0,1-.44,10.34,18.45,18.45,0,0,1-1.09,4.39,14.91,14.91,0,0,1-3.66,5.3c-.31.3-.78.74-1.41,1.3h32.47a20,20,0,0,1-2.74-3.14,16.75,16.75,0,0,1-1.89-3.34c-1-2.38-1.24-4.17-1.33-9.18,0-3-.08-4.75-.08-5.27l.08-55.89v-6a41.66,41.66,0,0,1,1.13-10.74,15,15,0,0,1,1.61-3.75,13.61,13.61,0,0,1,4-4.25H730.78a14.2,14.2,0,0,1,3.7,4.13,16.35,16.35,0,0,1,1.69,3.55c.78,2.38,1.09,5.34,1.09,10.66v24.7H691.71V612.6c0-5.61.08-9.3.28-12a18.83,18.83,0,0,1,.81-4.43,21.21,21.21,0,0,1,4.22-7c.24-.25.62-.61,1.13-1.08H665.6a23.87,23.87,0,0,1,3.34,3.9,14.74,14.74,0,0,1,1.73,3.46c.9,2.57,1,4,1.13,10.73l.07,6.44v55.61a85.69,85.69,0,0,1-.4,10.7,17.52,17.52,0,0,1-1,4,14.58,14.58,0,0,1-3.91,5.72c-.24.23-.62.57-1.12,1h32.15a17.43,17.43,0,0,1-2.7-3.35,18.83,18.83,0,0,1-1.61-3.17c-1.06-2.67-1.38-4.59-1.49-8.89q-.07-3.24-.08-6.08V643.58Z" transform="translate(-186 -307)"/><path class="cls-1" d="M295.88,588.1a12.59,12.59,0,0,1,3.7,4.1,13.34,13.34,0,0,1,1.45,3.54,21.62,21.62,0,0,1,.65,4.66q0,1.68.08,6.32l0,5.88v29c0,10.27.08,13.8.4,17.91a33,33,0,0,0,7.12,18.67,37.53,37.53,0,0,0,17.14,11.91A55.5,55.5,0,0,0,345,693c7.64,0,15.09-1.15,20.58-3.19a39.33,39.33,0,0,0,15.13-10.14c4.69-5.24,7.33-11.6,8.2-19.68a158.16,158.16,0,0,0,.69-18.18V612.6l0-5.76V606a39.8,39.8,0,0,1,.92-10.07,13.13,13.13,0,0,1,4.55-7c.64-.5.84-.64,1.16-.88H366.09a14.44,14.44,0,0,1,2.22,4.42,22.23,22.23,0,0,1,.84,3.82c.47,3.61.64,8.2.64,16.86v31.54c0,8.78-.21,13.17-.84,17.22a20.21,20.21,0,0,1-2.62,7.4,19.9,19.9,0,0,1-12.51,8.74,30.2,30.2,0,0,1-7.21.81,28,28,0,0,1-13.79-3.3,17.52,17.52,0,0,1-6-5.28c-2.78-4.06-3.6-8.16-3.7-18.59L323,639V613.2c0-8.66.18-13.36.64-16.86a19.24,19.24,0,0,1,2.5-7.32c.12-.21.31-.52.56-.92Z" transform="translate(-186 -307)"/><path class="cls-1" d="M439,668.81c0,1.85,0,3.55,0,5.1.08,4.7.43,7.15,1.33,9.38a14.13,14.13,0,0,0,1.73,3.09,26.33,26.33,0,0,0,2.81,3.31H412.64a21.46,21.46,0,0,0,3.38-3.55,12.91,12.91,0,0,0,1.77-3.21c.84-2.23,1.17-5,1.17-9.82V606.44c0-5.39-.29-8.54-1-10.82a15,15,0,0,0-1.77-3.7,17.06,17.06,0,0,0-3.42-3.82H439c3.24,0,6.37,0,9.41.12,8.09.21,12.83.69,17.38,1.76a33.49,33.49,0,0,1,16.5,9.14,23.66,23.66,0,0,1,6.89,16.68,25.38,25.38,0,0,1-1.26,7.82,24.33,24.33,0,0,1-8,11.58,43.71,43.71,0,0,1-12.52,7.25,45.63,45.63,0,0,1-4.5,1.57l15.77,18.54q2.86,3.38,7.4,8.3c4.76,5.15,7.93,8.4,11.51,11.79,1.55,1.46,3,2.78,4.39,4s2,1.69,3.7,3.06H492.91c-1.88,0-3.64,0-5.27-.09-4.41-.14-7.17-.79-10.1-2.37a44.43,44.43,0,0,1-10.5-8.32c-1.13-1.17-2.78-3-5-5.48q-2.88-3.3-4.22-4.91L439,646v22.86Zm1.65-31.37A38.45,38.45,0,0,0,446,637c5.46-.8,9.16-2,12.79-4.15a19.56,19.56,0,0,0,4.75-3.82,16.78,16.78,0,0,0,3.95-11.45c0-5.3-1.79-9.56-5.24-12.49a18.49,18.49,0,0,0-6.88-3.66,51.33,51.33,0,0,0-13.69-1.71c-.82,0-1.36,0-2.64.06v37.62c.79,0,1.13.06,1.65.06Z" transform="translate(-186 -307)"/><path class="cls-2" d="M790.41,566h5v.12l4.52,9.23h3.66l-4.76-9.84a6.49,6.49,0,0,0,3.65-1.82,5.71,5.71,0,0,0,1.32-3.79,5,5,0,0,0-2.16-4.48,13,13,0,0,0-6.23-1.46h-8.24v21.39h3.27Zm0-9.84h4a3.41,3.41,0,0,1,1,.09,7,7,0,0,1,3.67.88,3.18,3.18,0,0,1,1.46,3.06,3.37,3.37,0,0,1-1.32,2.88,9.5,9.5,0,0,1-3.81.72h-5Z" transform="translate(-186 -307)"/><path class="cls-2" d="M782.27,577.62a18.63,18.63,0,0,0,6.11,4.12,16.6,16.6,0,0,0,7,1.46c.37,0,.6-.12,1-.12a17.29,17.29,0,0,0,6.1-1.34,19.32,19.32,0,0,0,6.2-4.12,15.71,15.71,0,0,0,3.88-6,16.71,16.71,0,0,0,1.47-7,17.62,17.62,0,0,0-1.47-7.14,15.67,15.67,0,0,0-3.88-6,17.36,17.36,0,0,0-6.08-4,18.32,18.32,0,0,0-6.22-1.44h-1a18.82,18.82,0,0,0-7,1.38,18.35,18.35,0,0,0-6,4,21.75,21.75,0,0,0-4.11,6.2,19,19,0,0,0-1.34,7,17.78,17.78,0,0,0,1.34,7A20.4,20.4,0,0,0,782.27,577.62Zm-2-19.34a20.27,20.27,0,0,1,3.61-5.44,17.67,17.67,0,0,1,5.37-3.5,17.31,17.31,0,0,1,6.17-1.24h1a20.06,20.06,0,0,1,5.48,1.24,16.6,16.6,0,0,1,5.34,3.63,15.25,15.25,0,0,1,3.53,5.31,16.21,16.21,0,0,1,1.25,6.33A15.73,15.73,0,0,1,810.7,571a12.28,12.28,0,0,1-3.53,5.14,15.66,15.66,0,0,1-5.48,3.64,16.49,16.49,0,0,1-5.34,1.22h-1a15.84,15.84,0,0,1-6.29-1.22,17.15,17.15,0,0,1-5.37-3.64,12.75,12.75,0,0,1-3.49-5.33,15.24,15.24,0,0,1-1.34-6.22A16.39,16.39,0,0,1,780.23,558.28Z" transform="translate(-186 -307)"/></svg>