<?xml version="1.0" encoding="utf-8"?>
<!-- Generator: Adobe Illustrator 23.0.2, SVG Export Plug-In . SVG Version: 6.00 Build 0)  -->
<svg version="1.1" id="Layer_1" xmlns="http://www.w3.org/2000/svg" xmlns:xlink="http://www.w3.org/1999/xlink" x="0px" y="0px"
	 viewBox="0 0 442 108.1" style="enable-background:new 0 0 442 108.1;" xml:space="preserve">
<style type="text/css">
	.st0{fill:#3B98E0;}
	.st1{fill:none;}
	.st2{fill:#004999;}
	.st3{fill:#E20613;}
	.st4{fill:#FFFFFF;}
</style>
<g>
	<g>
		<g>
			<path class="st0" d="M253.9,23.9h3.6h19.9c4,0,7,0.9,9.3,2.7c2.2,1.8,3.3,4.2,3.3,7.4c0,5.2-1.8,9.2-5.5,12.1
				c-1.1,0.9-2.4,1.6-3.7,2.2c0.9,0.4,1.7,0.8,2.5,1.4c2.9,2,4.3,4.6,4.3,8c0,5.5-2.1,10.1-6.2,13.8c-4.1,3.7-9.2,5.5-15.4,5.5
				h-19.5h-3.6L253.9,23.9z M251.4,70.8h15.9c3.8,0,7-1.1,9.4-3.4c2.4-2.3,3.6-5.2,3.6-8.8c0-1.9-0.9-3.4-2.7-4.5
				c-1.8-1.1-4.3-1.7-7.4-1.7h-15.1L251.4,70.8z M256.5,46.4h13.7c3.9,0,7-0.9,9.2-2.8c2.2-1.9,3.3-4.5,3.3-7.9
				c0-1.8-0.8-3.2-2.4-4.1c-1.6-0.9-4-1.4-7.1-1.4h-13.3L256.5,46.4z"/>
		</g>
		<g>
			<path class="st0" d="M320.3,23.9h4h4.1l7.7,53.1h-3.8h-3.9l-2.1-15.5h-21.2L296.3,77h-3.8h-3.8L320.3,23.9z M308.8,55.3h16.8
				l-3.2-23.4h-0.1L308.8,55.3z"/>
		</g>
		<g>
			<path class="st0" d="M348,77h-3.4h-3.5l11-53.1h4.2h4.2l17.9,43.2l9-43.2h3.4h3.5l-11,53.1h-4.1H375l-18.1-43.3L348,77z"/>
		</g>
		<g>
			<path class="st0" d="M399.1,23.9h3.6h3.6L401,49.7l31-25.7h5h5.1l-26.3,21.3L431.5,77h-4.6h-4.6l-13.1-26.7l-10,8.1l-3.8,18.6
				h-3.6h-3.6L399.1,23.9z"/>
		</g>
		<line class="st1" x1="166.3" y1="36.4" x2="164.4" y2="45.5"/>
		<path class="st2" d="M0,77.1l30.5-53.4h13.8L52,77H38.2l-1.3-10.3H19.3L14,77.1L0,77.1z M25.7,55.6h10L34,40.1L25.7,55.6z"/>
		<polygon class="st2" points="105.2,77.1 116.4,23.8 155.5,23.8 153,35.6 126.9,35.6 125,44.3 147.2,44.3 144.9,55.6 122.7,55.6 
			118,77.1 		"/>
		<polygon class="st2" points="59.4,77.1 70.5,23.8 109.8,23.8 107.2,35.6 81.1,35.6 79.2,44.3 101.4,44.3 99.1,55.6 76.9,55.6 
			72.2,77.1 		"/>
		<polygon class="st2" points="185.5,77 197.8,77 204.7,43.8 217.4,77.1 229.7,77.1 240.7,23.8 228.4,23.8 221.5,57 209.5,23.9 
			196.7,23.9 		"/>
		<g>
			<path class="st3" d="M180.9,32.7c0,0-1.1,0.8-2.8,2.1c28.3-21,63.3-33.5,101.3-33.5c0.8,0,1.6,0,2.4,0C275.5,0.4,269.1,0,262.7,0
				c-30,0-58,9.1-81.2,24.6c0.4-0.3,0.8-0.5,1.3-0.8L180.9,32.7z"/>
			<path class="st3" d="M169.7,41.4c-0.4,0.4-0.9,0.7-1.3,1.1C168.8,42.1,169.3,41.8,169.7,41.4z"/>
			<path class="st3" d="M167.7,35.2c2.1-1.8,6.4-5.3,10.6-8.3C174.6,29.5,171,32.2,167.7,35.2z"/>
			<path class="st3" d="M166.3,36.4c-21.3,18.7-37,43.5-44.6,71.7c10.2-25.4,26.3-47.8,46.6-65.4c-1.3,1.1-2.7,2.4-4,3.6L166.3,36.4
				z"/>
			<path class="st4" d="M166.3,36.3L166.3,36.3c0.4-0.4,0.9-0.8,1.4-1.2C166.8,35.9,166.3,36.3,166.3,36.3z"/>
			<path class="st4" d="M178.2,26.9c1.1-0.8,2.1-1.5,3.2-2.2C180.4,25.3,179.3,26.1,178.2,26.9z"/>
			<path class="st4" d="M168.3,42.6c0,0,0.1-0.1,0.1-0.1C168.4,42.6,168.3,42.6,168.3,42.6z"/>
			<path class="st4" d="M178.1,34.7c-2.9,2.1-5.7,4.4-8.4,6.7C173,38.7,176,36.3,178.1,34.7z"/>
			<g>
				<path class="st2" d="M168.9,23.8l-2.6,12.5c0.4-0.4,0.9-0.8,1.4-1.2c2.1-1.8,6.4-5.3,10.6-8.3c1.1-0.8,2.1-1.5,3.2-2.2
					c0.4-0.3,0.8-0.5,1.3-0.8l-1.8,8.8c0,0-1.1,0.8-2.8,2.1c-2.9,2.1-5.7,4.4-8.4,6.7c-0.4,0.4-0.9,0.7-1.3,1.1c0,0-0.1,0.1-0.1,0.1
					c-1.3,1.1-2.7,2.3-4,3.6l-6.4,30.9h13.6l9.5-45l1.7-8.4L168.9,23.8L168.9,23.8z"/>
				<path class="st4" d="M166.3,36.4l0-0.1C166.3,36.3,166.3,36.3,166.3,36.4l-2,9.8c0,0,0,0,0,0l0.2-0.7L166.3,36.4z"/>
			</g>
		</g>
	</g>
</g>
</svg>
