<?xml version="1.0" encoding="utf-8"?>
<!-- Generator: Adobe Illustrator 23.0.2, SVG Export Plug-In . SVG Version: 6.00 Build 0)  -->
<svg version="1.1" id="Layer_1" xmlns="http://www.w3.org/2000/svg" xmlns:xlink="http://www.w3.org/1999/xlink" x="0px" y="0px"
	 viewBox="0 0 450 185.9" style="enable-background:new 0 0 450 185.9;" xml:space="preserve">
<style type="text/css">
	.st0{fill:#E04245;}
	.st1{fill:#FFE52B;}
</style>
<g>
	<g>
		<rect y="103.4" class="st0" width="450" height="82.6"/>
		<g>
			<path class="st1" d="M59.9,163.8H49.5l-2.7-7.8H32.6l-2.7,7.8H19.8l14.3-38.7h11.5L59.9,163.8z M44.4,148.9l-4.7-13.7L35,148.9
				H44.4z"/>
			<path class="st1" d="M90.6,143.1v20.7h-9.4v-14.6c0-1.4,0-2.6-0.1-3.6c-0.1-1-0.3-1.8-0.6-2.4c-0.3-0.6-0.8-1.1-1.4-1.4
				c-0.6-0.3-1.5-0.4-2.7-0.4c-0.9,0-1.8,0.2-2.7,0.6c-0.9,0.4-1.6,0.8-2.3,1.2v20.7H62v-29.2h9.4v3.2c1.6-1.3,3.2-2.3,4.6-3
				c1.5-0.7,3.1-1.1,4.9-1.1c1.9,0,3.6,0.4,5.1,1.3c1.5,0.9,2.6,2.1,3.5,3.8c1.9-1.6,3.7-2.8,5.5-3.7c1.8-0.9,3.5-1.4,5.2-1.4
				c3.2,0,5.5,0.9,7.2,2.8c1.6,1.9,2.5,4.6,2.5,8.2v19h-9.4v-14.6c0-1.4,0-2.7-0.1-3.6c-0.1-1-0.2-1.8-0.6-2.4
				c-0.3-0.6-0.8-1.1-1.4-1.4s-1.5-0.4-2.7-0.4c-0.8,0-1.5,0.1-2.3,0.4C92.6,142,91.7,142.5,90.6,143.1z"/>
			<path class="st1" d="M148.9,152c0,1.9-0.4,3.5-1.1,5c-0.8,1.5-1.8,2.7-3.1,3.7c-1.5,1.1-3.2,2-5,2.4c-1.8,0.5-4.1,0.7-6.9,0.7
				h-16.9v-38.7h15c3.1,0,5.4,0.1,6.8,0.3c1.4,0.2,2.9,0.7,4.3,1.4c1.5,0.7,2.6,1.7,3.3,3c0.7,1.3,1.1,2.7,1.1,4.3
				c0,1.9-0.5,3.5-1.5,4.9c-1,1.4-2.4,2.5-4.2,3.3v0.2c2.5,0.5,4.5,1.5,6,3.1C148.2,147.3,148.9,149.4,148.9,152z M136.3,136.1
				c0-0.6-0.2-1.3-0.5-1.9c-0.3-0.6-0.9-1.1-1.7-1.4c-0.7-0.3-1.6-0.4-2.7-0.5c-1.1,0-2.6,0-4.6,0h-0.9v8.2h1.6c1.6,0,2.9,0,4-0.1
				c1.1,0,2-0.2,2.6-0.5c0.9-0.4,1.5-0.9,1.8-1.5C136.2,137.6,136.3,136.9,136.3,136.1z M138.6,151.9c0-1.2-0.2-2.2-0.7-2.9
				c-0.5-0.7-1.3-1.2-2.4-1.5c-0.8-0.2-1.8-0.3-3.2-0.4c-1.3,0-2.8,0-4.2,0h-2.1v9.7h0.7c2.8,0,4.7,0,5.9,0c1.2,0,2.3-0.2,3.3-0.7
				c1-0.4,1.7-1,2.1-1.7C138.4,153.6,138.6,152.8,138.6,151.9z"/>
			<path class="st1" d="M170.5,160.8c-0.5,0.4-1.1,0.8-1.9,1.4c-0.7,0.5-1.4,1-2.1,1.3c-0.9,0.4-1.9,0.8-2.8,1
				c-1,0.2-2.1,0.3-3.2,0.3c-2.8,0-5.1-0.9-6.9-2.6c-1.9-1.7-2.8-3.9-2.8-6.6c0-2.1,0.5-3.9,1.4-5.2s2.3-2.4,4-3.2
				c1.7-0.8,3.9-1.3,6.4-1.7c2.5-0.3,5.2-0.6,7.9-0.7v-0.2c0-1.6-0.7-2.8-2-3.4c-1.3-0.6-3.2-0.9-5.8-0.9c-1.5,0-3.2,0.3-4.9,0.8
				c-1.7,0.5-3,1-3.7,1.3h-0.8v-7c1-0.3,2.6-0.6,4.8-0.9s4.5-0.5,6.7-0.5c5.3,0,9.2,0.8,11.5,2.5s3.5,4.2,3.5,7.7v19.9h-9.4
				L170.5,160.8L170.5,160.8z M170.5,156.3v-6.1c-1.2,0.1-2.6,0.2-4,0.4c-1.5,0.2-2.6,0.4-3.3,0.6c-0.9,0.3-1.6,0.7-2.1,1.3
				c-0.5,0.6-0.7,1.3-0.7,2.2c0,0.6,0,1.1,0.2,1.5c0.1,0.4,0.4,0.7,0.8,1.1c0.4,0.3,0.9,0.6,1.4,0.8c0.5,0.2,1.4,0.2,2.6,0.2
				c0.9,0,1.9-0.2,2.8-0.6C169,157.4,169.8,156.9,170.5,156.3z"/>
			<path class="st1" d="M214.9,163.8h-9.4v-14.5c0-1.2-0.1-2.4-0.2-3.5c-0.1-1.2-0.3-2-0.6-2.6c-0.3-0.6-0.8-1.1-1.5-1.4
				c-0.7-0.3-1.6-0.4-2.8-0.4c-0.8,0-1.7,0.1-2.6,0.4c-0.9,0.3-1.8,0.7-2.8,1.3v20.7h-9.4v-29.2h9.4v3.2c1.7-1.3,3.2-2.3,4.8-3
				c1.5-0.7,3.2-1,5.1-1c3.1,0,5.6,0.9,7.4,2.8s2.7,4.6,2.7,8.3L214.9,163.8L214.9,163.8z"/>
			<path class="st1" d="M251.5,163.8h-10.8l-8.2-12.7l-2.5,3.1v9.6h-9.4v-40.4h9.4v24.1l10-12.9h10.7l-10.4,12.6L251.5,163.8z"/>
			<path class="st1" d="M303.4,161.6c-1.7,0.7-4,1.3-6.9,2c-2.9,0.7-5.7,1-8.6,1c-6.6,0-11.7-1.8-15.5-5.4s-5.6-8.5-5.6-14.8
				c0-6,1.9-10.9,5.6-14.5c3.8-3.7,9-5.5,15.7-5.5c2.5,0,5,0.2,7.3,0.7c2.3,0.5,4.9,1.4,7.7,2.7v9h-1.1c-0.5-0.4-1.2-0.9-2.1-1.5
				c-0.9-0.7-1.8-1.2-2.7-1.7c-1-0.5-2.2-1-3.5-1.4c-1.3-0.4-2.8-0.6-4.3-0.6c-1.8,0-3.4,0.3-4.8,0.8s-2.7,1.3-3.9,2.4
				c-1.1,1-2,2.4-2.6,4c-0.6,1.6-0.9,3.4-0.9,5.5c0,4.3,1.1,7.5,3.4,9.8c2.3,2.3,5.6,3.4,10.1,3.4c0.4,0,0.8,0,1.3,0
				c0.5,0,0.9,0,1.3-0.1v-7.6h-7.8v-7.3h17.9L303.4,161.6L303.4,161.6z"/>
			<path class="st1" d="M330,143.7h-0.8c-0.4-0.1-1-0.3-1.9-0.3c-0.9-0.1-1.6-0.1-2.2-0.1c-1.3,0-2.5,0.1-3.5,0.3
				c-1,0.2-2.1,0.5-3.3,0.9v19.4h-9.4v-29.2h9.4v4.3c2.1-1.8,3.8-2.9,5.4-3.5c1.5-0.5,2.9-0.8,4.2-0.8c0.3,0,0.7,0,1.1,0
				c0.4,0,0.8,0,1.1,0.1L330,143.7L330,143.7z"/>
			<path class="st1" d="M362.2,149.3c0,4.8-1.4,8.6-4.2,11.3c-2.8,2.8-6.7,4.1-11.8,4.1c-5.1,0-9-1.4-11.8-4.1
				c-2.8-2.8-4.2-6.5-4.2-11.3c0-4.8,1.4-8.6,4.2-11.4c2.8-2.7,6.7-4.1,11.8-4.1c5.1,0,9,1.4,11.8,4.1
				C360.8,140.7,362.2,144.5,362.2,149.3z M350.7,156.3c0.6-0.7,1.1-1.6,1.4-2.7s0.5-2.5,0.5-4.3c0-1.7-0.2-3.1-0.5-4.3
				c-0.3-1.2-0.7-2.1-1.3-2.8c-0.6-0.7-1.2-1.2-2-1.5c-0.8-0.3-1.6-0.4-2.5-0.4c-0.9,0-1.7,0.1-2.4,0.4c-0.7,0.2-1.4,0.7-2,1.4
				c-0.6,0.7-1,1.6-1.4,2.8c-0.3,1.2-0.5,2.6-0.5,4.4c0,1.6,0.1,3,0.4,4.1c0.3,1.2,0.7,2.1,1.3,2.8c0.6,0.7,1.2,1.2,2,1.5
				c0.8,0.3,1.7,0.5,2.7,0.5c0.9,0,1.7-0.1,2.4-0.4C349.5,157.5,350.1,157,350.7,156.3z"/>
			<path class="st1" d="M395,163.8h-9.4v-3.2c-1.7,1.3-3.3,2.3-4.7,3c-1.4,0.7-3.1,1-5.1,1c-3.2,0-5.7-0.9-7.4-2.8
				c-1.7-1.9-2.6-4.6-2.6-8.2v-19h9.4v14.5c0,1.5,0,2.7,0.1,3.7c0.1,1,0.3,1.8,0.7,2.4c0.3,0.6,0.8,1.1,1.5,1.4
				c0.7,0.3,1.6,0.4,2.8,0.4c0.8,0,1.7-0.1,2.6-0.4c1-0.3,1.9-0.7,2.8-1.3v-20.7h9.4L395,163.8L395,163.8z"/>
			<path class="st1" d="M431.5,148.8c0,2.4-0.4,4.6-1.1,6.6c-0.7,2-1.7,3.6-2.9,4.9c-1.2,1.4-2.7,2.4-4.2,3.1c-1.6,0.7-3.3,1-5.1,1
				c-1.7,0-3.1-0.2-4.2-0.5c-1.2-0.4-2.3-0.9-3.6-1.5v12.1H401v-39.9h9.4v3c1.4-1.1,2.9-2.1,4.4-2.8c1.5-0.7,3.2-1.1,5.2-1.1
				c3.6,0,6.5,1.3,8.5,4C430.5,140.5,431.5,144.2,431.5,148.8z M421.8,149c0-2.9-0.5-4.9-1.5-6.2c-1-1.3-2.5-1.9-4.6-1.9
				c-0.9,0-1.8,0.1-2.7,0.4c-0.9,0.3-1.8,0.7-2.7,1.2v14.8c0.6,0.2,1.3,0.4,2,0.5c0.7,0.1,1.4,0.1,2.1,0.1c2.5,0,4.3-0.7,5.5-2.2
				C421.2,154.1,421.8,151.9,421.8,149z"/>
		</g>
		<path class="st0" d="M207.9,52.3c-3,3.5-7.5,5.7-12.4,5.7c-9.1,0-16.4-7.3-16.4-16.4c0-9.1,7.3-16.4,16.4-16.4
			c9.1,0,16.4,7.3,16.4,16.4v41.8h25.4l0-41.6c0-23.1-18.7-41.8-41.8-41.8c-23.1,0-41.8,18.7-41.8,41.8c0,23.1,18.7,41.8,41.8,41.8
			c4.3,0,8.5-0.7,12.4-1.9L207.9,52.3"/>
		<path class="st0" d="M249,83.3c1.8,0.2,3.7,0.4,5.5,0.4c23.1,0,41.8-18.7,41.8-41.8c0-23.1-18.7-41.8-41.8-41.8
			c-10.1,0-19.4,3.6-26.6,9.6l0,0.1c6.3,6.4,10.7,14.6,12.4,23.9l0.1,0c2.9-4.8,8.1-8.1,14.1-8.1c9.1,0,16.4,7.4,16.4,16.4
			c0,9.1-7.4,16.4-16.4,16.4c-2,0-3.8-0.3-5.6-1L249,83.3"/>
	</g>
</g>
</svg>
