<?xml version="1.0" encoding="utf-8"?>
<!-- Generator: Adobe Illustrator 23.0.2, SVG Export Plug-In . SVG Version: 6.00 Build 0)  -->
<svg version="1.1" id="Layer_1" xmlns="http://www.w3.org/2000/svg" xmlns:xlink="http://www.w3.org/1999/xlink" x="0px" y="0px"
	 viewBox="0 0 446 123.1" style="enable-background:new 0 0 446 123.1;" xml:space="preserve">
<style type="text/css">
	.st0{fill:#99141B;}
	.st1{fill:#FFFFFF;}
	.st2{fill:#E1001A;stroke:#FFFFFF;}
</style>
<g>
	<rect class="st0" width="123.2" height="123.1"/>
	<polyline class="st1" points="82.1,23.2 16.6,23.2 45.6,61.6 111.1,61.6 82.1,23.2 	"/>
	<polyline class="st2" points="111.1,61.6 45.6,61.6 16.6,99.9 82.1,99.9 111.1,61.6 	"/>
	<path class="st0" d="M435.4,60.5c3.6-2,9.5-7.5,9.5-16.5c0-14.1-9.6-22.8-25.1-22.8h-32.5v80.7h33.8c15.3,0,24.8-9,24.8-23.4
		C446,67.7,439.6,62.7,435.4,60.5 M403.6,35.8c0.7,0,14.9,0,14.9,0c6.3,0,10,3.3,10,8.9c0,5.6-3.7,8.9-10,8.9c0,0-14.3,0-14.9,0
		V35.8z M419.6,87.3c0,0-15.3,0-16,0v-19c0.7,0,16,0,16,0c7.5,0,10.1,4.9,10.1,9.4C429.7,82.4,427.1,87.3,419.6,87.3z M323.9,72.8
		c-0.6-1-28.5-51.7-28.5-51.7h-15.9v80.7h16.3c0,0,0-45.8,0-48.2c1.2,2.1,28.1,48.9,28.1,48.9s26.8-46.7,28-48.9
		c0,2.4,0,48.2,0,48.2h16.3V21h-15.9C352.3,21,324.5,71.7,323.9,72.8z M243.3,21.2v80.7h16.3V21.2L243.3,21.2L243.3,21.2z
		 M216.3,82.5c-4.8,3.8-10.5,5.8-16.6,5.8c-14.7,0-26.2-11.7-26.2-26.7c0-15,11.5-26.7,26.2-26.7c6.1,0,11.8,2,16.6,5.8l0.2,0.2
		l11.4-11.3l-0.3-0.2c-7.7-6.7-17.7-10.4-27.9-10.4c-23.8,0-43.2,19.2-43.2,42.7c0,23.6,19.4,42.7,43.2,42.7
		c10.2,0,20.1-3.7,27.9-10.4l0.3-0.2l-11.4-11.3L216.3,82.5z"/>
</g>
</svg>
