<?xml version="1.0" encoding="utf-8"?>
<!-- Generator: Adobe Illustrator 23.0.2, SVG Export Plug-In . SVG Version: 6.00 Build 0)  -->
<svg version="1.1" id="Layer_1" xmlns="http://www.w3.org/2000/svg" xmlns:xlink="http://www.w3.org/1999/xlink" x="0px" y="0px"
	 viewBox="0 0 444 69.4" style="enable-background:new 0 0 444 69.4;" xml:space="preserve">
<style type="text/css">
	.st0{fill:#BF0D38;}
	.st1{fill-rule:evenodd;clip-rule:evenodd;fill:#C70038;}
	.st2{fill-rule:evenodd;clip-rule:evenodd;fill:#17388C;}
	.st3{fill:#17388C;}
	.st4{fill:none;stroke:#1F1A17;stroke-width:0.216;stroke-miterlimit:10;}
</style>
<g>
	<polygon class="st0" points="423.6,51.9 423.6,17.6 428,17.6 428,39.2 428,39.1 428,39 432.7,33.4 437.6,27.5 442,27.5 442,27.6 
		443,27.6 433.3,39.1 444,51.9 438.7,51.9 428,39.2 428,39.2 428,51.9 	"/>
	<path class="st1" d="M43.5,41.5c4.3-1.5,8.9-2.6,13.7-3.2v0c-6-0.4-11.7-1.6-17.1-3.7c-2.3,0.9-4.6,1.9-6.8,3.1
		C36.5,39.3,40,40.5,43.5,41.5 M17.3,62.4c4.3-7,9.8-12.3,16.3-16.3c-2.7-1.1-5.3-2.3-7.8-3.7c-5.5,4.1-10.5,9.4-15,15.9L17.3,62.4z
		 M57,51.9l0-8l0,0V51.9z M28.1,69.4c8-11,17.9-15.6,29-17.5c-5.8-0.6-11.3-1.7-16.5-3.2c-7.3,3.5-13.7,8.8-18.9,16.7L28.1,69.4z
		 M57.1,25.3l0-7.8l0,0L57.1,25.3z M43.6,27.8c4.3-1.2,8.8-1.9,13.5-2.3c-5.9-0.8-11.5-2.3-16.6-4.7c-2.3,0.7-4.6,1.5-6.8,2.4
		C36.7,25,40.1,26.6,43.6,27.8z M27.6,34.7c1.9-1.1,3.8-2.2,5.7-3.1c-2.6-1.4-5-2.9-7.4-4.7c-1.7,0.9-3.4,1.9-5,3
		C23,31.6,25.2,33.2,27.6,34.7z M6.6,55.6L6.6,55.6L6.6,55.6c4.3-6.5,9.1-11.9,14.3-16.2c-2.2-1.5-4.3-3.1-6.3-4.8
		C9.1,39.2,4.3,44.8,0,51.5L6.6,55.6z"/>
	<path class="st2" d="M6.6,13.7C19.3,33.2,36.6,42.1,57,43.8v8c-23.7-2.5-43.3-12.7-57-34L6.6,13.7z M17.3,6.9
		c8.9,14.4,23,21.9,39.9,24.1v7.3c-18.4-1.3-34.4-10-46.4-27.4L17.3,6.9z M28,0c8,11,17.9,15.6,29,17.5l0,7.9
		c-14.3-1.9-26.6-8-35.4-21.4L28,0z"/>
	<polygon class="st2" points="81.2,31.4 92.8,31.4 92.8,17.5 102.1,17.5 102.1,51.8 92.8,51.8 92.8,38.2 81.2,38.2 81.2,51.8 
		71.9,51.8 71.9,17.5 81.2,17.5 	"/>
	<polygon class="st2" points="198.4,17.5 208.6,17.5 208.6,45.2 223.7,45.2 223.7,52 208.6,52 208.6,52 198.4,52 	"/>
	<path class="st3" d="M132.8,27.5h8.5v4c1.3-1.6,2.4-2.4,3.7-3c1-0.5,2.7-1,4.6-1c2.5,0,4.8,1,5.8,2.2c1.4,1.6,2.1,3.6,2.1,6.8v15.5
		l-8.8,0V38.5c0-1.5-0.4-3.9-1-4.5c-0.6-0.6-1.3-1-2.3-1c-1.1,0-2,0.4-2.7,1.3c-0.7,0.9-0.9,2.3-0.9,4.6v13.1h-9.2L132.8,27.5
		L132.8,27.5z"/>
	<path class="st3" d="M281.5,27.5h8.3v4c1.2-1.6,2.3-2.4,3.6-3c1-0.5,2.7-1,4.5-1c2.5,0,4.7,1,5.7,2.2c1.4,1.6,2.1,3.5,2.1,6.7v15.5
		l-8.5,0V38.4c0-1.5-0.4-3.9-0.9-4.5c-0.5-0.6-1.3-1-2.3-1c-1.1,0-2,0.4-2.6,1.3c-0.7,0.9-1.6,2.3-1.6,4.5v13h-8.2L281.5,27.5
		L281.5,27.5z"/>
	<path class="st3" d="M240.9,37.6c-0.2-1.7-0.6-3-1.3-3.7c-0.7-0.8-1.7-1.1-2.8-1.1c-1.3,0-2.4,0.6-3.2,1.7c-0.5,0.7-0.8,1.8-1,3.2
		L240.9,37.6L240.9,37.6z M249.5,41.9h-17c0.1,1.5,0.5,2.5,1.1,3.2c0.8,1,1.9,1.5,3.2,1.5c0.8,0,1.6-0.2,2.4-0.7
		c0.5-0.3,1-0.8,1.5-1.5l0.2-0.8l8.5,0c0,0.4-0.2,1.2-0.5,1.6c-1.3,2.4-2.8,4-4.6,5c-1.8,1-4.4,1.5-7.8,1.5c-2.9,0-5.2-0.4-6.9-1.3
		c-1.7-0.9-3.1-2.3-4.2-4.2c-1.1-1.9-1.7-4.2-1.7-6.7c0-3.7,1.1-6.6,3.3-8.9c2.2-2.3,5.3-3.4,9.2-3.4c3.2,0,5.7,0.5,7.5,1.5
		c1.8,1,3.2,2.5,4.2,4.4c1,1.9,1.4,4.4,1.4,7.5L249.5,41.9L249.5,41.9z"/>
	<path class="st0" d="M358.8,47.5c2.3,0,4-0.5,5.1-1.5c1.1-1,1.7-2.4,1.7-4.4c0-1.9-0.6-3.3-1.8-4.2c-1.2-0.9-3-1.3-5.5-1.3h-7.5
		v11.4L358.8,47.5L358.8,47.5z M358.2,31.6c2.3,0,4.1-0.4,5.3-1.4c1.2-0.9,1.8-2.2,1.8-4c0-1.8-0.5-3.1-1.6-4s-2.7-1.2-5-1.2h-7.7
		v10.6L358.2,31.6L358.2,31.6z M364.7,33.1c3.2,0.8,5.9,5.3,5.9,8.3c0,3.2-1,5.8-3,7.6c-2,1.8-4.2,2.7-7.9,2.7h-13.7V17.3H359
		c3.5,0,6.1,0.7,7.9,2.2c1.8,1.4,2.7,3.6,2.7,6.4c0,1.7-0.4,3.1-1.2,4.2C367.7,31.3,366.4,32.3,364.7,33.1z"/>
	<path class="st0" d="M402.5,31c2.2-2.4,4.7-3.6,7.4-3.6c5.6,0,8.4,2.9,8.4,8.8v15.6h-4.4V36.4c0-1.9-0.4-3.3-1.1-4.2
		c-0.7-0.9-2-1.7-3.7-1.7c-2.2,0-4.5,1.3-6.7,3.8l0.1,17.5h-4.4V28h4.4L402.5,31L402.5,31z"/>
	<path class="st0" d="M389,39.8c-7.2,0-10.8,1.8-10.8,5.5c0,1.1,0.4,2,1.1,2.8s1.8,1.2,3.3,1.2c2.1,0,3.7-0.7,4.8-2.1
		c1.1-1.4,1.6-3,1.6-4.8L389,39.8L389,39.8z M389.5,51.7c0-0.7,0-4.1,0-4.1c-1.4,3.6-4.8,5.1-8.6,5.1c-2.3,0-4.1-0.7-5.5-2.1
		c-1.4-1.4-2.1-3.2-2.1-5.3c0-5.6,4.7-8.3,14-8.3c0.4,0,0.9,0,1.5,0v-1.8c0-2.5-1.3-4.8-4.6-4.8c-3.2,0-4.5,1.6-5,4.1l-4.9,0
		c0.2-2,1.5-4,3.2-5.3c1.7-1.3,3.8-1.6,7.1-1.6c1.8,0,3.2,0.2,4.4,0.5c1.1,0.3,2.1,0.8,2.9,1.6c0.8,0.7,1.3,1.5,1.6,2.4
		c0.3,0.9,0.4,2.3,0.4,4.4v15.3L389.5,51.7L389.5,51.7z"/>
	<path class="st2" d="M117.4,32.4c2.7,0,5,2.7,5,7.2c0,4.5-2.2,7.1-4.8,7.1s-4.8-2.6-4.8-7.1C112.7,35.2,114.7,32.4,117.4,32.4z
		 M117.5,27.4c7.6,0,11.7,5.5,11.7,12.3c0,6.8-4.1,12.2-11.7,12.2s-12.1-5.5-12.1-12.2C105.4,32.9,109.9,27.4,117.5,27.4z"/>
	<path class="st4" d="M117.4,32.4c2.7,0,5,2.7,5,7.2c0,4.5-2.2,7.1-4.8,7.1s-4.8-2.6-4.8-7.1C112.7,35.2,114.7,32.4,117.4,32.4z
		 M117.5,27.4c7.6,0,11.7,5.5,11.7,12.3c0,6.8-4.1,12.2-11.7,12.2s-12.1-5.5-12.1-12.2C105.4,32.9,109.9,27.4,117.5,27.4z"/>
	<path class="st2" d="M265.4,32.4c2.7,0,5,2.7,5,7.2c0,4.5-2.2,7.1-4.8,7.1s-4.8-2.6-4.8-7.1C260.8,35.2,262.7,32.4,265.4,32.4z
		 M265.5,27.4c7.6,0,11.7,5.5,11.7,12.3c0,6.8-4.1,12.2-11.7,12.2c-7.6,0-12.1-5.5-12.1-12.2C253.4,32.9,257.9,27.4,265.5,27.4z"/>
	<path class="st4" d="M265.4,32.4c2.7,0,5,2.7,5,7.2c0,4.5-2.2,7.1-4.8,7.1s-4.8-2.6-4.8-7.1C260.8,35.2,262.7,32.4,265.4,32.4z
		 M265.5,27.4c7.6,0,11.7,5.5,11.7,12.3c0,6.8-4.1,12.2-11.7,12.2c-7.6,0-12.1-5.5-12.1-12.2C253.4,32.9,257.9,27.4,265.5,27.4z"/>
	<path class="st3" d="M324.9,42.5c0.2-0.7,0.3-1.6,0.3-2.5c0,0,0-0.1,0-0.1c0,0,0,0,0,0c0-3.9-2-7-4.5-7c-2.5,0-4.5,3.1-4.5,7
		s2,7,4.5,7C322.6,46.8,324.2,45,324.9,42.5 M325.8,28h8.6v23.6l0,1.1c0,1.6-0.3,3.1-1,4.5s-1.5,2.6-2.5,3.4c-1.1,0.9-2.4,1.5-4,1.9
		c-1.6,0.4-3.5,0.6-5.6,0.6c-4.8,0-8.1-0.8-9.9-2.3c-1.8-1.5-2.7-3.5-2.7-6c0-0.3,0,0.1,0-0.4h8.8c0.2,0.8,0.6,1.6,1.1,2
		c0.7,0.5,1.5,0.7,2.5,0.7c1.3,0,2.3-0.4,3-1.1c0.7-0.7,1-2,1-3.9v-3.8c-0.9,1.1-1.8,1.9-2.7,2.4c-1.4,0.8-2.9,1.2-4.6,1.2
		c-3.2,0-5.8-1.5-7.7-4.4c-1.4-2.1-2.1-4.8-2.1-8.2c0-3.9,0.9-6.8,2.7-8.9c1.8-2,4.1-3.1,7.1-3.1c1.9,0,3.4,0.3,4.6,1
		c1.2,0.7,2.3,1.7,3.4,3.3L325.8,28L325.8,28z"/>
	<path class="st3" d="M177.2,42.5c0.2-0.7,0.3-1.6,0.3-2.5c0,0,0-0.1,0-0.1c0,0,0,0,0,0c0-3.9-2-7-4.5-7c-2.5,0-4.5,3.1-4.5,7
		c0,3.9,2,7,4.5,7C174.9,46.8,176.5,45,177.2,42.5 M178.1,28h8.6v23.6l0,1.1c0,1.6-0.3,3.1-1,4.5c-0.6,1.4-1.5,2.6-2.5,3.4
		c-1.1,0.9-2.4,1.5-4,1.9c-1.6,0.4-3.5,0.6-5.6,0.6c-4.8,0-8.1-0.8-9.9-2.3c-1.8-1.5-2.7-3.5-2.7-6c0-0.3,0,0.1,0-0.4h8.8
		c0.2,0.8,0.6,1.6,1.1,2c0.7,0.5,1.5,0.7,2.5,0.7c1.3,0,2.3-0.4,3-1.1c0.7-0.7,1-2,1-3.9v-3.8c-0.9,1.1-1.8,1.9-2.7,2.4
		c-1.4,0.8-2.9,1.2-4.6,1.2c-3.2,0-5.8-1.5-7.7-4.4c-1.4-2.1-2.1-4.8-2.1-8.2c0-3.9,0.9-6.8,2.7-8.9c1.8-2,4.1-3.1,7.1-3.1
		c1.9,0,3.4,0.3,4.6,1c1.2,0.7,2.3,1.7,3.4,3.3L178.1,28L178.1,28z"/>
</g>
</svg>
