<?xml version="1.0" encoding="utf-8"?>
<!-- Generator: Adobe Illustrator 23.0.2, SVG Export Plug-In . SVG Version: 6.00 Build 0)  -->
<svg version="1.1" id="Layer_1" xmlns="http://www.w3.org/2000/svg" xmlns:xlink="http://www.w3.org/1999/xlink" x="0px" y="0px"
	 viewBox="0 0 498.1 134.2" style="enable-background:new 0 0 498.1 134.2;" xml:space="preserve">
<style type="text/css">
	.st0{fill-rule:evenodd;clip-rule:evenodd;fill:#DA000A;}
</style>
<title>Hsbc Logo Vector</title>
<polygon class="st0" points="67.4,0 67.4,67.1 67.4,134.2 0,67.1 67.4,0 "/>
<polygon class="st0" points="67.4,0 134.1,0 201.3,0 134.1,67.4 67.2,0.2 67.4,0 "/>
<polygon class="st0" points="201.1,134.2 201.1,67.1 201.1,0 268.5,67.1 201.1,134.2 "/>
<polygon class="st0" points="201.1,134.2 134.4,134.2 67.2,134.2 134.4,66.8 201.4,133.9 201.1,134.2 "/>
<polygon points="290.2,94.8 302.6,94.8 302.6,71.2 326.6,71.2 326.6,94.8 339,94.8 339,38.6 326.6,38.6 326.6,61.5 302.6,61.5 
	302.6,38.6 290.2,38.6 290.2,94.8 "/>
<path d="M345.7,77.4c0.1,13.5,10.4,18.7,22.1,18.7c14.8,0,24.2-7.3,24.2-17.6c0-12.8-12.5-14.9-16.7-16.2c-13.5-4-15.5-4.8-15.5-9.1
	c0-4.7,4.7-6.8,8.5-6.8c5.4,0,8.8,2.4,9.3,8.1h12.4c0.2-12.1-8.8-16.8-21.2-16.8c-10.8,0-21.9,5.2-21.9,16.7
	c0,10.5,8.8,13.7,16.8,16.2c8.8,2.7,15,2.8,15,8.9c0,5.5-6,7.6-10.2,7.6c-6,0-9.9-2.8-10.3-9.6H345.7z"/>
<path d="M410.5,70.2h10.2c5.3,0,9.6,2.3,9.6,8c0,5.7-4.8,7.9-9.8,7.9h-9.9L410.5,70.2L410.5,70.2z M398.3,94.8h23.5
	c10.8,0,21.6-3.9,21.6-15.8c0-7-4.6-11.8-12.7-13.2c7.5-2.4,10.7-6.8,10.7-12.3c0-10.5-9-14.9-19-14.9h-24L398.3,94.8L398.3,94.8z
	 M410.5,47.5h9c4.3,0,9.2,1.8,9.2,7.2c0,4.7-4.1,7.3-8.3,7.3h-9.9L410.5,47.5L410.5,47.5z"/>
<path d="M498.1,55.5c-0.5-11.4-9.7-18.1-22.6-18.1c-17.4,0-27.2,11.7-27.2,29.5c0,19,9,29.1,27.2,29.1c12.8,0,21.9-6.9,22.5-18.1
	h-12.8c-1.2,5.9-4.9,8.5-10.3,8.5c-10.4,0-13.8-10.1-13.8-19.4c0-9.8,4-20.1,14.6-20.1c4.9-0.1,9,3.6,9.3,8.5L498.1,55.5z"/>
</svg>
