<?xml version="1.0" encoding="utf-8"?>
<!-- Generator: Adobe Illustrator 23.0.2, SVG Export Plug-In . SVG Version: 6.00 Build 0)  -->
<svg version="1.1" id="Layer_1" xmlns="http://www.w3.org/2000/svg" xmlns:xlink="http://www.w3.org/1999/xlink" x="0px" y="0px"
	 viewBox="0 0 500.8 105.4" style="enable-background:new 0 0 500.8 105.4;" xml:space="preserve">
<style type="text/css">
	.st0{fill:#EE2722;}
</style>
<g>
	<path class="st0" d="M362.6,63c0,4.8-3.5,7.8-10.3,7.8c-2.3,0-4.3-0.3-5.6-0.3V55.7h4.5C358.1,55.7,362.6,57.8,362.6,63
		 M361.6,40.6c0,4.8-3.5,7.6-10.8,7.6h-4V34.3c1.8,0,3.8-0.3,6.1-0.3C359.3,34,361.6,36.8,361.6,40.6 M373.7,62.8
		c0-5.3-3.3-10.6-9.6-11.8v-0.3c5-1.8,8.6-6.6,8.6-11.6c0-8.6-6.6-13.1-18.2-13.1c-6.8,0-13.9,0-18.4,0.3v52.7
		c6.8,0,12.6,0.3,15.9,0.3C368.4,79.2,373.7,70.4,373.7,62.8"/>
	<path class="st0" d="M401.4,62.8c0,4.5-3.5,9.3-8.6,9.3c-2.8,0-4.5-1.5-4.5-4c0-3.3,2.3-6.3,13.1-6.3V62.8z M412,78.9
		c-0.3-3-0.3-6.8-0.3-9.8V52.7c0-8.3-3.8-13.4-16.4-13.4c-5.3,0-10.3,1-14.4,2.3l1,8.6c3.3-2,8.1-3,11.6-3c5.8,0,7.8,2,7.8,6.1v2
		c-13.6,0-23,5-23,14.4c0,6.3,4,10.1,11.3,10.1c6.1,0,10.8-3,12.9-7.3c-0.2,2-0.5,4.3-0.5,6.6L412,78.9L412,78.9z"/>
	<path class="st0" d="M455.9,78.9V51.7c0-6.8-2.8-12.4-11.9-12.4c-6.6,0-11.1,3.3-13.6,7.8c0.5-2.3,0.5-5.3,0.5-7.1h-9.6v38.8h10.1
		V60.3c0-6.8,4.3-12.6,9.3-12.6c3.8,0,5,2.5,5,6.6v24.7L455.9,78.9L455.9,78.9z"/>
	<path class="st0" d="M500.8,78.9L485.9,58l13.9-17.9h-12.6l-11.6,16.1V21.9h-10.1v57h10.1V59.8l12.4,19.2L500.8,78.9L500.8,78.9z"
		/>
	<path class="st0" d="M159.9,52.7c0,11.9-7.3,16.1-13.6,16.1c-9.1,0-13.1-6.3-13.1-16.6c0-10.8,6.6-15.9,13.4-15.9
		C155.1,36.3,159.9,41.9,159.9,52.7 M173.7,51.7c0-18.4-11.4-26.5-26.2-26.5c-15.6,0-28.2,10.8-28.2,28c0,16.6,8.6,26.7,26.2,26.7
		C161.1,79.9,173.7,69.1,173.7,51.7"/>
	<path class="st0" d="M219.9,77.7l-1.5-10.8c-2.8,1-7.1,1.8-10.1,1.8c-10.3,0-14.9-5.8-14.9-16.1c0-9.6,5-15.6,14.4-15.6
		c3.5,0,7.1,0.5,10.3,1.5l1.5-11.1c-3.5-1-7.8-1.3-11.6-1.3c-18.9,0-29,11.3-29,28.5c0,12.1,5.8,25.2,26.7,25.2
		C210.6,79.7,215.6,78.9,219.9,77.7"/>
	<path class="st0" d="M255.9,62.8c0,4-3.3,6.6-9.1,6.6c-2,0-4-0.2-5-0.2V56.5h4.3C252.2,56.5,255.9,58.5,255.9,62.8 M255.2,41.1
		c0,4-3.3,6.3-9.6,6.3h-3.8V35.8h5.3C252.7,35.8,255.2,37.8,255.2,41.1 M270.1,62.5c0-5.3-3.5-10.3-9.3-11.6v-0.3
		c5-2,8.3-6.6,8.3-11.3c0-8.8-7.3-13.4-19.7-13.4c-7.1,0-15.6,0-20.9,0.3v52.7c8.3,0,14.6,0.3,18.2,0.3
		C263.3,79.2,270.1,70.9,270.1,62.5"/>
	<path class="st0" d="M316.5,77.7L315,66.8c-2.8,1-7.1,1.8-9.8,1.8c-10.3,0-14.9-5.8-14.9-16.1c0-9.6,5-15.6,14.1-15.6
		c3.5,0,7.1,0.5,10.3,1.5l1.5-11.1c-3.5-1-7.6-1.3-11.6-1.3c-18.9,0-29,11.3-29,28.5c0,12.1,5.8,25.2,26.7,25.2
		C307.4,79.7,312.4,78.9,316.5,77.7"/>
	<path class="st0" d="M64.8,76.2c1.8-1,3.5-2.3,5-3.5c1-0.8,2-1.8,2.8-2.8c4-4.8,6.5-10.6,6.5-17.1c0-14.6-11.9-26.5-26.5-26.5
		c-3,0-6.1,0.5-8.6,1.5L25.7,7.3C33.5,2.8,42.9,0,52.7,0c29.3,0,52.7,23.5,52.7,52.7c0,29-23.5,52.7-52.7,52.7
		c-14.4,0-27.5-5.8-37.1-15.4h64.6l0.5-0.5l-68.1-2.8l-0.5-0.5h72.1l0.3-0.5L9.1,82.2L8.8,82h29.3C38.1,82,53,82.5,64.8,76.2
		 M4.8,74.9c-0.3-1-0.8-2-1.3-3h15.9l2.8,3h23.5l-5,5.3h-29C10.8,77.4,8.1,75.1,4.8,74.9 M3,70.1c-2-5.5-3-11.4-3-17.4
		c0-3.5,0.3-6.8,1-10.1l25.5,9.1v1c0,6.1,2,11.9,5.8,16.4h0.3c-2.3-4-3.5-8.6-3.5-13.4c0-1,0-2,0.3-3l27.2,9.6v7.8L3,70.1L3,70.1z
		 M56.5,52.2L35.6,38.3c2.5-3,5.8-5.3,9.6-6.8l11.3,11.3L56.5,52.2L56.5,52.2z M56.5,61.3l-27-10.3c0.8-4,2.5-8.1,5-11.4l21.9,13.9
		V61.3z M26.5,49.9l-25-9.6C3,34.3,5.3,28.8,8.6,23.7L31,37.6C28.5,41.1,27,45.4,26.5,49.9 M32.3,36.1L10.3,21.4
		c3.5-4.8,7.8-9.1,12.9-12.4l18.9,19.4C38.3,30.3,34.8,32.8,32.3,36.1"/>
</g>
</svg>
