<?xml version="1.0" encoding="utf-8"?>
<!-- Generator: Adobe Illustrator 23.0.2, SVG Export Plug-In . SVG Version: 6.00 Build 0)  -->
<svg version="1.1" id="Layer_1" xmlns="http://www.w3.org/2000/svg" xmlns:xlink="http://www.w3.org/1999/xlink" x="0px" y="0px"
	 viewBox="0 0 450 86.6" style="enable-background:new 0 0 450 86.6;" xml:space="preserve">
<style type="text/css">
	.st0{fill:#EC1C24;}
</style>
<g>
	<g>
		<path class="st0" d="M48.1,0H20.4L0,20.4v10.2v0V41l20.3,20.3H48L68.4,41V30.7v0V20.3L48.1,0z M57.7,30.7L34.1,54.2L10.6,30.7h0
			L34.2,7.2L57.7,30.7L57.7,30.7z"/>
		<path class="st0" d="M48.1,25.2H20.4L0,45.6v10.2v0v10.3l20.3,20.3H48l20.4-20.4V55.9v0V45.6L48.1,25.2z M57.7,55.9L34.1,79.4
			L10.6,55.9h0l23.6-23.6L57.7,55.9L57.7,55.9z"/>
	</g>
	<path class="st0" d="M142.3,54.6c-9,0-7.5,0-16.3,0s-9-6.5-9-6.5V28h9.1v15.7c0,0,0,4.4,8.1,4.4c8.1,0,8.1-4.4,8.1-4.4V28h9.1v20.1
		C151.4,48.1,151.3,54.6,142.3,54.6z"/>
	<path class="st0" d="M193.6,54.7V28h8.1v20.1h19.2v6.6L193.6,54.7L193.6,54.7z"/>
	<path class="st0" d="M234.4,28v26.7h-8V28L234.4,28L234.4,28z"/>
	<path class="st0" d="M352.8,43.2H343l5-9.1L352.8,43.2z M336.5,54.7l3.1-5.5h16.5l2.9,5.5h10.2L353.3,28h-10.6l-16,26.7H336.5z"/>
	<path class="st0" d="M372,54.7V28H384l15.9,20.6V28h7.3v26.7h-11.9l-15.8-20.3v20.3H372z"/>
	<path class="st0" d="M412.9,54.7V28h8v11.2L436.2,28H448l-15.9,11L450,54.7h-12.4L424.7,43l-3.9,2.7v8.9H412.9z"/>
	<path class="st0" d="M264.1,45.3c0,1.6-1.4,2.9-3.1,2.9h-11.5c-1.7,0-3.1-1.3-3.1-3v-8.2c0-1.6,1.4-3,3.1-3H261
		c1.7,0,3.1,1.3,3.1,2.9h7.1v-3.7c0-3.1-2.5-5.7-5.6-5.7h-20.7c-3.1,0-5.7,2.5-5.7,5.7v15.7c0,3.1,2.5,5.7,5.7,5.7h20.7
		c3.1,0,5.6-2.5,5.6-5.7v-3.7L264.1,45.3L264.1,45.3z"/>
	<path class="st0" d="M97.4,35.1h-8v5.4h12.7c0,0,2.2-0.3,2.2-2.6c0-2.3-2.2-2.8-2.2-2.8h-6.3V28h10.1c0,0,6.7,0.2,6.7,9.8
		c0,9.7-6.9,10.2-6.9,10.2H89.4v6.7h-8.7V28h16.7L97.4,35.1L97.4,35.1z"/>
	<path class="st0" d="M170.7,54.7h-14.6V28l15.4-0.1v5.6h-7.8v5.4h14.6c0,0,2.2-0.3,2.2-2.6c0-2.3-2.2-2.8-2.2-2.8h-7.4V28h10.9
		c0,0,6.5-0.9,6.5,7c0,0-0.1,6.2-3.1,6.2c0,0,3.1,0.6,3.1,6.5c0,0,0.3,7-6.6,7h-11.4v-6.1h7.9c0,0,2.2-0.3,2.2-2.6s-2.2-2.8-2.2-2.8
		h-14.6v5.4h7L170.7,54.7L170.7,54.7z"/>
	<path class="st0" d="M307,54.7h-14.6V28l15.4-0.1v5.6H300v5.4h14.6c0,0,2.2-0.3,2.2-2.6c0-2.3-2.2-2.8-2.2-2.8h-7.4V28h10.9
		c0,0,6.5-0.9,6.5,7c0,0-0.1,6.2-3.1,6.2c0,0,3.1,0.6,3.1,6.5c0,0,0.3,7-6.6,7h-11.4v-6.1h7.9c0,0,2.2-0.3,2.2-2.6s-2.2-2.8-2.2-2.8
		H300v5.4h7L307,54.7L307,54.7z"/>
</g>
</svg>
