<?xml version="1.0" encoding="utf-8"?>
<!-- Generator: Adobe Illustrator 23.0.2, SVG Export Plug-In . SVG Version: 6.00 Build 0)  -->
<svg version="1.1"
	 id="svg3449" xmlns:cc="http://creativecommons.org/ns#" xmlns:dc="http://purl.org/dc/elements/1.1/" xmlns:rdf="http://www.w3.org/1999/02/22-rdf-syntax-ns#" xmlns:svg="http://www.w3.org/2000/svg"
	 xmlns="http://www.w3.org/2000/svg" xmlns:xlink="http://www.w3.org/1999/xlink" x="0px" y="0px" viewBox="0 0 139.4 44.7"
	 style="enable-background:new 0 0 139.4 44.7;" xml:space="preserve">
<style type="text/css">
	.st0{fill:#EF3E42;}
	.st1{fill:#0067B1;}
</style>
<g id="layer1" transform="translate(0,-1000.0022)">
	<g id="g140" transform="matrix(1.25,0,0,-1.25,141.66093,1028.0156)">
		<path id="path142" class="st0" d="M-1.8,4.5l-16.3-16.3L-34.5,4.5l16.3,16.3L-1.8,4.5z"/>
	</g>
	<g id="g144" transform="matrix(1.25,0,0,-1.25,2.2578028,1050.3888)">
		<path id="path146" class="st1" d="M-1.8,4.5l3.6,25.3c0.8,5.6,6.7,10.4,13,10.4c6.4,0,9.4-4.5,8.8-8.7l-0.5-3.7
			c-0.4-3.1-2.7-6.1-6.7-8.2l4.1-7c0.5-0.8,0.7-2,0.5-3.2c-0.4-2.7-2.4-4.9-4.6-4.9c-1.2,0-2.1,0.7-2.7,1.7L7.6,16.7l-1-7.4
			C6.2,6.7,4.2,4.5,2,4.5H-1.8z M12.6,35c-1.4,0-2.7-1.4-2.9-3.1l-1-7.6c-0.2-1.7,0.7-3.1,2-3.1c1.4,0,2.7,1.4,2.9,3.1l1,7.6
			C14.9,33.7,14,35,12.6,35"/>
	</g>
	<g id="g148" transform="matrix(1.25,0,0,-1.25,39.099303,1012.6948)">
		<path id="path150" class="st1" d="M-1.8,4.5c0.4,3.1,2.8,5.6,5.3,5.6c2.5,0,4.1-2.6,3.7-5.6L5.5-8.2h4.9l1.8,12.8
			c0.4,3.1,2.9,5.6,5.3,5.6c2.5,0,4.1-2.6,3.7-5.6L17.8-20c-0.4-3.1-2.8-5.6-5.3-5.6c-2.5,0-4.1,2.6-3.7,5.6l1.1,8H4.9l-1.1-8
			c-0.4-3.1-2.8-5.6-5.3-5.6H-6L-1.8,4.5z"/>
	</g>
	<g id="g152" transform="matrix(1.25,0,0,-1.25,99.155813,1018.4835)">
		<path id="path154" class="st1" d="M-1.8,4.5c-0.4-2.4-1.7-4.7-3.9-6.8c1.6-1.7,2.2-3.9,1.9-6l-0.3-2.2C-5-16.1-10.9-21-17.1-21
			h-9.9l3.7,25.3c0.8,5.6,6.7,10.4,13,10.4c6.4,0,9.5-4.5,8.8-8.7L-1.8,4.5z M-14-3.5c-1.6,0-3-1.6-3.3-3.6l-0.7-5.1
			c-0.3-2,0.8-3.6,2.3-3.6s3.1,1.6,3.4,3.6l0.7,5.1C-11.4-5.1-12.4-3.5-14-3.5 M-12.1,9.5c-1.6,0-3-1.6-3.3-3.6L-16,2.4
			c-0.3-2,0.8-3.6,2.3-3.6s3,1.6,3.4,3.6l0.6,3.5C-9.4,7.9-10.5,9.5-12.1,9.5"/>
	</g>
</g>
</svg>
