<?xml version="1.0" encoding="utf-8"?>
<!-- Generator: Adobe Illustrator 23.0.2, SVG Export Plug-In . SVG Version: 6.00 Build 0)  -->
<svg version="1.1" id="Layer_1" xmlns="http://www.w3.org/2000/svg" xmlns:xlink="http://www.w3.org/1999/xlink" x="0px" y="0px"
	 viewBox="0 0 450 176.6" style="enable-background:new 0 0 450 176.6;" xml:space="preserve">
<style type="text/css">
	.st0{fill:#52AE25;}
	.st1{fill:#1D6EAF;}
	.st2{fill:#393538;}
</style>
<g>
	<path class="st0" d="M103.4,147.2c7.4,4.8,9.4,14.7,4.6,22l0,0c-4.8,7.4-14.7,9.4-22,4.6l-54.7-35.5c0,0-18.2-11.9-19.6-12.8
		c-1.4-0.9-6.8-4.8-9.5-10.6c0,0-4.8-8.3,0.5-21.7c0.2-0.4,1.8-4.5,4.9-8.6L103.4,147.2z"/>
	<path class="st1" d="M22.2,25.1c-2.8,1.8-7,4.6-8,5.3c-1.5,1.1-9.4,7.4-9.6,21.8c0,0.9-0.4,13.7,11.4,22.1c1.4,1,26,17,26,17
		l50.1,32.6l11.4,7.4c0,0,8.3-10.1,7.3-22.6c-0.1-1.2,0.1-8.3-9.6-16.8c-0.9-0.8-10-6.7-10-6.7L66.7,69.3L47.3,56.6l-7.6-4.9
		c0,0,24.5-16,28.5-18.6s7.7-4.5,9.5-7.1c0.4-0.6,4.5-5.3,3.1-13c-0.1-0.7-0.7-4-3.6-7.3c0,0-3.3-4.8-10.9-5.6c0,0-3.4-0.6-8,1.4
		l-6.8,4.3l-12.8,8.4L22.2,25.1z"/>
	<path class="st0" d="M63.3,51.7c0,0,14.1,9.2,15.4,10c1.4,0.9,4.4,2.9,5.9,3.7c1.4,0.8,4.5,2.2,9.2,1.9c0.7,0,6.8-0.7,10.9-6.1
		c0.3-0.4,3.3-4,3.3-9.6c0-0.5,0.2-5.2-3.6-10c-0.3-0.4-3.4-4.5-9.8-5.6c-1-0.2-6.2-0.9-11.5,2.7c-0.8,0.5-11.3,7.3-11.3,7.3
		L63.3,51.7z"/>
	<path class="st1" d="M44.7,160.8c0,0-14.1-9.2-15.4-10s-4.4-2.9-5.9-3.7c-1.4-0.8-4.5-2.2-9.2-1.9c-0.7,0-6.8,0.7-10.9,6.1
		c-0.3,0.4-3.3,4-3.3,9.6c0,0.5-0.2,5.2,3.6,10c0.3,0.4,3.4,4.5,9.8,5.6c1,0.2,6.2,0.9,11.5-2.7c0.8-0.5,11.3-7.3,11.3-7.3
		L44.7,160.8z"/>
	<path class="st2" d="M155.7,71.1v6.3c0,0,2.1,1.6,4.9,2.4c1.1,0.3,3.8,1.3,8.2,1c0.4,0,4.9-0.2,8-2.8c0.2-0.2,3.1-2.2,3.7-6.7
		c0-0.2,0.6-3.2-1.4-6c-0.2-0.2-1.4-2-4.8-3.5c-0.4-0.2-4.6-1.9-4.6-1.9s-2.7-1.1-3.7-1.5s-3.4-1.2-3.9-3.5c0-0.2-0.6-2.5,1.4-4.2
		c0.1-0.1,1.6-1.5,5.4-1.4c0.6,0,5.4,0.3,9.9,4.5l0-6c0,0-4.7-4-13.1-3c0,0-7.2,0.6-9.1,6.8c0,0-1.3,4.2,0.6,7.4
		c0.2,0.3,1.4,2.3,4.4,3.8c0.8,0.4,6.1,2.6,6.1,2.6s3.2,1.2,3.9,1.6c0.7,0.3,3.9,1.9,2.7,5.6c-0.1,0.4-1.1,3.3-6.4,3.5
		C167.5,76.2,161.4,76.5,155.7,71.1z"/>
	<path class="st2" d="M244.1,45.4v34.9h-5.9v-5.9c-2.9,4.3-7.4,5.7-7.9,5.8c-6.4,1.8-11.9-0.6-12.3-0.8c-6.8-3-8.8-9.3-9.2-10.3
		c-2.6-7.6,0.8-14.5,1-15c3.4-6.9,10-8.6,10.7-8.8c6.2-1.5,10.2,0.3,11.3,0.8c4.3,1.9,6.3,5.3,6.3,5.3v-6L244.1,45.4L244.1,45.4z
		 M216.5,70.9c3.1,4.3,7.9,4.4,8.4,4.5c6.6,0.7,10.3-3.8,10.3-3.8c5.5-6.5,2-14.2,1.9-14.5c-2.9-6-8.1-6.5-8.8-6.7
		c-5.6-1-9.3,2-9.8,2.3c-5.3,4.3-4.6,11.2-4.6,11.2C214.2,68.1,216.3,70.6,216.5,70.9z"/>
	<path class="st2" d="M368.2,45.4v34.9h-5.9v-5.9c-2.9,4.3-7.4,5.7-7.9,5.8c-6.4,1.8-11.9-0.6-12.3-0.8c-6.8-3-8.8-9.3-9.2-10.3
		c-2.6-7.6,0.8-14.5,1-15c3.4-6.9,10-8.6,10.7-8.8c6.2-1.5,10.2,0.3,11.3,0.8c4.3,1.9,6.3,5.3,6.3,5.3v-6L368.2,45.4L368.2,45.4z
		 M340.6,70.9c3.1,4.3,7.9,4.4,8.4,4.5c6.6,0.7,10.3-3.8,10.3-3.8c5.5-6.5,2-14.2,1.9-14.5c-2.9-6-8.1-6.5-8.8-6.7
		c-5.6-1-9.3,2-9.8,2.3c-5.3,4.3-4.6,11.2-4.6,11.2C338.3,68.1,340.3,70.6,340.6,70.9z"/>
	<path class="st2" d="M264.5,96.4v34.9h-5.9v-5.9c-2.9,4.3-7.4,5.7-7.9,5.8c-6.4,1.8-11.9-0.6-12.3-0.8c-6.8-3-8.8-9.3-9.2-10.3
		c-2.6-7.6,0.8-14.5,1-15c3.4-6.9,10-8.6,10.7-8.8c6.2-1.5,10.2,0.3,11.3,0.8c4.3,1.9,6.3,5.3,6.3,5.3v-6H264.5z M236.9,121.9
		c3.1,4.3,7.9,4.4,8.4,4.5c6.6,0.7,10.3-3.8,10.3-3.8c5.5-6.5,2-14.2,1.9-14.5c-2.9-6-8.1-6.5-8.8-6.7c-5.6-1-9.3,2-9.8,2.3
		c-5.3,4.3-4.6,11.2-4.6,11.2C234.7,119.2,236.7,121.6,236.9,121.9z"/>
	<path class="st2" d="M325.7,34.2v46h-5.9v-5.8c-2.9,4.3-7.4,5.7-7.9,5.8c-6.4,1.8-11.9-0.6-12.3-0.8c-6.8-3-8.8-9.3-9.2-10.3
		c-2.6-7.6,0.8-14.5,1-15c3.4-6.9,10-8.6,10.7-8.8c6.2-1.5,10.2,0.3,11.3,0.8c4.3,1.9,6.3,5.3,6.3,5.3V37.7L325.7,34.2z M298.1,70.9
		c3.1,4.3,7.9,4.4,8.4,4.5c6.6,0.7,10.3-3.8,10.3-3.8c5.5-6.5,2-14.2,1.9-14.5c-2.9-6-8.1-6.5-8.8-6.7c-5.6-1-9.3,2-9.8,2.3
		c-5.3,4.3-4.6,11.2-4.6,11.2C295.9,68.1,297.9,70.6,298.1,70.9z"/>
	<path class="st2" d="M431.9,34.2v46.1h-5.9v-5.9c-2.9,4.3-7.4,5.7-7.9,5.8c-6.4,1.8-11.9-0.6-12.3-0.8c-6.8-3-8.8-9.3-9.2-10.3
		c-2.6-7.6,0.8-14.5,1-15c3.4-6.9,10-8.6,10.7-8.8c6.2-1.5,10.2,0.3,11.3,0.8c4.3,1.9,6.3,5.3,6.3,5.3V37.7L431.9,34.2z M404.3,70.9
		c3.1,4.3,7.9,4.4,8.4,4.5c6.6,0.7,10.3-3.8,10.3-3.8c5.5-6.5,2-14.2,1.9-14.5c-2.9-6-8.1-6.5-8.8-6.7c-5.6-1-9.3,2-9.8,2.3
		c-5.3,4.3-4.6,11.2-4.6,11.2C402.1,68.1,404.1,70.6,404.3,70.9z"/>
	<path class="st2" d="M450,89v42.3h-5.9v-5.8c-2.9,4.3-7.4,5.7-7.9,5.8c-6.4,1.8-11.9-0.6-12.3-0.8c-6.8-3-8.8-9.3-9.2-10.3
		c-2.6-7.6,0.8-14.5,1-15c3.4-6.9,10-8.6,10.7-8.8c6.2-1.5,10.2,0.3,11.3,0.8c4.3,1.9,6.3,5.3,6.3,5.3V85.4L450,89z M422.4,122
		c3.1,4.3,7.9,4.4,8.4,4.5c6.6,0.7,10.3-3.8,10.3-3.8c5.5-6.5,2-14.2,1.9-14.5c-2.9-6-8.1-6.5-8.8-6.7c-5.6-1-9.3,2-9.8,2.3
		c-5.3,4.3-4.6,11.2-4.6,11.2C420.1,119.3,422.2,121.7,422.4,122z"/>
	<g>
		<path class="st2" d="M193.7,48.9c0,0,3.9,2.6,4.3,2.9c0.4,0.2,1.2,0.8,1.6,1.1c0.4,0.2,1.3,0.6,2.6,0.6c0.2,0,1.9-0.2,3.1-1.7
			c0.1-0.1,0.9-1.1,1-2.7c0-0.1,0.1-1.5-1-2.8c-0.1-0.1-1-1.3-2.8-1.6c-0.3-0.1-1.7-0.3-3.3,0.7c-0.2,0.1-3.2,2-3.2,2L193.7,48.9z"
			/>
		<path class="st2" d="M191.4,34.2l-5.8,3.6c0,0,0,27.1,0,28s-0.2,4.5,0.7,7.9c0.1,0.4,1.4,4.9,5.4,6.3c0.6,0.2,2.9,1.2,7,1
			c0.6,0,4.6-0.3,7.5-2.5v-5.6c0,0-4.1,3.2-9.7,2.4c-0.8-0.1-5.1-0.8-5.2-6.5C191.4,68.2,191.4,34.2,191.4,34.2z"/>
	</g>
	<g>
		<path class="st2" d="M317,99.8c0,0-4,2.5-4.4,2.8s-1.3,0.8-1.7,1c-0.4,0.2-1.3,0.6-2.6,0.5c-0.2,0-1.9-0.2-3.1-1.8
			c-0.1-0.1-0.9-1.1-0.9-2.7c0-0.1,0-1.5,1-2.8c0.1-0.1,1-1.2,2.8-1.5c0.3,0,1.8-0.2,3.2,0.8c0.2,0.2,3.2,2.1,3.2,2.1L317,99.8z"/>
		<path class="st2" d="M301.9,88.8l-5.8-3.5c0,0,0,30.6,0,31.6s-0.2,4.5,0.7,7.9c0.1,0.4,1.4,4.9,5.4,6.3c0.6,0.2,2.9,1.2,7,1
			c0.6,0,4.6-0.3,7.5-2.5v-5.6c0,0-4.1,3.2-9.7,2.4c-0.8-0.1-5.1-0.8-5.2-6.5C301.9,119.4,301.9,88.8,301.9,88.8z"/>
	</g>
	<path class="st2" d="M348.6,103.7c-4.6-7.5-11.4-7.8-13.7-7.9c-9.6-0.5-14.4,6.6-14.8,7.2c-5.6,9.1-1.8,18.1-1.7,18.4
		c3.7,9,13.1,10.2,13.1,10.2c10.5,1.8,16.9-3.4,16.9-3.4v-5.5c-9.1,6.2-17.2,3.2-17.7,3c-6.9-2.5-7.6-9.6-7.6-9.6h27.6
		C351.5,109.2,348.8,104.1,348.6,103.7z M323.2,111.4c2.1-11.2,11.1-10.4,12-10.3c9.3,0.9,9.7,10.3,9.7,10.3H323.2z"/>
	<path class="st2" d="M407.7,103.7c-4.6-7.5-11.4-7.8-13.7-7.9c-9.6-0.5-14.4,6.6-14.8,7.2c-5.6,9.1-1.8,18.1-1.7,18.4
		c3.7,9,13.1,10.2,13.1,10.2c10.5,1.8,16.9-3.4,16.9-3.4v-5.5c-9.1,6.2-17.2,3.2-17.7,3c-6.9-2.5-7.6-9.6-7.6-9.6h27.6
		C410.6,109.2,407.9,104.1,407.7,103.7z M382.3,111.4c2.1-11.2,11.1-10.4,12-10.3c9.3,0.9,9.7,10.3,9.7,10.3H382.3z"/>
	<path class="st2" d="M253,80.3h5.8c0,0,0-13.2,0-14.7c0,0-0.1-2.7,0-4c0.1-1.1,0.3-4.4,2.9-7.6c0,0,1.3-1.5,2.6-2.3
		c1.3-0.7,3.3-1.5,5.9-1.3c0,0,7.3-0.2,8.1,7.9c0,0,0.2,1.7,0.2,2.6s0,19.4,0,19.4h5.8c0,0,0-18.5,0-20.3s0-6.6-3.2-10.6
		c-0.3-0.4-3.2-4.5-10.1-4.6c-0.9,0-8-0.1-12.3,6.6l0-5.9H253L253,80.3z"/>
	<path class="st2" d="M191.8,131.3h5.8c0,0-0.1-13.2-0.1-14.7c0,0-0.1-2.7,0.1-4c0.1-1.1,0.3-4.4,2.9-7.6c0,0,1.3-1.5,2.6-2.3
		c1.3-0.7,3.3-1.5,5.9-1.3c0,0,7.3-0.2,8.1,7.9c0,0,0.2,1.7,0.2,2.6s0,19.4,0,19.4h5.8c0,0,0-18.5,0-20.3s0-6.6-3.2-10.6
		c-0.3-0.4-3.2-4.5-10.1-4.6c-0.9,0-8-0.1-12.3,6.6l0-13.4l-5.7-3.6L191.8,131.3z"/>
	<path class="st2" d="M175.5,101.3c6.2,0.5,9.5,4.5,9.5,4.5v-6.5c-3.6-2.6-6.6-3.1-7.4-3.2c-5-0.9-8.9,0.3-8.9,0.3
		c-7.4,1.9-10.6,7.6-10.8,8c-2.7,4.7-2.4,10-2.4,10.3c0.2,7,3.9,11.1,4.2,11.4c5.3,6.2,13,6,13.6,6c7.3,0.3,12.1-3.3,12.1-3.3v-6
		c-3.2,2.9-7.3,3.4-7.7,3.5c-5.4,0.9-8.7-0.7-8.7-0.7c-7.8-3.2-7.5-11.4-7.5-11.8c0.1-7.5,5.1-10.6,7.1-11.4c0,0,2.3-1.1,5-1.1
		C173.7,101.2,175.2,101.3,175.5,101.3z"/>
	<path class="st2" d="M279.2,103.8c4.5-8.5,12.7-8.1,12.7-8.1v6.7c0,0-6.8-1.4-10.6,4.4c-0.5,0.7-2,3-2.1,7.3c0,0.4,0,17.1,0,17.1
		h-5.7V96.4h5.7L279.2,103.8z"/>
	<path class="st2" d="M363,103.8c4.5-8.5,12.7-8.1,12.7-8.1v6.7c0,0-6.8-1.4-10.6,4.4c-0.5,0.7-2,3-2.1,7.3c0,0.4,0,17.1,0,17.1
		h-5.7V96.4h5.7L363,103.8z"/>
	<path class="st2" d="M382.8,52.7c4.5-8.5,12.7-8.1,12.7-8.1v6.7c0,0-6.8-1.4-10.6,4.4c-0.5,0.7-2,3-2.1,7.3c0,0.4,0,17.1,0,17.1
		h-5.7V45.3h5.7L382.8,52.7z"/>
</g>
</svg>
