<?xml version="1.0" encoding="utf-8"?>
<!-- Generator: Adobe Illustrator 23.0.2, SVG Export Plug-In . SVG Version: 6.00 Build 0)  -->
<svg version="1.1" id="Layer_1" xmlns="http://www.w3.org/2000/svg" xmlns:xlink="http://www.w3.org/1999/xlink" x="0px" y="0px"
	 viewBox="0 0 450 127.1" style="enable-background:new 0 0 450 127.1;" xml:space="preserve">
<style type="text/css">
	.st0{fill-rule:evenodd;clip-rule:evenodd;fill:#E0081C;}
	.st1{fill-rule:evenodd;clip-rule:evenodd;fill:#002368;}
</style>
<g id="Layer_x0020_1">
	<g id="_344217720">
		<path class="st0" d="M18.9,3.8v52.4H3.6c-2.7,0-3.4,2.5-3.6,5.1v4.2c0,2.1,1.1,5,3.1,5h15.8v52.9c0,2.2,2.6,3.3,5.6,3.6h2.7
			c3.1-0.3,5.8-1.4,5.8-3.3V70.6h11v53.1c0,2,2.8,3.1,5.9,3.4h2.4c3.2-0.2,6-1.4,6-3.4V70.6h10.8V124c0,1.9,2.8,2.9,5.8,3.1h2.2
			c3.1-0.2,5.9-1.3,5.9-3.4V70.6h11L94,124c0.4,2.2,2.9,3,5.7,3.1h1.8c1.7-0.1,3.2-0.4,4.2-0.7c1.3-0.5,2.4-1.3,2.4-3.1V70.6h15.8
			c3.5,0,3.1-6.2,3.1-8.9c0-2.5-0.9-5.5-3.4-5.5h-15.6V2.6c0-0.6-0.8-1.5-1.6-1.9c-0.8-0.4-2.1-0.6-3.4-0.7h-3.7
			c-1.4,0.1-2.6,0.4-3.4,0.7c-0.9,0.4-1.3,0.8-1.7,1.6C93.6,3.9,94,23.1,94,25.6c0,10.2,0,20.4,0,30.6c-2.4,0-9.2-0.5-11,0.2l0-53.6
			C82.7,1,80.5,0.2,78.1,0h-3.9c-1.5,0.1-2.7,0.4-3.2,0.6c-0.7,0.3-1.8,1.2-1.8,2v53.6H58.3V3.1c0-2.4-2.9-3-5.7-3.1h-3.9
			C46.7,0,44,1.1,44,3.1v53.1H33V3.4c0-2.1-2.2-3.1-4.8-3.4h-4.2c-1.8,0.2-3.2,0.6-3.8,0.9C19.5,1.5,18.9,2.5,18.9,3.8z"/>
		<path class="st1" d="M411,101h-26.3V69.4h23.2c13.8,0,18.9,3.1,18.9,17c0,3-0.4,6.9-1.8,9.5C422.6,100.2,416.8,101,411,101z
			 M384.7,54l-0.2-1.8c0-5.2-0.2-24.9,0.1-26.7c1.5-0.4,16.7-0.1,20.4-0.1l6.5,0.2c2.5,0,5.7,1.2,7.2,2.4c3.9,3.1,3.9,10.7,3.3,15.4
			c-0.4,3-1.1,5.1-2.9,6.9c-4.1,4.1-9.1,3.9-15.2,3.9C401,54.1,386,54.4,384.7,54z M362.5,14.1v99.3c0,2,2,3.6,4.5,3.6h44
			c15.7,0,29.6-0.9,36-14.7c2.9-6.2,3-11.3,3-18.2v-0.7c0-6.6-4.4-14.3-8.5-18c-2-1.8-9-5.1-10.8-5.2c1.1-1.5,13.4-3.5,13.4-20.4
			c0-13.8-3.8-23.8-17.5-27.7c-3.1-0.9-9.8-1.5-12.8-1.5h-47.8C364.4,10.8,362.5,12.6,362.5,14.1z"/>
		<path class="st1" d="M302.2,101.5c-4.8,0-9.1-0.6-13.1-2.4c-10.2-4.5-12.6-15.3-13.6-25.6c-1.2-11.4-0.7-29.8,4.6-38.6
			c1-1.7,1.9-2.7,3.3-4.1c0.6-0.6,1.3-1.1,2-1.6c8-5.6,27.9-6,35.6,1.8c8,8.1,8.4,21.8,8.4,32.9c0,8.2-1.4,20.1-5.4,27
			C319.1,99,311.3,101.5,302.2,101.5z M253,62.7c0,10.7,1.6,23.4,6.2,32.6c8.4,16.7,24,22.5,42.8,22.5c10.8,0,20.3-1.8,28.6-6.8
			c9.6-5.8,14.4-14.3,17.4-24.7l1.2-5.3c2.8-16.3,2.6-38.8-6-53.2c-5.9-9.8-15-15-26.1-17.1c-12.1-2.3-27.7-1.9-39.2,2.8
			c-7.1,2.9-14.5,9.2-17.8,15.9c-3.6,7.3-4.7,11.1-5.9,19C253.5,52.3,253,58.8,253,62.7z"/>
		<path class="st1" d="M154.2,14.4v62.9l0.7,9.6c0.6,4,0.5,4.8,1.8,8.8s3.7,8.5,6.9,11.2c0.6,0.5,0.8,0.8,1.4,1.3
			c8.4,7.5,21.9,8.8,32.8,8.8c9.5,0,23-1.1,30.8-6.8c0.5-0.4,1.1-0.7,1.5-1.1c3.4-2.7,4.9-4.6,7-8.1c3.1-5,4.2-14,4.2-20.9V14.9
			c0-5.6-10.2-4.6-12.1-4.9c-2.9-0.4-9.6,0.6-10.6,3.9c0,0.1-0.1,0.3-0.1,0.4l-0.2,1.6c-0.2,11.2,0,22.7,0,34c0,11.3,0,22.6,0,34
			c0,2.9-0.2,5.2-1.1,7.3c-2.5,5.8-11.3,8.5-17.3,8.5c-7.4,0-10.4,0.4-17.1-3.3c-3.1-1.7-5.6-4.3-5.9-8.7
			c-0.7-9.1-0.2-19.4-0.2-28.9l0-43.6c0-1.4-0.4-2-1-2.6l-1-0.7c-0.6-0.4-0.6-0.4-1.3-0.6c-3.8-1.5-4.6-1.3-7.8-1.1
			c-1.5,0.1-2.5-0.9-7.7,0.9C156.4,11.5,154.2,12.4,154.2,14.4z"/>
	</g>
</g>
</svg>
