<?xml version="1.0" encoding="UTF-8"?><svg id="Layer_1" xmlns="http://www.w3.org/2000/svg" xmlns:xlink="http://www.w3.org/1999/xlink" viewBox="0 0 317.07 316.76"><defs><style>.cls-1{mask:url(#mask);}.cls-2{mask:url(#mask-1);}.cls-3{fill:#fff;}.cls-4{fill:#006fcf;}</style><mask id="mask" x="0" y="98.24" width="316.85" height="129.75" maskUnits="userSpaceOnUse"><g id="bluebox-55x54-b"><polygon id="bluebox-55x54-a" class="cls-3" points="0 98.25 0 227.99 316.85 227.99 316.85 98.25 0 98.25"/></g></mask><mask id="mask-1" x="62.5" y="181.65" width="254.57" height="37.33" maskUnits="userSpaceOnUse"><g id="bluebox-55x54-d"><polygon id="bluebox-55x54-c" class="cls-3" points="317.07 218.98 317.07 181.65 62.5 181.65 62.5 218.98 317.07 218.98"/></g></mask></defs><polygon class="cls-4" points=".05 0 .05 316.76 316.8 316.76 316.8 172.64 316.8 0 .05 0"/><g class="cls-1"><path class="cls-3" d="M278.03,153.6h23.78v-55.35h-25.38v8.85l-5.65-8.85h-22.13v11.19l-4.96-11.19h-36.58c-1.76,0-3.47.13-5.13.39-1.41.22-2.79.54-4.12.95-1.04.33-2.06.71-3.03,1.16-1.15.53-2.24,1.13-3.28,1.83v-4.33h-119.39l-3.25,9.65-3.31-9.65h-27.78v11.31l-5.01-11.31H10.13L0,121.92v31.68h16.05l2.99-7.94h5.65l3.04,7.94h123.5v-8.05l6.19,8.05h34.13v-4.03c.88.57,1.8,1.07,2.73,1.5.93.43,1.89.8,2.85,1.11,1.19.39,2.4.68,3.61.9,1.97.36,3.93.51,5.79.51h20.42l2.99-7.94h5.65l3.04,7.94h34.24v-8.21l5.17,8.21ZM316.85,224.58v-51.94H120.3l-5.01,7.09-4.96-7.09h-56.52v55.35h56.31l4.91-7.2,5.07,7.2h35.25v-11.94h-.37c4.38,0,8.37-.79,11.89-2.1v14.04h24.58v-8.05l6.19,8.05h106.65c3.07,0,5.95-.52,8.53-1.46,1.45-.53,2.81-1.18,4.06-1.95Z"/></g><g class="cls-2"><path class="cls-4" d="M304.48,211.51h-19.14v7.47h18.87c8.06,0,12.85-4.91,12.85-11.89s-4.32-10.56-11.57-10.56h-8.64c-2.14,0-3.63-1.39-3.63-3.57s1.49-3.73,3.63-3.73h16.21l3.31-7.57h-19.25c-8.05,0-12.85,4.91-12.85,11.63s4.54,10.82,11.63,10.82h8.58c2.13,0,3.68,1.39,3.68,3.63s-1.55,3.78-3.68,3.78ZM268.97,211.51h-19.14v7.47h18.87c8.05,0,12.85-4.91,12.85-11.89s-4.32-10.56-11.57-10.56h-8.64c-2.13,0-3.63-1.39-3.63-3.57s1.49-3.73,3.63-3.73h16.21l3.31-7.57h-19.25c-8.05,0-12.85,4.91-12.85,11.63s4.54,10.82,11.63,10.82h8.58c2.13,0,3.68,1.39,3.68,3.63s-1.55,3.78-3.68,3.78ZM244.39,189.23v-7.57h-29.86v37.33h29.86v-7.52h-20.9v-7.52h20.42v-7.47h-20.42v-7.25h20.9ZM194.37,189.28c3.2,0,4.91,2.08,4.91,4.64s-1.71,4.58-4.91,4.58h-10.5v-9.22h10.5ZM183.86,205.54h4.21l11.14,13.44h11.14l-12.42-13.76c6.35-1.17,10.13-5.76,10.13-11.73,0-6.99-4.96-11.84-12.9-11.84h-20.26v37.33h8.96v-13.44ZM161.04,194.18c0,2.51-1.6,4.59-4.75,4.59h-10.72v-9.17h10.72c3.15,0,4.75,2.02,4.75,4.58ZM136.62,181.65v37.33h8.96v-12.32h11.25c8.16,0,13.22-5.33,13.22-12.53s-4.96-12.48-12.9-12.48h-20.53ZM123.45,218.98h11.2l-14.99-18.82,14.88-18.5h-10.88l-9.17,11.84-9.12-11.84h-11.2l14.93,18.66-14.88,18.67h10.88l9.17-12,9.17,12ZM92.36,189.23v-7.57h-29.86v37.33h29.86v-7.52h-20.9v-7.52h20.42v-7.47h-20.42v-7.25h20.9Z"/></g><path class="cls-4" d="M265.61,122.24l-.11-3.09,1.87,3.09,14.29,22.34h10.46v-37.33h-8.75v21.6l.11,2.77-1.65-2.77-13.97-21.6h-10.98v37.33h8.74v-22.34ZM229.88,121.18l2.72-6.99,2.72,6.99,3.31,8.26h-12l3.25-8.26ZM244.7,144.58h10.08l-15.94-37.33h-11.79l-15.99,37.33h9.54l3.15-8h17.76l3.2,8ZM205.62,144.58h.48l3.68-7.94h-2.72c-6.13,0-9.76-3.84-9.76-10.45v-.53c0-5.92,3.25-10.35,9.65-10.35h9.7v-8.05h-10.45c-11.52,0-17.81,7.73-17.81,18.35v.64c0,11.09,6.45,18.29,17.22,18.34ZM173.78,144.58h8.96v-37.33h-8.96v37.33ZM154.96,114.88c3.2,0,4.91,2.08,4.91,4.64s-1.71,4.58-4.91,4.58h-10.5v-9.22h10.5ZM144.46,131.15h4.21l11.15,13.44h11.14l-12.43-13.76c6.35-1.17,10.13-5.76,10.13-11.73,0-6.99-4.96-11.84-12.91-11.84h-20.26v37.33h8.96v-13.44ZM128.94,114.83v-7.57h-29.86v37.33h29.86v-7.63h-20.9v-7.41h20.42v-7.46h-20.42v-7.25h20.9ZM54.66,119.1l-.22-10.08,10.35,35.57h8.11l10.34-35.35-.21,9.81v25.54h8.69v-37.33h-15.78l-7.09,26.45-7.14-26.45h-15.73v37.33h8.69v-25.49ZM18.98,121.18l2.72-6.99,2.72,6.99,3.31,8.26h-12l3.25-8.26ZM33.81,144.58h10.08l-15.94-37.33h-11.78L.16,144.58h9.55l3.15-8h17.76l3.2,8Z"/></svg>