<?xml version="1.0" encoding="utf-8"?>
<!-- Generator: Adobe Illustrator 23.0.2, SVG Export Plug-In . SVG Version: 6.00 Build 0)  -->
<svg version="1.1" id="Layer_1" xmlns="http://www.w3.org/2000/svg" xmlns:xlink="http://www.w3.org/1999/xlink" x="0px" y="0px"
	 viewBox="0 0 434 211.7" style="enable-background:new 0 0 434 211.7;" xml:space="preserve">
<style type="text/css">
	.st0{fill:#242B57;}
	.st1{fill:#0286C8;}
</style>
<g>
	<path class="st0" d="M2.4,190.4c0-2,0.3-3.9,1-5.5c0.7-1.6,1.6-3.1,2.8-4.2c1.2-1.2,2.7-2,4.3-2.7c1.7-0.6,3.5-0.9,5.5-0.9
		c2,0,3.8,0.3,5.5,0.9c1.7,0.6,3.1,1.5,4.3,2.7c1.2,1.2,2.2,2.6,2.8,4.2c0.7,1.6,1,3.5,1,5.5c0,2-0.3,3.9-1,5.5
		c-0.7,1.6-1.6,3-2.8,4.2c-1.2,1.2-2.7,2-4.3,2.7c-1.7,0.6-3.5,0.9-5.5,0.9c-2,0-3.8-0.3-5.5-0.9c-1.7-0.6-3.1-1.5-4.3-2.7
		c-1.2-1.2-2.2-2.6-2.8-4.2C2.7,194.3,2.4,192.4,2.4,190.4 M8.2,190.4c0,1.2,0.2,2.3,0.6,3.3c0.4,1,0.9,1.9,1.6,2.6
		c0.7,0.7,1.5,1.3,2.5,1.7c1,0.4,2,0.6,3.2,0.6c1.2,0,2.3-0.2,3.2-0.6c1-0.4,1.8-1,2.5-1.7c0.7-0.7,1.2-1.6,1.6-2.6
		c0.4-1,0.6-2.1,0.6-3.3c0-1.2-0.2-2.3-0.6-3.3c-0.4-1-0.9-1.9-1.6-2.6c-0.7-0.7-1.5-1.3-2.5-1.7c-1-0.4-2-0.6-3.2-0.6
		c-1.2,0-2.3,0.2-3.2,0.6c-1,0.4-1.8,1-2.5,1.7c-0.7,0.7-1.2,1.6-1.6,2.6C8.4,188.1,8.2,189.2,8.2,190.4"/>
	<path class="st0" d="M32.9,185.7H38v2.4h0.1c0.2-0.3,0.4-0.7,0.7-1c0.3-0.3,0.7-0.6,1.1-0.9c0.4-0.3,0.9-0.5,1.5-0.6
		c0.6-0.2,1.1-0.2,1.8-0.2c1.4,0,2.5,0.2,3.3,0.6c0.8,0.4,1.5,1,2,1.7c0.5,0.7,0.8,1.6,0.9,2.6c0.2,1,0.2,2.1,0.2,3.3v9.6h-5.4v-8.5
		c0-0.5,0-1,0-1.6c0-0.5-0.1-1-0.3-1.5c-0.2-0.5-0.5-0.8-0.8-1.1c-0.4-0.3-0.9-0.4-1.6-0.4s-1.3,0.1-1.7,0.4c-0.4,0.2-0.8,0.6-1,1
		c-0.2,0.4-0.4,0.9-0.5,1.4c-0.1,0.5-0.1,1.1-0.1,1.7v8.7h-5.4L32.9,185.7L32.9,185.7z"/>
	<rect x="53.5" y="176" class="st0" width="5.4" height="27.1"/>
	<path class="st0" d="M62.4,180.2c0-0.9,0.3-1.6,0.9-2.2c0.6-0.6,1.3-0.9,2.2-0.9c0.9,0,1.6,0.3,2.2,0.9c0.6,0.6,0.9,1.3,0.9,2.2
		c0,0.9-0.3,1.6-0.9,2.2c-0.6,0.6-1.3,0.9-2.2,0.9c-0.9,0-1.6-0.3-2.2-0.9C62.7,181.8,62.4,181.1,62.4,180.2 M62.8,185.7h5.4v17.4
		h-5.4V185.7z"/>
	<path class="st0" d="M72,185.7h5.2v2.4h0.1c0.2-0.3,0.4-0.7,0.7-1c0.3-0.3,0.7-0.6,1.1-0.9c0.4-0.3,0.9-0.5,1.5-0.6
		c0.5-0.2,1.1-0.2,1.8-0.2c1.4,0,2.5,0.2,3.3,0.6c0.8,0.4,1.5,1,2,1.7c0.5,0.7,0.8,1.6,0.9,2.6c0.2,1,0.3,2.1,0.3,3.3v9.6h-5.4v-8.5
		c0-0.5,0-1-0.1-1.6c0-0.5-0.1-1-0.3-1.5c-0.2-0.5-0.5-0.8-0.8-1.1c-0.4-0.3-0.9-0.4-1.6-0.4c-0.7,0-1.3,0.1-1.7,0.4
		c-0.4,0.2-0.8,0.6-1,1c-0.2,0.4-0.4,0.9-0.5,1.4c-0.1,0.5-0.1,1.1-0.1,1.7v8.7H72V185.7z"/>
	<path class="st0" d="M109.1,200.1c-0.9,1.1-1.9,1.9-3.3,2.5c-1.3,0.6-2.7,0.9-4.1,0.9c-1.3,0-2.6-0.2-3.8-0.6
		c-1.2-0.4-2.2-1-3.1-1.8c-0.9-0.8-1.6-1.8-2.1-2.9c-0.5-1.1-0.8-2.4-0.8-3.8c0-1.4,0.2-2.6,0.8-3.8c0.5-1.1,1.2-2.1,2.1-2.9
		c0.9-0.8,1.9-1.4,3.1-1.8c1.2-0.4,2.4-0.6,3.8-0.6c1.2,0,2.4,0.2,3.4,0.6c1,0.4,1.9,1,2.6,1.8c0.7,0.8,1.2,1.8,1.6,2.9
		c0.4,1.1,0.6,2.4,0.6,3.8v1.7H97.4c0.2,1,0.7,1.8,1.4,2.5s1.6,0.9,2.7,0.9c0.9,0,1.6-0.2,2.2-0.6c0.6-0.4,1.1-0.9,1.6-1.5
		L109.1,200.1z M104.5,192.4c0-0.9-0.3-1.7-0.9-2.3c-0.6-0.6-1.4-1-2.4-1c-0.6,0-1.1,0.1-1.6,0.3c-0.5,0.2-0.8,0.4-1.2,0.7
		c-0.3,0.3-0.6,0.6-0.8,1c-0.2,0.4-0.3,0.8-0.3,1.2L104.5,192.4L104.5,192.4z"/>
	<path class="st0" d="M124.4,177.7h9.5c1.1,0,2.2,0.1,3.3,0.2c1.1,0.2,2.1,0.5,3,0.9c0.9,0.5,1.6,1.1,2.1,2c0.5,0.8,0.8,1.9,0.8,3.3
		c0,1.4-0.4,2.6-1.2,3.6c-0.8,0.9-1.9,1.6-3.2,2v0.1c0.8,0.1,1.6,0.3,2.3,0.7c0.7,0.3,1.3,0.8,1.8,1.3c0.5,0.5,0.9,1.2,1.1,1.9
		c0.3,0.7,0.4,1.5,0.4,2.3c0,1.3-0.3,2.5-0.9,3.3c-0.6,0.9-1.3,1.6-2.2,2.2c-0.9,0.5-1.9,0.9-3.1,1.2c-1.1,0.2-2.3,0.4-3.4,0.4
		h-10.4L124.4,177.7L124.4,177.7z M130,187.9h4c0.4,0,0.9,0,1.3-0.1c0.4-0.1,0.8-0.3,1.1-0.5s0.6-0.5,0.8-0.9
		c0.2-0.4,0.3-0.8,0.3-1.3c0-0.5-0.1-1-0.3-1.3c-0.2-0.3-0.5-0.6-0.9-0.8c-0.4-0.2-0.8-0.3-1.2-0.4c-0.5-0.1-0.9-0.1-1.3-0.1H130
		L130,187.9L130,187.9z M130,198.3h5c0.4,0,0.9,0,1.3-0.1c0.4-0.1,0.8-0.3,1.2-0.5c0.4-0.2,0.6-0.5,0.9-0.9c0.2-0.4,0.3-0.8,0.3-1.4
		c0-0.6-0.1-1.1-0.4-1.5c-0.3-0.4-0.7-0.7-1.1-0.8c-0.4-0.2-0.9-0.3-1.5-0.4c-0.5-0.1-1-0.1-1.5-0.1H130L130,198.3L130,198.3z"/>
	<path class="st0" d="M157.9,200.9L157.9,200.9c-0.7,0.9-1.5,1.6-2.5,2c-1,0.4-2,0.6-3.1,0.6c-0.8,0-1.6-0.1-2.3-0.3
		c-0.8-0.2-1.4-0.6-2-1c-0.6-0.5-1-1-1.4-1.7c-0.3-0.7-0.5-1.4-0.5-2.3c0-1,0.2-1.8,0.6-2.5c0.4-0.7,0.9-1.3,1.5-1.7
		c0.6-0.5,1.4-0.8,2.2-1.1c0.8-0.2,1.7-0.4,2.5-0.6c0.9-0.1,1.7-0.2,2.6-0.2c0.9,0,1.7,0,2.4,0c0-1-0.3-1.7-1-2.3
		c-0.7-0.6-1.5-0.8-2.4-0.8c-0.9,0-1.7,0.2-2.4,0.5c-0.7,0.4-1.4,0.9-2,1.5l-2.9-2.9c1-0.9,2.2-1.6,3.5-2.1c1.3-0.5,2.7-0.7,4.2-0.7
		c1.6,0,2.9,0.2,3.9,0.6c1,0.4,1.8,1,2.4,1.7c0.6,0.8,1,1.7,1.3,2.8c0.2,1.1,0.4,2.4,0.4,3.9v8.8h-4.9L157.9,200.9L157.9,200.9z
		 M156.5,195.4c-0.4,0-0.9,0-1.5,0.1c-0.6,0-1.2,0.1-1.8,0.3c-0.6,0.2-1,0.4-1.4,0.8c-0.4,0.3-0.6,0.8-0.6,1.4
		c0,0.6,0.3,1.1,0.8,1.4c0.6,0.3,1.1,0.5,1.7,0.5c0.5,0,1-0.1,1.5-0.2c0.5-0.1,0.9-0.3,1.3-0.6c0.4-0.3,0.7-0.6,0.9-1
		c0.2-0.4,0.3-0.9,0.3-1.4v-1.1H156.5z"/>
	<path class="st0" d="M166.2,185.7h5.2v2.4h0.1c0.2-0.3,0.4-0.7,0.7-1c0.3-0.3,0.7-0.6,1.1-0.9c0.4-0.3,0.9-0.5,1.5-0.6
		c0.6-0.2,1.1-0.2,1.8-0.2c1.4,0,2.5,0.2,3.3,0.6c0.8,0.4,1.5,1,2,1.7c0.5,0.7,0.8,1.6,0.9,2.6c0.2,1,0.2,2.1,0.2,3.3v9.6h-5.4v-8.5
		c0-0.5,0-1-0.1-1.6c0-0.5-0.1-1-0.3-1.5c-0.2-0.5-0.5-0.8-0.8-1.1c-0.4-0.3-0.9-0.4-1.6-0.4c-0.7,0-1.3,0.1-1.7,0.4
		c-0.4,0.2-0.8,0.6-1,1c-0.2,0.4-0.4,0.9-0.5,1.4c-0.1,0.5-0.1,1.1-0.1,1.7v8.7h-5.4L166.2,185.7L166.2,185.7z"/>
	<polygon class="st0" points="186.7,176 192.1,176 192.1,192.5 198,185.7 204.6,185.7 197.7,193.5 204.8,203.1 198,203.1 
		192.2,194.3 192.1,194.3 192.1,203.1 186.7,203.1 	"/>
	<path class="st0" d="M206.3,180.2c0-0.9,0.3-1.6,0.9-2.2c0.6-0.6,1.3-0.9,2.2-0.9c0.9,0,1.6,0.3,2.2,0.9c0.6,0.6,0.9,1.3,0.9,2.2
		c0,0.9-0.3,1.6-0.9,2.2c-0.6,0.6-1.3,0.9-2.2,0.9s-1.6-0.3-2.2-0.9C206.6,181.8,206.3,181.1,206.3,180.2 M206.7,185.7h5.4v17.4
		h-5.4V185.7z"/>
	<path class="st0" d="M215.9,185.7h5.2v2.4h0.1c0.2-0.3,0.4-0.7,0.7-1c0.3-0.3,0.7-0.6,1.1-0.9c0.4-0.3,0.9-0.5,1.5-0.6
		c0.5-0.2,1.1-0.2,1.8-0.2c1.4,0,2.5,0.2,3.3,0.6c0.8,0.4,1.5,1,2,1.7c0.5,0.7,0.8,1.6,0.9,2.6c0.2,1,0.3,2.1,0.3,3.3v9.6h-5.4v-8.5
		c0-0.5,0-1-0.1-1.6c0-0.5-0.1-1-0.3-1.5c-0.2-0.5-0.5-0.8-0.8-1.1c-0.4-0.3-0.9-0.4-1.6-0.4c-0.7,0-1.3,0.1-1.7,0.4
		c-0.4,0.2-0.8,0.6-1,1c-0.2,0.4-0.4,0.9-0.5,1.4c-0.1,0.5-0.1,1.1-0.1,1.7v8.7h-5.4L215.9,185.7L215.9,185.7z"/>
	<path class="st0" d="M254.7,201.6c0,3.3-0.8,5.8-2.5,7.5c-1.7,1.7-4.2,2.6-7.6,2.6c-1.6,0-3.1-0.2-4.6-0.5c-1.5-0.3-2.9-1-4.2-2
		l3-4.4c0.8,0.7,1.7,1.2,2.6,1.6c0.9,0.4,1.9,0.6,3,0.6c1.6,0,2.9-0.4,3.6-1.2c0.8-0.8,1.2-1.8,1.2-3.1V201h-0.1
		c-0.6,0.8-1.4,1.4-2.3,1.8c-0.9,0.3-1.8,0.5-2.6,0.5c-1.3,0-2.5-0.2-3.5-0.7c-1-0.4-2-1.1-2.7-1.9c-0.8-0.8-1.3-1.7-1.7-2.8
		c-0.4-1.1-0.6-2.3-0.6-3.6c0-1.1,0.2-2.3,0.6-3.4c0.4-1.1,0.9-2.1,1.6-2.9c0.7-0.8,1.5-1.5,2.5-2c1-0.5,2.1-0.8,3.3-0.8
		c0.8,0,1.5,0.1,2.1,0.2c0.6,0.2,1.2,0.4,1.7,0.6c0.5,0.3,0.9,0.6,1.3,0.9c0.4,0.3,0.6,0.6,0.9,1h0.1v-2.3h4.9L254.7,201.6
		L254.7,201.6z M241.2,194.3c0,0.6,0.1,1.1,0.3,1.6c0.2,0.5,0.5,1,0.9,1.4c0.4,0.4,0.9,0.7,1.4,0.9c0.5,0.2,1.1,0.4,1.7,0.4
		c0.6,0,1.2-0.1,1.7-0.4c0.5-0.2,1-0.5,1.4-0.9c0.4-0.4,0.7-0.9,0.9-1.4c0.2-0.5,0.3-1.1,0.3-1.6c0-0.6-0.1-1.1-0.3-1.6
		c-0.2-0.5-0.5-1-0.9-1.4c-0.4-0.4-0.9-0.7-1.4-1c-0.5-0.2-1.1-0.4-1.7-0.4c-0.6,0-1.2,0.1-1.7,0.4c-0.5,0.2-1,0.6-1.4,1
		c-0.4,0.4-0.7,0.8-0.9,1.4C241.3,193.2,241.2,193.7,241.2,194.3"/>
	<path class="st0" d="M270.3,177.7h9.4c1.3,0,2.6,0.1,3.7,0.4c1.2,0.2,2.2,0.7,3.1,1.2c0.9,0.6,1.6,1.4,2.1,2.4
		c0.5,1,0.8,2.2,0.8,3.7c0,1.5-0.2,2.7-0.7,3.7c-0.5,1-1.1,1.8-2,2.4c-0.8,0.6-1.8,1-3,1.3c-1.1,0.2-2.4,0.4-3.7,0.4h-4.1v9.9h-5.6
		L270.3,177.7L270.3,177.7z M275.9,188.5h3.7c0.5,0,1-0.1,1.4-0.1c0.5-0.1,0.9-0.3,1.3-0.5c0.4-0.2,0.7-0.5,0.9-0.9
		c0.2-0.4,0.3-0.9,0.3-1.5c0-0.6-0.1-1.2-0.4-1.6c-0.3-0.4-0.7-0.7-1.1-0.9c-0.5-0.2-1-0.4-1.6-0.4c-0.6-0.1-1.1-0.1-1.7-0.1h-2.9
		V188.5z"/>
	<path class="st0" d="M303.1,200.9L303.1,200.9c-0.7,0.9-1.5,1.6-2.5,2c-1,0.4-2,0.6-3.1,0.6c-0.8,0-1.6-0.1-2.3-0.3
		c-0.8-0.2-1.4-0.6-2-1c-0.6-0.5-1-1-1.4-1.7c-0.3-0.7-0.5-1.4-0.5-2.3c0-1,0.2-1.8,0.6-2.5c0.4-0.7,0.9-1.3,1.5-1.7
		c0.6-0.5,1.4-0.8,2.2-1.1c0.8-0.2,1.7-0.4,2.5-0.6c0.9-0.1,1.7-0.2,2.6-0.2c0.9,0,1.7,0,2.4,0c0-1-0.3-1.7-1-2.3
		c-0.7-0.6-1.5-0.8-2.4-0.8c-0.9,0-1.7,0.2-2.4,0.5c-0.7,0.4-1.4,0.9-2,1.5l-2.9-2.9c1-0.9,2.2-1.6,3.5-2.1c1.3-0.5,2.7-0.7,4.2-0.7
		c1.6,0,2.9,0.2,3.9,0.6c1,0.4,1.8,1,2.4,1.7c0.6,0.8,1,1.7,1.3,2.8c0.2,1.1,0.4,2.4,0.4,3.9v8.8h-4.9L303.1,200.9L303.1,200.9z
		 M301.8,195.4c-0.4,0-0.9,0-1.5,0.1c-0.6,0-1.2,0.1-1.8,0.3c-0.6,0.2-1,0.4-1.4,0.8c-0.4,0.3-0.6,0.8-0.6,1.4
		c0,0.6,0.3,1.1,0.8,1.4c0.5,0.3,1.1,0.5,1.7,0.5c0.5,0,1-0.1,1.5-0.2c0.5-0.1,0.9-0.3,1.3-0.6c0.4-0.3,0.7-0.6,0.9-1
		c0.2-0.4,0.3-0.9,0.3-1.4v-1.1H301.8z"/>
	<path class="st0" d="M321.4,205.9c-0.4,0.9-0.7,1.8-1,2.5c-0.3,0.7-0.8,1.3-1.3,1.8c-0.5,0.5-1.2,0.9-2,1.1
		c-0.8,0.2-1.8,0.4-3.1,0.4c-1.4,0-2.7-0.2-4-0.6l0.7-4.4c0.8,0.4,1.6,0.5,2.5,0.5c0.6,0,1.1-0.1,1.5-0.2c0.4-0.1,0.7-0.3,1-0.6
		c0.3-0.3,0.5-0.6,0.6-0.9c0.2-0.4,0.3-0.8,0.5-1.2l0.4-1l-7.6-17.5h5.8l4.5,11.5h0.1l3.8-11.5h5.5L321.4,205.9z"/>
	<path class="st0" d="M331.3,185.7h5.2v2.4h0.1c0.2-0.3,0.4-0.7,0.7-1c0.3-0.3,0.7-0.6,1.1-0.9c0.4-0.3,0.9-0.5,1.5-0.6
		c0.6-0.2,1.2-0.2,1.8-0.2c1.2,0,2.3,0.2,3.2,0.8c0.9,0.5,1.7,1.3,2.1,2.4c0.6-1.1,1.4-1.9,2.3-2.4c0.9-0.5,2-0.7,3.3-0.7
		c1.2,0,2.2,0.2,3,0.6c0.8,0.4,1.4,0.9,1.9,1.6c0.5,0.7,0.8,1.5,1,2.4c0.2,0.9,0.3,1.9,0.3,3v10.3h-5.4v-10.1c0-0.8-0.2-1.5-0.5-2.1
		c-0.4-0.6-1-0.9-1.8-0.9c-0.6,0-1.1,0.1-1.6,0.3c-0.4,0.2-0.8,0.5-1,0.8c-0.2,0.4-0.4,0.8-0.5,1.3c-0.1,0.5-0.2,1-0.2,1.5v9.2h-5.4
		v-9.2c0-0.3,0-0.7,0-1.1c0-0.5-0.1-0.9-0.2-1.3c-0.1-0.4-0.4-0.8-0.7-1c-0.3-0.3-0.8-0.4-1.4-0.4c-0.7,0-1.3,0.1-1.7,0.4
		c-0.4,0.2-0.8,0.6-1,1c-0.2,0.4-0.4,0.9-0.5,1.4c-0.1,0.5-0.1,1.1-0.1,1.7v8.7h-5.4L331.3,185.7L331.3,185.7z"/>
	<path class="st0" d="M378.9,200.1c-0.9,1.1-1.9,1.9-3.3,2.5c-1.3,0.6-2.7,0.9-4.1,0.9c-1.3,0-2.6-0.2-3.8-0.6
		c-1.2-0.4-2.2-1-3.1-1.8c-0.9-0.8-1.6-1.8-2.1-2.9c-0.5-1.1-0.7-2.4-0.7-3.8c0-1.4,0.2-2.6,0.7-3.8c0.5-1.1,1.2-2.1,2.1-2.9
		c0.9-0.8,1.9-1.4,3.1-1.8c1.2-0.4,2.4-0.6,3.8-0.6c1.2,0,2.4,0.2,3.4,0.6c1,0.4,1.9,1,2.6,1.8c0.7,0.8,1.2,1.8,1.6,2.9
		c0.4,1.1,0.6,2.4,0.6,3.8v1.7h-12.5c0.2,1,0.7,1.8,1.4,2.5c0.7,0.6,1.6,0.9,2.6,0.9c0.9,0,1.6-0.2,2.2-0.6c0.6-0.4,1.1-0.9,1.6-1.5
		L378.9,200.1z M374.4,192.4c0-0.9-0.3-1.7-0.9-2.3c-0.6-0.6-1.4-1-2.4-1c-0.6,0-1.1,0.1-1.6,0.3c-0.5,0.2-0.8,0.4-1.2,0.7
		c-0.3,0.3-0.6,0.6-0.8,1c-0.2,0.4-0.3,0.8-0.3,1.2L374.4,192.4L374.4,192.4z"/>
	<path class="st0" d="M383,185.7h5.2v2.4h0.1c0.2-0.3,0.4-0.7,0.7-1c0.3-0.3,0.7-0.6,1.1-0.9c0.4-0.3,0.9-0.5,1.5-0.6
		c0.6-0.2,1.1-0.2,1.8-0.2c1.4,0,2.5,0.2,3.3,0.6c0.8,0.4,1.5,1,2,1.7c0.5,0.7,0.8,1.6,0.9,2.6c0.2,1,0.2,2.1,0.2,3.3v9.6h-5.4v-8.5
		c0-0.5,0-1-0.1-1.6c0-0.5-0.1-1-0.3-1.5c-0.2-0.5-0.5-0.8-0.8-1.1c-0.4-0.3-0.9-0.4-1.6-0.4c-0.7,0-1.3,0.1-1.7,0.4
		c-0.4,0.2-0.8,0.6-1,1c-0.2,0.4-0.4,0.9-0.4,1.4c-0.1,0.5-0.1,1.1-0.1,1.7v8.7H383L383,185.7L383,185.7z"/>
	<path class="st0" d="M415.4,190h-4.7v5.8c0,0.5,0,0.9,0.1,1.3c0,0.4,0.1,0.7,0.3,1c0.2,0.3,0.4,0.5,0.8,0.7
		c0.3,0.2,0.8,0.2,1.4,0.2c0.3,0,0.7,0,1.1-0.1c0.5-0.1,0.8-0.2,1.1-0.4v4.5c-0.6,0.2-1.2,0.4-1.9,0.4c-0.6,0.1-1.3,0.1-1.9,0.1
		c-0.9,0-1.7-0.1-2.5-0.3c-0.8-0.2-1.4-0.5-2-0.9s-1-1-1.3-1.6c-0.3-0.7-0.5-1.5-0.5-2.4V190h-3.4v-4.3h3.4v-5.2h5.4v5.2h4.7
		L415.4,190L415.4,190z"/>
	<path class="st0" d="M428,190.8c-0.8-1-1.8-1.5-3.1-1.5c-0.5,0-0.9,0.1-1.3,0.3c-0.4,0.2-0.6,0.6-0.6,1.1c0,0.4,0.2,0.7,0.7,0.9
		c0.4,0.2,1,0.4,1.7,0.5c0.7,0.2,1.4,0.3,2.2,0.5c0.8,0.2,1.5,0.5,2.2,0.8c0.7,0.4,1.2,0.9,1.7,1.6c0.4,0.7,0.7,1.5,0.7,2.6
		c0,1.1-0.3,2.1-0.7,2.8c-0.5,0.7-1.1,1.3-1.9,1.8c-0.8,0.4-1.6,0.8-2.6,0.9c-1,0.2-1.9,0.3-2.8,0.3c-1.2,0-2.4-0.2-3.7-0.5
		c-1.2-0.3-2.3-1-3.1-1.8l3.3-3.6c0.5,0.6,1.1,1.1,1.7,1.4c0.6,0.3,1.3,0.5,2.1,0.5c0.6,0,1.2-0.1,1.7-0.3c0.5-0.2,0.7-0.5,0.7-1
		c0-0.5-0.2-0.8-0.7-1c-0.4-0.2-1-0.4-1.7-0.6c-0.7-0.2-1.4-0.3-2.2-0.5c-0.8-0.2-1.5-0.4-2.2-0.8c-0.7-0.4-1.2-0.9-1.7-1.5
		c-0.4-0.7-0.7-1.5-0.7-2.6c0-1,0.2-1.9,0.6-2.6c0.4-0.7,1-1.4,1.7-1.8c0.7-0.5,1.5-0.8,2.3-1.1c0.9-0.2,1.8-0.3,2.7-0.3
		c1.1,0,2.3,0.2,3.5,0.5s2.2,0.9,3,1.8L428,190.8z"/>
	<polygon class="st0" points="159.4,18.1 229.2,18.1 229.2,39.3 182.3,39.3 182.3,60.5 225.7,60.5 225.7,81.7 182.3,81.7 
		182.3,122.3 159.4,122.3 	"/>
	<path class="st0" d="M245.7,18.1h38.7c5.4,0,10.5,0.5,15.3,1.5c4.8,1,9,2.7,12.6,5.1c3.6,2.4,6.4,5.6,8.5,9.7
		c2.1,4.1,3.2,9.2,3.2,15.4c0,6.1-1,11.2-2.9,15.3c-2,4.1-4.7,7.4-8.1,9.9c-3.4,2.4-7.5,4.2-12.2,5.2c-4.7,1-9.8,1.5-15.3,1.5h-16.8
		v40.6h-22.9L245.7,18.1L245.7,18.1z M268.7,62.2H284c2.1,0,4-0.2,6-0.6c1.9-0.4,3.6-1.1,5.2-2c1.5-0.9,2.7-2.2,3.7-3.8
		c0.9-1.6,1.4-3.7,1.4-6.1c0-2.7-0.6-4.8-1.8-6.4c-1.2-1.6-2.8-2.9-4.7-3.8c-1.9-0.9-4-1.4-6.4-1.7c-2.4-0.2-4.6-0.4-6.8-0.4h-11.8
		V62.2z"/>
	<polygon class="st0" points="364.3,67.8 329.9,18.1 358.7,18.1 380.9,54.6 402.2,18.1 430,18.1 396.3,67.4 434,122.3 405.2,122.3 
		379.7,80.3 355,122.3 327.8,122.3 	"/>
	<path class="st1" d="M58.9,102.7L44.3,83.1c-2.2-2.9-5.9-6.8-5.9-10.6c0-3.9,3.7-7.7,5.9-10.6l14.5-19.7c0.7-0.9,1.4-1.6,2-2.1
		V17.3C60.9-0.9,53.3-5.5,44,7.1L12.6,49.5C8,55.8,0,64.1,0,72.4C0,80.7,8,89,12.6,95.4L44,137.7c9.3,12.6,16.9,8.1,16.9-10.2v-22.7
		C60.2,104.4,59.6,103.7,58.9,102.7"/>
	<path class="st0" d="M120.4,49.5L89.1,7.1c-9.3-12.6-16.9-8-16.9,10.2V40c0.6,0.5,1.3,1.2,2,2.1l14.5,19.7
		c2.2,2.9,5.9,6.8,5.9,10.6c0,3.9-3.7,7.7-5.9,10.6l-14.5,19.7c-0.7,1-1.4,1.6-2,2.2v22.6c0,18.2,7.6,22.8,16.9,10.2l31.3-42.4
		C125.1,89,133,80.7,133,72.4C133,64.1,125.1,55.8,120.4,49.5"/>
</g>
</svg>
