<?xml version="1.0" encoding="utf-8"?>
<!-- Generator: Adobe Illustrator 23.0.2, SVG Export Plug-In . SVG Version: 6.00 Build 0)  -->
<svg version="1.1" id="Layer_1" xmlns="http://www.w3.org/2000/svg" xmlns:xlink="http://www.w3.org/1999/xlink" x="0px" y="0px"
	 viewBox="0 0 450 197" style="enable-background:new 0 0 450 197;" xml:space="preserve">
<style type="text/css">
	.st0{fill:#ED4C2F;}
	.st1{fill:#FFFFFF;}
</style>
<g>
	<path class="st0" d="M140.4,0L5.9,18c0,0-5.9,0.7-5.9,7.8s0,127.7,0,127.7s0.8,14.9,17.9,14.9s152.3,0,152.3,0s13.6-3.3,13.6-16.8
		s0-105.4,0-105.4s0.3-14.9-17.6-14.9s-146.9,0-146.9,0s-5.7-0.9-7.2-7c-0.4-2.4,0.5-2.6,3-2.6s134.9,0,134.9,0V7.2
		C150,7.2,149.5-0.6,140.4,0z"/>
	<g>
		<path class="st1" d="M94.6,146.7c-11.2,0-19.4-4.5-31.5-16.5c-2.2-2.1-2.2-5.6,0-7.8s5.6-2.2,7.8,0c12.7,12.6,18.7,15.7,28.8,13
			c5.9-1.6,11.2-9.1,11.5-17.8c0.2-6.7-4.5-11.1-14.1-13C80,101.1,69.8,94.5,67,85c-2.3-7.7,0.7-16.3,8.2-23.6l0.3-0.3
			c16.1-13.4,34.7-3.4,42.3,3.7c2.2,2.1,2.3,5.6,0.2,7.8c-2.1,2.2-5.6,2.3-7.8,0.2c-0.6-0.6-15.1-13.7-27.6-3.5
			c-4.3,4.2-6.2,8.9-5.2,12.4c1.5,5.2,9.3,9.4,21.8,11.9c21.3,4.3,23.1,18.4,22.9,24.2c-0.5,12.8-11.1,27-21.1,28.3
			C98.8,146.6,96.7,146.7,94.6,146.7z"/>
	</g>
	<g>
		<g>
			<path class="st0" d="M240.3,30.5c-2.2-1.3-4.7-2.5-7.8-3.4c-5.7-1.6-9.8-3.7-11.7-6.4c-1.7-2.3-1.7-5.3,0.3-9.1
				c1.2-2.3,4-3.8,7.7-4c3.8-0.3,8.5,0.6,13.4,3.1c1.2,0.6,2.7,0.1,3.4-1.1c0.6-1.2,0.1-2.7-1.1-3.4c-5.7-2.9-11.4-4-16.1-3.7
				c-5.4,0.4-9.7,2.8-11.8,6.6c-3.1,5.8-2.9,10.5,0,14.5c2.7,3.6,7.7,6.3,14.4,8.2c2.7,0.8,4.9,1.7,6.6,2.8c2.7,1.6,4.4,3.5,5.2,5.5
				c0.8,1.9,0.9,4,0.3,6c-0.3,1-0.8,2-1.3,2.9c0,0.1-0.1,0.3-0.3,0.5c-2,3-5.3,4.5-9.3,4.5c-4.4,0-9.8-1.7-15.5-5.2
				c-0.8-0.5-1.6-1-2.3-1.5c-1.2-0.8-2.7-0.4-3.5,0.7c-0.8,1.2-0.4,2.7,0.7,3.5c0.9,0.6,1.7,1.1,2.4,1.7c6.6,4,12.8,5.9,18.1,5.9
				c5.7,0,10.5-2.2,13.5-6.7c0.1-0.1,0.2-0.4,0.4-0.7c0.8-1.3,1.5-2.8,1.9-4.2c0.9-3.1,0.8-6.4-0.6-9.4
				C246.3,35.4,243.9,32.7,240.3,30.5z"/>
			<path class="st0" d="M278.8,25c-2.6-0.7-5.6-0.6-8.7,0.3c-2.9,0.9-5.9,2.5-8.7,4.9V5c0-1.3-1.1-2.4-2.5-2.4s-2.5,1-2.5,2.4v51.9
				c0,1.3,1.1,2.4,2.5,2.4s2.5-1,2.5-2.4V37.4c0,0,0.1-0.1,0.1-0.1c3.1-3.8,6.6-6.2,10-7.3c2.2-0.6,4.2-0.7,5.9-0.2
				c1.7,0.5,3,1.4,4,2.7c1,1.4,1.5,3.3,1.5,5.7v18.6c0,1.4,1.1,2.5,2.5,2.5s2.5-1.1,2.5-2.5V38.2c0-3.4-0.9-6.3-2.5-8.5
				C283.9,27.3,281.5,25.8,278.8,25z"/>
			<path class="st0" d="M312.7,24.5c-4.7,0-9.1,2-12.3,5.1s-5.1,7.5-5.1,12.3s2,9.1,5.1,12.3c3.1,3.1,7.5,5.1,12.3,5.1
				s9.1-2,12.3-5.1s5.1-7.5,5.1-12.3s-2-9.1-5.1-12.3C321.9,26.5,317.5,24.5,312.7,24.5z M321.5,50.7c-2.3,2.2-5.4,3.6-8.8,3.6
				s-6.6-1.4-8.8-3.6s-3.6-5.4-3.6-8.8c0-3.4,1.4-6.6,3.6-8.8c2.3-2.2,5.4-3.6,8.8-3.6s6.6,1.4,8.8,3.6c2.2,2.2,3.6,5.4,3.6,8.8
				C325.1,45.3,323.7,48.5,321.5,50.7z"/>
			<path class="st0" d="M355.1,24.5c-4.8,0-9.1,2-12.3,5.1c-0.2,0.1-0.3,0.3-0.6,0.6V27c0-1.4-1.1-2.5-2.5-2.5s-2.5,1.1-2.5,2.5
				v49.4c0,1.4,1.1,2.5,2.5,2.5s2.5-1.1,2.5-2.5V53.6c0.2,0.1,0.3,0.3,0.6,0.6c3.1,3.1,7.5,5.1,12.3,5.1s9.1-2,12.3-5.1
				s5.1-7.5,5.1-12.3s-2-9.1-5.1-12.3C364.2,26.5,359.9,24.5,355.1,24.5z M363.8,50.7c-2.3,2.2-5.4,3.6-8.8,3.6s-6.6-1.4-8.8-3.6
				c-2.2-2.2-3.6-5.4-3.6-8.8c0-3.4,1.4-6.6,3.6-8.8c2.3-2.2,5.4-3.6,8.8-3.6s6.6,1.4,8.8,3.6s3.6,5.4,3.6,8.8
				C367.4,45.3,366,48.5,363.8,50.7z"/>
			<path class="st0" d="M407.1,29.1c-2.9-2.9-6.8-4.6-11-4.6s-8.2,1.6-11,4.6c-6,6.5-5.9,13.5-3.6,20.5c1,3.2,3.3,5.5,5.9,7.2
				c2.6,1.7,5.7,2.5,9.3,2.4c3.5-0.1,7.4-0.9,11.6-2.7c1.3-0.6,1.9-2,1.3-3.3c-0.6-1.3-2-1.9-3.3-1.3c-3.6,1.5-6.9,2.3-9.7,2.3
				c-2.6,0-4.8-0.6-6.6-1.7c-1.7-1.1-3-2.7-3.9-4.9c-0.5-1.4-0.9-2.9-1.1-4.6h23.1c1.3,0,5.4,0.3,3.2-6.8
				C410.4,33.9,409.5,31.5,407.1,29.1z M385.2,38.1c0.6-2.1,1.8-3.9,3.3-5.4c2-2,4.7-3.1,7.5-3.1s5.5,1.2,7.5,3.1
				c1.5,1.5,2.6,3.3,3.4,5.4H385.2z"/>
			<path class="st0" d="M449.4,36.4c-0.8-2.5-1.8-4.9-4.2-7.3c-2.9-2.9-6.8-4.6-11-4.6s-8.2,1.6-11,4.6c-6,6.5-5.9,13.5-3.6,20.5
				c1,3.2,3.3,5.5,5.9,7.2c2.6,1.7,5.7,2.5,9.3,2.4c3.5-0.1,7.4-0.9,11.6-2.7c1.3-0.6,1.9-2,1.3-3.3s-2-1.9-3.3-1.3
				c-3.6,1.5-6.9,2.3-9.7,2.3c-2.6,0-4.8-0.6-6.6-1.7c-1.7-1.1-3-2.7-3.9-4.9c-0.5-1.4-0.9-2.9-1.1-4.6h23.1
				C447.4,43.2,451.5,43.4,449.4,36.4z M423.3,38.1c0.6-2.1,1.8-3.9,3.3-5.4c2-2,4.7-3.1,7.5-3.1s5.5,1.2,7.5,3.1
				c1.5,1.5,2.6,3.3,3.4,5.4H423.3z"/>
		</g>
	</g>
	<path class="st0" d="M248.7,71.7h-36.1v96.7h14.7v-28.9h23.1c7.7,0,15.4-1.9,22-5.8c7.9-4.7,15.8-12.9,15.8-27.2
		c0-13.4-6.9-21.9-14.3-27.1C266.5,74.3,257.6,71.7,248.7,71.7z M253.3,124.1h-26.1V86.2h23.5c0.4,0,0.8,0,1.2,0.1
		c3.6,0.4,19.2,3.1,19.2,19.9C271.2,124.1,253.3,124.1,253.3,124.1z"/>
	<path class="st0" d="M346.2,99.7v6.8c-5.9-4.8-13.5-7.7-21.8-7.7c-19.1,0-34.6,15.5-34.6,34.6c0,19.1,15.5,34.6,34.6,34.6
		c8.2,0,15.8-2.9,21.8-7.7v7.7h14.7V99.7L346.2,99.7L346.2,99.7z M324.4,155.1c-12,0-21.8-9.7-21.8-21.8c0-12,9.8-21.7,21.8-21.7
		c12,0,21.7,9.7,21.8,21.7v0.1C346.2,145.4,336.4,155.1,324.4,155.1z"/>
	<polygon class="st0" points="367.4,98.8 387.1,98.8 410.1,142.8 432.3,98.8 450,98.8 397.2,197 380,197 400.1,160.5 	"/>
</g>
</svg>
