<?xml version="1.0" encoding="utf-8"?>
<!-- Generator: Adobe Illustrator 23.0.2, SVG Export Plug-In . SVG Version: 6.00 Build 0)  -->
<svg version="1.1" id="Layer_1" xmlns="http://www.w3.org/2000/svg" xmlns:xlink="http://www.w3.org/1999/xlink" x="0px" y="0px"
	 viewBox="0 0 576 576" style="enable-background:new 0 0 576 576;" xml:space="preserve">
<style type="text/css">
	.st0{fill:#FFFFFF;}
	.st1{fill:#295DAA;}
	.st2{fill:#FDDB00;}
</style>
<g id="eWallet_RGB_1_">
	<g id="eWallet_8_">
		<g>
			<path class="st0" d="M445,0H131.1C58.8,0,0,58.8,0,131.1V445C0,517.3,58.8,576,131.1,576H445c72.3,0,131-58.8,131-131.1V131.1
				C576,58.8,517.3,0,445,0"/>
			<path class="st1" d="M446,22.4H130.1c-59.4,0-107.7,48.3-107.7,107.7V446c0,59.4,48.3,107.7,107.7,107.7H446
				c59.4,0,107.7-48.3,107.7-107.7V130.1C553.7,70.7,505.4,22.4,446,22.4"/>
			<g>
				<g>
					<path class="st0" d="M232.9,242.3h-27.5c-8.1,0-18.5,5.7-21.6,13.3l2.8-14.6H153L138,324.8h33.7l9.3-53h36.2
						c0,0-4.6,26.3-6.7,38c-2.1,11.8,5.9,14.6,9.9,14.6H238l11.5-65.1C248.5,249.9,242.2,242.3,232.9,242.3"/>
					<polygon class="st0" points="128.7,241 122.4,277 148,241 					"/>
					<g>
						<polygon class="st0" points="168.6,109.8 56,109.8 51.1,137.6 90.4,137.6 74.7,227 108.6,227 124.4,137.6 163.8,137.6 						
							"/>
						<path class="st0" d="M191.9,199.5l4.9-28h-30.2l-4.9,28H191.9 M144.4,227c-9.3,0-15.6-7.6-14-17l8.7-49
							c1.6-9.3,10.6-17,19.9-17h55.2c9.3,0,15.6,7.6,13.9,17l-8.6,49c-1.7,9.3-10.6,17-20,17H144.4z"/>
						<path class="st0" d="M366.6,199.5l5-28h43.7l4.9-27.5h-56.2c-9.3,0-18.4,7.6-20,16.9l-8.6,49c-1.6,9.3,4.6,17,14,17h54.7
							l4.8-27.4L366.6,199.5L366.6,199.5z"/>
						<path class="st0" d="M297.8,199.5h-37l9.8-55.5h-29.5L229.5,210c-1.6,9.3,4.6,17,14,17h28.7c9.3,0,17-5.6,23-12.7
							c0,0,3.3,9.6,8,11.8c4.8,2.2,19.1,1.7,19.1,1.7l14.8-83.6h-29.5L297.8,199.5z"/>
						<path class="st0" d="M510.4,144.5h-27.5c-8.1,0-15.9,5.7-18.9,13.3l7.9-45h-31L420.7,227h31l9.3-53h33.6c0,0-4.6,26.2-6.7,38
							c-2.1,11.7,5.9,14.6,9.8,14.6h15l11.5-65.1C526,152.1,519.7,144.5,510.4,144.5"/>
						<path class="st0" d="M399.9,352.6c-12.5,0-21-10.3-18.8-22.9l11.6-65.8c2.2-12.6,14.3-22.9,26.9-22.9h70.2
							c12.5,0,21,10.3,18.8,22.9L497,329.8c-2.2,12.5-14.3,22.9-26.9,22.9H399.9 M465.3,321.9l8.9-50h-49.8l-8.8,50H465.3z"/>
						<path class="st0" d="M331.7,321.9h-49.8l8.8-50h80.8l5.3-30.8H286c-12.6,0-24.6,10.3-26.9,22.9l-11.6,65.8
							c-2.2,12.5,6.2,22.9,18.8,22.9h70.3c12.6,0,24.7-10.3,26.9-22.9l7.1-40.4h-33.1L331.7,321.9z"/>
					</g>
				</g>
				<g>
					<g>
						<g>
							<g>
								<path class="st2" d="M262.7,392.1l-42.3,87.2h-26.9l-3.2-52.8l-25.6,52.8h-27l-5.2-87.2h19.1l3.3,68.4l32.9-68.4h19.4
									l3.3,68.4l32.9-68.4H262.7z"/>
								<path class="st2" d="M342.7,479.4H324l18.5-87.2h18.7L342.7,479.4z"/>
								<path class="st2" d="M373.4,479.4h-18.7l18.5-87.2h18.7L373.4,479.4z"/>
								<path class="st2" d="M502.3,479.4h-15c-7,0-11.8-0.7-14.6-2c-2.7-1.4-4.1-4.1-4.1-8.3c0-2.3,0.4-5.1,1.1-8.2l14.6-68.7h18.7
									l-4.7,21.7h18.1l-3.5,15.8h-17.7l-5.3,24.9c-0.5,2.5-0.8,4.2-0.8,5c0,1.7,0.6,2.8,1.7,3.3s3.5,0.8,7.1,0.8h7.9L502.3,479.4z
									"/>
							</g>
							<g>
								<path class="st2" d="M262.7,392.1l-42.3,87.2h-26.9l-3.2-52.8l-25.6,52.8h-27l-5.2-87.2h19.1l3.3,68.4l32.9-68.4h19.4
									l3.3,68.4l32.9-68.4H262.7z"/>
								<path class="st2" d="M342.7,479.4H324l18.5-87.2h18.7L342.7,479.4z"/>
								<path class="st2" d="M373.4,479.4h-18.7l18.5-87.2h18.7L373.4,479.4z"/>
								<path class="st2" d="M502.3,479.4h-15c-7,0-11.8-0.7-14.6-2c-2.7-1.4-4.1-4.1-4.1-8.3c0-2.3,0.4-5.1,1.1-8.2l14.6-68.7h18.7
									l-4.7,21.7h18.1l-3.5,15.8h-17.7l-5.3,24.9c-0.5,2.5-0.8,4.2-0.8,5c0,1.7,0.6,2.8,1.7,3.3s3.5,0.8,7.1,0.8h7.9L502.3,479.4z
									"/>
							</g>
							<g>
								<path class="st2" d="M262.7,392.1l-42.3,87.2h-26.9l-3.2-52.8l-25.6,52.8h-27l-5.2-87.2h19.1l3.3,68.4l32.9-68.4h19.4
									l3.3,68.4l32.9-68.4H262.7z"/>
								<path class="st2" d="M342.7,479.4H324l18.5-87.2h18.7L342.7,479.4z"/>
								<path class="st2" d="M373.4,479.4h-18.7l18.5-87.2h18.7L373.4,479.4z"/>
								<path class="st2" d="M502.3,479.4h-15c-7,0-11.8-0.7-14.6-2c-2.7-1.4-4.1-4.1-4.1-8.3c0-2.3,0.4-5.1,1.1-8.2l14.6-68.7h18.7
									l-4.7,21.7h18.1l-3.5,15.8h-17.7l-5.3,24.9c-0.5,2.5-0.8,4.2-0.8,5c0,1.7,0.6,2.8,1.7,3.3s3.5,0.8,7.1,0.8h7.9L502.3,479.4z
									"/>
							</g>
						</g>
						<path class="st2" d="M120.9,415.8c-2.7-1.4-7.6-2.1-14.6-2.1H79.6c-7.7,0-13.5,1.4-17.5,4.3s-6.7,7.7-8.1,14.3l-5.9,28.4
							c-0.4,1.7-0.7,3.3-0.9,4.6s-0.3,2.6-0.3,3.7c0,2,0.3,3.7,0.9,4.9c0.6,1.3,1.6,2.3,3,3.1c1.4,0.8,3.3,1.4,5.8,1.7
							c2.4,0.3,5.5,0.5,9.1,0.5H111l3.3-15.6H76.1c-3.5,0-5.9-0.3-7.1-0.8c-1.2-0.6-1.7-1.7-1.7-3.4c0-1.2,0.2-2.8,0.6-4.9l0,0h7.9
							l0,0h43.4l4.7-22.1c0.7-3.2,1.1-6,1.1-8.4C125,419.9,123.6,417.2,120.9,415.8z M104.5,438.7H83.7v0H71.3
							c0.4-2,0.9-3.6,1.4-4.8s1.3-2.1,2.1-2.8c0.9-0.7,2-1.1,3.3-1.3s3.1-0.3,5.1-0.3h14.9c4.9,0,7.3,1.5,7.3,4.5
							C105.4,434.3,105.1,435.9,104.5,438.7z"/>
						<path class="st2" d="M321.4,419c-0.7-1.3-1.7-2.4-3.2-3.1c-1.5-0.8-3.4-1.3-5.8-1.6c-2.4-0.3-5.3-0.5-8.9-0.5h-45.2l-3.3,15.8
							h38.2c3.5,0,5.9,0.2,7.1,0.8c1.2,0.5,1.8,1.6,1.8,3.3c0,0.8-0.2,2.5-0.8,5h-15v0h-14.6c-4.4,0-8,0.2-10.9,0.7
							c-2.9,0.5-5.3,1.3-7.2,2.6c-1.9,1.3-3.4,3.2-4.5,5.6s-2.1,5.6-3,9.6l-0.8,3.6c-0.7,3.1-1.1,5.9-1.1,8.2c0,2.1,0.3,3.9,1,5.2
							c0.7,1.3,1.7,2.4,3.2,3.1c1.5,0.8,3.4,1.3,5.8,1.6c2.4,0.3,5.3,0.5,8.9,0.5h48.2l10-47c0.7-3.1,1.1-5.9,1.1-8.2
							C322.4,422,322,420.3,321.4,419z M267.9,463.6c-2.7,0-4.1-1.2-4.1-3.5c0-1.4,0.5-2.7,1.7-3.9c1.1-1.2,2.6-1.8,4.4-1.8h20.2
							l0,0h7.9l-2,9.1L267.9,463.6L267.9,463.6z"/>
						<path class="st2" d="M461.8,415.8c-2.7-1.4-7.6-2.1-14.6-2.1h-26.7c-7.7,0-13.5,1.4-17.5,4.3s-6.7,7.7-8.1,14.3l-5.9,28.4
							c-0.4,1.7-0.7,3.3-0.9,4.6s-0.3,2.6-0.3,3.7c0,2,0.3,3.7,0.9,4.9c0.6,1.3,1.6,2.3,3,3.1c1.4,0.8,3.3,1.4,5.8,1.7
							c2.4,0.3,5.5,0.5,9.1,0.5h45.4l3.3-15.6H417c-3.5,0-5.9-0.3-7.1-0.8c-1.2-0.6-1.8-1.7-1.8-3.4c0-1.2,0.2-2.8,0.6-4.9l0,0h7.9
							l0,0h43.4l4.7-22.1c0.7-3.2,1.1-6,1.1-8.4C465.9,419.9,464.6,417.2,461.8,415.8z M445.4,438.7h-19.7v0h-13.6
							c0.4-2,0.9-3.6,1.4-4.8c0.5-1.2,1.3-2.1,2.1-2.8s2-1.1,3.3-1.3s3.1-0.3,5.1-0.3H439c4.9,0,7.3,1.5,7.3,4.5
							C446.3,434.3,446,435.9,445.4,438.7z"/>
					</g>
				</g>
			</g>
		</g>
	</g>
</g>
</svg>
