<?xml version="1.0" encoding="utf-8"?>
<!-- Generator: Adobe Illustrator 23.0.2, SVG Export Plug-In . SVG Version: 6.00 Build 0)  -->
<svg version="1.1" id="Layer_1" xmlns="http://www.w3.org/2000/svg" xmlns:xlink="http://www.w3.org/1999/xlink" x="0px" y="0px"
	 viewBox="0 0 800 512.8" style="enable-background:new 0 0 800 512.8;" xml:space="preserve">
<style type="text/css">
	.st0{fill:#FFFFFF;}
	.st1{fill:#D10429;}
	.st2{fill:#022E64;}
	.st3{fill:#076F74;}
	.st4{fill:#FEFEFE;}
</style>
<path class="st0" d="M41,0H759c22.7,0,41,18.4,41,41v430.8c0,22.7-18.4,41-41,41H41c-22.7,0-41-18.4-41-41V41C0,18.4,18.4,0,41,0z"
	/>
<path class="st1" d="M221.9,71.6h146c20.4,0,33.1,16.8,28.3,37.4l-68,294.9c-4.8,20.6-25.3,37.4-45.6,37.4h-146
	c-20.4,0-33.1-16.8-28.3-37.4l68-294.9c4.8-20.7,25.2-37.4,45.5-37.4L221.9,71.6L221.9,71.6z"/>
<path class="st2" d="M355.2,71.6h168c20.4,0,11.1,16.8,6.4,37.4l-68,294.9c-4.8,20.6-3.3,37.4-23.7,37.4h-168
	c-20.5,0-33.1-16.8-28.2-37.4l68-294.9c4.8-20.7,25.2-37.4,45.6-37.4L355.2,71.6L355.2,71.6z"/>
<path class="st3" d="M517.3,71.6h146.1c20.4,0,33.1,16.8,28.3,37.4l-68,294.9c-4.8,20.6-25.3,37.4-45.6,37.4H432
	c-20.5,0-33.1-16.8-28.3-37.4l68-294.9C476.5,88.3,496.9,71.6,517.3,71.6L517.3,71.6L517.3,71.6z"/>
<path class="st4" d="M492.8,349.5h13.8l3.9-13.4h-13.7L492.8,349.5z M503.9,312.7l-4.8,15.9c0,0,5.2-2.7,8.1-3.5
	c2.9-0.6,7.1-1.2,7.1-1.2l3.3-11h-13.8L503.9,312.7z M510.8,290l-4.6,15.2c0,0,5.1-2.4,8-3.1c2.9-0.8,7.1-1,7.1-1l3.3-11h-13.7
	L510.8,290L510.8,290z M541.2,290l-17.8,59.5h4.8l-3.7,12.3h-4.8l-1.2,3.8h-17l1.2-3.8h-34.4l3.4-11.4h3.5l18-60.4l3.6-12.2h17.3
	l-1.8,6.1c0,0,4.6-3.3,9-4.5c4.4-1.2,29.4-1.6,29.4-1.6l-3.7,12.1h-5.9L541.2,290L541.2,290z"/>
<path class="st4" d="M548.3,277.7h18.5l0.2,7c-0.1,1.2,0.8,1.7,3.1,1.7h3.7l-3.4,11.5h-10c-8.6,0.6-11.9-3.1-11.7-7.3l-0.3-12.8
	L548.3,277.7z M550.6,332.3H533l3-10.2h20.2l2.9-9.3h-19.8l3.4-11.5h55.2l-3.4,11.5h-18.6l-2.9,9.3h18.6l-3.1,10.2h-20.1l-3.6,4.3
	h8.2l2,12.9c0.2,1.3,0.2,2.1,0.6,2.7c0.4,0.4,2.9,0.6,4.2,0.6h2.4l-3.8,12.5h-6.3c-1,0-2.4-0.1-4.5-0.1c-1.9-0.2-3.2-1.3-4.5-1.9
	c-1.2-0.5-2.9-1.9-3.3-4.4L558,346l-9.1,12.6c-2.9,4-6.8,7.1-13.5,7.1h-12.7l3.4-11.1h4.9c1.4,0,2.7-0.5,3.6-1.1
	c1-0.4,1.8-0.9,2.7-2.2L550.6,332.3L550.6,332.3z M357.9,304.4h46.6l-3.4,11.3h-18.6l-2.9,9.5h19.1l-3.5,11.6h-19l-4.7,15.5
	c-0.5,1.7,4.6,1.9,6.4,1.9l9.6-1.3l-3.8,12.9h-21.4c-1.7,0-3-0.2-4.9-0.6c-1.8-0.4-2.7-1.3-3.4-2.5c-0.7-1.3-2-2.3-1.2-5l6.2-20.6
	h-10.6l3.5-11.8h10.6l2.9-9.5h-10.6l3.4-11.3L357.9,304.4L357.9,304.4z M390,284.1h19.1l-3.5,11.7h-26.1l-2.9,2.5
	c-1.3,1.2-1.6,0.8-3.2,1.6c-1.5,0.7-4.6,2.2-8.6,2.2h-8.4l3.4-11.3h2.5c2.1,0,3.6-0.2,4.4-0.6c0.8-0.5,1.8-1.7,2.8-3.6l4.8-8.8h19
	l-3.3,6.4L390,284.1L390,284.1z M426.1,303.3c0,0,5.2-4.8,14.1-6.3c2-0.4,14.8-0.2,14.8-0.2l1.9-6.4H430l-3.9,13.1L426.1,303.3
	L426.1,303.3z M451.3,308.3h-26.6l-1.6,5.5h23.1c2.8-0.3,3.3,0.1,3.5-0.1l1.7-5.4H451.3z M416.7,277.8H433l-2.3,8.3
	c0,0,5.1-4.2,8.7-5.7c3.6-1.3,11.7-2.6,11.7-2.6l26.3-0.1l-9,30.2c-1.5,5.1-3.3,8.5-4.4,10.1c-1,1.5-2.1,2.9-4.5,4.2
	c-2.2,1.2-4.2,1.9-6.2,2c-1.7,0.1-4.5,0.2-8.1,0.2h-25.4l-7.1,23.9c-0.6,2.4-1,3.5-0.5,4.2c0.3,0.5,1.3,1.2,2.4,1.2l11.1-1.1
	l-3.8,13.1h-12.5c-4,0-6.9-0.1-8.9-0.2c-1.9-0.2-3.9,0-5.3-1.1c-1.2-1.1-3-2.5-2.9-3.9c0.1-1.3,0.6-3.4,1.5-6.4L416.7,277.8z"/>
<path class="st4" d="M464,325.9l-1.5,7.3c-0.6,2.3-1.2,4-2.9,5.5c-1.8,1.5-3.8,3.1-8.7,3.1l-9,0.4l-0.1,8.1c-0.1,2.2,0.5,2,0.8,2.5
	c0.4,0.4,0.7,0.5,1.2,0.8l2.9-0.2l8.6-0.4l-3.6,12h-9.9c-6.9,0-12.1-0.2-13.7-1.5c-1.7-1.1-1.9-2.4-1.9-4.7l0.6-31.9h15.8l-0.2,6.5
	h3.8c1.3,0,2.2-0.1,2.8-0.4c0.5-0.3,0.8-0.9,1.1-1.6l1.6-5.1h12.4L464,325.9L464,325.9z M239,165.9c-0.5,2.6-10.7,49.8-10.7,49.8
	c-2.2,9.5-3.8,16.4-9.1,20.8c-3.1,2.6-6.7,3.8-10.8,3.8c-6.7,0-10.5-3.3-11.1-9.6l-0.1-2.1c0,0,2-12.8,2-12.9
	c0,0,10.6-43.1,12.5-48.8c0.1-0.3,0.1-0.5,0.1-0.6c-20.7,0.2-24.4,0-24.6-0.3c-0.1,0.4-0.6,3.1-0.6,3.1l-10.8,48.6l-1,4.1l-1.8,13.5
	c0,4,0.7,7.3,2.3,10c5,8.8,19.1,10.1,27.1,10.1c10.3,0,20-2.3,26.4-6.2c11.4-6.8,14.3-17.4,16.9-26.7l1.3-4.8
	c0,0,10.9-44.7,12.8-50.5c0.1-0.3,0.1-0.5,0.2-0.6c-15.1,0.1-19.4,0-20.9-0.3V165.9L239,165.9z M299.6,254.8
	c-7.3-0.1-10-0.1-18.6,0.3l-0.3-0.6c0.7-3.3,1.6-6.5,2.2-9.9l1.1-4.5c1.6-7,3.1-15.2,3.3-17.7c0.2-1.5,0.6-5.3-3.6-5.3
	c-1.8,0-3.6,0.9-5.5,1.7c-1.1,3.8-3.1,14.3-4.1,19c-2.1,10.1-2.2,11.3-3.2,16.2l-0.6,0.6c-7.5-0.1-10.2-0.1-18.9,0.3l-0.4-0.8
	c1.5-6,2.9-12,4.2-18c3.6-16.2,4.6-22.4,5.5-30.7l0.7-0.4c8.5-1.2,10.5-1.5,19.7-3.3l0.7,0.9l-1.4,5.1c1.6-1,3.1-1.9,4.7-2.7
	c4.4-2.1,9.1-2.8,11.8-2.8c4,0,8.5,1.2,10.3,5.9c1.7,4.2,0.6,9.3-1.7,19.5l-1.2,5.1c-2.3,11.4-2.8,13.4-4,21.1l-0.8,0.6L299.6,254.8
	L299.6,254.8z M329.4,254.8c-4.5,0-7.3-0.1-10.1,0c-2.8,0-5.4,0.2-9.6,0.3l-0.2-0.3l-0.2-0.4c1.2-4.3,1.7-5.8,2.3-7.3
	c0.5-1.5,1.1-3,2.1-7.4c1.3-5.7,2.1-9.6,2.7-13.2c0.6-3.3,1-6.2,1.4-9.5l0.3-0.2l0.3-0.3c4.5-0.6,7.2-1.1,10.1-1.5
	c2.9-0.4,5.8-1,10.4-1.8l0.2,0.4l0.1,0.4l-2.5,10.6c-0.8,3.5-1.7,7.1-2.4,10.6c-1.6,7.5-2.3,10.3-2.7,12.3c-0.4,1.9-0.5,2.9-1.2,6.8
	l-0.4,0.3l-0.4,0.3L329.4,254.8L329.4,254.8z M376.5,228.5c-0.3,1.9-2,9.1-4.2,12.1c-1.6,2.3-3.4,3.6-5.5,3.6c-0.6,0-4.2,0-4.4-5.5
	c0-2.7,0.5-5.5,1.2-8.5c1.9-8.7,4.2-15.9,10.1-15.9C378.2,214.4,378.5,219.8,376.5,228.5L376.5,228.5z M395.7,229.3
	c2.5-11.4,0.5-16.7-1.9-19.9c-3.8-4.9-10.6-6.5-17.6-6.5c-4.2,0-14.2,0.4-22.1,7.7c-5.6,5.3-8.3,12.4-9.8,19.3
	c-1.6,7-3.4,19.5,8.1,24.2c3.5,1.5,8.6,1.9,11.9,1.9c8.4,0,17-2.4,23.5-9.2c5-5.6,7.2-13.9,8.1-17.5L395.7,229.3L395.7,229.3z
	 M574.6,256.1c-8.9-0.1-11.5-0.1-19.6,0.3l-0.5-0.6c2.2-8.5,4.5-17,6.5-25.6c2.5-11.1,3.2-15.9,4-22.4l0.6-0.5
	c8.8-1.3,11.3-1.6,20.5-3.3l0.2,0.7c-1.7,7.1-3.3,14-5,21c-3.4,14.7-4.6,22.2-5.8,29.9l-0.8,0.6L574.6,256.1L574.6,256.1z"/>
<path class="st4" d="M561.8,229.9c-0.4,1.8-2.1,9.1-4.4,12.1c-1.5,2.1-5.1,3.5-7.1,3.5c-0.6,0-4.1,0-4.4-5.4c0-2.7,0.5-5.5,1.2-8.5
	c1.9-8.5,4.2-15.6,10.1-15.6c4.6,0,6.6,5.3,4.6,13.9L561.8,229.9L561.8,229.9z M579.3,230.8c2.5-11.4-7.9-1-9.4-4.7
	c-2.5-5.9-1-17.7-11.1-21.7c-3.9-1.6-13.2,0.4-21,7.7c-5.5,5.1-8.3,12.3-9.8,19.2c-1.6,6.9-3.4,19.5,8,23.9c3.6,1.6,6.9,2,10.2,1.8
	c11.5-0.6,20.2-18.1,26.6-25C577.7,226.6,578.6,234.1,579.3,230.8L579.3,230.8z M446,254.8c-7.3-0.1-9.9-0.1-18.5,0.3l-0.3-0.6
	c0.7-3.3,1.6-6.5,2.3-9.9l1-4.5c1.6-7,3.2-15.2,3.3-17.7c0.2-1.5,0.6-5.3-3.5-5.3c-1.8,0-3.7,0.9-5.5,1.7c-1,3.8-3.1,14.3-4.1,19
	c-2,10.1-2.2,11.3-3.2,16.2l-0.6,0.6c-7.5-0.1-10.2-0.1-18.9,0.3l-0.4-0.8c1.5-6,2.9-12,4.2-18c3.6-16.2,4.5-22.4,5.5-30.7l0.6-0.4
	c8.5-1.2,10.6-1.5,19.7-3.3l0.7,0.9l-1.3,5.1c1.5-1,3.1-1.9,4.6-2.7c4.4-2.1,9.1-2.8,11.8-2.8c4,0,8.4,1.2,10.3,5.9
	c1.7,4.2,0.5,9.3-1.8,19.5l-1.2,5.1c-2.4,11.4-2.8,13.4-4,21.1l-0.8,0.6L446,254.8L446,254.8z M509.6,166l-6.2,0.1
	c-15.9,0.2-22.3,0.1-24.8-0.2c-0.2,1.2-0.6,3.2-0.6,3.2s-5.7,26.6-5.7,26.7c0,0-13.6,56.6-14.2,59.3c13.9-0.2,19.5-0.2,22,0.1
	c0.5-2.7,3.7-18.4,3.8-18.4c0,0,2.8-11.6,2.9-12c0,0,0.8-1.2,1.7-1.7h1.3c12,0,25.5,0,36.1-7.8c7.2-5.4,12.1-13.4,14.3-23
	c0.5-2.4,1-5.1,1-8c0-3.8-0.7-7.4-2.9-10.3C532.8,166.3,522,166.1,509.6,166L509.6,166z M517.6,193.8c-1.3,5.9-5.1,10.9-10,13.3
	c-4,2-8.9,2.3-14,2.3h-3.3l0.2-1.3c0,0,6.1-26.6,6.1-26.5l0.2-1.4l0.1-1.1l2.4,0.2c0,0,12.5,1.1,12.7,1.1
	C516.9,182.3,519.1,187.3,517.6,193.8L517.6,193.8z M648.1,202.7l-0.7-0.9c-9,1.8-10.7,2.1-19,3.3l-0.6,0.6c0,0.1-0.1,0.2-0.1,0.4
	v-0.1c-6.2,14.5-6.1,11.4-11,22.7c0-0.5,0-0.9-0.1-1.4l-1.3-24.7l-0.7-0.9c-9.6,1.8-9.8,2.1-18.5,3.3l-0.6,0.6
	c-0.1,0.3-0.1,0.6-0.1,1l0.1,0.1c1.1,5.7,0.8,4.4,1.9,13.3c0.5,4.4,1.2,8.8,1.7,13.1c0.8,7.3,1.4,10.8,2.4,21.9
	c-5.9,9.9-7.3,13.6-13.1,22.3l0.3,0.9c8.6-0.3,10.5-0.3,16.9-0.3l1.4-1.6c4.8-10.4,41.3-73.6,41.3-73.6L648.1,202.7L648.1,202.7z
	 M337.6,209.8c4.9-3.4,5.5-8.1,1.4-10.6c-4.1-2.5-11.5-1.7-16.3,1.7c-4.9,3.3-5.4,8-1.3,10.6C325.4,213.9,332.7,213.2,337.6,209.8z"
	/>
<path class="st4" d="M605.5,277.8l-7.1,12.3c-2.2,4.2-6.5,7.4-13.1,7.4l-11.4-0.2l3.3-11.1h2.2c1.2,0,2-0.1,2.7-0.4
	c0.6-0.2,1-0.6,1.5-1.3l4.2-6.8h17.7L605.5,277.8L605.5,277.8z"/>
</svg>
