<?xml version="1.0" encoding="utf-8"?>
<!-- Generator: Adobe Illustrator 23.0.2, SVG Export Plug-In . SVG Version: 6.00 Build 0)  -->
<svg version="1.1" id="Layer_1" xmlns="http://www.w3.org/2000/svg" xmlns:xlink="http://www.w3.org/1999/xlink" x="0px" y="0px"
	 viewBox="0 0 450 226.3" style="enable-background:new 0 0 450 226.3;" xml:space="preserve">
<style type="text/css">
	.st0{fill:#FFFFFF;}
	.st1{fill:#FD0807;}
	.st2{fill:#F5FA16;}
</style>
<g>
	<rect class="st0" width="450" height="226.3"/>
	<g>
		<g>
			<g>
				<g>
					<path class="st1" d="M4.3,126.5v96.3h441.4v-96.3H4.3z M259.4,34.7c10.5,0,18.9,8.5,18.9,19c0,10.5-8.5,19-18.9,19
						c-2.3,0-4.5-0.4-6.5-1.2v29.9c2.1,0.3,4.3,0.5,6.5,0.5c26.6,0,48.2-21.6,48.2-48.2c0-26.6-21.6-48.2-48.2-48.2
						c-11.8,0-22.6,4.2-30.9,11.3c7.4,7.3,12.5,17.2,14.1,28.2C245.8,38.9,252.1,34.7,259.4,34.7z M190.7,101.9
						c4.9,0,9.7-0.8,14.2-2.1V66.2c-3.5,3.9-8.6,6.4-14.2,6.4c-10.5,0-19-8.5-19-19c0-10.5,8.5-19,19-19c10.5,0,18.9,8.5,18.9,19h0
						v48.2H239V53.7h0v0c0-26.6-21.6-48.2-48.3-48.2c-26.7,0-48.3,21.6-48.3,48.2C142.4,80.3,164.1,101.9,190.7,101.9z"/>
				</g>
			</g>
		</g>
		<g>
			<g>
				<path class="st2" d="M26.6,197.5l17.7-46h6.6l18.8,46h-6.9l-5.4-13.9H38.2l-5.1,13.9H26.6z M39.9,178.6h15.6l-4.8-12.7
					c-1.5-3.9-2.6-7.1-3.3-9.5c-0.6,3-1.4,5.9-2.5,8.8L39.9,178.6z"/>
				<path class="st2" d="M62.3,198.2l-5.4-13.9H38.7l-5.1,13.9h-7v-0.7l0.7,0.3l-0.7-0.3v0.7h-1.1l18.2-47.5h7.6l19.4,47.5H62.3
					L62.3,198.2z M57.9,182.8l5.4,13.9h5.3l-18.2-44.6h-5.6l-17.1,44.6h4.9l5.1-13.9H57.9L57.9,182.8z M39.9,179.3h-1.1l5.4-14.5
					c1.1-2.9,1.9-5.8,2.5-8.7l0,0l1.4-0.1c0.7,2.5,1.8,5.6,3.2,9.5l0,0l5.2,13.7L39.9,179.3L39.9,179.3z M54.5,177.8L50,166.1
					c-1-2.6-1.8-4.9-2.5-6.9l0,0c-0.5,2.1-1.2,4.1-1.9,6.2l0,0L41,177.8L54.5,177.8L54.5,177.8z"/>
			</g>
			<g>
				<path class="st2" d="M73.9,197.5v-33.3h5.1v4.7c1-1.6,2.4-3,4.2-3.9c1.7-1,3.7-1.5,5.9-1.5c2.5,0,4.5,0.5,6.1,1.5
					c1.6,1,2.7,2.5,3.3,4.3c2.6-3.9,6.1-5.8,10.3-5.8c3.3,0,5.9,0.9,7.6,2.8c1.8,1.8,2.7,4.7,2.7,8.5v22.9h-5.6v-21
					c0-2.3-0.2-3.9-0.6-4.9c-0.4-1-1-1.8-2-2.4c-1-0.6-2.1-0.9-3.4-0.9c-2.3,0-4.3,0.8-5.8,2.3c-1.5,1.6-2.3,4.1-2.3,7.5v19.4h-5.7
					v-21.7c0-2.5-0.5-4.4-1.4-5.7c-0.9-1.3-2.4-1.9-4.5-1.9c-1.6,0-3.1,0.4-4.4,1.3c-1.3,0.8-2.3,2.1-2.9,3.7
					c-0.6,1.6-0.9,3.9-0.9,7v17.3L73.9,197.5L73.9,197.5z"/>
				<path class="st2" d="M112.7,198.2v-21.7c0-2.2-0.2-3.8-0.5-4.6l0,0c-0.3-0.8-0.8-1.5-1.7-2l0,0c-0.8-0.5-1.8-0.8-3-0.8l0,0
					c-2.2,0-3.9,0.7-5.3,2.1l0,0c-1.3,1.4-2.1,3.6-2.1,7l0,0v20.1h-7.1v-22.4c0-2.4-0.5-4.2-1.2-5.2l0,0c-0.8-1-2-1.6-3.9-1.6l0,0
					c-1.5,0-2.8,0.4-4,1.1l0,0c-1.2,0.8-2.1,1.8-2.6,3.3l0,0c-0.6,1.5-0.9,3.7-0.9,6.7l0,0v18h-6.4v-0.7h0.7h-0.7v0.7h-0.7v-34.8
					h6.5v3.3c0.9-1,1.9-1.8,3.1-2.4l0,0c1.9-1.1,4-1.6,6.3-1.6l0,0c2.6,0,4.7,0.5,6.5,1.7l0,0c1.3,0.9,2.4,2,3.1,3.4l0,0
					c2.6-3.4,6.1-5.1,10.1-5.1l0,0c3.4,0,6.2,1,8.2,3l0,0c2,2,2.9,5.1,2.9,9l0,0v23.6L112.7,198.2L112.7,198.2z M107.5,167.5
					c1.4,0,2.7,0.3,3.8,1l0,0c1.1,0.7,1.9,1.6,2.3,2.8l0,0c0.4,1.2,0.6,2.8,0.6,5.1l0,0l0,20.3h4.2v-22.2c0-3.7-0.9-6.3-2.5-7.9l0,0
					c-1.6-1.7-3.9-2.5-7.1-2.5l0,0c-4,0-7.1,1.8-9.7,5.5l0,0l-0.8,1.2l-0.5-1.4c-0.6-1.7-1.6-3-3-3.9l0,0c-1.4-0.9-3.3-1.4-5.7-1.4
					l0,0c-2.1,0-3.9,0.5-5.6,1.4l0,0c-1.6,0.9-2.9,2.2-3.9,3.7l0,0l-1.4,2.1v-6.5h-3.6v31.9l4.2,0v-16.6c0-3.1,0.3-5.5,1-7.2l0,0
					c0.7-1.7,1.7-3.1,3.2-4l0,0c1.5-0.9,3.1-1.4,4.8-1.4l0,0c2.2,0,4,0.7,5.1,2.2l0,0c1.1,1.5,1.5,3.5,1.5,6.1l0,0v20.9h4.2v-18.6
					c0-3.5,0.8-6.2,2.5-8l0,0C102.8,168.4,105,167.5,107.5,167.5L107.5,167.5C107.5,167.5,107.5,167.5,107.5,167.5L107.5,167.5z"/>
			</g>
			<g>
				<path class="st2" d="M123.1,197.5l17.7-46h6.6l18.8,46h-6.9l-5.4-13.9h-19.2l-5.1,13.9H123.1z M136.4,178.6H152l-4.8-12.7
					c-1.5-3.9-2.6-7.1-3.3-9.5c-0.6,3-1.4,5.9-2.5,8.8L136.4,178.6z"/>
				<path class="st2" d="M158.7,198.2l-5.4-13.9h-18.2l-5.1,13.9h-7v-0.7l0.7,0.3l-0.7-0.3v0.7H122l18.2-47.5h7.6l19.4,47.5H158.7
					L158.7,198.2z M154.4,182.8l5.4,14h5.3l-18.2-44.6h-5.6l-17.1,44.6h4.9l5.1-14H154.4L154.4,182.8z M136.4,179.3h-1.1l5.4-14.5
					c1.1-2.9,1.9-5.8,2.5-8.7l0,0l1.4-0.1c0.7,2.5,1.8,5.6,3.2,9.5l0,0l5.2,13.7L136.4,179.3L136.4,179.3z M150.9,177.8l-4.4-11.7
					c-1-2.6-1.8-4.9-2.5-6.9l0,0c-0.5,2.1-1.2,4.1-1.9,6.2l0,0l-4.7,12.5L150.9,177.8L150.9,177.8z"/>
			</g>
			<g>
				<path class="st2" d="M168.1,187.5l5.6-0.9c0.3,2.2,1.2,4,2.6,5.1c1.4,1.2,3.4,1.8,6,1.8c2.6,0,4.5-0.5,5.8-1.6
					c1.3-1.1,1.9-2.3,1.9-3.7c0-1.3-0.6-2.3-1.7-3c-0.8-0.5-2.7-1.1-5.8-1.9c-4.1-1-7-2-8.6-2.7c-1.6-0.8-2.8-1.8-3.6-3.2
					c-0.8-1.3-1.2-2.8-1.2-4.5c0-1.5,0.3-2.9,1-4.1c0.7-1.3,1.6-2.3,2.8-3.2c0.9-0.6,2.1-1.2,3.6-1.7c1.5-0.4,3.1-0.7,4.9-0.7
					c2.6,0,4.9,0.4,6.9,1.1c2,0.8,3.4,1.8,4.4,3.1c0.9,1.3,1.6,3,1.9,5.2l-5.5,0.8c-0.2-1.7-1-3.1-2.2-4c-1.2-1-2.9-1.5-5.1-1.5
					c-2.6,0-4.4,0.4-5.6,1.3c-1.1,0.9-1.7,1.9-1.7,3c0,0.7,0.2,1.4,0.7,2c0.5,0.6,1.2,1.1,2.2,1.5c0.6,0.2,2.2,0.7,5,1.4
					c4,1.1,6.8,1.9,8.4,2.6c1.6,0.7,2.8,1.7,3.7,3c0.9,1.3,1.3,2.9,1.3,4.8c0,1.9-0.5,3.7-1.6,5.3c-1.1,1.7-2.7,3-4.8,3.9
					c-2.1,0.9-4.4,1.4-7,1.4c-4.3,0-7.6-0.9-9.9-2.7C170.2,193.7,168.7,191.1,168.1,187.5z"/>
				<path class="st2" d="M182.3,199c-4.4,0-7.9-0.9-10.4-2.9l0,0c-2.4-1.9-4-4.8-4.6-8.5l0,0l0.7-0.1l0.1,0.7l-0.1-0.7l-0.7,0.1
					l-0.1-0.7l7.1-1.1l0.1,0.7c0.3,2.1,1.1,3.6,2.4,4.7l0,0c1.3,1,3.1,1.6,5.5,1.6l0,0c2.5,0,4.3-0.5,5.3-1.4l0,0
					c1.1-1,1.6-2,1.6-3.2l0,0c0-1.1-0.4-1.8-1.3-2.4l0,0c-0.6-0.4-2.5-1.1-5.6-1.8l0,0c-4.2-1.1-7.1-2-8.8-2.8l0,0
					c-1.7-0.8-3-2-3.9-3.4l0,0c-0.9-1.5-1.4-3.1-1.3-4.9l0,0c0-1.6,0.4-3.1,1.1-4.5l0,0c0.7-1.4,1.7-2.5,3-3.4l0,0
					c1-0.7,2.2-1.3,3.8-1.8l0,0c1.6-0.5,3.3-0.7,5.1-0.7l0,0c2.7,0,5.1,0.4,7.2,1.2l0,0c2.1,0.8,3.7,1.9,4.7,3.3l0,0
					c1,1.4,1.7,3.2,2.1,5.5l0,0l0.1,0.7l-7,1l-0.1-0.7c-0.2-1.6-0.9-2.7-1.9-3.6l0,0c-1-0.8-2.5-1.3-4.6-1.3l0,0
					c-2.5,0-4.2,0.4-5.1,1.1l0,0c-1,0.8-1.4,1.5-1.4,2.4l0,0c0,0.6,0.2,1.1,0.5,1.5l0,0c0.4,0.5,1,0.9,1.8,1.3l0,0
					c0.5,0.2,2.2,0.7,4.9,1.4l0,0c4,1.1,6.8,2,8.5,2.7l0,0c1.7,0.7,3.1,1.8,4,3.2l0,0c1,1.4,1.5,3.2,1.5,5.3l0,0
					c0,2-0.6,3.9-1.8,5.7l0,0c-1.2,1.8-2.9,3.2-5.1,4.1l0,0C187.5,198.5,185,199,182.3,199L182.3,199C182.3,199,182.3,199,182.3,199
					L182.3,199z M172.9,194.9c2.1,1.7,5.2,2.5,9.5,2.5l0,0c2.5,0,4.8-0.4,6.7-1.3l0,0c2-0.9,3.4-2.1,4.4-3.6l0,0
					c1-1.6,1.5-3.2,1.5-4.9l0,0c0-1.8-0.4-3.3-1.2-4.4l0,0c-0.8-1.2-1.9-2.1-3.4-2.7l0,0c-1.5-0.6-4.3-1.5-8.3-2.6l0,0
					c-2.8-0.8-4.4-1.2-5.1-1.5l0,0c-1.1-0.4-1.9-1-2.5-1.7l0,0c-0.5-0.7-0.8-1.5-0.8-2.4l0,0c0-1.4,0.7-2.7,1.9-3.6l0,0
					c1.3-1,3.3-1.4,6-1.4l0,0c2.3,0,4.2,0.5,5.6,1.6l0,0c1.2,0.9,2,2.2,2.3,3.8l0,0l4.1-0.6c-0.4-1.7-0.9-3.1-1.7-4.1l0,0
					c-0.8-1.1-2.2-2.1-4-2.8l0,0c-1.9-0.7-4.1-1.1-6.6-1.1l0,0c-1.7,0-3.2,0.2-4.7,0.6l0,0c-1.5,0.4-2.6,1-3.4,1.5l0,0
					c-1.1,0.8-1.9,1.7-2.6,2.9l0,0c-0.6,1.2-0.9,2.4-0.9,3.8l0,0c0,1.5,0.4,2.8,1.1,4.1l0,0c0.7,1.2,1.8,2.2,3.3,2.9l0,0
					c1.5,0.7,4.4,1.6,8.5,2.7l0,0c3.1,0.8,5,1.4,6,2l0,0c1.3,0.8,2,2.1,2,3.6l0,0c0,1.6-0.8,3.1-2.1,4.3l0,0
					c-1.4,1.2-3.6,1.8-6.2,1.8l0,0c-2.7,0-4.9-0.6-6.5-2l0,0c-1.4-1.2-2.3-2.8-2.8-4.9l0,0l-4.1,0.6
					C169.6,191.2,170.9,193.4,172.9,194.9L172.9,194.9z"/>
			</g>
			<g>
				<path class="st2" d="M200.2,187.5l5.6-0.9c0.3,2.2,1.2,4,2.6,5.1c1.4,1.2,3.4,1.8,6,1.8c2.6,0,4.5-0.5,5.8-1.6
					c1.3-1.1,1.9-2.3,1.9-3.7c0-1.3-0.6-2.3-1.7-3c-0.8-0.5-2.7-1.1-5.8-1.9c-4.1-1-7-2-8.6-2.7c-1.6-0.8-2.8-1.8-3.6-3.2
					c-0.8-1.3-1.2-2.8-1.2-4.5c0-1.5,0.3-2.9,1-4.1c0.7-1.3,1.6-2.3,2.8-3.2c0.9-0.6,2.1-1.2,3.6-1.7c1.5-0.4,3.1-0.7,4.9-0.7
					c2.6,0,4.9,0.4,6.9,1.1c2,0.8,3.4,1.8,4.4,3.1c0.9,1.3,1.6,3,1.9,5.2l-5.5,0.8c-0.3-1.7-1-3.1-2.2-4c-1.2-1-2.9-1.5-5.1-1.5
					c-2.6,0-4.4,0.4-5.6,1.3c-1.1,0.9-1.7,1.9-1.7,3c0,0.7,0.2,1.4,0.7,2c0.5,0.6,1.2,1.1,2.2,1.5c0.6,0.2,2.2,0.7,5,1.4
					c4,1.1,6.8,1.9,8.4,2.6c1.6,0.7,2.8,1.7,3.7,3c0.9,1.3,1.4,2.9,1.4,4.8c0,1.9-0.6,3.7-1.7,5.3c-1.1,1.7-2.7,3-4.8,3.9
					c-2.1,0.9-4.4,1.4-7,1.4c-4.3,0-7.6-0.9-9.9-2.7C202.3,193.7,200.9,191.1,200.2,187.5z"/>
				<path class="st2" d="M204.1,196.1c-2.4-1.9-4-4.8-4.6-8.5l0,0l0.7-0.1l0.1,0.7l-0.1-0.7l-0.7,0.1l-0.1-0.7l7.1-1.1l0.1,0.7
					c0.3,2.1,1.1,3.6,2.4,4.7l0,0c1.3,1,3.1,1.6,5.5,1.6l0,0c2.5,0,4.3-0.5,5.3-1.4l0,0c1.1-1,1.6-2,1.6-3.2l0,0
					c0-1.1-0.4-1.8-1.3-2.4l0,0c-0.6-0.4-2.5-1.1-5.6-1.8l0,0c-4.2-1.1-7.1-2-8.8-2.8l0,0c-1.7-0.8-3-2-4-3.5l0,0
					c-0.9-1.5-1.3-3.1-1.3-4.9l0,0c0-1.6,0.4-3.1,1.1-4.5l0,0c0.7-1.4,1.7-2.5,3-3.4l0,0c1-0.7,2.3-1.3,3.8-1.8l0,0
					c1.6-0.5,3.3-0.7,5.1-0.7l0,0c2.7,0,5.1,0.4,7.2,1.2l0,0c2.1,0.8,3.7,1.9,4.7,3.3l0,0c1,1.4,1.7,3.2,2.1,5.5l0,0l0.1,0.7l-7,1
					l-0.1-0.7c-0.2-1.6-0.9-2.7-1.9-3.6l0,0c-1-0.8-2.6-1.3-4.6-1.3l0,0c-2.5,0-4.2,0.4-5.1,1.1l0,0c-1,0.8-1.4,1.5-1.4,2.4l0,0
					c0,0.6,0.2,1.1,0.5,1.5l0,0c0.4,0.5,1,0.9,1.8,1.3l0,0c0.5,0.2,2.2,0.7,4.9,1.4l0,0c4,1.1,6.8,2,8.5,2.7l0,0
					c1.7,0.7,3.1,1.8,4,3.2l0,0c1,1.4,1.5,3.2,1.5,5.3l0,0c0,2-0.6,4-1.8,5.7l0,0c-1.2,1.8-2.9,3.2-5.1,4.1l0,0
					c-2.2,1-4.6,1.4-7.3,1.4l0,0C210.1,199,206.6,198,204.1,196.1L204.1,196.1z M205,194.9c2.1,1.7,5.2,2.5,9.5,2.5l0,0
					c2.5,0,4.8-0.4,6.7-1.3l0,0c2-0.9,3.4-2.1,4.4-3.6l0,0c1-1.6,1.5-3.2,1.5-4.9l0,0c0-1.8-0.4-3.3-1.2-4.4l0,0
					c-0.8-1.2-1.9-2.1-3.4-2.7l0,0c-1.5-0.6-4.3-1.5-8.3-2.6l0,0c-2.8-0.8-4.4-1.2-5.1-1.5l0,0c-1.1-0.4-1.9-1-2.5-1.7l0,0
					c-0.6-0.7-0.9-1.5-0.8-2.4l0,0c0-1.4,0.7-2.7,1.9-3.6l0,0c1.3-1,3.3-1.4,6-1.4l0,0c2.3,0,4.2,0.5,5.6,1.6l0,0
					c1.2,0.9,2,2.2,2.3,3.8l0,0l4.1-0.6c-0.4-1.7-0.9-3.1-1.7-4.1l0,0c-0.8-1.2-2.2-2.1-4.1-2.8l0,0c-1.9-0.7-4.1-1.1-6.6-1.1l0,0
					c-1.7,0-3.2,0.2-4.7,0.6l0,0c-1.5,0.4-2.6,1-3.4,1.5l0,0c-1.1,0.8-1.9,1.7-2.6,2.9l0,0c-0.6,1.2-0.9,2.4-0.9,3.8l0,0
					c0,1.5,0.4,2.9,1.1,4.1l0,0c0.7,1.2,1.8,2.2,3.3,2.9l0,0c1.5,0.7,4.4,1.6,8.5,2.7l0,0c3.1,0.8,5,1.4,6,2l0,0
					c1.3,0.8,2,2.1,2,3.6l0,0c0,1.6-0.8,3.1-2.1,4.3l0,0c-1.5,1.2-3.6,1.8-6.3,1.8l0,0c-2.7,0-4.9-0.6-6.5-2l0,0
					c-1.4-1.2-2.3-2.8-2.8-4.9l0,0l-4.1,0.6C201.8,191.2,203.1,193.4,205,194.9L205,194.9z"/>
			</g>
			<g>
				<path class="st2" d="M256.5,197.5v-4.9c-2.6,3.8-6.1,5.7-10.6,5.7c-2,0-3.8-0.4-5.5-1.1c-1.7-0.8-3-1.7-3.8-2.8
					c-0.8-1.1-1.4-2.5-1.7-4.2c-0.2-1.1-0.3-2.9-0.3-5.3v-20.7h5.7v18.5c0,3,0.1,4.9,0.3,6c0.4,1.5,1.1,2.7,2.3,3.5
					c1.2,0.8,2.6,1.3,4.3,1.3s3.3-0.4,4.8-1.3c1.5-0.9,2.5-2.1,3.2-3.5c0.6-1.5,0.9-3.7,0.9-6.5v-17.9h5.7v33.3L256.5,197.5
					L256.5,197.5z"/>
				<path class="st2" d="M245.9,199c-2.1,0-4-0.4-5.8-1.2l0,0c-1.8-0.8-3.2-1.8-4.1-3.1l0,0c-0.9-1.2-1.5-2.7-1.9-4.5l0,0
					c-0.2-1.2-0.4-3-0.4-5.4l0,0v-21.4h7.1v19.2c0,2.9,0.1,4.9,0.3,5.8l0,0c0.3,1.3,1,2.3,2,3.1l0,0c1,0.7,2.3,1.1,3.8,1.1l0,0
					c1.6,0,3-0.4,4.4-1.2l0,0c1.4-0.8,2.3-1.9,2.9-3.2l0,0c0.6-1.3,0.9-3.4,0.9-6.2l0,0v-18.6h7.1v34.8h-5.8v-0.7h0.7h-0.7v0.7h-0.7
					v-3.5C253.2,197.5,249.9,199,245.9,199L245.9,199C246,199,245.9,199,245.9,199L245.9,199z M235.3,184.8c0,2.4,0.1,4.1,0.3,5.1
					l0,0c0.3,1.6,0.9,2.9,1.6,3.9l0,0c0.7,1,1.9,1.9,3.5,2.6l0,0c1.6,0.7,3.3,1.1,5.2,1.1l0,0c4.2,0,7.5-1.7,10-5.3l0,0l1.3-2v6.5
					h3.6v-31.9h-4.2V182c0,2.9-0.3,5.1-1,6.8l0,0c-0.7,1.7-1.9,3-3.5,3.9l0,0c-1.6,0.9-3.3,1.4-5.1,1.4l0,0c-1.8,0-3.4-0.5-4.7-1.4
					l0,0c-1.3-0.9-2.2-2.3-2.5-3.9l0,0c-0.3-1.2-0.4-3.1-0.4-6.1l0,0v-17.8h-4.2L235.3,184.8L235.3,184.8z"/>
			</g>
			<g>
				<path class="st2" d="M270.3,197.5v-33.3h5.1v5c1.3-2.4,2.5-3.9,3.6-4.7c1.1-0.8,2.3-1.1,3.6-1.1c1.9,0,3.8,0.6,5.8,1.8l-1.9,5.2
					c-1.4-0.8-2.8-1.2-4.1-1.2c-1.2,0-2.3,0.4-3.3,1.1c-1,0.7-1.7,1.8-2.1,3.1c-0.6,2-0.9,4.2-0.9,6.6v17.5L270.3,197.5L270.3,197.5
					z"/>
				<path class="st2" d="M270.3,198.2v-0.7h0.7h-0.7V198.2h-0.7v-34.8h6.6v3.2c0.8-1.2,1.6-2.1,2.4-2.7l0,0c1.2-0.8,2.6-1.3,4-1.3
					l0,0c2.1,0,4.1,0.7,6.2,1.9l0,0l0.5,0.3l-2.5,6.6l-0.8-0.4c-1.3-0.8-2.5-1.1-3.8-1.1l0,0c-1.1,0-2,0.3-2.9,1l0,0
					c-0.9,0.6-1.5,1.5-1.8,2.7l0,0c-0.6,1.9-0.9,4.1-0.9,6.4l0,0v18.2L270.3,198.2L270.3,198.2z M275.3,196.7V180
					c0-2.5,0.3-4.7,1-6.8l0,0c0.5-1.4,1.2-2.6,2.4-3.5l0,0c1.1-0.8,2.4-1.3,3.8-1.3l0,0c1.3,0,2.5,0.3,3.7,0.9l0,0l1.4-3.9
					c-1.7-1-3.3-1.4-4.9-1.4l0,0c-1.2,0-2.2,0.3-3.2,1l0,0c-0.9,0.6-2.1,2.1-3.4,4.4l0,0l-1.4-0.3v-4.3h-3.6v31.9L275.3,196.7
					L275.3,196.7z"/>
			</g>
			<g>
				<path class="st2" d="M313.6,193.4c-2.1,1.8-4.1,3-6,3.8c-1.9,0.7-4,1.1-6.2,1.1c-3.7,0-6.5-0.9-8.4-2.7c-2-1.8-3-4.1-3-6.9
					c0-1.6,0.4-3.1,1.1-4.5c0.7-1.4,1.7-2.4,2.9-3.2c1.2-0.8,2.6-1.4,4.1-1.9c1.1-0.3,2.8-0.6,5-0.8c4.6-0.5,7.9-1.2,10.1-1.9
					c0-0.8,0-1.3,0-1.5c0-2.3-0.5-3.9-1.6-4.9c-1.5-1.3-3.6-1.9-6.4-1.9c-2.7,0-4.6,0.5-5.9,1.4c-1.3,0.9-2.2,2.6-2.8,4.9l-5.5-0.8
					c0.5-2.4,1.3-4.3,2.5-5.7c1.2-1.5,2.8-2.6,5-3.4c2.2-0.8,4.7-1.2,7.6-1.2c2.8,0,5.2,0.3,6.9,1c1.8,0.7,3.1,1.5,3.9,2.5
					c0.8,1,1.4,2.3,1.8,3.8c0.2,1,0.3,2.7,0.3,5.2v7.5c0,5.3,0.1,8.6,0.4,10c0.2,1.4,0.7,2.7,1.4,4h-5.9
					C314.1,196.3,313.8,194.9,313.6,193.4z M313.1,180.7c-2.1,0.8-5.1,1.5-9.2,2.1c-2.3,0.3-4,0.7-4.9,1.1c-1,0.4-1.7,1-2.2,1.8
					c-0.5,0.8-0.8,1.7-0.8,2.7c0,1.5,0.6,2.8,1.7,3.8c1.1,1,2.8,1.5,5,1.5c2.2,0,4.1-0.5,5.8-1.4c1.7-0.9,2.9-2.3,3.7-3.9
					c0.6-1.3,0.9-3.2,0.9-5.6L313.1,180.7L313.1,180.7z"/>
				<path class="st2" d="M301.3,199c-3.8,0-6.8-0.9-8.9-2.9l0,0c-2.1-1.9-3.2-4.4-3.2-7.4l0,0c0-1.7,0.4-3.4,1.2-4.8l0,0
					c0.8-1.4,1.8-2.6,3.2-3.5l0,0c1.3-0.9,2.7-1.5,4.3-2l0,0c1.2-0.3,2.9-0.6,5.1-0.9l0,0c4.2-0.5,7.4-1.1,9.4-1.8l0,0
					c0-0.5,0-0.8,0-0.9l0,0c0-2.2-0.5-3.6-1.3-4.3l0,0c-1.3-1.1-3.2-1.7-6-1.7l0,0c-2.6,0-4.4,0.5-5.5,1.3l0,0
					c-1.1,0.8-2,2.3-2.5,4.5l0,0l-0.2,0.6l-7-1l0.2-0.8c0.5-2.4,1.4-4.5,2.6-6l0,0c1.3-1.6,3-2.8,5.3-3.6l0,0
					c2.3-0.8,4.9-1.2,7.8-1.2l0,0c2.9,0,5.3,0.3,7.2,1.1l0,0c1.9,0.7,3.3,1.6,4.2,2.7l0,0c0.9,1.1,1.6,2.5,1.9,4.2l0,0
					c0.2,1.1,0.3,2.8,0.3,5.4l0,0v7.5c0,5.2,0.1,8.6,0.4,9.9l0,0c0.2,1.3,0.7,2.6,1.3,3.8l0,0l0.6,1.1h-7.6l-0.2-0.4
					c-0.5-0.9-0.8-1.9-1-3.1l0,0c-1.8,1.4-3.5,2.4-5.2,3.1l0,0C305.8,198.6,303.6,199,301.3,199L301.3,199
					C301.3,199,301.3,199,301.3,199L301.3,199z M312,169.4c1.3,1.2,1.8,3,1.8,5.4l0,0c0,0.2,0,0.7,0,1.5l0,0l0,0.5l-0.5,0.2
					c-2.3,0.8-5.6,1.4-10.2,2l0,0c-2.2,0.3-3.9,0.6-4.9,0.8l0,0c-1.4,0.4-2.7,1-3.9,1.8l0,0c-1.1,0.7-2,1.7-2.7,3l0,0
					c-0.7,1.2-1,2.6-1,4.1l0,0c0,2.6,0.9,4.6,2.7,6.3l0,0c1.8,1.6,4.4,2.5,7.9,2.5l0,0c2.1,0,4.1-0.4,6-1.1l0,0
					c1.8-0.7,3.8-1.9,5.8-3.6l0,0l1.1-0.9l0.2,1.4c0.1,1.3,0.4,2.5,0.9,3.5l0,0h4.2c-0.5-1-0.8-2.1-1-3.1l0,0
					c-0.3-1.5-0.4-4.8-0.4-10.1l0,0V176c0-2.5-0.1-4.2-0.3-5.1l0,0c-0.3-1.4-0.9-2.6-1.6-3.5l0,0c-0.7-0.9-1.9-1.7-3.6-2.3l0,0
					c-1.7-0.6-3.9-1-6.7-1l0,0c-2.8,0-5.2,0.4-7.3,1.1l0,0c-2.1,0.8-3.6,1.8-4.7,3.1l0,0c-0.9,1.2-1.7,2.7-2.2,4.7l0,0l4.1,0.6
					c0.6-2.1,1.6-3.7,2.9-4.7l0,0c1.5-1.1,3.6-1.5,6.3-1.5l0,0C308.1,167.3,310.4,168,312,169.4L312,169.4z M312.9,193.4l0.7-0.1
					L312.9,193.4L312.9,193.4z M297.2,192.8c-1.3-1.1-2-2.6-2-4.3l0,0c0-1.1,0.3-2.2,0.9-3.1l0,0c0.6-0.9,1.5-1.6,2.6-2.1l0,0
					c1.1-0.5,2.8-0.8,5.1-1.2l0,0c4.1-0.6,7.1-1.3,9.1-2.1l0,0l1-0.4v3.2c0,2.6-0.3,4.5-1,6l0,0c-0.9,1.8-2.2,3.2-4,4.2l0,0
					c-1.8,1-3.9,1.5-6.2,1.5l0,0C300.4,194.5,298.5,194,297.2,192.8L297.2,192.8z M304,183.6c-2.3,0.3-3.9,0.7-4.7,1.1l0,0
					c-0.9,0.4-1.5,0.9-1.9,1.6l0,0c-0.5,0.7-0.7,1.4-0.7,2.3l0,0c0,1.3,0.5,2.3,1.5,3.2l0,0c1,0.8,2.4,1.3,4.5,1.3l0,0
					c2.1,0,3.9-0.5,5.4-1.3l0,0c1.6-0.9,2.7-2.1,3.4-3.6l0,0c0.5-1.1,0.8-2.9,0.8-5.3l0,0v-1C310.3,182.5,307.5,183.1,304,183.6
					L304,183.6z"/>
			</g>
			<g>
				<path class="st2" d="M327.6,197.5v-33.3h5.1v4.7c2.5-3.7,6-5.5,10.6-5.5c2,0,3.9,0.4,5.5,1.1c1.7,0.7,2.9,1.7,3.8,2.8
					c0.8,1.2,1.4,2.6,1.8,4.2c0.2,1,0.3,2.9,0.3,5.5v20.5H349v-20.3c0-2.3-0.2-4-0.7-5.2c-0.4-1.1-1.2-2.1-2.3-2.7
					c-1.1-0.7-2.4-1-3.9-1c-2.4,0-4.5,0.8-6.2,2.3c-1.7,1.5-2.6,4.4-2.6,8.7v18.2L327.6,197.5L327.6,197.5z"/>
				<path class="st2" d="M348.3,198.2v-21c0-2.3-0.2-3.9-0.6-4.9l0,0c-0.4-1-1-1.8-2-2.4l0,0c-1-0.6-2.2-0.9-3.6-0.9l0,0
					c-2.3,0-4.1,0.7-5.7,2.1l0,0c-1.5,1.3-2.4,4-2.4,8.1l0,0v18.9h-6.4v-0.7h0.7h-0.7v0.7h-0.7v-34.8h6.6v3.3
					c2.5-2.7,5.8-4.1,9.9-4.1l0,0c2.1,0,4,0.4,5.8,1.1l0,0c1.8,0.8,3.2,1.8,4.1,3.1l0,0c0.9,1.3,1.5,2.8,1.9,4.5l0,0
					c0.2,1.2,0.3,3,0.3,5.6l0,0v21.2H348.3L348.3,198.2z M342.1,167.5c1.6,0,3.1,0.4,4.3,1.1l0,0c1.2,0.8,2.1,1.8,2.6,3.1l0,0
					c0.5,1.3,0.7,3.1,0.7,5.4l0,0v19.5h4.2V177c0-2.6-0.1-4.4-0.3-5.3l0,0c-0.3-1.5-0.9-2.8-1.6-3.9l0,0c-0.7-1-1.9-1.9-3.5-2.6l0,0
					c-1.6-0.7-3.3-1-5.2-1l0,0c-4.4,0-7.7,1.7-10,5.2l0,0l-1.3,2v-6.4h-3.6v31.9h4.2v-17.5c0-4.4,0.9-7.5,2.9-9.3l0,0
					C337.2,168.4,339.5,167.5,342.1,167.5L342.1,167.5C342.1,167.5,342.1,167.5,342.1,167.5L342.1,167.5L342.1,167.5z"/>
			</g>
			<g>
				<path class="st2" d="M385.1,185.3l5.6,0.7c-0.6,3.8-2.2,6.8-4.7,9c-2.5,2.2-5.6,3.2-9.2,3.2c-4.6,0-8.2-1.5-11-4.5
					c-2.8-3-4.2-7.3-4.2-12.8c0-3.6,0.6-6.7,1.8-9.5c1.2-2.7,3-4.7,5.5-6.1c2.4-1.4,5.1-2,8-2c3.6,0,6.6,0.9,8.9,2.8
					c2.3,1.8,3.8,4.4,4.4,7.8l-5.5,0.9c-0.5-2.2-1.4-3.9-2.8-5.1c-1.3-1.1-2.9-1.7-4.8-1.7c-2.8,0-5.2,1-6.9,3.1
					c-1.8,2-2.7,5.3-2.7,9.7c0,4.5,0.9,7.7,2.6,9.8s4,3,6.7,3c2.2,0,4.1-0.7,5.6-2C383.8,190.2,384.7,188.1,385.1,185.3z"/>
				<path class="st2" d="M365.2,194.3c-2.9-3.2-4.4-7.6-4.4-13.3l0,0c0-3.7,0.6-6.9,1.8-9.7l0,0c1.2-2.8,3.2-5,5.8-6.4l0,0
					c2.5-1.4,5.3-2.1,8.3-2.1l0,0c3.7,0,6.9,1,9.3,2.9l0,0c2.5,2,4,4.7,4.7,8.2l0,0l0.1,0.8l-6.9,1.1l-0.2-0.7
					c-0.5-2.1-1.4-3.7-2.5-4.7l0,0c-1.2-1-2.6-1.5-4.3-1.5l0,0c-2.7,0-4.7,0.9-6.4,2.8l0,0c-1.6,1.8-2.5,4.9-2.5,9.2l0,0
					c0,4.4,0.9,7.5,2.4,9.3l0,0c1.6,1.9,3.6,2.8,6.2,2.8l0,0c2.1,0,3.7-0.6,5.1-1.9l0,0c1.3-1.2,2.2-3.1,2.6-5.8l0,0l0.1-0.7l7,0.9
					l-0.1,0.7c-0.6,4-2.3,7.2-4.9,9.4l0,0c-2.6,2.3-5.9,3.4-9.7,3.4l0,0c0,0,0,0,0,0l0,0C372,199,368.2,197.4,365.2,194.3
					L365.2,194.3z M369.2,166c-2.3,1.3-4,3.2-5.1,5.7l0,0c-1.1,2.6-1.7,5.6-1.7,9.2l0,0c0,5.5,1.4,9.5,4,12.3l0,0
					c2.6,2.8,6.1,4.2,10.5,4.2l0,0c3.5,0,6.4-1,8.7-3.1l0,0c2.2-1.9,3.6-4.5,4.3-7.8l0,0l-4.1-0.5c-0.5,2.6-1.4,4.6-2.9,6l0,0
					c-1.6,1.5-3.7,2.2-6.1,2.2l0,0c-2.9,0-5.4-1.1-7.3-3.3l0,0c-1.9-2.3-2.7-5.7-2.8-10.2l0,0c0-4.5,0.9-7.9,2.9-10.2l0,0
					c1.9-2.2,4.5-3.3,7.5-3.3l0,0c2,0,3.8,0.6,5.3,1.9l0,0c1.3,1.1,2.3,2.8,2.8,4.8l0,0l4.1-0.6c-0.7-2.9-2-5-4-6.6l0,0
					c-2.2-1.7-4.9-2.6-8.4-2.6l0,0C374.1,164.1,371.6,164.7,369.2,166L369.2,166z"/>
			</g>
			<g>
				<path class="st2" d="M418.3,186.7l5.8,0.7c-0.9,3.4-2.6,6.1-5.1,7.9c-2.5,1.9-5.7,2.8-9.5,2.8c-4.9,0-8.7-1.5-11.6-4.5
					c-2.9-3-4.3-7.2-4.3-12.6c0-5.6,1.4-10,4.3-13.1c2.9-3.1,6.6-4.6,11.2-4.6c4.5,0,8.1,1.5,10.9,4.6c2.8,3,4.2,7.3,4.2,12.8
					c0,0.3,0,0.8,0,1.5h-24.9c0.2,3.7,1.2,6.5,3.1,8.4c1.9,2,4.2,2.9,7,2.9c2.1,0,3.8-0.5,5.3-1.6
					C416.3,190.9,417.5,189.1,418.3,186.7z M399.8,177.6h18.6c-0.3-2.8-1-4.9-2.1-6.3c-1.8-2.2-4.1-3.3-7-3.3
					c-2.6,0-4.8,0.9-6.6,2.6C400.9,172.4,400,174.7,399.8,177.6z"/>
				<path class="st2" d="M397.4,194.2c-3-3.2-4.5-7.6-4.5-13.1l0,0c0-5.7,1.5-10.3,4.5-13.6l0,0c3-3.2,7-4.9,11.8-4.9l0,0
					c4.6,0,8.5,1.6,11.5,4.8l0,0c3,3.2,4.4,7.7,4.4,13.3l0,0c0,0.4,0,0.9,0,1.5l0,0l0,0.7h-24.8c0.3,3.2,1.3,5.5,2.8,7.2l0,0
					c1.7,1.8,3.8,2.7,6.4,2.7l0,0c1.9,0,3.5-0.5,4.9-1.5l0,0c1.3-1,2.4-2.6,3.2-4.9l0,0l0.2-0.6l7.3,0.9l-0.2,0.8
					c-1,3.5-2.8,6.4-5.4,8.3l0,0c-2.6,2-6,3-10,3l0,0c0,0,0,0,0,0l0,0C404.5,199,400.4,197.4,397.4,194.2L397.4,194.2z M398.5,168.5
					c-2.7,2.9-4.1,7.1-4.1,12.6l0,0c0,5.3,1.4,9.3,4.1,12.1l0,0c2.7,2.9,6.3,4.3,11.1,4.3l0,0c3.8,0,6.8-0.9,9.1-2.7l0,0
					c2.1-1.6,3.7-3.8,4.6-6.7l0,0l-4.4-0.5c-0.9,2.2-2,3.9-3.5,5l0,0c-1.6,1.2-3.5,1.8-5.7,1.8l0,0c-3,0-5.5-1.1-7.5-3.1l0,0
					c-2-2.1-3.1-5.1-3.3-8.9l0,0l0-0.8h24.9c0-0.3,0-0.6,0-0.8l0,0c0-5.4-1.4-9.5-4-12.3l0,0c-2.7-2.9-6.1-4.3-10.4-4.3l0,0
					C404.8,164.1,401.3,165.6,398.5,168.5L398.5,168.5z M399.8,178.3H399l0.1-0.8c0.2-3,1.2-5.6,3.2-7.4l0,0
					c1.9-1.9,4.3-2.8,7.1-2.8l0,0c3.1,0,5.7,1.2,7.6,3.5l0,0c1.3,1.6,2,3.8,2.3,6.7l0,0l0.1,0.8L399.8,178.3L399.8,178.3z
					 M417.6,176.9c-0.3-2.3-1-4-1.9-5.1l0,0c-1.7-2-3.8-3-6.4-3l0,0c-2.4,0-4.4,0.8-6,2.4l0,0c-1.5,1.5-2.4,3.3-2.6,5.7l0,0H417.6
					L417.6,176.9z"/>
			</g>
		</g>
	</g>
</g>
</svg>
