<?xml version="1.0" encoding="utf-8"?>
<!-- Generator: Adobe Illustrator 23.0.2, SVG Export Plug-In . SVG Version: 6.00 Build 0)  -->
<svg version="1.1" id="layer" xmlns="http://www.w3.org/2000/svg" xmlns:xlink="http://www.w3.org/1999/xlink" x="0px" y="0px"
	 viewBox="0 0 662.9 500" style="enable-background:new 0 0 662.9 500;" xml:space="preserve">
<style type="text/css">
	.st0{clip-path:url(#SVGID_2_);fill:url(#SVGID_3_);}
	.st1{clip-path:url(#SVGID_5_);fill:#C9CACA;}
	.st2{clip-path:url(#SVGID_7_);fill:url(#SVGID_8_);}
	.st3{clip-path:url(#SVGID_10_);fill:url(#SVGID_11_);}
</style>
<path d="M184.8,490.4c5,2.3,11.1,3.9,17.4,3.9c7,0,14-2.8,14-9.5c0-5.6-5.6-8.7-12.7-11.3l-5.1-2c-6.8-2.7-13.4-6.7-13.4-14.3
	c0-10.7,12-15.1,22.9-15.1c5.8,0,10.5,0.7,15.8,2.2l-0.6,6.1c-4.5-1.6-9.6-2.7-15-2.7c-6.9,0-13.4,2.8-13.4,8.6
	c0,4.6,4.7,7.1,11,9.6l4.9,1.9c8.3,3.1,15.5,7.4,15.5,15.7c0,10.8-10.4,16.3-23.4,16.3c-5.5,0-13.5-1.3-18.4-3L184.8,490.4z
	 M113.4,443h-8.5v56h8.5V443z M165.7,472.5c0,4.8,0.3,14.4,0.5,18.3H166c-1.8-3.9-4.4-8.5-6.6-12.5L139.1,443h-13v56h8.4v-33.7
	c0-4.8-0.1-12.3-0.4-15.7h0.2c1.6,3.6,4.5,8.8,7,13.2l21.2,36.3H174v-56h-8.3V472.5z M283.4,443h-9v30.5c0,11.6-2.9,19.9-15,19.9
	c-11.9,0-14.9-8.3-14.9-19.9V443h-9v31.3c0,14.3,5,25.7,23.6,25.7c17,0,24.3-10.4,24.3-25.7V443z M295.1,499h8.6v-25h2.5
	c8.6,0,10.8,1.5,13.4,7.1l8.3,17.9h9.6l-10-20.4c-2-4-4.2-6.4-8.2-7.7v-0.2c7.9-1.5,13.3-5.5,13.3-13.1c0-11-8.8-14.7-22.8-14.7H295
	V499H295.1z M303.6,449.8h4.1c10.3,0,16.3,1.4,16.3,8.5c0,6.4-5.9,8.9-16.3,8.9h-4.1V449.8z M376.7,443h-9L342,499h9.4l6.2-14.1
	h29.3l6.3,14.1h9.7L376.7,443z M383.9,478.4h-23.7l7.6-18.4c1.1-2.5,3-7.4,4-10.2h0.2c1,2.8,2.9,7.9,4,10.2L383.9,478.4z
	 M448.8,472.5c0,4.8,0.3,14.4,0.5,18.3h-0.2c-1.8-3.9-4.4-8.5-6.6-12.5L422.2,443h-13v56h8.4v-33.7c0-4.8-0.2-12.3-0.5-15.7h0.2
	c1.6,3.6,4.5,8.8,7,13.2l21.2,36.3H457v-56h-8.3L448.8,472.5L448.8,472.5z M511.5,444.6c-4.2-1.7-8.8-2.2-13.6-2.2
	c-18.3,0-32.1,11.6-32.1,28.2c0,18.7,13.7,28.9,32.8,28.9c4.6,0,9.9-0.6,13.4-2l-0.6-7.5c-4.7,1.9-8.6,2.4-12.8,2.4
	c-13.7,0-23.6-8.6-23.6-21.7c0-12.4,9.5-21.4,23-21.4c5,0,9.3,1,12.8,2.8L511.5,444.6z M557.9,492.1h-26.8v-18.7h24.2v-6.7h-24.2
	v-16.9h26V443h-35.2v56h36V492.1z M533.7,343.5l-18.4,47.1l-18.4-47.1h-13.1v56h8.3v-49l19.2,49h8l19.2-49v49h8.3v-56H533.7z
	 M368.9,397.4c4.9,1.7,13,3,18.4,3c13,0,23.4-5.5,23.4-16.3c0-8.4-7.2-12.6-15.5-15.8l-4.9-1.9c-6.3-2.5-11-5-11-9.6
	c0-5.8,6.5-8.6,13.4-8.6c5.4,0,10.4,1.1,14.9,2.7l0.6-6.1c-5.2-1.5-10-2.2-15.8-2.2c-10.8,0-22.9,4.4-22.9,15.1
	c0,7.6,6.7,11.6,13.5,14.3l5.1,2c7,2.6,12.7,5.7,12.7,11.3c0,6.7-7,9.5-14,9.5c-6.3,0-12.3-1.6-17.4-3.9L368.9,397.4z M568.2,399.6
	v-22.3h7.7c13.1,0,24.1-4.5,24.1-17.5c0-12.5-11.1-16.1-23.4-16.1h-17.4v56h9V399.6z M568.2,349.2h8.9c7.7,0,13.3,3.1,13.3,10.5
	s-5,11.7-13.3,11.7h-8.9V349.2z M606,371.6c0,15.7,9.8,28.9,28.4,28.9c18.7,0,28.5-12.6,28.5-28.9s-9.2-28.9-28.5-28.9
	C615.5,342.7,606,355.9,606,371.6 M634.4,394.5c-13.4,0-18.7-12.7-18.7-22.8c0-10.2,5.5-22.9,18.7-22.9c13.5,0,18.8,12.4,18.8,22.9
	C653.1,382,647.8,394.5,634.4,394.5 M417.3,371.6c0,15.7,9.8,28.9,28.4,28.9c18.7,0,28.5-12.6,28.5-28.9s-9.2-28.9-28.5-28.9
	C426.8,342.7,417.3,355.9,417.3,371.6 M445.7,394.5c-13.4,0-18.7-12.7-18.7-22.8c0-10.2,5.5-22.9,18.7-22.9
	c13.5,0,18.7,12.4,18.7,22.9C464.4,382,459.1,394.5,445.7,394.5 M95.3,399.3h8.6v-25h2.5c8.6,0,10.8,1.4,13.4,7.1l8.4,17.9h9.5
	l-10-20.4c-2-4-4.2-6.4-8.1-7.7V371c7.9-1.5,13.3-5.5,13.3-13.1c0-11-8.8-14.7-22.8-14.7H95.3V399.3z M103.9,350.1h4
	c10.4,0,16.3,1.4,16.3,8.5c0,6.4-5.9,8.9-16.3,8.9h-4V350.1z M207.3,343.3h-9l-25.8,56h9.4l6.3-14.1h29.3l6.3,14.1h9.7L207.3,343.3z
	 M214.6,378.7h-23.7l7.6-18.4c1.1-2.5,3.1-7.4,4-10.2h0.2c1,2.8,3,7.9,4,10.2L214.6,378.7z M308.7,343.3h-9l-25.8,56h9.4l6.2-14.1
	h29.3l6.4,14.1h9.7L308.7,343.3z M315.8,378.7h-23.7l7.6-18.4c1-2.5,3-7.4,4-10.2h0.2c1,2.8,3,7.9,4,10.2L315.8,378.7z M84.8,392.4
	H58v-18.7h24.2V367H58v-16.9h26.1v-6.8H48.9v56h35.9C84.8,399.3,84.8,392.4,84.8,392.4z M0,399.4h16.4c11.9,0,22.9-4,22.9-15.4
	c0-7.6-5.9-12.4-14.6-13.4v-0.1c8.4-1.5,13.3-6,13.3-13c0-9.6-8-14.2-22.2-14.2H0V399.4z M8.3,349.7h6.4c8.6,0,14.6,1.9,14.6,8.7
	c0,8-7.8,8.9-16.2,8.9H8.4L8.3,349.7L8.3,349.7z M8.3,373.6h4.5c12.2,0,17.7,3,17.7,9.8c0,6.6-5.2,9.5-15.7,9.5H8.3
	C8.3,392.9,8.3,373.6,8.3,373.6z M143.6,398.8c2,0.6,5,1.1,7.8,1.1c11.5,0,16.5-7.1,16.5-15.9v-41.2h-8.8v38.9
	c0,8.5-2.7,11.3-9.7,11.3c-2,0-4.1-0.4-5.9-1L143.6,398.8L143.6,398.8z M225.5,343.2l24,32.6v23.6h8.8v-23.7l23.7-32.4h-10.4
	l-7.8,11.3c-2.4,3.5-7.8,11.4-9.6,14.3H254c-1.9-2.9-7.3-10.7-9.8-14.3l-8-11.3h-10.7V343.2z"/>
<g>
	<g>
		<defs>
			<path id="SVGID_1_" d="M208.9,172.5c0,67.6,54.8,122.3,122.3,122.3c67.6,0,122.3-54.8,122.3-122.3c0-67.6-54.7-122.3-122.3-122.3
				S208.9,104.9,208.9,172.5"/>
		</defs>
		<clipPath id="SVGID_2_">
			<use xlink:href="#SVGID_1_"  style="overflow:visible;"/>
		</clipPath>
		
			<linearGradient id="SVGID_3_" gradientUnits="userSpaceOnUse" x1="145.9843" y1="55.5594" x2="152.7295" y2="55.5594" gradientTransform="matrix(-1.900000e-06 -36.2777 36.2777 -1.900000e-06 -1684.3661 5590.7744)">
			<stop  offset="0" style="stop-color:#7C030B"/>
			<stop  offset="1" style="stop-color:#DF0231"/>
		</linearGradient>
		<rect x="208.9" y="50.1" class="st0" width="244.6" height="244.7"/>
	</g>
</g>
<g>
	<g>
		<g>
			<g>
				<defs>
					<rect id="SVGID_4_" x="261.7" y="50.1" width="184.2" height="208"/>
				</defs>
				<clipPath id="SVGID_5_">
					<use xlink:href="#SVGID_4_"  style="overflow:visible;"/>
				</clipPath>
				<path class="st1" d="M424.9,251.1c9-10.7,16.2-22.9,21.1-36.2c-17.1,13.4-38.5,21.3-61.9,21.3c-55.5,0-100.5-45-100.5-100.5
					c0-36.2,19.2-68,48-85.6c0,0-0.2,0-0.4,0c-14.3,0-28.1,2.5-40.8,7c-17.9,21.3-28.7,48.7-28.7,78.7
					c0,67.6,54.8,122.3,122.4,122.3C398.4,258.1,412.1,255.6,424.9,251.1"/>
			</g>
		</g>
	</g>
</g>
<g>
	<g>
		<defs>
			<path id="SVGID_6_" d="M273.5,122.3c0-59.5,48.3-107.9,107.9-107.9c59.5,0,107.8,48.3,107.8,107.9s-48.3,107.9-107.8,107.9
				C321.8,230.2,273.5,181.9,273.5,122.3 M259.1,122.3c0,67.6,54.8,122.3,122.3,122.3s122.3-54.8,122.3-122.3
				C503.7,54.7,448.9,0,381.4,0C313.8,0,259.1,54.7,259.1,122.3"/>
		</defs>
		<clipPath id="SVGID_7_">
			<use xlink:href="#SVGID_6_"  style="overflow:visible;"/>
		</clipPath>
		
			<linearGradient id="SVGID_8_" gradientUnits="userSpaceOnUse" x1="147.163" y1="56.737" x2="153.9057" y2="56.737" gradientTransform="matrix(-1.900000e-06 -36.2766 36.2766 -1.900000e-06 -1676.8267 5583.1738)">
			<stop  offset="0" style="stop-color:#DCDDDD"/>
			<stop  offset="8.791211e-02" style="stop-color:#BFC0C0"/>
			<stop  offset="0.4" style="stop-color:#4C4948"/>
			<stop  offset="0.5" style="stop-color:#EFEFEF"/>
			<stop  offset="1" style="stop-color:#D3D3D4"/>
		</linearGradient>
		<rect x="259.1" class="st2" width="244.6" height="244.6"/>
	</g>
</g>
<g>
	<g>
		<defs>
			<path id="SVGID_9_" d="M280.9,122.3c0-55.5,45-100.4,100.5-100.4c55.4,0,100.4,45,100.4,100.4c0,55.5-45,100.5-100.4,100.5
				C325.9,222.8,280.9,177.8,280.9,122.3 M270.2,122.3c0,61.4,49.8,111.2,111.2,111.2s111.1-49.8,111.1-111.2S442.8,11.2,381.4,11.2
				C320,11.1,270.2,60.9,270.2,122.3"/>
		</defs>
		<clipPath id="SVGID_10_">
			<use xlink:href="#SVGID_9_"  style="overflow:visible;"/>
		</clipPath>
		
			<linearGradient id="SVGID_11_" gradientUnits="userSpaceOnUse" x1="146.5953" y1="57.1227" x2="153.3385" y2="57.1227" gradientTransform="matrix(-1.700000e-06 -32.9666 32.9666 -1.700000e-06 -1501.79 5066.1475)">
			<stop  offset="0" style="stop-color:#666464"/>
			<stop  offset="0.2747" style="stop-color:#B5B5B6"/>
			<stop  offset="0.5" style="stop-color:#EFEFEF"/>
			<stop  offset="0.8626" style="stop-color:#B5B5B6"/>
			<stop  offset="1" style="stop-color:#4C4948"/>
		</linearGradient>
		<rect x="270.2" y="11.1" class="st3" width="222.3" height="222.3"/>
	</g>
</g>
</svg>
