<?xml version="1.0" encoding="utf-8"?>
<!-- Generator: Adobe Illustrator 23.0.2, SVG Export Plug-In . SVG Version: 6.00 Build 0)  -->
<svg version="1.1" id="Layer_1" xmlns="http://www.w3.org/2000/svg" xmlns:xlink="http://www.w3.org/1999/xlink" x="0px" y="0px"
	 viewBox="0 0 450 171.8" style="enable-background:new 0 0 450 171.8;" xml:space="preserve">
<style type="text/css">
	.st0{fill:#212E60;}
	.st1{fill:#FFFFFF;}
	.st2{fill:#6D6E70;}
</style>
<g>
	<path class="st0" d="M131.8,72.6c-0.4-0.5-1.5-0.1-1.5-0.1l-16.9,6.1c-1.3-3.1-2.8-6.1-4.5-8.8l5.5-14.6c0,0,0.7-1.5,0-1.8
		c-0.6-0.4-1.7,0.6-1.7,0.6l-10,8c-3.9-4.1-8.4-7.4-13.7-9.7c-1.9-0.8-4-1.6-6.1-2.1l-3.1-11.6c0,0-0.3-1.2-1.1-1.2s-1,1.1-1,1.1
		l-2,10.2c-2.2-0.3-4.4-0.4-6.7-0.4c-7.4,0-14,1.4-19.8,3.9c-2.5,1.1-4.8,2.4-7,3.9c-0.4,0.3-0.7,0.5-1.1,0.8c-2-5.2-3.7-9.4-4-10.7
		c1.1-1,3.5-4.7,4.1-7.2c0.8-3.5,0.6-5.1-0.3-7.8c-0.6-1.9-1.9-3.7-1.8-5c0.1-0.9,0.6-1.6,1-2c-0.2-1.3-1.1-1.8-2.1-2
		c-0.9-0.1-1.7,0.1-2.5,0.2c-0.2-0.4-0.6-0.3-0.3-1.6c0.5-2,4.4-2.9,7.6-4.2c4.1-1.5,6.3-4.4,6.5-9c0.1-3.3-1.8-5.8-4.2-6.9
		C44.9,2.1,43,4,41.6,4.7c-1.4,0.7-3.2,1-4.6,0.7c0.3-2.5-0.9-4.5-2.7-5.4c-0.6,1-2.8,2.5-6.1,2.4c-3.3-0.1-3.5-0.9-8.2-0.9
		c-6.6,0-12.1,3.9-12.8,9.7c-0.4,3.7,1,6.9,2.1,8.5c-0.8,0.6-2.8,2.4-3.1,3c-0.5-0.5-1.8-1.3-3.4-0.3c0.3,0.8,0.4,1.8,0.1,2.8
		c-0.3,0.9-2.7,5.5-3,9.3C-0.4,40.7,3.3,45,6.4,46.2c-0.7,1-0.8,2.1-0.3,3c0.3,0.6,1,1.1,2.3,1.1c-0.8,0.8-1,2-0.6,3.2
		c0.6,1.4,2.1,3.3,3.5,3.3c-0.1,1.1,0.5,3.8,0.8,4.9c-0.5,0.9-1,1.5-0.9,3.2c0.1,1.7,1.2,3,2.6,3.3c0.3,0.8,0.6,1.7,1.1,2.2
		c0.5,0.5,0.9,1.2,2,1.9c1,0.7,2.2,1.2,3.6,1.2c1.4,0,2.6,0.1,3.2-0.1c0,0.4,0.2,4,0.3,7.9c-3.5,9.5-5.2,20.4-5.2,32.2v0
		c0,21.1,6.1,39.9,17.9,52c0,0,0.7,0.8,2.6,2c0,0,3.7-6.1,9.2-13.1c1.4-1.8,3-3.5,4.8-5.1c2.7-2.3,5.4-4.4,8-6.3
		c7.2-4.8,15.6-8.5,23.3-10c-8.8,4.5-13.9,6.9-22.2,13.8c-5.3,4.4-13.7,12.2-19.4,22.9c1.2,0.9,2.8,1.9,4.7,2.1
		c1.2-1.4,7.4-12.6,17-21.6c19.4-17.8,42.2-21.9,54.1-21.6c0.7-4.8,1-9.8,1-15c0-8.5-0.9-16.5-2.7-23.9l14.3-15.5
		C131.2,74.1,132.2,73.1,131.8,72.6"/>
	<path class="st1" d="M25.8,65.6c-0.8-0.5-3.1-1.6-4.9-1.5c-1.9,0.1-3.4,0.4-4.9,1.4c-0.6-0.4-0.8-1.2-0.4-2.2c0.4-0.9,1-1.1,1-1.1
		L16,53.3c0,0,2.5-1.8,3.2-2c0.7-0.2,1-0.7,1-1.4c1.1,0.8,2.8,2.4,3.7,3.6c0.8,1.2,1.3,2.4,1.4,3.9c0.1,1.4,0.1,3.1-0.2,4.9
		c0.6,0.5,1.1,0.9,1.2,1.6C26.3,64.7,26,65,25.8,65.6"/>
	<path class="st1" d="M108.2,93.1c-0.1-1.7-2.1-6.4-3.4-7.4l21.5-9.3L108.2,93.1z"/>
	<path class="st1" d="M49.3,58.3l18.2,16.1c-1.8,1-4.4,3.6-5.1,5.7L49.3,58.3z"/>
	<path class="st1" d="M59.9,90.3c-0.6,1-0.8,1.5-1.1,2.7c-0.2,1.2-0.1,1.8,0.1,2.7l-5.6-3.8c0.1-1.3-0.3-3.4-0.4-4.5
		c0-0.1,0-0.3-0.1-0.5L59.9,90.3z"/>
	<path class="st1" d="M29.2,91.8c-0.3-0.6-1.9-33.4-2-34.6L29,56v-0.3c-1.3-0.1-2.8-0.5-3.3-1.3l-0.5-10.1c-1.8-0.1-3.6-0.7-4.3-1.4
		c-0.9-0.8-1.5-1.9-0.6-3.7c0.9,0.6,3.5,1.4,5.8,1.4c0.5,0,1.5,1.1,2.1,1.3c0.7,0.3,1.8,0.9,2.3,1.1c0.5,0.2,0.8,1.3,0.9,1.7
		c0.1,0.4,16.7,42.6,17,43.1c0.3,0.5,1.2,7.6,1.3,8.1c0.1,0.5,2.5,6.2,3,6.8c-2.2-0.1-5.8,1.2-8.8,4c-2.9,2.8-5.5,8.9-6,11.7
		C37.7,116.8,29.6,92.4,29.2,91.8"/>
	<path class="st1" d="M50.3,132.2c-0.7,6.5-2.3,12.1-4.8,16.1c-1.6,2.6-5.9,7.8-7.5,9.8c1.7-3.2,2.9-11.1,2.8-17.1
		c-0.1-3.9-1.3-12.7-0.2-18.4c1.1-6.2,2.9-9.7,7.2-13.5c2.2-2,6.6-4.4,12.9-2.8l5.1,9.4c-2.7-0.5-6.3-0.1-8.8,1.8
		C52.6,120.9,51.1,125.5,50.3,132.2"/>
	<path class="st1" d="M50.8,145c1.2-2.7,2.9-10.5,3.3-13.2c0.6-3.3,1.1-8.2,5.2-11.5c2-1.6,5.3-1.8,6.6-1.5l5.8,11.5
		c0.5,1.2,2.2,1.6,3.3,1.6C69.7,133.7,56,140.1,50.8,145"/>
	<path class="st1" d="M100,108.2c-0.9,1.4-0.6,2.8-0.1,3.7c0.6,1.1,3.6,6.6,3.6,6.6c1,2.5,1.7,3.8,2.6,5.4c1.6,0,3.4,0,5.3,0
		c-2-4.4-6.6-13-6.6-13l-0.3-6.9C103.2,104.9,100.9,106.8,100,108.2"/>
	<path class="st1" d="M75.4,71.6c2.3-0.4,7.4,0.1,9.1,0.9l-5.2-29L75.4,71.6z"/>
	<path class="st1" d="M31.4,44.6c-0.1-0.4-0.4-1.5-0.9-1.7c-0.5-0.2-1.6-0.8-2.3-1.1c-0.6-0.2-1.6-1.3-2.1-1.3
		c-2.3,0-4.9-0.7-5.8-1.4c-1,1.8-0.3,2.9,0.6,3.7c0.7,0.7,2.5,1.2,4.3,1.4l0.5,10.1c0.5,0.7,2,1.2,3.3,1.3V56l-1.8,1.3
		c0.1,1.1,1.7,34,2,34.6c0.3,0.6,8.5,24.9,8.7,26.4c0.6-2.8,3.1-8.9,6-11.7c3-2.8,6.6-4.1,8.8-4c-0.5-0.5-3-6.2-3-6.8
		c-0.1-0.5-1-7.6-1.3-8.1C48.1,87.2,31.5,45,31.4,44.6"/>
	<path class="st1" d="M20.8,36.6c4.7,0,6.9,1.9,8,2.9c0.1-1.6-0.1-2.9-1.6-4.1c-1.2-1-3.4-1.8-6.7-1.8c-2.2,0-4.4,0.6-5.8,1.8
		c-1.3,1-1.5,2.2-1.2,4C13.9,38.1,16.9,36.6,20.8,36.6"/>
	<path class="st1" d="M12.4,12.5c-0.1,1.8,0.4,3.6,1.2,4.7c0.5,0.6,1.6,1.8,2.4,1.8c1.2-0.1,2.3-2.3,5-2.2c1.8,0.1,3,2.5,4.5,2.6
		c1.2,0.1,1.8-1.1,3-1.2c1-0.1,1.4,0.4,2,1c0.4-0.9,1-1.6,2.5-2.7c1.9-1.4,8.2-2.6,10.9-5c1.3-1.2,1.6-3.4,1.2-4.8
		c-1,1.4-3.8,2.9-6.6,3c-1.4,0.1-4.7-0.5-5.9-1.1c0.6-1,0.8-2.1,0.3-3.2c-0.9,0.7-4.8,1-6.3,1c-1.5,0-4.5-0.6-6.8-0.5
		C14.9,6.1,12.5,9.6,12.4,12.5"/>
	<path class="st1" d="M21.1,27.8C32,28,36.9,32.9,37,37c0.6-1.2,0.5-2.4,0.4-3.7c-0.1-1.1-1.7-4.1-1.8-5.1c-0.1-1,0.2-1.7,0.4-2.6
		c-0.7,0.1-3.1,1.1-4.1,0.3c-1.1-0.9-0.3-3-1.8-3.6c-1.4-0.5-3.7,1.1-5.2,0.9c-1.4-0.2-2.7-2.2-4.2-2.2c-1.5,0-2.3,1.8-4.1,2.2
		c-1.4,0.3-3.2-0.5-4-0.5c-0.9,0.1-1.5,0.8-1.9,1.7c-0.4,0.9-0.7,1.2-1.8,1.5c-0.9,0.2-2.1-0.5-2.8-0.4C6.5,26,6.8,27.9,6.3,29
		c-0.6,1.4-1.7,2.9-1.9,4.7c-0.1,1.6,0.4,2.3,0.8,3.4C5,31.4,11.5,27.6,21.1,27.8"/>
	<path class="st1" d="M14.2,48.3c-0.8,0.1-2.3,1.4-3.1,2.6c0.2,0.8,1.1,2.7,2,3.2c0.2-0.9,1.2-2.3,1.7-2.7c0.7-0.5,1.4-0.8,1.9-1.1
		c0.6-0.3,0.8-0.6,0.8-1.2c0-0.6-0.1-0.9-0.4-1.5c0.5-0.1,1.6,0,1.9-0.5c0.3-0.5,0.5-1.1,0.5-1.7c0-0.6-0.3-0.7-0.9-0.8
		c-0.6-0.1-2.4-0.1-3.3,0c0,0,1.4-0.7,1.8-0.9c0.4-0.2,0.6-0.6,0.6-0.9c0.1-0.3,0.1-1.1-0.1-2c-2.1,0.1-5.7,1.9-6.7,2.7l0.8,1.8
		l-1.4-0.1c-0.2,0.9-0.1,2.4,0.3,3.2C11.8,48.3,13.3,48.2,14.2,48.3"/>
	<path class="st1" d="M103.4,90.6c-0.3-1.3-3.6-5.2-9.4-9.5c-4.5-3.3-11-6.6-16.4-6.6c-9.1,0.1-12.9,6.2-13.6,9.4
		c-0.4,1.9-0.3,4,0.1,5.2c-1.4,1.2-2,2.2-2.3,3.6c-0.2,1,0,2.4,0.9,3.3c-0.1-1.3,0.8-2.9,1.6-3.8c0.8-1.1,2.2-1.6,3.5-2.3l0.2,2.4
		c-1.2,0.7-2.6,2.1-2.7,2.8l0.1,4l3.1-1.8l0.6,1.2l-1.1,7.1l1.8-0.3l3.2,1.3l-3.1,2.6v1c0,0,0.5-0.6,1.6-0.6c1.1,0,3.9,1.3,3.9,1.3
		l-0.1,0.6H74h-4.2c-0.2,0.7,0.4,1.3,0.9,1.6c0.7-0.2,1.5-0.6,1.9-0.6c0.4,0,1.4,0.2,2.2,0.3l-1,1.3c0,0-0.5,0.4-1.5,0.2
		c-0.5-0.1-1,0.6-1,1.2c0,0.6,0.4,2.1,0.4,2.1c0.5,2.3,2.9,1.8,3.2,1.8c1.5-0.1,6.4-1.9,6.4-1.9l-4.7,6.5l2.1,7
		c3.1-1.3,12.5-4.5,22.6-6.1c-1.1-1.8-1.3-2.5-2.6-5.2L93.4,108l0.7-1.7c1.1,0.4,2.9-0.4,4-1.3c1.1-0.9,2.5-2.5,3-3.6
		c-0.7-0.4-1.3-0.3-2,0.1c-0.6,0.4-1.1,1.2-2,0.8c-0.9-0.4-0.5-1.4-0.4-2.3c0.1-0.9-1.1-0.9-1.9-0.2c-0.8,0.7-2.6,0.4-3.7-0.7
		c-1.1-1.1-6.6-5.6-8.6-6.7c-2.8-1.6-6.6-2-9.4-1.5c-1.6,0.3-2.8,1-3.4,0.7l-2-3.1l0.3-0.2c0.7,0.3,1.4,0.9,2.3,0.6
		c0.9-0.3,3.9-1,6.6-1c4.1-0.1,9.2,1.4,11.4,2.3c0.1,2.6,5.5,6,8,6.3c2.1,0.3,3.3-0.3,4.6-1l-5.3-4.5l2.8-3.5c0,0,4.4,4.2,5.1,5
		C103.7,91.9,103.5,91.1,103.4,90.6 M71.7,95.9c0,0,2.3-1.3,4.4-1.7c3.2-0.7,6.7,1.2,9.1,3.1L84.7,98l-3.6,0.8
		c-0.7-0.6-2-0.9-3.4-0.8c-1.3,0.1-2.3,0.5-2.3,0.5l0.7,1.1l-1.6,0.4c-0.7-0.9-1.9-2-2.9-2.3V95.9z M66.3,87.8
		c-0.9-3.1,1.6-6.1,2.7-7.2l1.8,3.9C69.4,85.3,67.3,86.9,66.3,87.8 M82.6,84.4c-1.7-1.1-7.1-0.9-9.4-0.4l-1.7-4.7
		c1.2-0.9,3.6-1.5,5.8-1.5c2.2,0,4.6,0.5,6.2,1.3L82.6,84.4z M93.4,89.2c-2.3-1.4-6.7-3.6-8.1-4l2-5c1.7,0.8,7.8,4.5,8.7,5.4
		L93.4,89.2z"/>
	<path class="st1" d="M92.7,76c2.1,0.7,6.4,4.3,7.4,5.1l11-22.9L92.7,76z"/>
	<g>
		<path class="st2" d="M445,160.3c2.6,0,5,2,5,5c0,3-2.3,5-5,5c-2.6,0-5-2-5-5C440,162.3,442.4,160.3,445,160.3 M445,169.2
			c2.1,0,3.8-1.6,3.8-3.9c0-2.3-1.7-3.9-3.8-3.9c-2.1,0-3.8,1.6-3.8,3.9C441.2,167.6,442.9,169.2,445,169.2 M443.1,162.7h2.1
			c1.4,0,2.1,0.5,2.1,1.6c0,1-0.6,1.4-1.4,1.5l1.5,2.4h-1.1l-1.4-2.3h-0.8v2.3h-1L443.1,162.7L443.1,162.7z M444.1,165h1
			c0.7,0,1.2-0.1,1.2-0.8c0-0.6-0.6-0.7-1.2-0.7h-1L444.1,165L444.1,165z"/>
		<rect x="145.6" y="110" class="st2" width="172.7" height="2.2"/>
		<rect x="342.7" y="110" class="st2" width="36" height="2.2"/>
		<path class="st2" d="M160.4,89.6c0,3.6,1.5,4.7,7,4.7c5.5,0,8-1.6,11.5-8.8h1.3l-1.3,11.3H145v-1.3c5.1-1.3,5.6-2.4,5.6-7.1V60.6
			c0-3.9-1-5-5.6-6.1v-1.3h21v1.3c-4.4,1.1-5.6,2-5.6,5.8V89.6z"/>
		<path class="st2" d="M194.5,90.7c0,2.8,1.4,4.4,4.6,4.8v1.3h-18v-1.3c3.9-0.7,4.8-1.8,4.8-5.3V75.2c0-3.4-1-4.4-5.2-5.2v-1.3
			l12.4-1h1.3V90.7z M190.2,50.2c2.7,0,4.9,2.2,4.9,4.8c0,2.7-2.2,4.9-4.9,4.9c-2.7,0-5-2.2-5-4.9C185.2,52.4,187.5,50.2,190.2,50.2
			"/>
		<path class="st2" d="M213.1,74.8c2.9-2.6,4.4-3.3,6.7-3.3c5.1,0,8.5,4.8,8.5,11.6c0,9.1-4.2,12.9-10.6,12.9
			c-3.4,0-4.5-1.5-4.5-4.7V74.8z M213.1,50.2h-1.3l-11.6,0.8v1.3c2.7,0.4,4.3,1.8,4.3,4.2v40.3c4.3,0.8,8.6,1.1,14,1.1
			c14,0,19.3-7.1,19.3-15.8c0-8.2-5.9-14.5-13.7-14.5c-4.1,0-7.6,1.6-11,5.1V50.2z"/>
		<path class="st2" d="M250.4,78.5c0.2-5.3,2.6-8.9,6.1-8.9c3.5,0,6.1,3.7,6.4,8.9H250.4z M272.1,80.3c-1.1-7.7-6.9-12.6-15-12.6
			c-9,0-15.9,6.6-15.9,15.3c0,8.5,6.7,14.9,15.6,14.9c6.9,0,12.7-3.7,15.3-9.7h-1.3c-2.7,4.1-6.1,6.1-10.2,6.1
			c-5.3,0-10.6-4.8-10.2-14L272.1,80.3L272.1,80.3z"/>
		<path class="st2" d="M299.6,78.5c-2.5-2.4-4.5-3.6-6.5-3.6c-2.6,0-4.2,1-6.4,4v11.4c0,3.3,0.7,4.4,4.9,5.2v1.3h-18.2v-1.3
			c3.8-0.9,4.8-2,4.8-5.2V75.5c0-3.6-1.6-5.2-5.2-5.5v-1.3l12.5-1.1h1.3v8.9h0.2c2.8-6.1,5.9-8.9,9.5-8.9c1.9,0,3.7,0.8,5.1,2.4
			L299.6,78.5z"/>
		<path class="st2" d="M347.9,68.7V70c3.6,0.7,4.5,3,1.9,8.9l-4,9l-6.1-12.3c-1.7-3.6-1.7-5.2,1.5-5.6v-1.3h-16.6h-0.5h-8.3V57.9
			h-1.4c-4,5.1-8.7,9.5-12.3,11.7V71h5.2v18c0,6.4,4.3,8.9,9.7,8.9c4.2,0,7.1-1.5,9.2-5l-0.9-0.8c-1.4,1.6-2.7,2.2-4.2,2.2
			c-4,0-5.2-2.7-5.2-7.2V71h7.7c4.2,0,5.4,1.5,7.2,5.3l10.5,21.6c-3.5,9.2-6.5,12.9-11.8,12.9c-1.1,0-2-0.1-3.9-0.7l-1.7,8.5
			c1.1,0.2,1.7,0.2,2.4,0.2c5.9,0,9.2-2.5,12.2-9.3l14.4-32.2c2.3-5.2,3.3-6.2,6.9-7.2v-1.3L347.9,68.7L347.9,68.7z"/>
		<path class="st2" d="M160.7,161.7c0,3.8,1,4.9,5.5,6v1.3h-20.7v-1.3c5.4-1.3,5.5-2.8,5.5-7v-27.4c0-3.8-1-4.9-5.5-6v-1.2h20.7v1.2
			c-5.2,1.2-5.5,2.8-5.5,6.9V161.7z"/>
		<path class="st2" d="M194.1,151.3c0-4.2-2-6.6-5.2-6.6c-2.8,0-5.2,1.6-7,4.8v12.9c0,2.9,0.5,4.2,4.2,5.3v1.3H169v-1.3
			c3.3-0.8,4.4-2,4.4-4.8v-15.5c0-3.2-1.3-4.4-5.1-4.9v-1.2l12.3-1h1.3v6.7h0.2c2.4-4,6-6.7,10.7-6.7c4.3,0,9.9,2.8,9.9,10v12.1
			c0,2.9,0.5,4.4,4.4,5.3v1.3h-17.4v-1.3c3.4-0.7,4.5-2,4.5-5L194.1,151.3L194.1,151.3z"/>
		<path class="st2" d="M229.6,148.9h-1.3c-1.7-4.2-4.9-6.7-8.7-6.7c-2.6,0-4.7,1.2-4.7,3.1c0,5.9,16.4,3.8,16.4,15.2
			c0,5.9-5.6,9.5-10.2,9.5c-1.8,0-3.4-0.2-4.6-0.5c-1.4-0.2-2.4-0.4-3.3-0.4c-1,0-2,0.4-2.6,1h-1.3v-10.7h1.3
			c2.8,5.9,6.2,8.7,10.3,8.7c2.7,0,5-1.8,5-4c0-7.3-16.6-5-16.6-15.4c0-4.4,3.7-8.4,9.9-8.4c1.3,0,2.9,0.2,4.3,0.4
			c1.4,0.2,2.6,0.4,3.1,0.4c0.7,0,1.3-0.4,1.7-0.7h1.3L229.6,148.9L229.6,148.9z"/>
		<path class="st2" d="M237.3,147.3c0-3.1-1-4.2-4.4-4.8v-1.2l11.6-1.1h1.3v20.4c0,3.3,2.2,4.8,5.2,4.8c2.8,0,4.6-1.2,7-5v-13.8
			c0-2.3-1.5-3.6-4.4-4.1v-1.2l11.6-1.1h1.3v22c0,3.7,0.8,4.5,4.5,5.5v1.2l-12.9,1.1v-6.7h-0.2c-3.1,4.7-6.7,6.7-11.2,6.7
			c-5.8,0-9.4-3.1-9.4-8.4L237.3,147.3L237.3,147.3z"/>
		<path class="st2" d="M298.2,150.9c-2.5-2.3-4.4-3.6-6.4-3.6c-2.5,0-4.1,1-6.3,4v11.3c0,3.3,0.7,4.3,4.8,5.1v1.3h-18v-1.3
			c3.7-0.9,4.7-2,4.7-5.1V148c0-3.5-1.6-5.1-5.2-5.4v-1.2l12.3-1.1h1.3v8.8h0.2c2.8-6,5.8-8.8,9.4-8.8c1.9,0,3.7,0.8,5,2.3
			L298.2,150.9z"/>
		<path class="st2" d="M326.3,163.6c0,2.6,0.5,3.7,1.7,3.7c1.2,0,1.9-0.9,2.2-2.6h1.2c-0.3,3.4-2.8,5.4-6.9,5.4
			c-3.4,0-5.4-1.1-6.8-3.9l-0.7,0.6c-2.8,2.5-5.5,3.3-8.9,3.3c-4.6,0-8.5-3.2-8.5-7.3c0-7.5,11.2-8.1,18.1-10.6c0-4.9-2-7.3-7-7.3
			c-3.8,0-6.7,1.5-8.5,4.6h-1.1c1.5-5.9,6.1-9.4,12.7-9.4c6.1,0,12.4,2.7,12.4,10.3V163.6z M317.7,153.7c-7,2.9-9.2,4.6-9.2,8.4
			c0,3,1.6,5,3.9,5c1.7,0,3.4-0.9,5.3-2.9V153.7z"/>
		<path class="st2" d="M357.3,151.3c0-4.2-2-6.6-5.2-6.6c-2.8,0-5.2,1.6-7,4.8v12.9c0,2.9,0.5,4.2,4.2,5.3v1.3h-17.1v-1.3
			c3.3-0.8,4.4-2,4.4-4.8v-15.5c0-3.2-1.4-4.4-5.1-4.9v-1.2l12.3-1h1.3v6.7h0.2c2.4-4,6-6.7,10.7-6.7c4.3,0,9.9,2.8,9.9,10v12.1
			c0,2.9,0.5,4.4,4.4,5.3v1.3h-17.4v-1.3c3.4-0.7,4.5-2,4.5-5L357.3,151.3L357.3,151.3z"/>
		<path class="st2" d="M401.5,150.3h-1.3c-2.8-5.7-6-8.4-10.4-8.4c-5.8,0-9.3,4.7-9.3,12.2c0,7.8,3.9,12.5,10.4,12.5
			c4.2,0,6.6-1.2,9.9-5.2h1.5c-2.8,5.9-7.8,8.7-15.2,8.7c-9.5,0-15.9-5.8-15.9-14.4c0-8.8,7.3-15.5,16.9-15.5c2,0,3.8,0.2,5.3,0.4
			c1.6,0.2,2.9,0.4,4,0.4c1,0,1.3-0.1,2.2-0.9h1.2L401.5,150.3z"/>
		<path class="st2" d="M412.9,152.7c-0.5,9.1,4.8,13.8,10,13.8c4.1,0,7.4-2,10.1-6h1.3c-2.5,5.9-8.3,9.6-15.1,9.6
			c-8.8,0-15.4-6.3-15.4-14.7c0-8.6,6.8-15.1,15.7-15.1c8,0,13.8,4.8,14.8,12.5L412.9,152.7L412.9,152.7z M425.2,151
			c-0.3-5.1-2.8-8.8-6.3-8.8c-3.4,0-5.8,3.5-6,8.8H425.2z"/>
	</g>
</g>
</svg>
