<?xml version="1.0" encoding="utf-8"?>
<!-- Generator: Adobe Illustrator 23.0.2, SVG Export Plug-In . SVG Version: 6.00 Build 0)  -->
<svg version="1.1" id="Layer_1" xmlns="http://www.w3.org/2000/svg" xmlns:xlink="http://www.w3.org/1999/xlink" x="0px" y="0px"
	 viewBox="0 0 1091 393.6" style="enable-background:new 0 0 1091 393.6;" xml:space="preserve">
<style type="text/css">
	.st0{fill:#C41134;}
	.st1{fill:#0B181B;}
	.st2{fill:#111A1C;}
	.st3{fill:#11191C;}
	.st4{fill:#10191C;}
	.st5{fill:#141A1D;}
	.st6{fill:#121A1C;}
	.st7{fill:#1D1D1F;}
	.st8{fill:#1E1D1F;}
	.st9{fill:#1C1D1E;}
</style>
<path class="st0" d="M582,6.6c20.4,8.9,38.9,27.7,48,48c4.9,15.4,5.6,36.6,0,52c-1.5,2.1-2.9,3.4-5,5c1,2.2,1.7,3.8,3.5,5.4
	c6.7,7.3,5.1,26.1,4.8,35.3c-1.6,22.8-14.7,39.2-31.5,53.8c-20.1,16.8-43.5,21.2-69.2,19.1c-25.4-2.6-44.3-15.1-60.6-34.3
	c-14.3-17.6-16.9-36.3-14.6-58.6c1.7-13.8,1.7-13.8,7.6-19.6c-0.8-0.6-1.6-1.2-2.4-1.8c-7.5-7.6-6-24.9-6-34.8
	c0.7-22.9,10.6-38.5,26.8-53.7C509.3-1.2,549.7-5.6,582,6.6z M540.2,27.1c-0.8,0.8-0.8,0.8-1.6,1.6c-0.5,0.5-1.1,1.1-1.7,1.7
	c-1.8,1.8-3.6,3.6-5.4,5.5c-1.3,1.3-2.5,2.5-3.8,3.8c-3.3,3.3-6.6,6.6-9.9,9.9c-3.4,3.4-6.7,6.8-10.1,10.1
	c-6.6,6.6-13.2,13.3-19.8,19.9c1.5,3.4,2.5,4.6,6,6c0.6-1,1.2-2,1.8-3c4.2-6,8.7-10.2,15.9-11.9c9.3-1.3,18.8-1.1,28.2-1
	c4.2,0.1,8.5,0,12.7,0c28.6-0.5,28.6-0.5,36.9,7c2.5,2.8,4.6,5.6,6.5,8.9c3.5-1.4,4.5-2.6,6-6c-7.3-7.3-14.5-14.6-21.8-21.9
	c-3.4-3.4-6.8-6.8-10.1-10.2c-3.3-3.3-6.5-6.5-9.8-9.8c-1.2-1.2-2.5-2.5-3.7-3.8c-1.7-1.7-3.5-3.5-5.2-5.2c-0.5-0.5-1-1-1.6-1.6
	C545.5,22.8,544.5,22.8,540.2,27.1z M541.7,89.8c-1,1-2,2-3,3c-0.5,0.5-1.1,1.1-1.6,1.6c-1.7,1.7-3.4,3.4-5.1,5.1
	c-1.2,1.2-2.3,2.3-3.5,3.5c-2.8,2.8-5.7,5.7-8.5,8.5c1.6,3.9,4.1,6.3,7,9.2c0.5,0.5,1,1,1.5,1.5c1.5,1.5,3.1,3.1,4.6,4.6
	c1.1,1,2.1,2.1,3.2,3.1c2.6,2.5,5.1,5.1,7.7,7.6c3.9-1.6,6.3-4.1,9.2-7c0.7-0.7,0.7-0.7,1.5-1.5c1.5-1.5,3.1-3.1,4.6-4.6
	c1-1.1,2.1-2.1,3.1-3.2c2.5-2.6,5.1-5.1,7.6-7.7c-5-6-10.3-11.5-15.8-16.9c-0.9-0.9-1.7-1.7-2.6-2.7c-0.8-0.8-1.7-1.7-2.5-2.5
	c-0.8-0.8-1.5-1.5-2.3-2.3C544.1,86.8,544.5,87.2,541.7,89.8z M492,139.6c-1.6,2-3.3,4-5,6c18.8,18.8,37.6,37.6,57,57
	c4.4-3.7,8.4-7.3,12.5-11.4c0.7-0.7,0.7-0.7,1.5-1.5c1.6-1.6,3.2-3.2,4.9-4.9c1.1-1.1,2.3-2.3,3.4-3.4c3-3,5.9-5.9,8.9-8.9
	c3-3,6.1-6.1,9.1-9.1c5.9-5.9,11.9-11.9,17.8-17.8c-1.7-2-3.3-4-5-6c-1,0.8-2,1.6-3,2.5c-1,0.8-1,0.8-2,1.6
	c-2.1,1.8-2.1,1.8-3.6,3.9c-3,3.7-5.2,5.7-10,6.8c-4.4,0.5-8.8,0.5-13.2,0.5c-1.6,0-3.3,0-4.9,0.1c-3.4,0-6.8,0-10.3,0
	c-3.5,0-7,0-10.5,0.1c-32,0.8-32,0.8-40.2-6.6c-2.5-2.8-4.5-5.7-6.5-8.9C492.7,139.6,492.3,139.6,492,139.6z"/>
<path class="st0" d="M720,267.6c7.8-0.1,15.7-0.2,23.5-0.3c3.7,0,7.3-0.1,11-0.1c3.5-0.1,7-0.1,10.6-0.1c2,0,4-0.1,6-0.1
	c10.1,0,10.1,0,13.8,3c4,4.8,3.5,8.9,3.6,14.9c0.1,1.4,0.1,1.4,0.1,2.9c0.1,6.9,0.1,6.9-1.6,9.6c-1.4,1.4-1.4,1.4-3.9,3.2
	c0.6,0.6,1.3,1.2,1.9,1.8c3.2,3.3,3.3,6.5,3.6,10.9c0.1,1,0.2,2,0.3,3c0.1,0.8,0.1,1.5,0.2,2.3c0.4-0.7,0.7-1.4,1.1-2.1
	c7.8-15.1,15.7-30.2,23.9-45.1c0.7-1.3,1.4-2.5,2-3.8c9.2,0,18.5,0,28,0c1.6,3,1.6,3,3.1,6.1c1.4,2.7,2.8,5.5,4.2,8.2
	c0.4,0.7,0.7,1.4,1.1,2.1c4.8,9.3,9.6,18.7,14.6,27.9c1.9,3.5,3.4,6.9,4.9,10.6c-6.6,0-13.2,0-20,0c-4-7-4-7-4-9
	c-11.9,0-23.8,0-36,0c-0.7,1.7-1.3,3.3-2,5c-0.7,1.3-1.3,2.6-2,4c-12.2,0-24.4,0-37,0c-0.7-4-1.3-7.9-2-12c-2.9-1.4-5.5-1.2-8.8-1.3
	c-1,0-1,0-2-0.1c-2.1-0.1-4.2-0.1-6.4-0.2c-1.4,0-2.9-0.1-4.3-0.1c-3.5-0.1-7-0.2-10.6-0.3c0,4.6,0,9.2,0,14c-5.6,0-11.2,0-17,0
	C720,304.4,720,286.3,720,267.6z M829,280.6c-1.7,3-3.3,5.9-5,8.9c-0.5,0.8-1,1.7-1.4,2.6c-0.5,0.8-0.9,1.6-1.4,2.4
	c-0.4,0.7-0.8,1.5-1.3,2.3c-1.1,1.8-1.1,1.8-0.9,3.9c7.3,0,14.5,0,22,0c-2.1-4.7-2.1-4.7-4.3-9.4c-0.4-1-0.9-2-1.3-3
	c-0.4-0.8-0.7-1.5-1.1-2.3c-0.4-0.8-0.7-1.6-1.1-2.4C832.1,281.3,832.1,281.3,829,280.6z M737,281.6c0,4.3,0,8.6,0,13
	c4,0,8,0,12.1,0.1c1.1,0,2.3,0,3.4,0c8.3,0.1,8.3,0.1,16.5-1.1c2.4-1.9,2.4-1.9,2.3-5.4c0-3.4,0-3.4-1.4-5.3c-2.9-2-5.5-1.6-9-1.6
	c-0.7,0-1.4,0-2.1,0c-2.2,0-4.4,0.1-6.5,0.1c-1.5,0-3,0-4.4,0C744.2,281.5,740.6,281.5,737,281.6z"/>
<path class="st0" d="M873,267.6c27.6-1.9,27.6-1.9,33.4,1.3c3.6,3.5,5.5,7.8,7.5,12.4c2,4.2,4.8,7.8,7.6,11.5c1,1.4,2,2.8,2.9,4.1
	c0.6,0.9,0.6,0.9,1.2,1.8c1.8,2.6,3.6,5.3,5.4,8c0.3-12.9,0.7-25.7,1-39c5.9,0,11.9,0,18,0c0,18.1,0,36.3,0,55
	c-7.2,0.3-7.2,0.3-14.6,0.6c-1.5,0.1-3,0.2-4.6,0.2c-9.6,0.2-9.6,0.2-13.2-2.5c-1.8-2.3-3.3-4.7-4.7-7.3c-1.2-1.6-2.3-3.3-3.5-4.9
	c-1.2-1.7-2.3-3.4-3.5-5c-0.6-0.8-1.2-1.7-1.8-2.5c-1.1-1.6-2.2-3.1-3.3-4.7c-3-4.3-6-8.6-9-12.8c-0.3,12.9-0.7,25.7-1,39
	c-5.9,0-11.9,0-18,0C873,304.4,873,286.3,873,267.6z"/>
<path class="st0" d="M489,267.6c27.4-2,27.4-2,33.4,1.3c3.8,3.7,6,8.3,8.2,13c2.5,4.9,5.8,9.2,9,13.6c1.2,1.7,2.4,3.4,3.6,5.1
	c1.7,2.6,1.7,2.6,3.7,4.9c0.3-12.5,0.7-25.1,1-38c5.9,0,11.9,0,18,0c0,18.1,0,36.3,0,55c-26.6,1.7-26.6,1.7-32.3-1.1
	c-3.5-3.2-5.5-7.2-7.5-11.4c-2.4-4.7-5.7-8.8-8.7-13.1c-1.2-1.7-2.4-3.4-3.5-5.1c-1.9-2.8-3.9-5.5-6-8.2c-0.3,12.9-0.7,25.7-1,39
	c-5.9,0-11.9,0-18,0C489,304.4,489,286.3,489,267.6z"/>
<path class="st0" d="M78.7,266.4c0.9,0,1.8,0,2.8,0c1,0,1.9,0,3,0c1,0,2,0,3.1,0c2.1,0,4.3,0,6.4,0c3.3,0,6.5,0,9.8-0.1
	c2.1,0,4.2,0,6.3,0c1.4,0,1.4,0,2.9,0c6.5,0,13.5,0.4,18.7,4.8c4.8,5.8,3.7,14.9,3.6,22c0,2.1,0,4.2,0,6.3c0,1.4,0,2.7,0,4.1
	c0,1.2,0,2.4,0,3.7c-0.6,5.3-2,9.2-5.9,12.9c-8.2,5.4-20.6,3.8-30,3.8c-2,0-4.1,0-6.1,0c-22.7,0-22.7,0-30.2-5.4
	c-4.7-6.5-3.6-15.5-3.6-23.1c0-1.3,0-2.6,0-3.9c0-6.9,0-13.6,3.4-19.8C67.9,267.4,72.5,266.5,78.7,266.4z M78,285.6
	c-1.9,5.4-1.7,12.5-0.1,18c1.1,2.1,1.1,2.1,3.1,4c5.4,1.1,10.8,1.2,16.4,1.2c1.2,0,1.2,0,2.4,0c5.5,0,11.1-0.1,16.2-2.2
	c2.5-3.5,2.3-7.3,2.2-11.5c0-1.1,0-2.2,0-3.3c-0.3-3.2-0.8-5.3-2.3-8.2c-4.9-3.2-10.6-2.4-16.3-2.4c-2.2,0-4.3,0-6.5-0.1
	c-1.4,0-2.8,0-4.2,0c-1.3,0-2.5,0-3.8,0C81.4,281.7,80.3,282.6,78,285.6z"/>
<path class="st0" d="M141,267.6c4.8-0.2,9.5-0.5,14.4-0.8c1.5-0.1,3-0.2,4.5-0.3c9.5-0.2,9.5-0.2,13.8,3.4c2.3,3.1,4.3,6.3,6.3,9.6
	c1.2,1.8,2.5,3.5,3.8,5.3c1.2,1.7,2.3,3.3,3.5,5c1.2,1.7,2.3,3.4,3.5,5.1c0.5,0.7,1,1.4,1.5,2.2c2.2,3.2,4.5,6.3,6.7,9.4
	c0-12.9,0-25.7,0-39c5.9,0,11.9,0,18,0c0,18.1,0,36.3,0,55c-26.3,2.3-26.3,2.3-32.6-1.6c-4.4-4.5-7.1-9.9-9.9-15.4
	c-2.7-5-6.1-9.5-9.4-14.2c-2-2.9-4-5.8-6.1-8.8c0,13.2,0,26.4,0,40c-5.9,0-11.9,0-18,0C141,304.4,141,286.3,141,267.6z"/>
<path class="st0" d="M591.8,266.4c1.3,0,1.3,0,2.6,0c1.8,0,3.6,0,5.5,0c2.8,0,5.5,0,8.3-0.1c1.8,0,3.6,0,5.3,0c0.8,0,1.6,0,2.5,0
	c6.3,0,13.3,0.7,18,5.3c2.4,5,2,7.9,2,14.1c-5.6,0-11.2,0-17,0c-0.3-1.6-0.7-3.3-1-5c-4.1,0-8.2,0-12.2-0.1c-1.2,0-2.3,0-3.5,0
	c-1.1,0-2.2,0-3.4,0c-1,0-2.1,0-3.1,0c-2.4,0.1-4.4,0.4-6.7,1.1c0,1.3,0,2.6,0,4c3.6,0.8,6.9,1.2,10.5,1.2c1.1,0,2.1,0.1,3.2,0.1
	c2.2,0.1,4.4,0.1,6.6,0.2c18.3,0.6,18.3,0.6,24.8,4.2c4.1,5,4.3,10.3,4.1,16.5c-0.4,4.7-1.4,9.1-5,12.4c-7.9,4.7-19.8,3.7-28.7,3.6
	c-1.8,0-1.8,0-3.6,0c-22.8-0.3-22.8-0.3-29-6.2c-2-5.1-2-8.3-2-14c5.6,0,11.2,0,17,0c0.3,1.7,0.7,3.3,1,5c10.2,0,20.5,0,31,0
	c0.3-1.6,0.7-3.3,1-5c-3.1-1.6-6.5-1.3-10-1.4c-1.6-0.1-3.3-0.1-4.9-0.2c-2.6-0.1-5.2-0.2-7.8-0.3c-2.5-0.1-5-0.2-7.5-0.3
	c-0.8,0-1.5,0-2.3-0.1c-5.5-0.3-9.9-1.6-14.5-4.7c-3.7-5.8-2.9-14.9-1.5-21.4c1.1-3,2.4-4.6,4.9-6.5
	C581.5,266.5,586.3,266.4,591.8,266.4z"/>
<path class="st0" d="M1030,267.6c20.1,0,40.3,0,61,0c0,4.3,0,8.6,0,13c-14.5,0-29,0-44,0c0,2.3,0,4.6,0,7c13.9,0,27.7,0,42,0
	c0,4.3,0,8.6,0,13c-13.9,0-27.7,0-42,0c0,2.6,0,5.3,0,8c14.5,0,29,0,44,0c0,4.6,0,9.2,0,14c-20.1,0-40.3,0-61,0
	C1030,304.4,1030,286.3,1030,267.6z"/>
<path class="st0" d="M989.4,266.3c2.7,0,5.4,0,8.2,0c1.8,0,3.5,0,5.3,0c1.2,0,1.2,0,2.4,0c6.6,0.1,12.4,1.1,17.2,5.8
	c2.2,5.3,1.8,9.8,1.5,15.6c-5.6,0-11.2,0-17,0c-0.7-1.6-1.3-3.3-2-5c-9.4-1.3-19.7-2.3-29,0c-2.1,3.1-2.2,3.8-2.2,7.4
	c0,1.3,0,1.3,0,2.5c0,0.9,0,1.7,0,2.6c0,0.9,0,1.8,0,2.7c-0.1,4.5-0.1,4.5,1.2,8.8c5.2,1.7,10.6,1.2,16,1.2c1.2,0,2.4,0,3.6,0.1
	c1.1,0,2.3,0,3.5,0c1.1,0,2.1,0,3.2,0c2.7-0.1,2.7-0.1,4.5-1.6c1.5-2,1.5-2,2.2-5.7c5.6,0,11.2,0,17,0c0.7,14.2,0.7,14.2-2.1,17.8
	c-13.3,10.4-40.8,5.9-56.7,4.2c-4.1-1.2-6.2-2.8-9.2-5.9c-2.4-6.7-2.3-12.9-2.3-19.9c0-2,0-4,0-6.1c0-7,0-12.8,3.4-19
	C966.1,264.5,979.3,266.2,989.4,266.3z"/>
<path class="st0" d="M403.4,266.3c2.7,0,5.4,0,8.2,0c1.8,0,3.5,0,5.3,0c1.2,0,1.2,0,2.4,0c6.6,0.1,12.4,1.1,17.2,5.8
	c2.2,5.3,1.8,9.8,1.5,15.6c-5.6,0-11.2,0-17,0c-0.7-1.6-1.3-3.3-2-5c-9.4-1.3-19.7-2.3-29,0c-2.1,3.1-2.2,3.8-2.2,7.4
	c0,1.3,0,1.3,0,2.5c0,0.9,0,1.7,0,2.6c0,0.9,0,1.8,0,2.7c-0.1,4.5-0.1,4.5,1.2,8.8c5.2,1.7,10.6,1.2,16,1.2c1.2,0,2.4,0,3.6,0.1
	c1.1,0,2.3,0,3.5,0c1.1,0,2.1,0,3.2,0c2.7-0.1,2.7-0.1,4.5-1.6c1.5-2,1.5-2,2.2-5.7c5.6,0,11.2,0,17,0c0.7,14.2,0.7,14.2-2.1,17.8
	c-13.3,10.4-40.8,5.9-56.7,4.2c-4.1-1.2-6.2-2.8-9.2-5.9c-3.1-6.6-2.3-14.2-2.3-21.4c0-1.3,0-2.6,0-3.9c0-14.1,0-14.1,3.4-19.8
	C380,264.4,393.3,266.3,403.4,266.3z"/>
<path class="st0" d="M224,267.6c9-0.1,17.9-0.1,27.1-0.2c2.8,0,5.6-0.1,8.5-0.1c2.2,0,4.5,0,6.7,0c1.2,0,2.3,0,3.5,0
	c10.3,0,10.3,0,15.1,3.3c5.2,5.3,5.2,10.2,5.2,17.4c0,1.3,0,2.5,0,3.8c-0.3,5.1-1.2,9.3-4.1,13.6c-8.5,5.9-21,4.4-30.9,4.3
	c-1.4,0-2.8,0-4.2,0c-3.4,0-6.7-0.1-10.1-0.1c0,4.3,0,8.6,0,13c-5.6,0-11.2,0-17,0C224,304.4,224,286.3,224,267.6z M241,281.6
	c0,4.3,0,8.6,0,13c4.1,0,8.2,0.1,12.3,0.1c1.4,0,2.8,0,4.2,0c2,0,4,0,6,0c1.2,0,2.4,0,3.6,0c3,0.1,3,0.1,4.9-2.2
	c0.4-2.1,0.4-2.1,0.3-4.5c0-0.8,0-1.6,0.1-2.4c-0.1-0.7-0.2-1.4-0.4-2.1c-3.6-2.4-5.2-2.2-9.4-2.2c-1.3,0-2.5,0-3.8,0
	c-1.3,0-2.6,0-4,0.1c-1.3,0-2.7,0-4,0C247.5,281.5,244.3,281.6,241,281.6z"/>
<path class="st0" d="M324.1,266.7c1.2,0.1,2.5,0.2,3.8,0.3c1.3,0,2.5,0.1,3.8,0.1c3.1,0.1,6.2,0.3,9.3,0.5
	c6,10.5,11.8,21.2,17.3,31.9c1.2,2.4,2.4,4.7,3.6,7c0.8,1.5,1.6,3,2.3,4.5c0.5,1,0.5,1,1.1,2.1c1.6,3.2,2.8,5.9,3.6,9.4
	c-6.6,0-13.2,0-20,0c-1.3-2.6-2.6-5.3-4-8c-11.5,0-23.1,0-35,0c-1.3,2.6-2.6,5.3-4,8c-6.9,0-13.9,0-21,0c4.8-9.7,9.7-19.3,14.6-28.9
	c0.7-1.3,1.3-2.5,2-3.8c1.5-3,3.1-6,4.7-9c1.7-3.2,1.7-3.2,3-6.4C312.7,267.2,316.2,266.5,324.1,266.7z M326,280.6
	c-1.5,3-3,5.9-4.5,8.9c-0.4,0.8-0.9,1.7-1.3,2.6c-0.6,1.2-0.6,1.2-1.2,2.4c-0.4,0.7-0.8,1.5-1.1,2.3c-1,1.8-1,1.8-0.8,3.9
	c6.9,0,13.9,0,21,0c-1.6-5-1.6-5-3.7-9.6c-0.5-0.9-0.5-0.9-0.9-1.9c-0.3-0.6-0.6-1.2-1-1.9c-0.3-0.6-0.6-1.3-1-1.9
	c-0.8-1.6-1.6-3.1-2.4-4.7C328,280.6,327,280.6,326,280.6z"/>
<path class="st0" d="M642,267.6c5.9,0,11.9,0,18,0c0,2.6,0.1,5.1,0.1,7.8c0,2.5,0.1,5,0.1,7.4c0,1.7,0.1,3.5,0.1,5.2
	c0,2.5,0.1,5,0.1,7.4c0,0.8,0,1.5,0,2.3c0.1,4.1,0.1,4.1,1.8,7.8c7,4.4,20.2,2.7,28,1.2c1.8-0.6,1.8-0.6,3.7-1.2
	c1.2-3.7,1.2-7.1,1.3-10.9c0-0.8,0-1.5,0.1-2.3c0.1-2.5,0.1-4.9,0.2-7.4c0-1.7,0.1-3.3,0.1-5c0.1-4.1,0.2-8.2,0.3-12.3
	c5.9,0,11.9,0,18,0c0,4,0,8,0.1,12c0,2,0,4,0,6.1c0.1,24.8,0.1,24.8-4.1,31.9c-9.7,9.2-28.8,6.4-41.1,6.1
	c-16.7-0.6-16.7-0.6-22.2-4.7c-5.3-5.9-5-14.3-4.9-21.8c0-0.9,0-1.7,0-2.6c0-2.7,0-5.4,0.1-8.1c0-1.8,0-3.7,0-5.5
	C641.9,276.5,642,272.1,642,267.6z"/>
<path class="st0" d="M0,267.6c6.3,0,12.5,0,19,0c0,13.2,0,26.4,0,40c12.5,0,25.1,0,38,0c0,5,0,9.9,0,15c-18.8,0-37.6,0-57,0
	C0,304.4,0,286.3,0,267.6z"/>
<path class="st0" d="M464,267.6c6.3,0,12.5,0,19,0c0,18.1,0,36.3,0,55c-6.3,0-12.5,0-19,0C464,304.4,464,286.3,464,267.6z"/>
<path class="st1" d="M832,355.6c8,0,8,0,10.7,2c0.8,0.9,1.5,1.8,2.3,2.8c0.8,1,1.7,2,2.5,3c0.8,1.1,1.7,2.1,2.5,3.2
	c0.9,1.1,1.8,2.1,2.6,3.2c2.1,2.6,4.3,5.2,6.4,7.8c0.3-7.3,0.7-14.5,1-22c2.6,0,5.3,0,8,0c0,12.2,0,24.4,0,37c-8,0-8,0-10-1.3
	c-0.5-0.6-0.9-1.2-1.4-1.8c-0.8-1-0.8-1-1.6-2c-0.5-0.7-1.1-1.4-1.6-2.1c-0.5-0.7-1.1-1.3-1.6-2c-1-1.3-2-2.5-3-3.8
	c-2.2-2.7-4.4-5.4-6.6-8.1c-0.3,6.9-0.7,13.9-1,21c-3,0-5.9,0-9,0C832,380.4,832,368.2,832,355.6z"/>
<path class="st2" d="M324,355.6c4.9-0.1,4.9-0.1,9.9-0.2c1,0,2-0.1,3.1-0.1c6.4-0.1,11.6,0.9,17,4.4c4.1,4.4,5.8,8.3,6.2,14.2
	c-0.4,5.8-1.6,10.7-6.1,14.6c-4.5,3.1-8,4.4-13.4,4.3c-1.3,0-1.3,0-2.7,0c-1.7,0-1.7,0-3.3-0.1c-3.5,0-7.1-0.1-10.7-0.1
	C324,380.4,324,368.2,324,355.6z M333,362.6c0,7.6,0,15.2,0,23c10.2,1,10.2,1,14.6-2.3c2.8-3.2,3.3-4.8,3.6-9.1
	c-0.3-4.9-1.7-7.2-5.3-10.4C342,362,342,362,333,362.6z"/>
<path class="st2" d="M518.5,356.4c4.9,2.8,8.5,6.8,10.5,12.2c0.9,6.2,0.7,11.8-3,17c-4.3,4.7-8.6,7.4-15,8c-7.7,0.3-13.2-1.8-19-7
	c-3.8-4.7-3.5-10.1-3.3-15.9c0.6-5.5,3.4-8.3,7.4-11.9C502.2,354.2,511.3,354,518.5,356.4z M500,365.6c-2.4,3.4-3.3,6-3,10.1
	c0.7,4.2,2.7,6.3,6,8.9c3.2,1.6,6.5,1.6,10,1c3.9-2.4,5.6-4.2,7.6-8.4c0.6-4.6-0.2-6.7-2.6-10.6c-3-2.6-5-3.9-9-4.4
	C505.4,362.7,503.1,363.5,500,365.6z"/>
<path class="st3" d="M252,355.6c19.7,0,19.7,0,24.9,4.7c1.7,3.5,1.1,6.6,0.1,10.3c-1,1.5-1,1.5-2,3c0.6,0.2,1.2,0.5,1.9,0.8
	c2.7,1.6,3.3,2.3,4.1,5.2c0.1,4.2-0.3,7.1-2.9,10.4c-3.3,2.4-6,2.7-10,2.7c-0.8,0-1.7,0-2.6,0c-1.1,0-2.1,0-3.2,0
	c-5.1,0-5.1,0-10.3-0.1C252,380.4,252,368.2,252,355.6z M261,362.6c0,2.6,0,5.3,0,8c3.5-0.5,3.5-0.5,7-1c0.7-2.4,0.7-2.4,1-5
	c-1.9-2.3-1.9-2.3-5.1-2.1C262.9,362.5,262,362.5,261,362.6z M261,377.6c0,2.6,0,5.3,0,8c1.9,0.1,1.9,0.1,3.8,0.1
	c0.7,0,1.4,0,2.1,0.1c2.4-0.1,2.4-0.1,5-2.2c-0.4-3.3-0.4-3.3-2-6c-1.5-0.1-3-0.1-4.6-0.1c-1.2,0-1.2,0-2.5,0
	C262,377.6,262,377.6,261,377.6z"/>
<path class="st4" d="M764,355.6c19.7,0,19.7,0,24.9,4.7c1.7,3.5,1.1,6.6,0.1,10.3c-1,1.5-1,1.5-2,3c0.6,0.2,1.2,0.5,1.9,0.7
	c2.9,1.8,3.3,3.1,4.1,6.3c-0.1,4.1-0.7,5.6-3.4,8.8c-3.4,2.9-4.9,3.3-9.4,3.3c-0.8,0-1.7,0-2.6,0c-1.1,0-2.2,0-3.3,0
	c-3.4,0-6.8,0-10.4-0.1C764,380.4,764,368.2,764,355.6z M773,362.6c0,2.6,0,5.3,0,8c3.5-0.5,3.5-0.5,7-1c0.7-2.4,0.7-2.4,1-5
	c-1.9-2.3-1.9-2.3-5.1-2.1C774.9,362.5,774,362.5,773,362.6z M773,377.6c0,2.6,0,5.3,0,8c1.9,0.1,1.9,0.1,3.8,0.1
	c0.7,0,1.4,0,2.1,0.1c2.4-0.1,2.4-0.1,5-2.2c-0.4-3.3-0.4-3.3-2-6c-1.5-0.1-3-0.1-4.6-0.1c-1.2,0-1.2,0-2.5,0
	C774,377.6,774,377.6,773,377.6z"/>
<path class="st3" d="M641,355.6c18,0,18,0,24,4c1.6,3.4,1.6,3.4,2,7c-1.4,3.4-1.4,3.4-3,6c0.8,0.6,1.7,1.3,2.5,1.9
	c2.9,3.6,3.2,5.4,3,9.9c-0.8,3.4-2.8,5.1-5.5,7.2c-2.5,1.2-4.1,1.1-6.8,1.1c-0.8,0-1.7,0-2.6,0c-1.1,0-2.2,0-3.3,0
	c-3.4,0-6.8,0-10.4-0.1C641,380.4,641,368.2,641,355.6z M649,362.6c0,2.6,0,5.3,0,8c4.8,0.2,4.8,0.2,9-2c-0.4-3.3-0.4-3.3-2-6
	C653.7,362.5,651.3,362.5,649,362.6z M649,377.6c0,2.6,0,5.3,0,8c1.4,0.1,2.9,0.1,4.3,0.2c0.8,0,1.6,0.1,2.4,0.1
	c2.3-0.1,2.3-0.1,4.1-1.7c1.4-1.6,1.4-1.6,1-3.7c-0.7-2.1-0.7-2.1-2.8-2.9c-1.5-0.1-3.1-0.1-4.6-0.1c-0.8,0-1.6,0-2.5,0
	C650.3,377.6,649.6,377.6,649,377.6z"/>
<path class="st4" d="M414,355.6c17,0,17,0,23,3c2.2,2.7,2.9,4.5,3.4,7.9c-0.5,3.8-2.1,6-4.4,9.1c0.4,0.6,0.8,1.3,1.2,1.9
	c3,4.9,5.7,9.7,7.8,15.1c-3.6,0.8-6.5,1-10,0c-2.3-2.9-3.8-5.7-5.3-9.1c-1.7-3.5-1.7-3.5-6.7-5.9c0,5,0,9.9,0,15c-3,0-5.9,0-9,0
	C414,380.4,414,368.2,414,355.6z M423,362.6c0,2.6,0,5.3,0,8c2.9,0.2,2.9,0.2,6,0c0.7-0.7,1.3-1.3,2-2c-0.3-3.3-0.3-3.3-2-6
	C427,362.5,425,362.5,423,362.6z"/>
<path class="st2" d="M602,355.6c3,0,5.9,0,9,0c0,1.2,0,1.2,0,2.3c0.1,3.5,0.1,7,0.2,10.5c0,1.2,0,2.4,0,3.7c0,1.2,0.1,2.3,0.1,3.5
	c0,1.1,0,2.1,0.1,3.3c0.3,2.8,0.3,2.8,2.4,4.6c3.5,1.9,6.7,1.4,10.5,0.6c0.8-0.2,0.8-0.2,1.6-0.5c0.8-3.5,1.2-6.9,1.3-10.5
	c0-1,0.1-2,0.1-3.1c0-1.1,0.1-2.1,0.1-3.2c0-1.1,0.1-2.1,0.1-3.3c0.1-2.6,0.2-5.3,0.3-7.9c2.6,0,5.3,0,8,0c0.1,4.4,0.1,8.7,0.2,13.1
	c0,1.2,0.1,2.5,0.1,3.8c0,1.2,0,2.4,0,3.6c0,1.1,0,2.2,0,3.3c-0.5,4.9-2.2,8.2-5.9,11.5c-6.1,3-11.8,3.4-18.3,1.5
	c-4.4-1.7-7.1-3.7-9.2-8.1c-1-3.1-1.1-5.6-1.1-8.9c0-1.2,0-2.3,0-3.5c0-1.2,0-2.4,0.1-3.6c0-1.2,0-2.4,0-3.7
	C601.9,361.6,602,358.6,602,355.6z"/>
<path class="st2" d="M213,355.6c3,0,5.9,0,9,0c0,1.1,0,1.1,0,2.2c0.1,3.3,0.1,6.7,0.2,10c0,1.2,0,2.3,0,3.5c0,1.1,0.1,2.2,0.1,3.4
	c0,1,0,2.1,0.1,3.1c0.7,3.4,1.8,4.6,4.5,6.7c4.4,0.5,6.3,0.5,10-2c1-3,1.2-5.3,1.3-8.5c0-1.1,0.1-2.1,0.1-3.3c0-1.1,0.1-2.2,0.1-3.4
	c0-1.1,0.1-2.3,0.1-3.4c0.1-2.8,0.2-5.6,0.3-8.4c2.6,0,5.3,0,8,0c0.1,4.5,0.2,9.1,0.2,13.6c0,1.3,0.1,2.6,0.1,3.9
	c0.1,11.8,0.1,11.8-4.4,16.5c-4.3,3.7-9.5,4.1-15,4c-4.9-0.8-8.7-2.2-12-5.9c-2.9-4.4-3.1-7.7-3.1-12.9c0-1.1,0-2.2,0-3.4
	c0-1.2,0-2.3,0-3.5c0-1.2,0-2.3,0-3.6C213,361.4,213,358.5,213,355.6z"/>
<path class="st5" d="M873,355.6c2.6,0,5.3,0,8,0c0.3,4.3,0.7,8.6,1,13c0.7-0.9,1.4-1.9,2.1-2.8c7.4-9.7,7.4-9.7,11.6-11
	c2.5,0.1,2.5,0.1,6.3,0.9c-1.8,5.5-5.4,9.1-9.2,13.4c-2,2.4-2,2.4-1.8,4.7c1.2,2.4,2.7,3.9,4.7,5.7c7.5,7.2,7.5,7.2,10.3,11.2
	c0,0.7,0,1.3,0,2c-9.4,1.2-9.4,1.2-13.1-1.5c-1.8-2.1-3.4-4.2-4.9-6.5c-1.1-1.3-2.3-2.7-3.4-4c-0.8-1-1.7-2-2.6-3
	c-0.3,5-0.7,9.9-1,15c-2.6,0-5.3,0-8,0C873,380.4,873,368.2,873,355.6z"/>
<path class="st2" d="M388,355.6c3,0,5.9,0,9,0c12.1,26,12.1,26,16,37c-3,0-5.9,0-9,0c-1.3-2.6-2.6-5.3-4-8c-4.6,0-9.2,0-14,0
	c-1,2.6-2,5.3-3,8c-3,0-5.9,0-9,0c0.7-4.4,2.2-8.4,3.9-12.5c0.3-0.7,0.6-1.4,0.9-2.1c0.9-2.2,1.8-4.5,2.8-6.7c0.6-1.5,1.2-3,1.9-4.6
	C384.9,363,386.5,359.3,388,355.6z M392,366.6c-0.5,1.3-1,2.5-1.5,3.8c-0.3,0.7-0.6,1.4-0.8,2.1c-0.8,2.2-0.8,2.2-0.7,5
	c2.6,0,5.3,0,8,0c-0.5-1.5-0.9-2.9-1.4-4.4c-0.3-0.8-0.5-1.6-0.8-2.5C394.1,368.4,394.1,368.4,392,366.6z"/>
<path class="st2" d="M808.8,355.5c2.1,0,4.1,0.1,6.2,0.1c4.2,7.9,7.8,16,11.4,24.1c0.5,1,0.9,2.1,1.4,3.1c0.4,1,0.8,1.9,1.3,2.9
	c0.4,0.9,0.8,1.8,1.2,2.7c0.8,2.1,0.8,2.1,0.8,4.1c-3,0-5.9,0-9,0c-3-5.6-3-5.6-3-9c-5,0-9.9,0-15,0c-1,3-2,5.9-3,9c-3,0-5.9,0-9,0
	c2.5-7.8,5.5-15.4,8.6-23c0.5-1.3,1-2.5,1.5-3.8C806.3,355.6,806.3,355.6,808.8,355.5z M810,367.6c-1,3.3-2,6.6-3,10c3,0,5.9,0,9,0
	c-1.3-3.3-2.6-6.6-4-10C811.3,367.6,810.7,367.6,810,367.6z"/>
<path class="st6" d="M733.4,355.3c1.1,0,2.2,0,3.3,0c3.4,0.3,6.1,1.1,9.3,2.3c0,3,0,5.9,0,9c-1.3-0.5-2.6-1-3.9-1.6
	c-4.9-1.6-9.1-2-14.1-0.4c-3.3,2.4-4.7,4-6,7.9c0,3.9,0.9,5.8,3,9.1c3.4,2.9,6.4,3.5,10.8,3.3c3.9-0.5,7.5-1.9,11.2-3.3
	c0,2.6,0,5.3,0,8c-6.3,3.8-13.1,4.8-20.2,3.3c-5.8-2-10.1-4.5-13.1-10.1c-1.7-5.2-1.7-11.1,0-16.4
	C718,358.4,724.7,355.3,733.4,355.3z"/>
<path class="st4" d="M573,355.6c18,0,18,0,24,3c2.1,3.6,3,6,2.9,10.1c-1.1,3.3-2.5,5.3-4.9,7.9c-3.9,1.9-8.8,1-13,1c0,5,0,9.9,0,15
	c-3,0-5.9,0-9,0C573,380.4,573,368.2,573,355.6z M582,362.6c0,2.6,0,5.3,0,8c3.4,0.2,3.4,0.2,7,0c0.7-0.7,1.3-1.3,2-2
	c-0.2-2.6-0.2-2.6-1-5C587.3,362.2,585,362.5,582,362.6z"/>
<path class="st1" d="M294.9,355.3c1,0,2,0,3.1,0c3,0.3,5.2,1,8,2.3c0,2.6,0,5.3,0,8c-1-0.3-2-0.7-3.1-1c-3.7-1.1-7.1-1.2-10.9-1
	c0,1,0,2,0,3c2.6,1.8,2.6,1.8,5.8,3.4c7.1,3.8,7.1,3.8,9.2,7.6c0.9,4.3,0.5,8-1.4,11.9c-4.4,3.4-9.4,4.4-14.9,3.8
	c-3.4-0.8-5.8-1.8-8.7-3.7c-0.4-2.7-0.1-5.2,0-8c5,2,5,2,7.4,3.1c3,1,5.4,1,8.6,0.9c-0.1-2.4-0.1-2.4-1-5c-2.4-1.7-2.4-1.7-5.3-3
	c-7.6-3.9-7.6-3.9-9.7-8c-0.5-3.9-0.3-6.2,1.2-9.8C286.6,355.7,289.8,355.3,294.9,355.3z"/>
<path class="st1" d="M197.9,355.3c1,0,2,0,3.1,0c3,0.3,5.2,1,8,2.3c0,2.6,0,5.3,0,8c-1.2-0.5-1.2-0.5-2.5-1c-4.1-1.2-7.3-1.1-11.5-1
	c0.1,1.9,0.1,1.9,1,4c2.4,1.7,2.4,1.7,5.4,3c3.8,1.9,6.5,3.2,8.6,7c0.9,4.3,0.5,8-1.4,11.9c-3.9,3.1-7.7,3.8-12.6,4.1
	c-3.6-0.4-6.8-1.4-10-3c0-3,0-5.9,0-9c1,0.4,1,0.4,2.1,0.9c6.4,2.7,6.4,2.7,12.9,2.1c-0.1-1.9-0.1-1.9-1-4c-2.4-1.7-2.4-1.7-5.4-3.1
	c-6.6-3.3-6.6-3.3-8.6-5.9c-1.2-4.2-1.5-7.9,0.2-11.9C189.6,355.7,192.8,355.3,197.9,355.3z"/>
<path class="st3" d="M533,355.6c7.6,0,15.2,0,23,0c0,2.3,0,4.6,0,7c-5,0-9.9,0-15,0c0,2.6,0,5.3,0,8c5,0,9.9,0,15,0c0,2.3,0,4.6,0,7
	c-5,0-9.9,0-15,0c0,5,0,9.9,0,15c-2.6,0-5.3,0-8,0C533,380.4,533,368.2,533,355.6z"/>
<path class="st6" d="M440,355.6c3.5-0.6,6.5-0.9,10,0c3,3,5,6.3,7,10c2.5-2.4,4-4.1,5.6-7.2c2.4-2.8,2.4-2.8,4.9-3.1
	c2.5,0,5,0.1,7.5,0.4c-1.2,3.8-3,6.2-5.7,9.1c-7.7,8.5-7.7,16.8-7.3,27.9c-3,0-5.9,0-9,0c0.1-1.2,0.1-2.4,0.2-3.6
	c0.3-12.4-2.5-19.1-10.6-28.4C440,357.6,440,357.6,440,355.6z"/>
<path class="st3" d="M673,355.6c2.6,0,5.3,0,8,0c0,9.9,0,19.8,0,30c5.6,0,11.2,0,17,0c0,2.3,0,4.6,0,7c-8.2,0-16.5,0-25,0
	C673,380.4,673,368.2,673,355.6z"/>
<path class="st7" d="M832,355.6c8,0,8,0,10.7,2c0.8,0.9,1.5,1.8,2.3,2.8c0.8,1,1.7,2,2.5,3c0.8,1.1,1.7,2.1,2.5,3.2
	c0.9,1.1,1.8,2.1,2.6,3.2c2.1,2.6,4.3,5.2,6.4,7.8c0.3-7.3,0.7-14.5,1-22c2.6,0,5.3,0,8,0c0,12.2,0,24.4,0,37c-8,0-8,0-10-1.3
	c-0.5-0.6-0.9-1.2-1.4-1.8c-0.8-1-0.8-1-1.6-2c-0.5-0.7-1.1-1.4-1.6-2.1c-0.5-0.7-1.1-1.3-1.6-2c-1-1.3-2-2.5-3-3.8
	c-2.2-2.7-4.4-5.4-6.6-8.1c-0.3,6.9-0.7,13.9-1,21c-3,0-5.9,0-9,0C832,380.4,832,368.2,832,355.6z M834,356.6c0,11.6,0,23.1,0,35
	c1.7,0,3.3,0,5,0c0-8.2,0-16.5,0-25c5.6,5.6,5.6,5.6,8.2,8.6c0.6,0.6,1.1,1.3,1.7,1.9c0.6,0.7,1.1,1.3,1.7,2c0.6,0.7,1.1,1.3,1.7,2
	c0.6,0.6,1.1,1.3,1.7,1.9c0.5,0.6,1.1,1.2,1.6,1.9c1.3,1.5,2.4,3.1,3.5,4.7c0.9,1,0.9,1,1.9,2c1.7,0,3.3,0,5,0c0-11.5,0-23.1,0-35
	c-1.7,0-3.3,0-5,0c0,8.2,0,16.5,0,25c-0.7,0-1.3,0-2,0c-0.3-0.6-0.5-1.2-0.8-1.8c-1.2-2.2-2.4-3.8-4-5.7c-0.6-0.6-1.1-1.3-1.7-1.9
	c-0.6-0.7-1.2-1.3-1.8-2c-1.1-1.3-2.3-2.6-3.4-3.9c-0.6-0.6-1.1-1.2-1.7-1.9c-1-1.2-2-2.4-2.9-3.7c-1.4-1.9-1.4-1.9-3.6-4.2
	C837.3,356.6,835.7,356.6,834,356.6z"/>
<path class="st6" d="M700,355.6c3,0,5.9,0,9,0c0,12.2,0,24.4,0,37c-3,0-5.9,0-9,0C700,380.4,700,368.2,700,355.6z"/>
<path class="st4" d="M364,355.6c2.6,0,5.3,0,8,0c0,12.2,0,24.4,0,37c-2.6,0-5.3,0-8,0C364,380.4,364,368.2,364,355.6z"/>
<path class="st4" d="M311,355.6c2.6,0,5.3,0,8,0c0,12.2,0,24.4,0,37c-2.6,0-5.3,0-8,0C311,380.4,311,368.2,311,355.6z"/>
<path class="st8" d="M294.9,355.3c1,0,2,0,3.1,0c3,0.3,5.2,1,8,2.3c0,2.6,0,5.3,0,8c-1-0.3-2-0.7-3.1-1c-3.7-1.1-7.1-1.2-10.9-1
	c0,1,0,2,0,3c2.6,1.8,2.6,1.8,5.8,3.4c7.1,3.8,7.1,3.8,9.2,7.6c0.9,4.3,0.5,8-1.4,11.9c-4.4,3.4-9.4,4.4-14.9,3.8
	c-3.4-0.8-5.8-1.8-8.7-3.7c-0.4-2.7-0.1-5.2,0-8c5,2,5,2,7.4,3.1c3,1,5.4,1,8.6,0.9c-0.1-2.4-0.1-2.4-1-5c-2.4-1.7-2.4-1.7-5.3-3
	c-7.6-3.9-7.6-3.9-9.7-8c-0.5-3.9-0.3-6.2,1.2-9.8C286.6,355.7,289.8,355.3,294.9,355.3z M283.6,361.3c-0.9,3.5-0.5,5.8,0.4,9.2
	c4.3,4.5,9.6,7.2,15,10c0,2,0,4,0,6c-6,0.3-9.6-0.3-15-3c0,2,0,4,0,6c4.8,2.8,9.6,2.5,15,2c3.7-1.6,4.7-2.6,7-6
	c0.5-4.7-0.2-7.2-3-11c-3-2-6.2-3.6-9.4-5.3c-2.6-1.7-2.6-1.7-3.6-3.8c0-0.6,0-1.3,0-1.9c2-2,2-2,4.1-2c0.8,0.1,1.6,0.2,2.4,0.3
	c1.2,0.1,1.2,0.1,2.4,0.3c2.2,0.4,2.2,0.4,5.2,1.4c0-1.6,0-3.3,0-5C297.5,354.9,288.6,355.2,283.6,361.3z"/>
<path class="st7" d="M197.9,355.3c1,0,2,0,3.1,0c3,0.3,5.2,1,8,2.3c0,2.6,0,5.3,0,8c-1.2-0.5-1.2-0.5-2.5-1c-4.1-1.2-7.3-1.1-11.5-1
	c0.1,1.9,0.1,1.9,1,4c2.4,1.7,2.4,1.7,5.4,3c3.8,1.9,6.5,3.2,8.6,7c0.9,4.3,0.5,8-1.4,11.9c-3.9,3.1-7.7,3.8-12.6,4.1
	c-3.6-0.4-6.8-1.4-10-3c0-3,0-5.9,0-9c1,0.4,1,0.4,2.1,0.9c6.4,2.7,6.4,2.7,12.9,2.1c-0.1-1.9-0.1-1.9-1-4c-2.4-1.7-2.4-1.7-5.4-3.1
	c-6.6-3.3-6.6-3.3-8.6-5.9c-1.2-4.2-1.5-7.9,0.2-11.9C189.6,355.7,192.8,355.3,197.9,355.3z M188,359.6c-1.6,3.2-1.4,6.5-1,10
	c2.9,5.8,9.4,8.2,15,11c0,1.6,0,3.3,0,5c-6.1,1.4-9.3,0.5-15-2c0,2,0,4,0,6c4.8,2.6,9.7,2.6,15,2c3.7-1.6,4.8-2.6,7-6
	c0.4-3.8,0.4-6.2-1.3-9.6c-3.4-3.1-7.2-4.9-11.3-6.9c-2.4-1.5-2.4-1.5-3.2-3.7c-0.1-0.6-0.1-1.2-0.2-1.8c3.5-2.4,4.6-2.1,8.7-1.6
	c1.5,0.2,1.5,0.2,3,0.3c0.8,0.1,1.5,0.2,2.3,0.3c0-1.3,0-2.6,0-4C200.3,355.2,194.2,355.6,188,359.6z"/>
<path class="st1" d="M874,356.6c2,0,4,0,6,0c0,11.6,0,23.1,0,35c-2,0-4,0-6,0C874,380,874,368.5,874,356.6z"/>
<path class="st9" d="M264.3,375.3c2.9,0,4.6,0.2,7.2,1.4c2.1,2.7,1.9,4.6,1.4,7.9c-2,2-2,2-4.8,2.2c-1.1,0-2.2,0-3.3-0.1
	c-1.1,0-2.2,0-3.3-0.1c-0.8,0-1.7,0-2.6-0.1c0-1.6,0-3.3-0.1-4.9c0-0.9,0-1.8,0-2.8C259.1,374.9,260.8,375.4,264.3,375.3z
	 M261,377.6c0,2.6,0,5.3,0,8c1.9,0.1,1.9,0.1,3.8,0.1c0.7,0,1.4,0,2.1,0.1c2.4-0.1,2.4-0.1,5-2.2c-0.4-3.3-0.4-3.3-2-6
	c-1.5-0.1-3-0.1-4.6-0.1c-1.2,0-1.2,0-2.5,0C262,377.6,262,377.6,261,377.6z"/>
<path class="st9" d="M775.2,375.4c3.6,0.2,7.1,0.5,9.8,3.2c0.2,2.9,0.2,2.9,0,6c-2,2-2,2-4.8,2.2c-1.1,0-2.2,0-3.3-0.1
	c-1.1,0-2.2,0-3.3-0.1c-0.8,0-1.7,0-2.6-0.1c0-1.6,0-3.3-0.1-4.9c0-0.9,0-1.8,0-2.8C771.1,375.3,771.5,375.6,775.2,375.4z
	 M773,377.6c0,2.6,0,5.3,0,8c1.9,0.1,1.9,0.1,3.8,0.1c0.7,0,1.4,0,2.1,0.1c2.4-0.1,2.4-0.1,5-2.2c-0.4-3.3-0.4-3.3-2-6
	c-1.5-0.1-3-0.1-4.6-0.1c-1.2,0-1.2,0-2.5,0C774,377.6,774,377.6,773,377.6z"/>
<path class="st9" d="M580,361.6c8.6-0.2,8.6-0.2,12,2c0.4,2.9,0.4,2.9,0,6c-1.5,1.9-1.5,1.9-4,3c-2.7,0.2-5.3,0.1-8,0
	C580,369,580,365.3,580,361.6z M582,362.6c0,2.6,0,5.3,0,8c3.4,0.2,3.4,0.2,7,0c0.7-0.7,1.3-1.3,2-2c-0.2-2.6-0.2-2.6-1-5
	C587.3,362.2,585,362.5,582,362.6z"/>
<path class="st9" d="M421,361.6c6.8-0.2,6.8-0.2,9,0c2,2,2,2,2.4,4.9c-0.4,3.1-0.4,3.1-2.6,4.9c-3.2,1.2-5.5,1.4-8.9,1.1
	C421,369,421,365.3,421,361.6z M423,362.6c0,2.6,0,5.3,0,8c2.9,0.2,2.9,0.2,6,0c0.7-0.7,1.3-1.3,2-2c-0.3-3.3-0.3-3.3-2-6
	C427,362.5,425,362.5,423,362.6z"/>
</svg>
