<?xml version="1.0" encoding="utf-8"?>
<!-- Generator: Adobe Illustrator 23.0.2, SVG Export Plug-In . SVG Version: 6.00 Build 0)  -->
<svg version="1.1" id="Layer_1" xmlns="http://www.w3.org/2000/svg" xmlns:xlink="http://www.w3.org/1999/xlink" x="0px" y="0px"
	 viewBox="0 0 434 452.5" style="enable-background:new 0 0 434 452.5;" xml:space="preserve">
<style type="text/css">
	.st0{fill:#1E6C45;}
	.st1{fill:#037F49;}
	.st2{fill:#8DC640;}
	.st3{fill:#68AD45;}
</style>
<g>
	<path class="st0" d="M424.2,387.9c-0.4-0.2-1-0.2-1.8-0.2h-0.8v3.3h1.2c0.7,0,1.3-0.1,1.7-0.4c0.4-0.3,0.6-0.7,0.6-1.4
		C425.1,388.6,424.8,388.2,424.2,387.9 M418.5,397v-11.3h3.3c1.4,0,2.3,0,2.5,0c0.9,0,1.7,0.3,2.3,0.6c1.1,0.6,1.6,1.4,1.6,2.7
		c0,1-0.3,1.7-0.9,2.1c-0.5,0.4-1.2,0.7-2.1,0.8c0.7,0.1,1.3,0.4,1.7,0.7c0.7,0.5,1.1,1.4,1.1,2.5v1l0,0.3l0.1,0.4l0.1,0.3h-3
		c-0.1-0.4-0.2-0.9-0.2-1.5c0-0.7-0.1-1.2-0.2-1.4c-0.2-0.4-0.5-0.7-0.9-0.8c-0.2-0.1-0.6-0.2-1.1-0.2l-0.7,0h-0.7v4L418.5,397
		L418.5,397z M416.9,385.5c-1.7,1.7-2.6,3.6-2.6,5.9c0,2.4,0.9,4.4,2.6,6c1.7,1.7,3.9,2.5,6.3,2.5c2.4,0,4.5-0.9,6.3-2.5
		c1.7-1.7,2.6-3.7,2.6-6c0-2.3-0.8-4.2-2.6-5.9c-1.7-1.7-3.8-2.5-6.3-2.5C420.8,382.9,418.7,383.8,416.9,385.5 M430.8,398.7
		c-2.1,1.9-4.6,2.8-7.6,2.8c-3,0-5.6-1-7.7-2.9c-2.1-2-3.1-4.4-3.1-7.3c0-3,1.1-5.5,3.4-7.4c2.1-1.9,4.6-2.8,7.4-2.8
		c3,0,5.5,1,7.6,3c2.1,2,3.2,4.4,3.2,7.2C434,394.3,432.9,396.7,430.8,398.7"/>
	<polygon class="st1" points="139.7,343.4 130.7,343.4 130.7,338.6 155.1,338.6 155.1,343.4 146.1,343.4 146.1,368.6 139.7,368.6 	
		"/>
	<path class="st1" d="M165.4,364.9c1.9,0,3.3-0.8,4.3-2c1-1.2,1.2-2.8,1.2-4.5h-2.6c-2.7,0-6.7,0.4-6.7,3.8
		C161.6,364.1,163.2,364.9,165.4,364.9 M158.3,347.6c2.4-1,5.5-1.7,8.1-1.7c7.1,0,10.1,2.8,10.1,9.3v2.8c0,2.2,0,3.9,0.1,5.6
		c0,1.6,0.2,3.2,0.3,4.9h-5.3c-0.2-1.2-0.2-2.6-0.3-3.3h-0.1c-1.4,2.4-4.5,3.8-7.2,3.8c-4.1,0-8.1-2.3-8.1-6.5c0-3.3,1.7-5.2,4-6.3
		c2.3-1.1,5.3-1.3,7.8-1.3h3.4c0-3.6-1.7-4.7-5.3-4.7c-2.6,0-5.2,0.9-7.2,2.4L158.3,347.6z"/>
	<polygon class="st1" points="186.2,336.4 192.3,336.4 192.3,355.3 192.4,355.3 199.6,346.5 206.8,346.5 198.1,356.3 207.9,368.6 
		200.2,368.6 192.4,357.8 192.3,357.8 192.3,368.6 186.2,368.6 	"/>
	<path class="st1" d="M223.1,364.9c1.9,0,3.3-0.8,4.3-2c1-1.2,1.3-2.8,1.3-4.5H226c-2.7,0-6.8,0.4-6.8,3.8
		C219.2,364.1,220.9,364.9,223.1,364.9 M216,347.6c2.3-1,5.5-1.7,8.1-1.7c7.1,0,10.1,2.8,10.1,9.3v2.8c0,2.2,0,3.9,0.1,5.6
		c0.1,1.6,0.1,3.2,0.3,4.9h-5.3c-0.2-1.2-0.2-2.6-0.3-3.3h-0.1c-1.4,2.4-4.4,3.8-7.2,3.8c-4.1,0-8.2-2.3-8.2-6.5
		c0-3.3,1.7-5.2,4-6.3c2.3-1.1,5.3-1.3,7.8-1.3h3.4c0-3.6-1.7-4.7-5.3-4.7c-2.6,0-5.2,0.9-7.2,2.4L216,347.6z"/>
	<path class="st1" d="M246,350.7h-4.5v-4.2h4.5v-3.1c0-4.4,2.6-7.5,7.4-7.5c1.5,0,3.3,0.2,4.4,0.4l-0.5,4.8
		c-0.5-0.3-1.3-0.8-2.6-0.8c-2,0-2.7,1.7-2.7,3.4v2.8h5.3v4.2H252v17.9H246L246,350.7L246,350.7z"/>
	<path class="st1" d="M286.4,368.6h-5.8v-3h-0.1c-1.8,2.1-4.5,3.5-7.6,3.5c-5.6,0-8-3.7-8-8.7v-13.9h6.1v11.8c0,2.7,0,6.3,4,6.3
		c4.4,0,5.3-4.5,5.3-7.3v-10.8h6.1V368.6z"/>
	<rect x="296.4" y="336.4" class="st1" width="6.1" height="32.2"/>
	<polygon class="st0" points="139.7,343.4 130.7,343.4 130.7,338.6 155.1,338.6 155.1,343.4 146.1,343.4 146.1,368.6 139.7,368.6 	
		"/>
	<path class="st0" d="M165.4,364.9c1.9,0,3.3-0.8,4.3-2c1-1.2,1.2-2.8,1.2-4.5h-2.6c-2.7,0-6.7,0.4-6.7,3.8
		C161.6,364.1,163.2,364.9,165.4,364.9 M158.3,347.6c2.4-1,5.5-1.7,8.1-1.7c7.1,0,10.1,2.8,10.1,9.3v2.8c0,2.2,0,3.9,0.1,5.6
		c0,1.6,0.2,3.2,0.3,4.9h-5.3c-0.2-1.2-0.2-2.6-0.3-3.3h-0.1c-1.4,2.4-4.5,3.8-7.2,3.8c-4.1,0-8.1-2.3-8.1-6.5c0-3.3,1.7-5.2,4-6.3
		c2.3-1.1,5.3-1.3,7.8-1.3h3.4c0-3.6-1.7-4.7-5.3-4.7c-2.6,0-5.2,0.9-7.2,2.4L158.3,347.6z"/>
	<polygon class="st0" points="186.2,336.4 192.3,336.4 192.3,355.3 192.4,355.3 199.6,346.5 206.8,346.5 198.1,356.3 207.9,368.6 
		200.2,368.6 192.4,357.8 192.3,357.8 192.3,368.6 186.2,368.6 	"/>
	<path class="st0" d="M223.1,364.9c1.9,0,3.3-0.8,4.3-2c1-1.2,1.3-2.8,1.3-4.5H226c-2.7,0-6.8,0.4-6.8,3.8
		C219.2,364.1,220.9,364.9,223.1,364.9 M216,347.6c2.3-1,5.5-1.7,8.1-1.7c7.1,0,10.1,2.8,10.1,9.3v2.8c0,2.2,0,3.9,0.1,5.6
		c0.1,1.6,0.1,3.2,0.3,4.9h-5.3c-0.2-1.2-0.2-2.6-0.3-3.3h-0.1c-1.4,2.4-4.4,3.8-7.2,3.8c-4.1,0-8.2-2.3-8.2-6.5
		c0-3.3,1.7-5.2,4-6.3c2.3-1.1,5.3-1.3,7.8-1.3h3.4c0-3.6-1.7-4.7-5.3-4.7c-2.6,0-5.2,0.9-7.2,2.4L216,347.6z"/>
	<path class="st0" d="M246,350.7h-4.5v-4.2h4.5v-3.1c0-4.4,2.6-7.5,7.4-7.5c1.5,0,3.3,0.2,4.4,0.4l-0.5,4.8
		c-0.5-0.3-1.3-0.8-2.6-0.8c-2,0-2.7,1.7-2.7,3.4v2.8h5.3v4.2H252v17.9H246L246,350.7L246,350.7z"/>
	<path class="st0" d="M286.4,368.6h-5.8v-3h-0.1c-1.8,2.1-4.5,3.5-7.6,3.5c-5.6,0-8-3.7-8-8.7v-13.9h6.1v11.8c0,2.7,0,6.3,4,6.3
		c4.4,0,5.3-4.5,5.3-7.3v-10.8h6.1V368.6z"/>
	<rect x="296.4" y="336.4" class="st0" width="6.1" height="32.2"/>
	<rect x="0.4" y="391.2" class="st1" width="12.7" height="60.2"/>
	<polygon class="st1" points="47.8,391.2 60.6,391.2 60.6,417.1 83.5,391.2 99.2,391.2 73.1,419.6 100.3,451.4 83.7,451.4 
		60.7,423.5 60.6,423.5 60.6,451.4 47.8,451.4 	"/>
	<polygon class="st1" points="129.6,391.2 142.4,391.2 142.4,415.6 167.9,415.6 167.9,391.2 180.6,391.2 180.6,451.4 167.9,451.4 
		167.9,425 142.4,425 142.4,451.4 129.6,451.4 	"/>
	<polygon class="st1" points="216.4,391.2 229.1,391.2 229.1,441.9 253.8,441.9 253.8,451.4 216.4,451.4 	"/>
	<path class="st1" d="M308.2,403.3H308l-9.2,24.8h18.6L308.2,403.3z M301.1,391.2h14.4l25,60.2h-14.1l-5.5-13.8h-25.8l-5.6,13.8
		h-13.2L301.1,391.2z"/>
	<path class="st1" d="M403.9,402.3c-4-1.7-8.5-2.6-12.9-2.6c-4.4,0-10,1.8-10,8.4c0,10.4,27.9,6,27.9,26.2c0,13.2-11,18.2-23.9,18.2
		c-6.9,0-10-0.9-16.3-2.3l1.2-10.9c4.4,2.2,9.4,3.7,14.4,3.7c4.8,0,11.3-2.3,11.3-7.7c0-11.5-27.9-6.8-27.9-26.7
		c0-13.4,11-18.4,22.2-18.4c5.5,0,10.6,0.7,15.2,2.2L403.9,402.3z"/>
	<rect x="0.4" y="391.2" class="st0" width="12.7" height="60.2"/>
	<polygon class="st0" points="47.8,391.2 60.6,391.2 60.6,417.1 83.5,391.2 99.2,391.2 73.1,419.6 100.3,451.4 83.7,451.4 
		60.7,423.5 60.6,423.5 60.6,451.4 47.8,451.4 	"/>
	<polygon class="st0" points="129.6,391.2 142.4,391.2 142.4,415.6 167.9,415.6 167.9,391.2 180.6,391.2 180.6,451.4 167.9,451.4 
		167.9,425 142.4,425 142.4,451.4 129.6,451.4 	"/>
	<polygon class="st0" points="216.4,391.2 229.1,391.2 229.1,441.9 253.8,441.9 253.8,451.4 216.4,451.4 	"/>
	<path class="st0" d="M308.2,403.3H308l-9.2,24.8h18.6L308.2,403.3z M301.1,391.2h14.4l25,60.2h-14.1l-5.5-13.8h-25.8l-5.6,13.8
		h-13.2L301.1,391.2z"/>
	<path class="st0" d="M403.9,402.3c-4-1.7-8.5-2.6-12.9-2.6c-4.4,0-10,1.8-10,8.4c0,10.4,27.9,6,27.9,26.2c0,13.2-11,18.2-23.9,18.2
		c-6.9,0-10-0.9-16.3-2.3l1.2-10.9c4.4,2.2,9.4,3.7,14.4,3.7c4.8,0,11.3-2.3,11.3-7.7c0-11.5-27.9-6.8-27.9-26.7
		c0-13.4,11-18.4,22.2-18.4c5.5,0,10.6,0.7,15.2,2.2L403.9,402.3z"/>
	<path class="st0" d="M219,80l0.8-5.2l-3.9-8.1L231.5,80l3.9,2.2l14.1,8.9l-20.4-22.9v-3l-25-23.7l7,0.7l1.6-3l-7-3.7h9.4l3.1,2.2
		l7.8-0.7h6.3l4.7-0.7l8.6,8.1l3.1,1.5l16.4,11.1l12.5,8.9c0,0,0.8-3.7-7.8-10.4c0,0-3.1,0-9.4-5.9l0.8-2.9l-11.3-8.9l-10.4-4.3
		l-2.4-3.8l1.4-2.8l1.8-1.3l2.9-0.3l2.7,0.5l8.6,8.3l10.7,5.3l4.8,2c0,0,23.5,17.2,29.9,24l2.1,0.5l0.8-1.2c0,0,45.3,49.6,58.1,74.7
		c0,0,2.1,2.6,5.7,9.1c-64.1-158-157-148.5-157-148.5C12.5,19.3,0,367.6,0,367.6h118.9C121.2,153.3,237,103.7,237,103.7
		c1.1-0.6,2.3-1.2,3.4-1.8C233.8,94.2,226.7,86.9,219,80"/>
	<path class="st0" d="M304.6,79.8c-2-5.3-19.7-19.8-19.7-19.8l7.6,9.1L304.6,79.8z"/>
	<path class="st0" d="M232.7,85.5c3.7,3.4,8.1,8.3,12.6,14.1c0.6-0.3,1.2-0.5,1.9-0.8c-9.1-10-16.1-16.7-16.1-16.7L232.7,85.5z"/>
	<path class="st2" d="M413.7,367.6c-11.1-138.3-35.9-198.2-47.1-218.9c0.3,0.8,0.6,1.6,1,2.4c0,0-54.5-78.3-120.4-52.2
		c15.9,17.4,38.5,44.7,41.7,63.1l-3.6-3.1c0,0-21.8-36.2-40-59.3c-1.7,0.7-3.3,1.5-5,2.3c86.7,101.6,77.9,265.7,77.9,265.7
		L413.7,367.6L413.7,367.6z"/>
	<path class="st3" d="M304.6,79.8l-12-10.6l-7.6-9.1C284.9,60,302.6,74.5,304.6,79.8 M232.7,85.5l-1.6-3.4c0,0,7,6.8,16.1,16.7
		c65.9-26.1,120.4,52.2,120.4,52.2c-0.3-0.8-0.6-1.6-0.9-2.4c-3.6-6.5-5.7-9.2-5.7-9.2c-12.8-25.1-58.1-74.7-58.1-74.7l-0.8,1.2
		l-2.1-0.5c-6.4-6.8-29.9-24-29.9-24l-4.8-2l-10.7-5.3l-8.6-8.3l-2.7-0.5l-2.9,0.3l-1.9,1.3l-1.4,2.8l2.4,3.8l10.4,4.3l11.3,8.9
		l-0.8,2.9c6.3,5.9,9.4,5.9,9.4,5.9c8.6,6.6,7.8,10.4,7.8,10.4l-12.5-8.9L248.7,46l-3.1-1.5l-8.6-8.1l-4.7,0.7H226l-7.8,0.7
		l-3.1-2.2h-9.4l7,3.7l-1.6,3l-7-0.7l25,23.7v3l20.4,22.9l-14.1-8.9l-3.9-2.2l-15.6-13.3l3.9,8.1L219,80
		c7.7,6.9,14.8,14.2,21.4,21.9c1.7-0.8,3.3-1.6,5-2.3C240.7,93.8,236.4,88.9,232.7,85.5"/>
</g>
</svg>
