<?xml version="1.0" encoding="UTF-8" standalone="no"?>
<svg
   version="1.1"
   width="9.0175in"
   height="2.8330in"
   viewBox="0 0 649.2620 203.9763"
   id="svg8"
   sodipodi:docname="Boost.cdr"
   xmlns:inkscape="http://www.inkscape.org/namespaces/inkscape"
   xmlns:sodipodi="http://sodipodi.sourceforge.net/DTD/sodipodi-0.dtd"
   xmlns="http://www.w3.org/2000/svg"
   xmlns:svg="http://www.w3.org/2000/svg">
  <defs
     id="defs8" />
  <sodipodi:namedview
     id="namedview8"
     pagecolor="#ffffff"
     bordercolor="#000000"
     borderopacity="0.25"
     inkscape:showpageshadow="2"
     inkscape:pageopacity="0.0"
     inkscape:pagecheckerboard="0"
     inkscape:deskcolor="#d1d1d1"
     inkscape:document-units="in" />
  <g
     id="Layer1000">
    <g
       id="Layer1001">
      <path
         d="  M158.7446,113.6210 C154.3078,104.9641 146.6251,99.5535 135.9124,97.3896 C135.0467,97.1732 134.1811,97.1732 133.3154,97.0651 L132.1253,96.9569 C131.3678,96.8487 130.3940,96.7406 128.7708,96.7406 L127.9045,96.7399 L110.4826,96.7399 L110.4826,79.4261 C110.4826,77.1537 110.3744,75.9635 110.2662,75.0979 L110.1581,73.9077 C110.0499,73.0420 109.9417,72.0682 109.8336,71.3107 C107.6693,60.5980 102.2590,52.8068 93.6021,48.4785 C87.0013,45.1241 80.9414,45.0159 80.8333,45.0159 L79.8594,45.0159 C78.1281,45.0159 76.9376,45.1241 75.4227,45.3404 C47.0717,49.1278 47.3962,76.3968 47.5044,77.4788 L47.5044,127.9048 C47.5044,138.0767 50.3180,146.0843 55.7283,151.7112 C61.3552,157.1218 69.3627,159.8269 79.4264,159.8269 L130.1770,159.8266 C132.9906,159.8266 158.4198,159.0691 162.0991,131.9083 C162.3154,130.1770 162.4236,128.7702 162.4236,126.4977 C162.3154,126.3895 162.2072,120.3299 158.7446,113.6210 Z"
         style="fill-rule: evenodd; fill: #ee3124; "
         id="path1" />
      <path
         d="  M176.2747,155.9310 C167.4015,172.4873 149.3302,178.4387 144.0281,179.8455 C140.8900,180.7112 138.1849,181.0357 133.0988,181.3605 L132.9906,181.3605 L72.2845,181.3605 C72.2845,181.3605 68.1726,181.3605 63.9525,180.2785 C61.0307,179.5210 57.3517,178.3309 54.3218,177.0322 C50.7510,175.4091 46.6387,173.1366 41.0118,167.5097 L40.1461,166.6440 C35.7093,162.0991 31.3811,155.7147 29.2168,150.3044 C28.0266,147.2744 27.5936,145.7595 26.9443,142.8380 C25.9705,138.8342 25.9705,134.5059 25.9705,134.1811 L25.9705,74.2325 C26.2950,69.0386 26.7280,66.2250 27.4854,63.1950 C28.8923,57.8926 34.7355,39.8216 51.4000,30.9484 C60.8144,25.6460 70.4451,22.9408 80.0758,22.9408 C94.9004,22.9408 104.6396,29.4334 104.9641,29.7583 C131.1511,45.5571 131.9086,71.6356 131.9086,75.3148 C135.6961,75.2067 161.6664,75.9642 177.5734,102.4757 C177.6812,102.4753 193.3718,125.5239 176.2747,155.9310 Z Z M173.4611,0.0001 L30.6236,0.0001 C13.7428,0.0001 0.0001,13.7428 0.0001,30.6236 L0.0001,173.3529 C0.0001,190.2337 13.7428,203.9764 30.6236,203.9764 L173.3529,203.9764 C190.2337,203.9764 203.9764,190.2337 203.9764,173.3529 L203.9764,30.7318 C204.0845,13.7428 190.3419,0.0001 173.4611,0.0001 Z"
         style="fill-rule: evenodd; fill: #ee3124; "
         id="path2" />
    </g>
    <path
       d="  M625.1310,49.6687 L618.5299,49.6687 L618.5299,66.8740 L614.5261,66.8740 L614.5261,49.6687 L607.9254,49.6687 L607.9254,46.0976 L625.1310,46.0976 L625.1310,49.6687 Z"
       style="fill-rule: evenodd; fill: #ee3124; "
       id="path3" />
    <path
       d="  M645.2581,66.8740 L645.2581,53.1313 L639.8475,63.3032 L637.6832,63.3032 L632.3811,53.1313 L632.3811,66.8740 L628.3773,66.8740 L628.3773,46.0976 L632.7056,46.0976 L638.7655,57.8926 L644.9332,46.0976 L649.2619,46.0976 L649.2619,66.8740 L645.2581,66.8740 Z"
       style="fill-rule: evenodd; fill: #ee3124; "
       id="path4" />
    <g
       id="Layer1002">
      <path
         d="  M268.1450,97.3892 C264.0331,97.3892 260.2456,98.2549 256.5667,100.0944 C252.8874,101.9339 249.7493,104.3145 247.0441,107.3444 C244.3390,110.3744 242.1747,114.0534 240.5516,118.1653 C238.9284,122.2773 238.1709,126.8222 238.1709,131.4753 C238.1709,136.3447 238.9284,140.8897 240.4434,144.8935 C241.9584,149.0054 244.1227,152.5765 246.7196,155.4980 C249.4248,158.5280 252.5629,160.9086 256.2422,162.5317 C259.8130,164.2631 263.8168,165.1287 268.0372,165.1287 C272.2573,165.1287 276.1529,164.2631 279.8322,162.5317 C283.4030,160.8004 286.6496,158.4198 289.3548,155.3898 C292.0599,152.3599 294.1160,148.6809 295.6310,144.6771 C297.1460,140.5652 297.9035,136.0202 297.9035,131.2590 C297.9035,126.4977 297.1460,122.0613 295.6310,117.9490 C294.1160,113.8370 291.9517,110.1577 289.3548,107.1281 C286.6496,104.0982 283.5115,101.6094 279.8322,99.9862 C276.2608,98.2549 272.2570,97.3892 268.1450,97.3892 Z Z M268.1450,184.4986 C260.0293,184.4986 252.6711,183.0918 246.2867,180.1703 C239.7941,177.3567 234.2753,173.3529 229.7304,168.5920 C225.1854,163.7226 221.6146,158.0956 219.1258,151.6030 C216.6370,145.1105 215.4466,138.2930 215.4466,131.2596 C215.4466,124.2259 216.6367,117.4088 219.1258,110.9162 C221.6146,104.4236 225.1858,98.6885 229.8385,93.9273 C234.4916,89.0578 240.1186,85.1622 246.5030,82.3489 C252.9956,79.5353 260.2456,78.0206 268.2532,78.0206 C276.1526,78.0206 283.5109,79.5356 290.0034,82.3489 C296.4960,85.1625 302.1230,89.1663 306.6679,93.9273 C311.3210,98.7967 314.8918,104.4236 317.3806,110.9162 C319.8694,117.4088 321.1680,124.2262 321.1680,131.2596 C321.1680,138.2934 319.8694,145.1105 317.3806,151.6030 C314.8918,158.0956 311.3207,163.8307 306.6679,168.5920 C302.0148,173.4614 296.3879,177.3570 290.0034,180.1703 C283.4027,183.0918 276.0444,184.4986 268.1450,184.4986 Z"
         style="fill-rule: evenodd; fill: #ee3124; "
         id="path5" />
      <path
         d="  M384.7959,97.3892 C380.6839,97.3892 376.8965,98.2549 373.2175,100.0944 C369.5383,101.9339 366.4001,104.3145 363.6950,107.3444 C360.9899,110.3744 358.8256,114.0534 357.2024,118.1653 C355.5793,122.2773 354.8218,126.8222 354.8218,131.4753 C354.8218,136.3447 355.5793,140.8897 357.0942,144.8935 C358.6092,149.0054 360.7735,152.5765 363.3705,155.4980 C366.0756,158.5280 369.2138,160.9086 372.8930,162.5317 C376.4638,164.2631 380.4676,165.1287 384.6881,165.1287 C388.9082,165.1287 392.8038,164.2631 396.4831,162.5317 C400.0539,160.8004 403.3005,158.4198 406.0056,155.3898 C408.7107,152.3599 410.8751,148.6809 412.3900,144.6771 C413.9050,140.5652 414.6625,136.0202 414.6625,131.2590 C414.6625,126.4977 413.9050,122.0613 412.3900,117.9490 C410.8751,113.8370 408.7107,110.1577 406.0056,107.1281 C403.3005,104.0982 400.1624,101.6094 396.4831,99.9862 C392.9116,98.2549 389.0160,97.3892 384.7959,97.3892 Z Z M384.7959,184.4986 C376.6802,184.4986 369.3219,183.0918 362.9375,180.1703 C356.4449,177.3567 350.9262,173.3529 346.3812,168.5920 C341.8363,163.7226 338.2655,158.0956 335.7767,151.6030 C333.2879,145.1105 332.0974,138.2930 332.0974,131.2596 C332.0974,124.2259 333.2876,117.4088 335.7767,110.9162 C338.2655,104.4236 341.8366,98.6885 346.4894,93.9273 C351.1425,89.0578 356.7694,85.1622 363.1538,82.3489 C369.6464,79.5353 376.8965,78.0206 384.9041,78.0206 C392.8035,78.0206 400.1617,79.5356 406.6543,82.3489 C413.1469,85.1625 418.7738,89.1663 423.3187,93.9273 C427.9718,98.7967 431.5426,104.4236 434.0314,110.9162 C436.5202,117.4088 437.8189,124.2262 437.8189,131.2596 C437.8189,138.2934 436.5202,145.1105 434.0314,151.6030 C431.5426,158.0956 427.9715,163.8307 423.3187,168.5920 C418.6656,173.4614 413.0387,177.3570 406.6543,180.1703 C400.0535,183.0918 392.6953,184.4986 384.7959,184.4986 Z"
         style="fill-rule: evenodd; fill: #ee3124; "
         id="path6" />
      <path
         d="  M492.3569,184.4986 C488.2449,184.4986 483.9163,184.1741 479.6962,183.5248 C475.4761,182.8755 471.2556,181.9017 467.1437,180.7112 C463.0317,179.5210 459.1361,178.0060 455.3487,176.1662 C451.6694,174.4349 448.3149,172.3788 445.3935,170.2148 L445.0690,169.8903 L454.4833,154.7408 L454.9163,155.0653 C467.2522,163.6141 479.5883,168.0505 491.8160,168.0505 C498.2004,168.0505 503.2862,166.8604 506.9655,164.4797 C510.6448,162.0991 512.3761,158.7446 512.3761,154.4160 C512.3761,150.3041 510.4285,147.3823 506.3162,145.4346 C502.0961,143.4870 495.3868,141.3227 486.2973,139.1584 C479.9128,137.6434 474.3941,136.0202 469.8491,134.3971 C465.3042,132.7740 461.5171,130.9345 458.5953,128.8783 C455.6735,126.8222 453.5095,124.3334 452.2109,121.5201 C450.9122,118.7065 450.2632,115.2438 450.2632,111.3482 C450.2632,106.1543 451.3452,101.3930 453.4013,97.2807 C455.4575,93.1688 458.3790,89.7062 461.9501,86.8925 C465.5209,84.0789 469.8495,81.9149 474.7189,80.5081 C479.5883,79.1013 484.8908,78.3438 490.5177,78.3438 C497.8759,78.3438 505.2342,79.5340 512.0516,81.9146 C518.9772,84.2952 525.2531,87.4334 530.6637,91.5453 L531.0967,91.8698 L521.3578,105.7206 L520.9248,105.3961 C511.2941,98.2542 500.9059,94.5753 490.0850,94.5753 C484.7826,94.5753 480.2380,95.6573 476.5587,97.9297 C472.8794,100.0940 471.1481,103.5567 471.1481,108.3179 C471.1481,110.2656 471.4726,111.9972 472.2301,113.2955 C472.9876,114.5942 474.1778,115.7844 475.8009,116.7582 C477.5322,117.7320 479.8047,118.7058 482.6183,119.5718 C485.4319,120.4375 489.0027,121.3031 493.1147,122.3854 C500.0403,124.1167 506.2080,125.7399 511.2941,127.4712 C516.3799,129.2025 520.6003,131.1505 523.9548,133.4226 C527.3092,135.6951 529.7980,138.5084 531.4212,141.6465 C533.0443,144.7846 533.8018,148.4639 533.8018,152.9004 C533.8018,157.7698 532.8280,162.2066 530.8800,166.1019 C528.9324,169.9975 526.1188,173.4601 522.4395,176.1656 C518.8687,178.8707 514.4319,181.0350 509.2380,182.5500 C504.3682,183.7411 498.6331,184.4986 492.3569,184.4986 Z"
         style="fill-rule: evenodd; fill: #ee3124; "
         id="path7" />
      <path
         d="  M581.0894,184.1741 C577.7349,184.1741 574.4886,183.7411 571.4587,182.7673 C568.5369,181.9017 565.8318,180.4948 563.5593,178.5472 C561.2868,176.7077 559.3392,174.2189 558.0405,171.2971 C556.7419,168.3753 556.0929,164.6964 556.0929,160.4763 L556.0929,97.2814 L542.4581,97.2811 L542.4581,79.7510 L556.0925,79.7510 L556.0925,46.3139 L578.4921,46.3142 L578.4921,79.7513 L600.6753,79.7510 L600.6753,97.2811 L578.4921,97.2811 L578.4921,153.6585 C578.4921,157.1211 579.4659,159.6100 581.4139,161.1249 C583.3615,162.6399 585.8507,163.5056 588.6640,163.5056 C591.5858,163.5056 594.3991,162.9644 597.1045,161.9906 C599.8097,161.0168 601.8658,160.1511 603.0559,159.5018 L603.5971,159.2855 L608.5747,177.1401 L608.1417,177.3564 C605.3281,178.6550 601.4328,180.1700 596.6715,181.7932 C591.9103,183.3081 586.7163,184.1741 581.0894,184.1741 Z"
         style="fill-rule: evenodd; fill: #ee3124; "
         id="path8" />
    </g>
  </g>
</svg>
